G04*
G04 #@! TF.GenerationSoftware,Altium Limited,Altium Designer,23.9.2 (47)*
G04*
G04 Layer_Physical_Order=4*
G04 Layer_Color=16711680*
%FSLAX44Y44*%
%MOMM*%
G71*
G04*
G04 #@! TF.SameCoordinates,250A9CB9-7403-4FF4-BB43-A60BEB693519*
G04*
G04*
G04 #@! TF.FilePolarity,Positive*
G04*
G01*
G75*
%ADD11C,0.2000*%
%ADD15C,0.2540*%
%ADD30R,0.5153X0.4725*%
%ADD32R,0.5200X0.5200*%
%ADD39R,0.4541X0.3627*%
%ADD40R,0.6631X0.5955*%
%ADD46R,0.7581X0.8121*%
%ADD63R,1.3500X1.3500*%
%ADD64C,1.3500*%
%ADD73C,0.3500*%
%ADD87C,0.3677*%
%ADD88C,0.6000*%
%ADD89C,0.5000*%
%ADD90C,0.4000*%
%ADD91C,1.0000*%
%ADD92O,1.0000X1.8000*%
%ADD93C,0.6500*%
%ADD94O,1.0000X2.1000*%
%ADD95C,0.8000*%
%ADD97R,0.6281X0.6062*%
%ADD98R,0.5200X0.5200*%
G36*
X398780Y2540D02*
X199367D01*
X198841Y3810D01*
X199819Y4788D01*
X200580Y6625D01*
Y8615D01*
X200347Y9176D01*
X200946Y10072D01*
X201179Y11242D01*
Y51305D01*
X201935Y52061D01*
X202620Y53715D01*
Y54784D01*
X215897Y68061D01*
X278130D01*
X278130Y68061D01*
X279300Y68294D01*
X280293Y68957D01*
X293993Y82657D01*
X295205Y82135D01*
X295180Y81945D01*
Y70945D01*
X295420Y69117D01*
X296126Y67415D01*
X297248Y65952D01*
X298710Y64830D01*
X300413Y64125D01*
X302240Y63885D01*
X304067Y64125D01*
X305770Y64830D01*
X307233Y65952D01*
X308355Y67415D01*
X309060Y69117D01*
X309301Y70945D01*
Y81945D01*
X309060Y83772D01*
X308355Y85475D01*
X307233Y86937D01*
X305770Y88059D01*
X304067Y88765D01*
X302240Y89005D01*
X300413Y88765D01*
X298710Y88059D01*
X297248Y86937D01*
X296429Y85870D01*
X295159Y86301D01*
Y100835D01*
X295915Y101591D01*
X296600Y103245D01*
Y105035D01*
X295915Y106689D01*
X294649Y107955D01*
X292995Y108640D01*
X291205D01*
X289551Y107955D01*
X288285Y106689D01*
X287600Y105035D01*
Y103245D01*
X288285Y101591D01*
X289041Y100835D01*
Y86357D01*
X285384Y82700D01*
X284308Y83419D01*
X284670Y84294D01*
Y85886D01*
X284061Y87356D01*
X282936Y88481D01*
X281466Y89090D01*
X279874D01*
X278404Y88481D01*
X277279Y87356D01*
X276670Y85886D01*
Y85416D01*
X273053Y81799D01*
X186479D01*
X185953Y83069D01*
X186695Y83811D01*
X187380Y85465D01*
Y87255D01*
X186695Y88909D01*
X185429Y90175D01*
X183775Y90860D01*
X182706D01*
X180867Y92699D01*
X179874Y93362D01*
X178704Y93595D01*
X178704Y93595D01*
X172253D01*
Y94899D01*
X170812D01*
Y96192D01*
X172082Y96791D01*
X173194Y96330D01*
X174786D01*
X176256Y96939D01*
X176588Y97271D01*
X270510D01*
X270510Y97271D01*
X271681Y97504D01*
X272673Y98167D01*
X281766Y107260D01*
X282835D01*
X284489Y107945D01*
X285755Y109211D01*
X286440Y110865D01*
Y112655D01*
X285755Y114309D01*
X284489Y115575D01*
X282835Y116260D01*
X281045D01*
X279391Y115575D01*
X278125Y114309D01*
X277440Y112655D01*
Y111586D01*
X269243Y103389D01*
X176588D01*
X176256Y103721D01*
X174786Y104330D01*
X173194D01*
X172430Y104841D01*
Y111280D01*
X170909D01*
Y119429D01*
X174130D01*
Y128595D01*
X196411D01*
X196411Y128595D01*
X197582Y128828D01*
X198574Y129491D01*
X199973Y130890D01*
X201655D01*
X203492Y131651D01*
X204899Y133058D01*
X205660Y134895D01*
Y136885D01*
X204899Y138722D01*
X203492Y140129D01*
X201655Y140890D01*
X200324D01*
X200071Y142160D01*
X200249Y142233D01*
X201937Y143921D01*
X202850Y146126D01*
Y148513D01*
X201937Y150719D01*
X200249Y152407D01*
X198043Y153320D01*
X195657D01*
X193451Y152407D01*
X191763Y150719D01*
X190850Y148513D01*
Y146126D01*
X191763Y143921D01*
X193451Y142233D01*
X195657Y141320D01*
X197385D01*
X197715Y140430D01*
X197749Y140050D01*
X196421Y138722D01*
X195660Y136885D01*
Y135228D01*
X195144Y134712D01*
X170257D01*
X169332Y135637D01*
X169818Y136810D01*
X170180D01*
Y141713D01*
Y146615D01*
X166333D01*
Y146075D01*
X163079D01*
Y158753D01*
X164156Y159830D01*
X164626D01*
X166096Y160439D01*
X166428Y160771D01*
X184738D01*
X185224Y159598D01*
X172720Y147094D01*
Y142983D01*
X177260D01*
X191049Y156771D01*
X203010D01*
X203010Y156771D01*
X204181Y157004D01*
X205173Y157667D01*
X215695Y168190D01*
X217170Y167794D01*
Y173990D01*
X210974D01*
X211369Y172515D01*
X201743Y162889D01*
X196814D01*
X196328Y164062D01*
X209976Y177710D01*
X211114Y177052D01*
X210974Y176530D01*
X217170D01*
Y182726D01*
X216647Y182586D01*
X215990Y183724D01*
X224787Y192521D01*
X310385D01*
X311141Y191765D01*
X312795Y191080D01*
X314585D01*
X316239Y191765D01*
X317505Y193031D01*
X318190Y194685D01*
Y196475D01*
X317505Y198129D01*
X316239Y199395D01*
X314585Y200080D01*
X312795D01*
X311141Y199395D01*
X310385Y198639D01*
X223520D01*
X223520Y198639D01*
X222349Y198406D01*
X221357Y197743D01*
X190503Y166889D01*
X166428D01*
X166096Y167221D01*
X164626Y167830D01*
X163034D01*
X161564Y167221D01*
X160439Y166096D01*
X159830Y164626D01*
Y164156D01*
X157857Y162183D01*
X157194Y161190D01*
X156961Y160020D01*
X156961Y160020D01*
Y148662D01*
X155920Y148110D01*
X152287D01*
X151883Y148715D01*
X149326Y151273D01*
X148333Y151936D01*
X147163Y152169D01*
X147163Y152169D01*
X128427D01*
X127257Y151936D01*
X126264Y151273D01*
X126264Y151273D01*
X121167Y146175D01*
X120879Y146147D01*
X117741Y149284D01*
Y150256D01*
X118300Y151604D01*
Y153196D01*
X117691Y154666D01*
X116566Y155791D01*
X115096Y156400D01*
X113504D01*
X112034Y155791D01*
X110909Y154666D01*
X110300Y153196D01*
Y151604D01*
X110909Y150134D01*
X111624Y149419D01*
Y148018D01*
X111624Y148017D01*
X111857Y146847D01*
X112520Y145854D01*
X117130Y141244D01*
Y136370D01*
X120400D01*
X120504Y135850D01*
X121167Y134857D01*
X123941Y132083D01*
Y127292D01*
X123941Y127292D01*
X123556Y126822D01*
X118073D01*
Y123190D01*
X123190D01*
Y120650D01*
X118073D01*
Y117018D01*
X120131D01*
Y115198D01*
X120131Y115198D01*
X120364Y114027D01*
X121027Y113035D01*
X122168Y111894D01*
Y109764D01*
X120416D01*
Y106680D01*
X125227D01*
Y104140D01*
X120416D01*
Y101056D01*
X121809D01*
Y94747D01*
X119392D01*
Y92903D01*
X117784D01*
X116614Y92670D01*
X115622Y92007D01*
X115621Y92007D01*
X114300Y90686D01*
Y85090D01*
X111760D01*
Y89478D01*
X110458Y88939D01*
X109181Y87662D01*
X108744Y86607D01*
X107317Y86239D01*
X106303Y87253D01*
X105310Y87916D01*
X104140Y88149D01*
X104140Y88149D01*
X101517D01*
X100440Y89226D01*
Y89696D01*
X99831Y91166D01*
X98706Y92291D01*
X98499Y92377D01*
X98201Y93875D01*
X103763Y99437D01*
X103763Y99437D01*
X104426Y100429D01*
X104659Y101600D01*
X104659Y101600D01*
Y115368D01*
X105839Y116548D01*
X106600Y118385D01*
Y120375D01*
X105839Y122212D01*
X104432Y123619D01*
X102595Y124380D01*
X100605D01*
X98768Y123619D01*
X97361Y122212D01*
X96600Y120375D01*
Y118385D01*
X97361Y116548D01*
X98541Y115368D01*
Y102867D01*
X76874Y81200D01*
X75205D01*
X73368Y80439D01*
X71961Y79032D01*
X71200Y77195D01*
Y75205D01*
X71961Y73368D01*
X73368Y71961D01*
X75205Y71200D01*
X77195D01*
X79032Y71961D01*
X80439Y73368D01*
X81200Y75205D01*
Y76874D01*
X91465Y87139D01*
X92963Y86841D01*
X93049Y86634D01*
X94174Y85509D01*
X95644Y84900D01*
X96114D01*
X98087Y82927D01*
X99080Y82264D01*
X100250Y82031D01*
X100250Y82031D01*
X102873D01*
X108327Y76577D01*
X108327Y76577D01*
X109319Y75914D01*
X110490Y75681D01*
X124460D01*
X124460Y75681D01*
X125631Y75914D01*
X126623Y76577D01*
X132666Y82620D01*
X133329Y83613D01*
X133562Y84783D01*
X134506Y85482D01*
X136657D01*
Y89394D01*
X137468Y89936D01*
X139059D01*
X140529Y90545D01*
X141655Y91670D01*
X142263Y93140D01*
Y93603D01*
X143337Y94627D01*
X143918Y94593D01*
X144601Y93533D01*
X144590Y93506D01*
Y91914D01*
X145199Y90444D01*
X145531Y90112D01*
Y81277D01*
X132457Y68203D01*
X131794Y67210D01*
X131561Y66040D01*
X131561Y66040D01*
Y54668D01*
X131229Y54336D01*
X130620Y52866D01*
Y51274D01*
X131128Y50049D01*
X130595Y48779D01*
X113549D01*
Y58420D01*
X113549Y58420D01*
X113316Y59591D01*
X112653Y60583D01*
X112653Y60583D01*
X99953Y73283D01*
X98961Y73946D01*
X97790Y74179D01*
X97790Y74179D01*
X88958D01*
X88626Y74511D01*
X87156Y75120D01*
X85564D01*
X84094Y74511D01*
X82969Y73386D01*
X82360Y71916D01*
Y70324D01*
X82969Y68854D01*
X84094Y67729D01*
X85564Y67120D01*
X87156D01*
X88626Y67729D01*
X88958Y68061D01*
X96523D01*
X107431Y57153D01*
Y46892D01*
X107431Y46892D01*
X107664Y45721D01*
X108327Y44729D01*
X109499Y43557D01*
X109499Y43557D01*
X110491Y42894D01*
X111662Y42661D01*
X111662Y42661D01*
X148590D01*
X148590Y42661D01*
X149761Y42894D01*
X150753Y43557D01*
X152622Y45426D01*
X153285Y46418D01*
X153518Y47589D01*
X153518Y47589D01*
Y49591D01*
X154587Y50660D01*
X155936Y51219D01*
X157061Y52344D01*
X157670Y53814D01*
Y55406D01*
X157061Y56876D01*
X156165Y57772D01*
X155951Y58164D01*
X156059Y59325D01*
X156845Y60111D01*
X157279Y61159D01*
X158703Y61531D01*
X161527Y58707D01*
X161527Y58707D01*
X169057Y51177D01*
X169058Y51177D01*
X170050Y50514D01*
X171220Y50281D01*
X171220Y50281D01*
X177541D01*
X178755Y49067D01*
X180340Y48411D01*
Y53340D01*
X181610D01*
Y54610D01*
X186539D01*
X185883Y56195D01*
X184465Y57613D01*
X182807Y58300D01*
X182496Y58715D01*
X182172Y59650D01*
X182800Y61165D01*
Y63155D01*
X182039Y64992D01*
X180632Y66399D01*
X178795Y67160D01*
X176805D01*
X174968Y66399D01*
X173561Y64992D01*
X172800Y63155D01*
Y61165D01*
X173561Y59328D01*
X174968Y57921D01*
X175577Y57669D01*
X175325Y56399D01*
X172487D01*
X165853Y63033D01*
X165853Y63033D01*
X163164Y65723D01*
Y85634D01*
X165222D01*
Y86174D01*
X172253D01*
Y87478D01*
X177437D01*
X178380Y86534D01*
Y85465D01*
X178983Y84010D01*
X178672Y83231D01*
X178340Y82740D01*
X178274D01*
X176804Y82131D01*
X175679Y81006D01*
X175070Y79536D01*
Y77944D01*
X175679Y76474D01*
X176804Y75349D01*
X178274Y74740D01*
X179866D01*
X181336Y75349D01*
X181668Y75681D01*
X274320D01*
X274320Y75681D01*
X275490Y75914D01*
X276483Y76577D01*
X280996Y81090D01*
X281466D01*
X282341Y81452D01*
X283060Y80376D01*
X276863Y74179D01*
X214630D01*
X214630Y74179D01*
X213459Y73946D01*
X212467Y73283D01*
X212467Y73283D01*
X198294Y59110D01*
X197225D01*
X195571Y58425D01*
X194305Y57159D01*
X193620Y55505D01*
Y53715D01*
X194305Y52061D01*
X195061Y51305D01*
Y12620D01*
X194585D01*
X192748Y11859D01*
X191341Y10452D01*
X190580Y8615D01*
Y6625D01*
X191341Y4788D01*
X192319Y3810D01*
X191793Y2540D01*
X64770D01*
Y191770D01*
X2540D01*
Y304800D01*
X398780D01*
Y2540D01*
D02*
G37*
G36*
X138180Y144029D02*
X134870D01*
Y146051D01*
X138180D01*
Y144029D01*
D02*
G37*
G36*
X151947Y138887D02*
X152612Y138755D01*
X152742Y137434D01*
X152301Y137251D01*
X151557Y136507D01*
X150200Y136730D01*
X149527Y137825D01*
X149977Y138910D01*
X151912D01*
X151947Y138887D01*
D02*
G37*
G36*
X159302Y137350D02*
X160491D01*
X161234Y136350D01*
X161467Y135180D01*
X162130Y134187D01*
X164207Y132110D01*
X163893Y130628D01*
X163317Y130407D01*
X163245Y130436D01*
X161455D01*
X160477Y130031D01*
X159468D01*
X158836Y131301D01*
X159350Y132541D01*
Y134332D01*
X158665Y135985D01*
X157399Y137251D01*
X157079Y137384D01*
X157331Y138654D01*
X159302D01*
Y137350D01*
D02*
G37*
G36*
X164791Y115939D02*
X163735Y115233D01*
X163245Y115436D01*
X161455D01*
X159801Y114751D01*
X159749Y114698D01*
X158299Y115045D01*
X158182Y115404D01*
X158665Y115887D01*
X159350Y117541D01*
Y118889D01*
X164791D01*
Y115939D01*
D02*
G37*
G36*
X135564Y134847D02*
X135350Y134332D01*
Y132541D01*
X136035Y130887D01*
X137301Y129621D01*
X138955Y128936D01*
X140745D01*
X142399Y129621D01*
X142706Y129928D01*
X143071Y129817D01*
X143503Y128578D01*
X143485Y128364D01*
X142850Y126831D01*
Y125041D01*
X143535Y123387D01*
X144801Y122121D01*
X146455Y121436D01*
X148245D01*
X149899Y122121D01*
X150599Y122822D01*
X152025Y122850D01*
X152301Y122251D01*
X151035Y120985D01*
X150350Y119331D01*
Y117541D01*
X150657Y116801D01*
X151098Y115609D01*
X150070Y114580D01*
X149899Y114751D01*
X148245Y115436D01*
X146455D01*
X144801Y114751D01*
X143535Y113485D01*
X142850Y111831D01*
Y110041D01*
X143535Y108387D01*
X144801Y107121D01*
X146455Y106436D01*
X148245D01*
X149899Y107121D01*
X149986Y107208D01*
X150351Y107098D01*
X150533Y106802D01*
X150880Y105610D01*
X150350Y104332D01*
Y102541D01*
X150525Y102119D01*
X149677Y100849D01*
X145024D01*
X144175Y102119D01*
X144350Y102541D01*
Y104332D01*
X143665Y105985D01*
X142399Y107251D01*
X140745Y107936D01*
X138955D01*
X137708Y107420D01*
X136518Y107817D01*
X136258Y108005D01*
X136170Y108368D01*
X136192Y108452D01*
X136850Y110041D01*
Y111831D01*
X136165Y113485D01*
X134899Y114751D01*
X133245Y115436D01*
X131455D01*
X129801Y114751D01*
X129354Y114303D01*
X128944Y114312D01*
X127866Y114611D01*
X127390Y115323D01*
X126966Y115748D01*
X127492Y117018D01*
X128307D01*
Y117558D01*
X130479D01*
X130761Y117501D01*
X131044Y117558D01*
X134178D01*
X135345Y117541D01*
X135792Y116476D01*
X136035Y115887D01*
X137301Y114621D01*
X138955Y113936D01*
X140745D01*
X142399Y114621D01*
X143665Y115887D01*
X144350Y117541D01*
Y119331D01*
X143665Y120985D01*
X142399Y122251D01*
X140745Y122936D01*
X138955D01*
X137444Y122310D01*
X137103Y122338D01*
X136052Y122798D01*
X135973Y123195D01*
X136165Y123387D01*
X136850Y125041D01*
Y126831D01*
X136165Y128485D01*
X134899Y129751D01*
X133245Y130436D01*
X131455D01*
X131115Y130295D01*
X130059Y131001D01*
Y133350D01*
X130059Y133350D01*
X129826Y134521D01*
X129800Y134560D01*
X130478Y135830D01*
X134597D01*
X135564Y134847D01*
D02*
G37*
G36*
X130038Y101056D02*
X131292Y101018D01*
Y99330D01*
X131292Y99330D01*
X131524Y98159D01*
X132188Y97167D01*
X133727Y95627D01*
X133727Y95627D01*
X133952Y95477D01*
X133567Y94207D01*
X129626D01*
Y94747D01*
X127927D01*
Y101056D01*
X130038D01*
Y101056D01*
D02*
G37*
G36*
X119392Y84942D02*
Y84942D01*
X124677D01*
X125163Y83769D01*
X123193Y81799D01*
X117819D01*
X117107Y83069D01*
X117570Y84187D01*
Y84749D01*
X118122Y85166D01*
X119392Y84942D01*
D02*
G37*
G36*
X154988Y91806D02*
X160105D01*
Y89266D01*
X154988D01*
Y85634D01*
X157046D01*
Y80284D01*
X155776Y79470D01*
X154665Y79930D01*
X152861D01*
X152661Y79943D01*
X151649Y80879D01*
Y90112D01*
X151981Y90444D01*
X152590Y91914D01*
Y93506D01*
X152520Y93675D01*
X153225Y94731D01*
X154988D01*
Y91806D01*
D02*
G37*
G36*
X148670Y74105D02*
Y73935D01*
X149431Y72098D01*
X150838Y70691D01*
X152675Y69930D01*
X154665D01*
X155776Y70390D01*
X157046Y69576D01*
Y66804D01*
X155776Y66278D01*
X155579Y66475D01*
X153925Y67160D01*
X152135D01*
X150481Y66475D01*
X149215Y65209D01*
X148530Y63555D01*
Y61765D01*
X149215Y60111D01*
X150481Y58845D01*
X150759Y57355D01*
X150279Y56876D01*
X149670Y55406D01*
Y54395D01*
X148296Y53021D01*
X147633Y52028D01*
X147400Y50858D01*
X147400Y50858D01*
Y48856D01*
X147323Y48779D01*
X138645D01*
X138112Y50049D01*
X138620Y51274D01*
Y52866D01*
X138011Y54336D01*
X137679Y54668D01*
Y64773D01*
X147497Y74591D01*
X148670Y74105D01*
D02*
G37*
%LPC*%
G36*
X293370Y296300D02*
X291502Y295527D01*
X289943Y293968D01*
X289170Y292100D01*
X293370D01*
Y296300D01*
D02*
G37*
G36*
Y289560D02*
X289170D01*
X289943Y287692D01*
X291502Y286133D01*
X293370Y285360D01*
Y289560D01*
D02*
G37*
G36*
X395030Y275840D02*
X391160D01*
Y271970D01*
X395030D01*
Y275840D01*
D02*
G37*
G36*
X333830Y264160D02*
X328769D01*
Y258829D01*
X333830D01*
Y264160D01*
D02*
G37*
G36*
X201627Y259480D02*
X193607D01*
Y251460D01*
X201627D01*
Y259480D01*
D02*
G37*
G36*
X191067D02*
X183047D01*
Y251460D01*
X191067D01*
Y259480D01*
D02*
G37*
G36*
X168089Y258940D02*
X165786D01*
X163560Y258344D01*
X161565Y257192D01*
X159936Y255563D01*
X158784Y253567D01*
X158187Y251342D01*
Y249038D01*
X158784Y246813D01*
X159936Y244817D01*
X161565Y243188D01*
X163560Y242036D01*
X165786Y241440D01*
X168089D01*
X170315Y242036D01*
X172310Y243188D01*
X173939Y244817D01*
X175091Y246813D01*
X175687Y249038D01*
Y251342D01*
X175091Y253567D01*
X173939Y255563D01*
X172310Y257192D01*
X170315Y258344D01*
X168089Y258940D01*
D02*
G37*
G36*
X142689D02*
X140386D01*
X138160Y258344D01*
X136165Y257192D01*
X134536Y255563D01*
X133384Y253567D01*
X132787Y251342D01*
Y249038D01*
X133384Y246813D01*
X134536Y244817D01*
X136165Y243188D01*
X138160Y242036D01*
X140386Y241440D01*
X142689D01*
X144915Y242036D01*
X146910Y243188D01*
X148539Y244817D01*
X149691Y246813D01*
X150287Y249038D01*
Y251342D01*
X149691Y253567D01*
X148539Y255563D01*
X146910Y257192D01*
X144915Y258344D01*
X142689Y258940D01*
D02*
G37*
G36*
X117289D02*
X114986D01*
X112760Y258344D01*
X110765Y257192D01*
X109136Y255563D01*
X107984Y253567D01*
X107387Y251342D01*
Y249038D01*
X107984Y246813D01*
X109136Y244817D01*
X110765Y243188D01*
X112760Y242036D01*
X114986Y241440D01*
X117289D01*
X119515Y242036D01*
X121510Y243188D01*
X123139Y244817D01*
X124291Y246813D01*
X124887Y249038D01*
Y251342D01*
X124291Y253567D01*
X123139Y255563D01*
X121510Y257192D01*
X119515Y258344D01*
X117289Y258940D01*
D02*
G37*
G36*
X295910Y296300D02*
Y290830D01*
Y285360D01*
X297778Y286133D01*
X299337Y287692D01*
X299370Y287771D01*
X301102D01*
X316210Y272664D01*
X315724Y271491D01*
X309169D01*
Y259369D01*
X309361D01*
Y241079D01*
X308884Y240881D01*
X308552Y240549D01*
X202752D01*
X201628Y240900D01*
X201627Y241819D01*
Y248920D01*
X192337D01*
X183047D01*
Y240900D01*
X183242D01*
X183636Y239728D01*
X183639Y239630D01*
X138807Y194798D01*
X138144Y193806D01*
X137911Y192635D01*
X137911Y192635D01*
Y162618D01*
X137579Y162286D01*
X136970Y160816D01*
Y159224D01*
X137579Y157754D01*
X138704Y156629D01*
X140174Y156020D01*
X141766D01*
X143236Y156629D01*
X144361Y157754D01*
X144970Y159224D01*
Y160816D01*
X144436Y162104D01*
X144447Y162560D01*
X144518Y162788D01*
X145072Y163052D01*
X145972Y163269D01*
X147320Y162711D01*
Y167640D01*
Y172569D01*
X145735Y171913D01*
X145299Y171476D01*
X144029Y172002D01*
Y191368D01*
X145113Y192452D01*
X146611Y192154D01*
X146891Y191478D01*
X148298Y190071D01*
X150135Y189310D01*
X152125D01*
X153962Y190071D01*
X155369Y191478D01*
X156130Y193315D01*
Y195305D01*
X155369Y197142D01*
X153962Y198549D01*
X153286Y198829D01*
X152988Y200327D01*
X187092Y234431D01*
X308552D01*
X308884Y234099D01*
X309361Y233901D01*
Y227520D01*
X309361Y227520D01*
X309594Y226350D01*
X310257Y225357D01*
X311429Y224186D01*
X311429Y224186D01*
X312421Y223522D01*
X313592Y223290D01*
X313592Y223290D01*
X348268D01*
X348268Y223290D01*
X349439Y223522D01*
X350431Y224186D01*
X353953Y227707D01*
X353953Y227707D01*
X354616Y228699D01*
X354849Y229870D01*
X354849Y229870D01*
Y242383D01*
X369296Y256830D01*
X374170D01*
Y264290D01*
X374710D01*
Y267006D01*
X384750D01*
Y265560D01*
X385290D01*
Y262426D01*
X368677Y245813D01*
X368014Y244820D01*
X367781Y243650D01*
X367781Y243650D01*
Y236217D01*
X355977Y224413D01*
X355314Y223421D01*
X355081Y222250D01*
X355081Y222250D01*
Y219912D01*
X353901Y218732D01*
X353140Y216895D01*
Y214905D01*
X353901Y213068D01*
X355308Y211661D01*
X357145Y210900D01*
X359135D01*
X360972Y211661D01*
X362379Y213068D01*
X363140Y214905D01*
Y216895D01*
X362379Y218732D01*
X361199Y219912D01*
Y220983D01*
X373003Y232787D01*
X373003Y232787D01*
X373666Y233780D01*
X373899Y234950D01*
X373899Y234950D01*
Y242383D01*
X389616Y258100D01*
X394490D01*
Y265560D01*
X395030D01*
Y269430D01*
X389890D01*
Y270700D01*
X388620D01*
Y275840D01*
X384750D01*
Y273124D01*
X374710D01*
Y274570D01*
X370840D01*
Y269430D01*
X368300D01*
Y274570D01*
X364430D01*
Y272489D01*
X360940D01*
X360940Y272489D01*
X359770Y272256D01*
X358777Y271593D01*
X358777Y271593D01*
X356943Y269759D01*
X353120D01*
Y271840D01*
X351039D01*
Y273148D01*
X351039Y273148D01*
X350806Y274319D01*
X350143Y275311D01*
X350143Y275311D01*
X348971Y276483D01*
X347979Y277146D01*
X346808Y277379D01*
X346808Y277379D01*
X336119D01*
X334949Y277146D01*
X333957Y276483D01*
X333957Y276483D01*
X329504Y272031D01*
X328769D01*
Y266700D01*
X333830D01*
Y266863D01*
X334110Y267050D01*
X335380Y266373D01*
Y262100D01*
X336921D01*
Y245997D01*
X329604Y238680D01*
X327935D01*
X326098Y237919D01*
X324691Y236512D01*
X323930Y234675D01*
Y232685D01*
X324691Y230848D01*
X324862Y230677D01*
X324336Y229407D01*
X315479D01*
Y259369D01*
X320751D01*
X321169Y258829D01*
Y258829D01*
X326230D01*
Y265430D01*
Y272031D01*
X325494D01*
X304532Y292993D01*
X303540Y293656D01*
X302369Y293889D01*
X302369Y293889D01*
X299370D01*
X299337Y293968D01*
X297778Y295527D01*
X295910Y296300D01*
D02*
G37*
G36*
X78394Y190506D02*
Y186847D01*
X82053D01*
X81396Y188431D01*
X79978Y189849D01*
X78394Y190506D01*
D02*
G37*
G36*
X75854D02*
X74269Y189849D01*
X72851Y188431D01*
X72194Y186847D01*
X75854D01*
Y190506D01*
D02*
G37*
G36*
X107950Y184540D02*
Y180340D01*
X112150D01*
X111377Y182208D01*
X109818Y183767D01*
X107950Y184540D01*
D02*
G37*
G36*
X105410D02*
X103542Y183767D01*
X101983Y182208D01*
X101210Y180340D01*
X105410D01*
Y184540D01*
D02*
G37*
G36*
X219710Y182726D02*
Y176530D01*
X225906D01*
X225466Y178170D01*
X224473Y179890D01*
X223070Y181294D01*
X221350Y182286D01*
X219710Y182726D01*
D02*
G37*
G36*
X112150Y177800D02*
X107950D01*
Y173600D01*
X109818Y174373D01*
X111377Y175932D01*
X112150Y177800D01*
D02*
G37*
G36*
X105410D02*
X101210D01*
X101983Y175932D01*
X103542Y174373D01*
X105410Y173600D01*
Y177800D01*
D02*
G37*
G36*
X149860Y172569D02*
Y168910D01*
X153519D01*
X152863Y170495D01*
X151445Y171913D01*
X149860Y172569D01*
D02*
G37*
G36*
X225906Y173990D02*
X219710D01*
Y167794D01*
X221350Y168234D01*
X223070Y169226D01*
X224473Y170630D01*
X225466Y172350D01*
X225906Y173990D01*
D02*
G37*
G36*
X153519Y166370D02*
X149860D01*
Y162711D01*
X151445Y163367D01*
X152863Y164785D01*
X153519Y166370D01*
D02*
G37*
G36*
X270510Y148436D02*
Y142240D01*
X276706D01*
X276266Y143880D01*
X275273Y145600D01*
X273870Y147003D01*
X272150Y147996D01*
X270510Y148436D01*
D02*
G37*
G36*
X267970D02*
X266330Y147996D01*
X264610Y147003D01*
X263207Y145600D01*
X262214Y143880D01*
X261774Y142240D01*
X267970D01*
Y148436D01*
D02*
G37*
G36*
X341630Y143356D02*
Y137160D01*
X347826D01*
X347386Y138800D01*
X346394Y140520D01*
X344990Y141924D01*
X343270Y142916D01*
X341630Y143356D01*
D02*
G37*
G36*
X339090D02*
X337450Y142916D01*
X335730Y141924D01*
X334327Y140520D01*
X333334Y138800D01*
X332894Y137160D01*
X339090D01*
Y143356D01*
D02*
G37*
G36*
X176567Y140443D02*
X172720D01*
Y136810D01*
X176567D01*
Y140443D01*
D02*
G37*
G36*
X276706Y139700D02*
X270510D01*
Y133504D01*
X272150Y133944D01*
X273870Y134937D01*
X275273Y136340D01*
X276266Y138060D01*
X276706Y139700D01*
D02*
G37*
G36*
X267970D02*
X261774D01*
X262214Y138060D01*
X263207Y136340D01*
X264610Y134937D01*
X266330Y133944D01*
X267970Y133504D01*
Y139700D01*
D02*
G37*
G36*
X347826Y134620D02*
X341630D01*
Y128424D01*
X343270Y128864D01*
X344990Y129857D01*
X346394Y131260D01*
X347386Y132980D01*
X347826Y134620D01*
D02*
G37*
G36*
X339090D02*
X332894D01*
X333334Y132980D01*
X334327Y131260D01*
X335730Y129857D01*
X337450Y128864D01*
X339090Y128424D01*
Y134620D01*
D02*
G37*
G36*
X101325Y137080D02*
X99335D01*
X97498Y136319D01*
X96091Y134912D01*
X95330Y133075D01*
Y131085D01*
X96091Y129248D01*
X97498Y127841D01*
X99335Y127080D01*
X101325D01*
X103162Y127841D01*
X104569Y129248D01*
X105330Y131085D01*
Y133075D01*
X104569Y134912D01*
X103162Y136319D01*
X101325Y137080D01*
D02*
G37*
G36*
X248446Y118300D02*
X246854D01*
X245384Y117691D01*
X244259Y116566D01*
X244230Y116495D01*
X200718D01*
X200386Y116827D01*
X198916Y117436D01*
X197324D01*
X195854Y116827D01*
X194729Y115702D01*
X194120Y114232D01*
Y112640D01*
X194729Y111170D01*
X195854Y110045D01*
X197324Y109436D01*
X198916D01*
X200386Y110045D01*
X200718Y110377D01*
X246245D01*
X246245Y110377D01*
X246530Y110434D01*
X246854Y110300D01*
X248446D01*
X249916Y110909D01*
X251041Y112034D01*
X251650Y113504D01*
Y115096D01*
X251041Y116566D01*
X249916Y117691D01*
X248446Y118300D01*
D02*
G37*
G36*
X82053Y184307D02*
X72194D01*
X72304Y184041D01*
X72104Y183742D01*
X71871Y182571D01*
X71871Y182571D01*
Y111312D01*
X71081Y110522D01*
X70542Y109220D01*
X79318D01*
X78779Y110522D01*
X77989Y111312D01*
Y180536D01*
X78126D01*
X79978Y181304D01*
X81396Y182722D01*
X82053Y184307D01*
D02*
G37*
G36*
X79318Y106680D02*
X76200D01*
Y103562D01*
X77502Y104101D01*
X78779Y105378D01*
X79318Y106680D01*
D02*
G37*
G36*
X73660D02*
X70542D01*
X71081Y105378D01*
X72358Y104101D01*
X73660Y103562D01*
Y106680D01*
D02*
G37*
G36*
X306070Y102719D02*
Y99060D01*
X309729D01*
X309073Y100645D01*
X307655Y102063D01*
X306070Y102719D01*
D02*
G37*
G36*
X303530D02*
X301945Y102063D01*
X300527Y100645D01*
X299871Y99060D01*
X303530D01*
Y102719D01*
D02*
G37*
G36*
X309729Y96520D02*
X306070D01*
Y92861D01*
X307655Y93517D01*
X309073Y94935D01*
X309729Y96520D01*
D02*
G37*
G36*
X303530D02*
X299871D01*
X300527Y94935D01*
X301945Y93517D01*
X303530Y92861D01*
Y96520D01*
D02*
G37*
G36*
X196575Y93900D02*
X194585D01*
X192748Y93139D01*
X191341Y91732D01*
X190580Y89895D01*
Y87905D01*
X191341Y86068D01*
X192748Y84661D01*
X194585Y83900D01*
X196575D01*
X198412Y84661D01*
X199819Y86068D01*
X200580Y87905D01*
Y89895D01*
X199819Y91732D01*
X198412Y93139D01*
X196575Y93900D01*
D02*
G37*
G36*
X375384Y76695D02*
X373296D01*
X371366Y75896D01*
X369889Y74419D01*
X369090Y72489D01*
Y70401D01*
X369889Y68471D01*
X371366Y66994D01*
X373296Y66195D01*
X375384D01*
X377314Y66994D01*
X378791Y68471D01*
X379590Y70401D01*
Y72489D01*
X378791Y74419D01*
X377314Y75896D01*
X375384Y76695D01*
D02*
G37*
G36*
X317584D02*
X315496D01*
X313566Y75896D01*
X312089Y74419D01*
X311290Y72489D01*
Y70401D01*
X312089Y68471D01*
X313566Y66994D01*
X315496Y66195D01*
X317584D01*
X319514Y66994D01*
X320991Y68471D01*
X321790Y70401D01*
Y72489D01*
X320991Y74419D01*
X319514Y75896D01*
X317584Y76695D01*
D02*
G37*
G36*
X388640Y89005D02*
X386813Y88765D01*
X385110Y88059D01*
X383648Y86937D01*
X382526Y85475D01*
X381820Y83772D01*
X381580Y81945D01*
Y70945D01*
X381820Y69117D01*
X382526Y67415D01*
X383648Y65952D01*
X385110Y64830D01*
X386813Y64125D01*
X388640Y63885D01*
X390468Y64125D01*
X392170Y64830D01*
X393633Y65952D01*
X394755Y67415D01*
X395460Y69117D01*
X395701Y70945D01*
Y81945D01*
X395460Y83772D01*
X394755Y85475D01*
X393633Y86937D01*
X392170Y88059D01*
X390468Y88765D01*
X388640Y89005D01*
D02*
G37*
G36*
X374650Y62620D02*
Y58420D01*
X378850D01*
X378077Y60288D01*
X376518Y61847D01*
X374650Y62620D01*
D02*
G37*
G36*
X372110D02*
X370242Y61847D01*
X368683Y60288D01*
X367910Y58420D01*
X372110D01*
Y62620D01*
D02*
G37*
G36*
X354055Y67230D02*
X352065D01*
X350228Y66469D01*
X348821Y65062D01*
X348060Y63225D01*
Y61235D01*
X348821Y59398D01*
X350228Y57991D01*
X352065Y57230D01*
X354055D01*
X355892Y57991D01*
X357299Y59398D01*
X358060Y61235D01*
Y63225D01*
X357299Y65062D01*
X355892Y66469D01*
X354055Y67230D01*
D02*
G37*
G36*
X340085Y59610D02*
X338095D01*
X336258Y58849D01*
X334851Y57442D01*
X334090Y55605D01*
Y53615D01*
X334851Y51778D01*
X336258Y50371D01*
X338095Y49610D01*
X340085D01*
X341922Y50371D01*
X343329Y51778D01*
X344090Y53615D01*
Y55605D01*
X343329Y57442D01*
X341922Y58849D01*
X340085Y59610D01*
D02*
G37*
G36*
X186539Y52070D02*
X182880D01*
Y48411D01*
X184465Y49067D01*
X185883Y50485D01*
X186539Y52070D01*
D02*
G37*
G36*
X339183Y43617D02*
X334598D01*
Y39370D01*
X339183D01*
Y43617D01*
D02*
G37*
G36*
X361675Y57070D02*
X359685D01*
X357848Y56309D01*
X356441Y54902D01*
X355680Y53065D01*
Y51075D01*
X356441Y49238D01*
X357848Y47831D01*
X359685Y47070D01*
X360238D01*
Y43077D01*
X357982D01*
Y33123D01*
X365572D01*
Y32583D01*
X368369D01*
Y28525D01*
X368303Y28459D01*
X337817D01*
X336386Y29889D01*
Y32583D01*
X339183D01*
Y36830D01*
X333328D01*
Y38100D01*
X332058D01*
Y43617D01*
X328256D01*
Y46202D01*
X328023Y47372D01*
X327360Y48365D01*
X327360Y48365D01*
X326196Y49529D01*
X326310Y49805D01*
Y51795D01*
X325549Y53632D01*
X324142Y55039D01*
X322305Y55800D01*
X320315D01*
X318478Y55039D01*
X317071Y53632D01*
X316310Y51795D01*
Y49805D01*
X317071Y47968D01*
X318478Y46561D01*
X320315Y45800D01*
X321273D01*
X322138Y44935D01*
Y43077D01*
X319882D01*
Y33123D01*
X327472D01*
Y32583D01*
X330269D01*
Y28622D01*
X330269Y28622D01*
X330502Y27452D01*
X331165Y26459D01*
X334387Y23237D01*
X335379Y22574D01*
X336550Y22341D01*
X369570D01*
X369570Y22341D01*
X370741Y22574D01*
X371733Y23237D01*
X373591Y25095D01*
X373591Y25095D01*
X374254Y26087D01*
X374487Y27258D01*
X374487Y27258D01*
Y32583D01*
X377283D01*
Y36830D01*
X371428D01*
Y39370D01*
X377283D01*
Y43617D01*
X374487D01*
Y46127D01*
X375564Y52058D01*
X376518Y52453D01*
X378077Y54012D01*
X378850Y55880D01*
X367910D01*
X368683Y54012D01*
X369545Y53151D01*
X368418Y46949D01*
X368423Y46673D01*
X368369Y46402D01*
Y43617D01*
X366356D01*
Y48370D01*
X366356Y48370D01*
X366123Y49541D01*
X365460Y50533D01*
X365460Y50533D01*
X365457Y50537D01*
X365680Y51075D01*
Y53065D01*
X364919Y54902D01*
X363512Y56309D01*
X361675Y57070D01*
D02*
G37*
G36*
X388640Y45705D02*
X386813Y45465D01*
X385110Y44759D01*
X383648Y43637D01*
X382526Y42175D01*
X381820Y40472D01*
X381580Y38645D01*
Y30645D01*
X381820Y28818D01*
X382526Y27115D01*
X383648Y25653D01*
X385110Y24531D01*
X386813Y23825D01*
X388640Y23585D01*
X390468Y23825D01*
X392170Y24531D01*
X393633Y25653D01*
X394755Y27115D01*
X395460Y28818D01*
X395701Y30645D01*
Y38645D01*
X395460Y40472D01*
X394755Y42175D01*
X393633Y43637D01*
X392170Y44759D01*
X390468Y45465D01*
X388640Y45705D01*
D02*
G37*
G36*
X302240D02*
X300413Y45465D01*
X298710Y44759D01*
X297248Y43637D01*
X296126Y42175D01*
X295420Y40472D01*
X295180Y38645D01*
Y30645D01*
X295420Y28818D01*
X296126Y27115D01*
X297248Y25653D01*
X298710Y24531D01*
X300413Y23825D01*
X302240Y23585D01*
X304067Y23825D01*
X305770Y24531D01*
X307233Y25653D01*
X308355Y27115D01*
X309060Y28818D01*
X309301Y30645D01*
Y38645D01*
X309060Y40472D01*
X308355Y42175D01*
X307233Y43637D01*
X305770Y44759D01*
X304067Y45465D01*
X302240Y45705D01*
D02*
G37*
G36*
X95250Y22706D02*
Y16510D01*
X101446D01*
X101006Y18150D01*
X100014Y19870D01*
X98610Y21274D01*
X96890Y22266D01*
X95250Y22706D01*
D02*
G37*
G36*
X92710D02*
X91070Y22266D01*
X89350Y21274D01*
X87947Y19870D01*
X86954Y18150D01*
X86514Y16510D01*
X92710D01*
Y22706D01*
D02*
G37*
G36*
X101446Y13970D02*
X95250D01*
Y7774D01*
X96890Y8214D01*
X98610Y9207D01*
X100014Y10610D01*
X101006Y12330D01*
X101446Y13970D01*
D02*
G37*
G36*
X92710D02*
X86514D01*
X86954Y12330D01*
X87947Y10610D01*
X89350Y9207D01*
X91070Y8214D01*
X92710Y7774D01*
Y13970D01*
D02*
G37*
%LPD*%
G36*
X349250Y261560D02*
X353120D01*
Y263641D01*
X358210D01*
X358210Y263641D01*
X359380Y263874D01*
X360373Y264537D01*
X362207Y266371D01*
X364430D01*
Y264290D01*
X364970D01*
Y261156D01*
X349627Y245813D01*
X348964Y244820D01*
X348731Y243650D01*
X348731Y243650D01*
Y231137D01*
X347001Y229407D01*
X333524D01*
X332998Y230677D01*
X333169Y230848D01*
X333930Y232685D01*
Y234354D01*
X342143Y242567D01*
X342143Y242567D01*
X342806Y243559D01*
X343039Y244730D01*
Y261560D01*
X346710D01*
Y266700D01*
X349250D01*
Y261560D01*
D02*
G37*
D11*
X358140Y215900D02*
Y222250D01*
X370840Y234950D01*
Y243650D02*
X389890Y262700D01*
X370840Y234950D02*
Y243650D01*
X198120Y11242D02*
Y54610D01*
X195580Y8702D02*
X198120Y11242D01*
X195580Y7620D02*
Y8702D01*
X312420Y227520D02*
Y262890D01*
X140970Y192635D02*
X185825Y237490D01*
X140970Y160020D02*
Y192635D01*
X185825Y237490D02*
X311150D01*
X168990Y131654D02*
X196411D01*
X200648Y135890D02*
X200660D01*
X196411Y131654D02*
X200648Y135890D01*
X191770Y163830D02*
X223520Y195580D01*
X313690D01*
X163830Y163830D02*
X191770D01*
X171664Y141713D02*
X189782Y159830D01*
X203010D02*
X218440Y175260D01*
X189782Y159830D02*
X203010D01*
X274320Y78740D02*
X280670Y85090D01*
X179070Y78740D02*
X274320D01*
X351790Y229870D02*
Y243650D01*
X313592Y226348D02*
X348268D01*
X351790Y229870D01*
Y243650D02*
X369570Y261430D01*
X247109Y114300D02*
X247650D01*
X198120Y113436D02*
X246245D01*
X247109Y114300D01*
X76200Y76200D02*
X101600Y101600D01*
Y119380D01*
X100250Y85090D02*
X104140D01*
X96440Y88900D02*
X100250Y85090D01*
X294640Y290830D02*
X302369D01*
X327500Y265700D01*
X312420Y227520D02*
X313592Y226348D01*
X312420Y262890D02*
X314960Y265430D01*
X339980Y244730D02*
Y266700D01*
X328930Y233680D02*
X339980Y244730D01*
X346808Y274320D02*
X347980Y273148D01*
X336119Y274320D02*
X346808D01*
X347980Y266700D02*
Y273148D01*
X327500Y265700D02*
X336119Y274320D01*
X360940Y269430D02*
X369570D01*
X347980Y266700D02*
X358210D01*
X360940Y269430D01*
X370205Y270065D02*
X389255D01*
X389890Y270700D01*
X369570Y269430D02*
X370205Y270065D01*
X321310Y50089D02*
X325197Y46202D01*
Y38100D02*
Y46202D01*
X321310Y50089D02*
Y50800D01*
X360680Y50988D02*
X363297Y48370D01*
X360680Y50988D02*
Y52070D01*
X363297Y38100D02*
Y48370D01*
X150459Y50858D02*
X153670Y54069D01*
X150459Y47589D02*
Y50858D01*
X153670Y54069D02*
Y54610D01*
X148590Y45720D02*
X150459Y47589D01*
X110490Y46892D02*
X111662Y45720D01*
X110490Y46892D02*
Y58420D01*
X111662Y45720D02*
X148590D01*
X97790Y71120D02*
X110490Y58420D01*
X86360Y71120D02*
X97790D01*
X160105Y64455D02*
X163690Y60870D01*
X141079Y97292D02*
Y97790D01*
X138264Y93936D02*
Y94477D01*
X141079Y97292D01*
Y97790D02*
X166578D01*
X135890D02*
X141079D01*
X371428Y38100D02*
Y46402D01*
X373380Y57150D01*
X278130Y71120D02*
X292100Y85090D01*
Y104140D01*
X214630Y71120D02*
X278130D01*
X198120Y54610D02*
X214630Y71120D01*
X167676Y90536D02*
X178704D01*
X182880Y86360D01*
X173990Y100330D02*
X270510D01*
X281940Y111760D01*
X160020Y141713D02*
X163879D01*
X153117D02*
X160020D01*
Y160020D01*
X163830Y163830D01*
X117784Y89844D02*
X124509D01*
X113030Y85090D02*
X117784Y89844D01*
X171450Y141713D02*
X171664D01*
X77123Y184765D02*
Y185576D01*
X74930Y107950D02*
Y182571D01*
X77123Y184765D01*
X143320Y137891D02*
X146050Y135161D01*
X143320Y137891D02*
Y143510D01*
X146050Y134620D02*
Y135161D01*
X156210Y124460D02*
X161210D01*
X152400Y128270D02*
X156210Y124460D01*
X156494Y108936D02*
X157128D01*
X153670Y111760D02*
X153670D01*
X159385Y106680D02*
X159830D01*
X157128Y108936D02*
X159385Y106680D01*
X153670Y111760D02*
X156494Y108936D01*
X166578Y97790D02*
X167753Y98965D01*
X160105Y64455D02*
Y90536D01*
X171220Y53340D02*
X181610D01*
X163690Y60870D02*
X171220Y53340D01*
X134620Y52070D02*
Y66040D01*
X148590Y80010D01*
Y92710D01*
X134350Y99330D02*
X135890Y97790D01*
X114300Y152400D02*
X114683Y152017D01*
Y148017D02*
X121730Y140970D01*
X114683Y148017D02*
Y152017D01*
X124509Y89844D02*
X124868Y90204D01*
Y105051D01*
X131770Y105410D02*
X134350Y102829D01*
X130503Y88482D02*
X131866Y89844D01*
X132080D01*
X124460Y78740D02*
X130503Y84783D01*
Y88482D01*
X104140Y85090D02*
X110490Y78740D01*
X124460D01*
X164293Y136350D02*
X168990Y131654D01*
X149720Y145110D02*
Y146552D01*
X168990Y124460D02*
Y131654D01*
X149720Y145110D02*
X151320Y143510D01*
X134350Y99330D02*
Y102829D01*
X123330Y144013D02*
X128427Y149110D01*
X121730Y140970D02*
X123330Y142570D01*
X121730Y140970D02*
X123330Y139370D01*
Y142570D02*
Y144013D01*
X140780Y140970D02*
X143320Y143510D01*
X129730Y140970D02*
X140780D01*
X167850Y123320D02*
X168990Y124460D01*
X167830Y106680D02*
X167850Y106700D01*
X167753Y91327D02*
Y98965D01*
X167850Y106700D02*
Y123320D01*
X167753Y98965D02*
Y106603D01*
X167830Y106680D01*
X124868Y105051D02*
X125227Y105410D01*
X127000Y127292D02*
X128767Y125525D01*
X130547Y121920D02*
X130761D01*
X125227Y105410D02*
Y113160D01*
X123190Y115198D02*
Y121920D01*
X128767Y123700D02*
X130547Y121920D01*
X128767Y123700D02*
Y125525D01*
X123190Y115198D02*
X125227Y113160D01*
X131313Y105410D02*
X131770D01*
X164293Y136350D02*
Y141299D01*
X127000Y127292D02*
Y133350D01*
X151320Y143510D02*
X153117Y141713D01*
X163879D02*
X164293Y141299D01*
X123330Y137020D02*
Y139370D01*
Y137020D02*
X127000Y133350D01*
X147163Y149110D02*
X149720Y146552D01*
X128427Y149110D02*
X147163D01*
X369570Y25400D02*
X371428Y27258D01*
Y38100D01*
X336550Y25400D02*
X369570D01*
X333328Y28622D02*
X336550Y25400D01*
X333328Y28622D02*
Y38100D01*
D15*
X131313Y105410D02*
Y105913D01*
D30*
X163879Y141713D02*
D03*
X171450D02*
D03*
X132080Y89844D02*
D03*
X124509D02*
D03*
X167676Y90536D02*
D03*
X160105D02*
D03*
X130761Y121920D02*
D03*
X123190D02*
D03*
D32*
X151320Y143510D02*
D03*
X143320D02*
D03*
X167830Y106680D02*
D03*
X159830D02*
D03*
X121730Y140970D02*
D03*
X129730D02*
D03*
X347980Y266700D02*
D03*
X339980D02*
D03*
D39*
X125227Y105410D02*
D03*
X131313D02*
D03*
D40*
X371428Y38100D02*
D03*
X363297D02*
D03*
X325197D02*
D03*
X333328D02*
D03*
D46*
X314960Y265430D02*
D03*
X327500D02*
D03*
D63*
X192337Y250190D02*
D03*
D64*
X166937D02*
D03*
X141537D02*
D03*
X116137D02*
D03*
D73*
X163690Y60870D02*
D03*
D87*
X130761Y121415D02*
Y121920D01*
D88*
X294640Y290830D02*
D03*
X106680Y179070D02*
D03*
X373380Y57150D02*
D03*
X195580Y88900D02*
D03*
Y7620D02*
D03*
X153670Y74930D02*
D03*
X177800Y62160D02*
D03*
X200660Y135890D02*
D03*
X358140Y215900D02*
D03*
X76200Y76200D02*
D03*
X101600Y119380D02*
D03*
X100330Y132080D02*
D03*
X328930Y233680D02*
D03*
X151130Y194310D02*
D03*
X339090Y54610D02*
D03*
X353060Y62230D02*
D03*
X321310Y50800D02*
D03*
X360680Y52070D02*
D03*
D89*
X148590Y167640D02*
D03*
X181610Y53340D02*
D03*
X139850Y133436D02*
D03*
X132350Y125936D02*
D03*
Y110936D02*
D03*
X147350D02*
D03*
X139850Y103436D02*
D03*
X154850D02*
D03*
X162350Y110936D02*
D03*
Y125936D02*
D03*
X147350D02*
D03*
X154850Y133436D02*
D03*
Y118436D02*
D03*
X139850D02*
D03*
X77123Y185576D02*
D03*
X304800Y97790D02*
D03*
X153030Y62660D02*
D03*
X313690Y195580D02*
D03*
X198120Y54610D02*
D03*
X292100Y104140D02*
D03*
X182880Y86360D02*
D03*
X281940Y111760D02*
D03*
D90*
X113030Y85090D02*
D03*
X74930Y107950D02*
D03*
X146050Y134620D02*
D03*
X152400Y128270D02*
D03*
X153670Y111760D02*
D03*
X148590Y92710D02*
D03*
X140970Y160020D02*
D03*
X280670Y85090D02*
D03*
X179070Y78740D02*
D03*
X311150Y237490D02*
D03*
X247650Y114300D02*
D03*
X198120Y113436D02*
D03*
X96440Y88900D02*
D03*
X86360Y71120D02*
D03*
X153670Y54610D02*
D03*
X138264Y93936D02*
D03*
X173990Y100330D02*
D03*
X163830Y163830D02*
D03*
X134620Y52070D02*
D03*
X114300Y152400D02*
D03*
D91*
X93980Y15240D02*
D03*
X218440Y175260D02*
D03*
X269240Y140970D02*
D03*
X340360Y135890D02*
D03*
D92*
X388640Y34645D02*
D03*
X302240D02*
D03*
D93*
X374340Y71445D02*
D03*
X316540D02*
D03*
D94*
X302240Y76445D02*
D03*
X388640D02*
D03*
D95*
X196850Y147320D02*
D03*
D97*
X168990Y124460D02*
D03*
X161210D02*
D03*
D98*
X389890Y270700D02*
D03*
Y262700D02*
D03*
X369570Y269430D02*
D03*
Y261430D02*
D03*
M02*
