G04*
G04 #@! TF.GenerationSoftware,Altium Limited,Altium Designer,23.9.2 (47)*
G04*
G04 Layer_Physical_Order=3*
G04 Layer_Color=36540*
%FSLAX44Y44*%
%MOMM*%
G71*
G04*
G04 #@! TF.SameCoordinates,2E1E75F7-3D1D-466E-99F7-38A65D3F2882*
G04*
G04*
G04 #@! TF.FilePolarity,Positive*
G04*
G01*
G75*
%ADD15C,0.2540*%
%ADD65C,1.3500*%
%ADD66R,1.3500X1.3500*%
%ADD70C,0.3500*%
%ADD84C,0.2100*%
%ADD86O,2.1000X1.0000*%
%ADD87C,0.6500*%
%ADD88O,1.8000X1.0000*%
%ADD89C,0.5000*%
%ADD90C,0.3000*%
%ADD91C,0.6000*%
%ADD92C,1.2700*%
%ADD93C,0.2096*%
D15*
X448000Y398000D02*
X455000Y405000D01*
X448000Y367000D02*
Y398000D01*
X655105Y385000D02*
X658368Y381737D01*
X543000Y385000D02*
X655105D01*
X527000Y401000D02*
X543000Y385000D01*
X518000Y401000D02*
X527000D01*
X509000Y392000D02*
X518000Y401000D01*
X503000Y392000D02*
X509000D01*
X490000Y379000D02*
X503000Y392000D01*
X456000Y379000D02*
X490000D01*
X483040Y472000D02*
X485648Y469392D01*
X471000Y472000D02*
X483040D01*
X461000Y462000D02*
X471000Y472000D01*
X461000Y449000D02*
Y462000D01*
X431000Y419000D02*
X461000Y449000D01*
X334000Y419000D02*
X431000D01*
X518263Y322263D02*
Y391092D01*
X514000Y318000D02*
X518263Y322263D01*
X469000Y318000D02*
X514000D01*
X452000Y301000D02*
X469000Y318000D01*
X319000Y355000D02*
X373000Y301000D01*
X319000Y355000D02*
Y427000D01*
X335000Y443000D01*
X377000D01*
X380000Y440000D01*
Y435000D02*
Y440000D01*
X789000Y291000D02*
X808000D01*
X788000Y292000D02*
X789000Y291000D01*
X788000Y292000D02*
Y315000D01*
X767000Y336000D02*
X788000Y315000D01*
X761000Y336000D02*
X767000D01*
X747000Y322000D02*
X761000Y336000D01*
X739000Y322000D02*
X747000D01*
X729000Y332000D02*
X739000Y322000D01*
X729000Y332000D02*
Y351000D01*
X808000Y630000D02*
X817000Y639000D01*
X578000Y630000D02*
X808000D01*
X565000Y643000D02*
X578000Y630000D01*
X388000Y643000D02*
X565000D01*
X381000Y636000D02*
X388000Y643000D01*
X381000Y449000D02*
Y636000D01*
Y449000D02*
X392000Y438000D01*
Y433000D02*
Y438000D01*
D65*
X447000Y598000D02*
D03*
X421600D02*
D03*
X396200D02*
D03*
D66*
X370800D02*
D03*
D70*
X810900Y354600D02*
D03*
D84*
X373000Y301000D02*
X452000D01*
D86*
X908975Y366200D02*
D03*
Y279800D02*
D03*
D87*
X913975Y294100D02*
D03*
Y351900D02*
D03*
D88*
X950775Y279800D02*
D03*
Y366200D02*
D03*
D89*
X389500Y394000D02*
D03*
X382000Y386500D02*
D03*
Y371500D02*
D03*
X397000D02*
D03*
X389500Y364000D02*
D03*
X404500D02*
D03*
X412000Y371500D02*
D03*
Y386500D02*
D03*
X397000D02*
D03*
X404500Y394000D02*
D03*
Y379000D02*
D03*
X389500D02*
D03*
D90*
X534000Y358000D02*
D03*
X816000Y291000D02*
D03*
X808000Y291000D02*
D03*
D91*
X549000Y368000D02*
D03*
X396808Y362314D02*
D03*
X602148Y497500D02*
D03*
X817118Y617250D02*
D03*
X580744Y438050D02*
D03*
X721516Y276000D02*
D03*
X672000Y309000D02*
D03*
X666000Y275000D02*
D03*
X455000Y405000D02*
D03*
X456000Y379000D02*
D03*
X696000Y458000D02*
D03*
X472000Y362000D02*
D03*
X448000Y367000D02*
D03*
X461000Y365000D02*
D03*
X334000Y419000D02*
D03*
X423000Y369000D02*
D03*
X437000Y330000D02*
D03*
X380000Y435000D02*
D03*
X406000Y353000D02*
D03*
X579680Y346000D02*
D03*
X367000Y437000D02*
D03*
X401000Y311000D02*
D03*
X729000Y351000D02*
D03*
X392000Y433000D02*
D03*
X417000Y319000D02*
D03*
Y332000D02*
D03*
X468000Y304000D02*
D03*
X781000Y594000D02*
D03*
X345000Y381000D02*
D03*
Y393000D02*
D03*
X561000Y614000D02*
D03*
X803000Y333000D02*
D03*
X728000Y447000D02*
D03*
X715000Y371000D02*
D03*
X787000Y356000D02*
D03*
X433000Y268000D02*
D03*
X406000Y281000D02*
D03*
X376000Y267000D02*
D03*
X332000Y404000D02*
D03*
X515930Y282250D02*
D03*
X533680Y300000D02*
D03*
X473807Y395381D02*
D03*
X485648Y469392D02*
D03*
X753000Y283215D02*
D03*
Y342392D02*
D03*
X657754Y547730D02*
D03*
X802374Y403110D02*
D03*
X518263Y391092D02*
D03*
X830000Y333000D02*
D03*
X800736Y475488D02*
D03*
X844000Y485944D02*
D03*
Y386200D02*
D03*
X615294Y547730D02*
D03*
X609854Y425350D02*
D03*
X532230Y438050D02*
D03*
X547570Y507580D02*
D03*
X658368Y381737D02*
D03*
X518192Y427737D02*
D03*
X667193Y444263D02*
D03*
X674320Y484375D02*
D03*
X654000Y527455D02*
D03*
X883000Y287000D02*
D03*
X839000Y271000D02*
D03*
X649000Y452304D02*
D03*
X548894Y492252D02*
D03*
X563826Y444246D02*
D03*
X650000D02*
D03*
X605076Y452374D02*
D03*
X538480Y484378D02*
D03*
X475488Y428752D02*
D03*
X454406Y461786D02*
D03*
X533527Y280035D02*
D03*
X579628Y300000D02*
D03*
X604774Y351282D02*
D03*
X422148Y355600D02*
D03*
X781812Y471424D02*
D03*
X777608Y485000D02*
D03*
X504290Y399950D02*
D03*
X765000Y319484D02*
D03*
X890016Y502666D02*
D03*
X913130Y340614D02*
D03*
X636524Y517398D02*
D03*
X609770Y399950D02*
D03*
X608198Y487426D02*
D03*
X532230Y412650D02*
D03*
X816864Y388620D02*
D03*
X779331Y563000D02*
D03*
X917000Y302000D02*
D03*
D92*
X817000Y639000D02*
D03*
D93*
X467000Y450744D02*
X485648Y469392D01*
X467000Y402188D02*
Y450744D01*
Y402188D02*
X473807Y395381D01*
X657754Y547730D02*
X802374Y403110D01*
X504290Y450188D02*
X538480Y484378D01*
X482854Y428752D02*
X504290Y450188D01*
X548894Y429314D02*
Y459178D01*
X816864Y525467D02*
Y616996D01*
Y388620D02*
Y525467D01*
X515930Y282250D02*
X533680Y300000D01*
X597408Y412313D02*
Y476636D01*
X580744Y513180D02*
X615294Y547730D01*
X580744Y438050D02*
Y513180D01*
X593090Y488442D02*
X602148Y497500D01*
X593090Y406400D02*
Y488442D01*
Y406400D02*
X605790Y393700D01*
X613410D01*
X615950Y396240D01*
Y419254D01*
X609854Y425350D02*
X615950Y419254D01*
X622046Y425350D02*
X649000Y452304D01*
X609854Y425350D02*
X622046D01*
X548894Y459178D02*
Y492252D01*
Y459178D02*
X563826Y444246D01*
X475488Y428752D02*
X482854D01*
X579628Y345948D02*
X579680Y346000D01*
X579628Y300000D02*
Y345948D01*
X504290Y399950D02*
Y450188D01*
X721516Y276000D02*
X765000Y319484D01*
X890016Y502666D02*
X923544Y469138D01*
Y351028D02*
Y469138D01*
X913130Y340614D02*
X923544Y351028D01*
X605076Y452374D02*
X617172Y464469D01*
Y498046D01*
X636524Y517398D01*
X597408Y412313D02*
X609770Y399950D01*
X597408Y476636D02*
X608198Y487426D01*
X532230Y412650D02*
X548894Y429314D01*
X816864Y616996D02*
X817118Y617250D01*
X779331Y563000D02*
X816864Y525467D01*
M02*
