G04*
G04 #@! TF.GenerationSoftware,Altium Limited,Altium Designer,23.9.2 (47)*
G04*
G04 Layer_Color=32896*
%FSLAX44Y44*%
%MOMM*%
G71*
G04*
G04 #@! TF.SameCoordinates,250A9CB9-7403-4FF4-BB43-A60BEB693519*
G04*
G04*
G04 #@! TF.FilePolarity,Positive*
G04*
G01*
G75*
%ADD11C,0.2000*%
%ADD15C,0.2540*%
D11*
X161302Y148462D02*
X174027D01*
X161302Y134963D02*
X174027D01*
X140620Y149860D02*
X154020D01*
X140620Y137160D02*
X154020D01*
X157130Y113030D02*
X170530D01*
X157130Y100330D02*
X170530D01*
X158069Y116960D02*
X172131D01*
X158069Y131960D02*
X172131D01*
X121932Y83095D02*
X134657D01*
X121932Y96594D02*
X134657D01*
X157528Y83786D02*
X170253D01*
X157528Y97287D02*
X170253D01*
X119030Y134620D02*
X132430D01*
X119030Y147320D02*
X132430D01*
X122956Y111224D02*
X133584D01*
X122956Y99596D02*
X133584D01*
X120613Y115170D02*
X133338D01*
X120613Y128670D02*
X133338D01*
X359982Y30671D02*
X374743D01*
X359982Y45529D02*
X374743D01*
X321882D02*
X336643D01*
X321882Y30671D02*
X336643D01*
X311169Y273930D02*
X331290D01*
X311169Y256930D02*
X331290D01*
X383540Y260000D02*
Y273400D01*
X396240Y260000D02*
Y273400D01*
X363220Y258730D02*
Y272130D01*
X375920Y258730D02*
Y272130D01*
X337280Y273050D02*
X350680D01*
X337280Y260350D02*
X350680D01*
D15*
X314878Y247191D02*
Y253189D01*
X311879D01*
X310880Y252189D01*
Y250190D01*
X311879Y249190D01*
X314878D01*
X312879D02*
X310880Y247191D01*
X304882Y253189D02*
X306881Y252189D01*
X308880Y250190D01*
Y248191D01*
X307881Y247191D01*
X305881D01*
X304882Y248191D01*
Y249190D01*
X305881Y250190D01*
X308880D01*
X374093Y54229D02*
Y69464D01*
X366476D01*
X363937Y66925D01*
Y61846D01*
X366476Y59307D01*
X374093D01*
X369015D02*
X363937Y54229D01*
X348702D02*
X358858D01*
X348702Y64386D01*
Y66925D01*
X351241Y69464D01*
X356319D01*
X358858Y66925D01*
X335993Y54229D02*
Y69464D01*
X328376D01*
X325837Y66925D01*
Y61846D01*
X328376Y59307D01*
X335993D01*
X330915D02*
X325837Y54229D01*
X320758D02*
X315680D01*
X318219D01*
Y69464D01*
X320758Y66925D01*
X372569Y252189D02*
X373569Y253189D01*
X375568D01*
X376568Y252189D01*
Y248191D01*
X375568Y247191D01*
X373569D01*
X372569Y248191D01*
X366571Y247191D02*
X370570D01*
X366571Y251190D01*
Y252189D01*
X367571Y253189D01*
X369570D01*
X370570Y252189D01*
X364572Y247191D02*
X362572D01*
X363572D01*
Y253189D01*
X364572Y252189D01*
X392619Y253459D02*
X393618Y254459D01*
X395618D01*
X396617Y253459D01*
Y249461D01*
X395618Y248461D01*
X393618D01*
X392619Y249461D01*
X386621Y248461D02*
X390619D01*
X386621Y252460D01*
Y253459D01*
X387620Y254459D01*
X389620D01*
X390619Y253459D01*
X384621D02*
X383622Y254459D01*
X381622D01*
X380623Y253459D01*
Y249461D01*
X381622Y248461D01*
X383622D01*
X384621Y249461D01*
Y253459D01*
X347669Y254729D02*
X348669Y255729D01*
X350668D01*
X351668Y254729D01*
Y250731D01*
X350668Y249731D01*
X348669D01*
X347669Y250731D01*
X345670Y249731D02*
X343670D01*
X344670D01*
Y255729D01*
X345670Y254729D01*
X340671Y250731D02*
X339672Y249731D01*
X337672D01*
X336672Y250731D01*
Y254729D01*
X337672Y255729D01*
X339672D01*
X340671Y254729D01*
Y253730D01*
X339672Y252730D01*
X336672D01*
X129039Y156939D02*
X130039Y157939D01*
X132038D01*
X133038Y156939D01*
Y152941D01*
X132038Y151941D01*
X130039D01*
X129039Y152941D01*
X127039Y151941D02*
X125040D01*
X126040D01*
Y157939D01*
X127039Y156939D01*
X119042Y151941D02*
Y157939D01*
X122041Y154940D01*
X118042D01*
X173703Y156412D02*
X174703Y157412D01*
X176702D01*
X177702Y156412D01*
Y152413D01*
X176702Y151413D01*
X174703D01*
X173703Y152413D01*
X171704Y151413D02*
X169704D01*
X170704D01*
Y157412D01*
X171704Y156412D01*
X166705D02*
X165706Y157412D01*
X163706D01*
X162707Y156412D01*
Y155412D01*
X163706Y154412D01*
X164706D01*
X163706D01*
X162707Y153413D01*
Y152413D01*
X163706Y151413D01*
X165706D01*
X166705Y152413D01*
X166119Y78158D02*
X167119Y79158D01*
X169118D01*
X170118Y78158D01*
Y74160D01*
X169118Y73160D01*
X167119D01*
X166119Y74160D01*
X164120Y73160D02*
X162121D01*
X163120D01*
Y79158D01*
X164120Y78158D01*
X159122D02*
X158122Y79158D01*
X156123D01*
X155123Y78158D01*
Y74160D01*
X156123Y73160D01*
X158122D01*
X159122Y74160D01*
Y78158D01*
X129294Y78199D02*
X130294Y79198D01*
X132293D01*
X133293Y78199D01*
Y74200D01*
X132293Y73200D01*
X130294D01*
X129294Y74200D01*
X127295D02*
X126295Y73200D01*
X124296D01*
X123296Y74200D01*
Y78199D01*
X124296Y79198D01*
X126295D01*
X127295Y78199D01*
Y77199D01*
X126295Y76199D01*
X123296D01*
X108925Y123593D02*
X109925Y124593D01*
X111924D01*
X112924Y123593D01*
Y119594D01*
X111924Y118595D01*
X109925D01*
X108925Y119594D01*
X106926Y123593D02*
X105926Y124593D01*
X103927D01*
X102927Y123593D01*
Y122593D01*
X103927Y121594D01*
X102927Y120594D01*
Y119594D01*
X103927Y118595D01*
X105926D01*
X106926Y119594D01*
Y120594D01*
X105926Y121594D01*
X106926Y122593D01*
Y123593D01*
X105926Y121594D02*
X103927D01*
X149590Y158209D02*
X150589Y159209D01*
X152589D01*
X153588Y158209D01*
Y154211D01*
X152589Y153211D01*
X150589D01*
X149590Y154211D01*
X147590Y159209D02*
X143592D01*
Y158209D01*
X147590Y154211D01*
Y153211D01*
X186420Y126117D02*
X187419Y127117D01*
X189419D01*
X190418Y126117D01*
Y122118D01*
X189419Y121119D01*
X187419D01*
X186420Y122118D01*
X180422Y127117D02*
X182421Y126117D01*
X184420Y124118D01*
Y122118D01*
X183421Y121119D01*
X181421D01*
X180422Y122118D01*
Y123118D01*
X181421Y124118D01*
X184420D01*
X184960Y109949D02*
X185959Y110949D01*
X187959D01*
X188958Y109949D01*
Y105951D01*
X187959Y104951D01*
X185959D01*
X184960Y105951D01*
X182960Y109949D02*
X181961Y110949D01*
X179961D01*
X178962Y109949D01*
Y108950D01*
X179961Y107950D01*
X180961D01*
X179961D01*
X178962Y106950D01*
Y105951D01*
X179961Y104951D01*
X181961D01*
X182960Y105951D01*
X111490Y107409D02*
X112489Y108409D01*
X114489D01*
X115488Y107409D01*
Y103411D01*
X114489Y102411D01*
X112489D01*
X111490Y103411D01*
X105492Y102411D02*
X109490D01*
X105492Y106410D01*
Y107409D01*
X106491Y108409D01*
X108491D01*
X109490Y107409D01*
M02*
