G04*
G04 #@! TF.GenerationSoftware,Altium Limited,Altium Designer,23.9.2 (47)*
G04*
G04 Layer_Color=128*
%FSLAX44Y44*%
%MOMM*%
G71*
G04*
G04 #@! TF.SameCoordinates,250A9CB9-7403-4FF4-BB43-A60BEB693519*
G04*
G04*
G04 #@! TF.FilePolarity,Positive*
G04*
G01*
G75*
%ADD14C,0.1270*%
D14*
X188087Y250190D02*
X196587D01*
X192337Y245940D02*
Y254440D01*
X162687Y250190D02*
X171187D01*
X166937Y245940D02*
Y254440D01*
X137287Y250190D02*
X145787D01*
X141537Y245940D02*
Y254440D01*
X111887Y250190D02*
X120387D01*
X116137Y245940D02*
Y254440D01*
X292640Y290830D02*
X296640D01*
X294640Y288830D02*
Y292830D01*
X105180Y179070D02*
X108180D01*
X106680Y177570D02*
Y180570D01*
X371880Y57150D02*
X374880D01*
X373380Y55650D02*
Y58650D01*
X112030Y85090D02*
X114030D01*
X113030Y84090D02*
Y86090D01*
X73930Y107950D02*
X75930D01*
X74930Y106950D02*
Y108950D01*
X145050Y134620D02*
X147050D01*
X146050Y133620D02*
Y135620D01*
X151400Y128270D02*
X153400D01*
X152400Y127270D02*
Y129270D01*
X152670Y111760D02*
X154670D01*
X153670Y110760D02*
Y112760D01*
X180360Y53340D02*
X182860D01*
X181610Y52090D02*
Y54590D01*
X137850Y133436D02*
X141850D01*
X139850Y131436D02*
Y135436D01*
X130350Y125936D02*
X134350D01*
X132350Y123936D02*
Y127936D01*
X130350Y110936D02*
X134350D01*
X132350Y108936D02*
Y112936D01*
X145350Y110936D02*
X149350D01*
X147350Y108936D02*
Y112936D01*
X137850Y103436D02*
X141850D01*
X139850Y101436D02*
Y105436D01*
X152850Y103436D02*
X156850D01*
X154850Y101436D02*
Y105436D01*
X160350Y110936D02*
X164350D01*
X162350Y108936D02*
Y112936D01*
X160350Y125936D02*
X164350D01*
X162350Y123936D02*
Y127936D01*
X145350Y125936D02*
X149350D01*
X147350Y123936D02*
Y127936D01*
X152850Y133436D02*
X156850D01*
X154850Y131436D02*
Y135436D01*
X152850Y118436D02*
X156850D01*
X154850Y116436D02*
Y120436D01*
X137850Y118436D02*
X141850D01*
X139850Y116436D02*
Y120436D01*
X75874Y185576D02*
X78373D01*
X77123Y184326D02*
Y186826D01*
X91480Y15240D02*
X96480D01*
X93980Y12740D02*
Y17740D01*
X215940Y175260D02*
X220940D01*
X218440Y172760D02*
Y177760D01*
X266740Y140970D02*
X271740D01*
X269240Y138470D02*
Y143470D01*
X303300Y97790D02*
X306300D01*
X304800Y96290D02*
Y99290D01*
X337860Y135890D02*
X342860D01*
X340360Y133390D02*
Y138390D01*
X385640Y34645D02*
X391640D01*
X388640Y31645D02*
Y37645D01*
X299240Y34645D02*
X305240D01*
X302240Y31645D02*
Y37645D01*
X371090Y71445D02*
X377590D01*
X374340Y68195D02*
Y74695D01*
X313290Y71445D02*
X319790D01*
X316540Y68195D02*
Y74695D01*
X299240Y76445D02*
X305240D01*
X302240Y73445D02*
Y79445D01*
X385640Y76445D02*
X391640D01*
X388640Y73445D02*
Y79445D01*
X194080Y88900D02*
X197080D01*
X195580Y87400D02*
Y90400D01*
X194850Y147320D02*
X198850D01*
X196850Y145320D02*
Y149320D01*
X194080Y7620D02*
X197080D01*
X195580Y6120D02*
Y9120D01*
X152170Y74930D02*
X155170D01*
X153670Y73430D02*
Y76430D01*
X147590Y92710D02*
X149590D01*
X148590Y91710D02*
Y93710D01*
X176300Y62160D02*
X179300D01*
X177800Y60660D02*
Y63660D01*
X151780Y62660D02*
X154280D01*
X153030Y61410D02*
Y63910D01*
X139970Y160020D02*
X141970D01*
X140970Y159020D02*
Y161020D01*
X199160Y135890D02*
X202160D01*
X200660Y134390D02*
Y137390D01*
X312440Y195580D02*
X314940D01*
X313690Y194330D02*
Y196830D01*
X279670Y85090D02*
X281670D01*
X280670Y84090D02*
Y86090D01*
X178070Y78740D02*
X180070D01*
X179070Y77740D02*
Y79740D01*
X310150Y237490D02*
X312150D01*
X311150Y236490D02*
Y238490D01*
X246650Y114300D02*
X248650D01*
X247650Y113300D02*
Y115300D01*
X197120Y113436D02*
X199120D01*
X198120Y112436D02*
Y114436D01*
X356640Y215900D02*
X359640D01*
X358140Y214400D02*
Y217400D01*
X74700Y76200D02*
X77700D01*
X76200Y74700D02*
Y77700D01*
X100100Y119380D02*
X103100D01*
X101600Y117880D02*
Y120880D01*
X95440Y88900D02*
X97440D01*
X96440Y87900D02*
Y89900D01*
X98830Y132080D02*
X101830D01*
X100330Y130580D02*
Y133580D01*
X327430Y233680D02*
X330430D01*
X328930Y232180D02*
Y235180D01*
X149630Y194310D02*
X152630D01*
X151130Y192810D02*
Y195810D01*
X337590Y54610D02*
X340590D01*
X339090Y53110D02*
Y56110D01*
X351560Y62230D02*
X354560D01*
X353060Y60730D02*
Y63730D01*
X319810Y50800D02*
X322810D01*
X321310Y49300D02*
Y52300D01*
X359180Y52070D02*
X362180D01*
X360680Y50570D02*
Y53570D01*
X85360Y71120D02*
X87360D01*
X86360Y70120D02*
Y72120D01*
X152670Y54610D02*
X154670D01*
X153670Y53610D02*
Y55610D01*
X163190Y60870D02*
X164190D01*
X163690Y60370D02*
Y61370D01*
X137264Y93936D02*
X139264D01*
X138264Y92936D02*
Y94936D01*
X196870Y54610D02*
X199370D01*
X198120Y53360D02*
Y55860D01*
X290850Y104140D02*
X293350D01*
X292100Y102890D02*
Y105390D01*
X181880Y86360D02*
X183880D01*
X182880Y85360D02*
Y87360D01*
X280690Y111760D02*
X283190D01*
X281940Y110510D02*
Y113010D01*
X172990Y100330D02*
X174990D01*
X173990Y99330D02*
Y101330D01*
X162830Y163830D02*
X164830D01*
X163830Y162830D02*
Y164830D01*
X133620Y52070D02*
X135620D01*
X134620Y51070D02*
Y53070D01*
X113300Y152400D02*
X115300D01*
X114300Y151400D02*
Y153400D01*
M02*
