G04*
G04 #@! TF.GenerationSoftware,Altium Limited,Altium Designer,23.9.2 (47)*
G04*
G04 Layer_Color=32768*
%FSLAX44Y44*%
%MOMM*%
G71*
G04*
G04 #@! TF.SameCoordinates,2E1E75F7-3D1D-466E-99F7-38A65D3F2882*
G04*
G04*
G04 #@! TF.FilePolarity,Positive*
G04*
G01*
G75*
%ADD11C,0.2000*%
D11*
X384457Y285914D02*
X392457D01*
X384457Y269914D02*
Y285914D01*
Y269914D02*
X392457D01*
Y285914D01*
X355686Y288814D02*
X362313D01*
X355686Y275186D02*
Y288814D01*
Y275186D02*
X362313D01*
Y288814D01*
X725000Y548000D02*
Y564000D01*
X733000D01*
Y548000D02*
Y564000D01*
X725000Y548000D02*
X733000D01*
X510250Y489637D02*
Y504362D01*
X517750D01*
Y489637D02*
Y504362D01*
X510250Y489637D02*
X517750D01*
X469000Y490000D02*
Y506000D01*
X477000D01*
Y490000D02*
Y506000D01*
X469000Y490000D02*
X477000D01*
X587000Y545000D02*
Y561000D01*
X595000D01*
Y545000D02*
Y561000D01*
X587000Y545000D02*
X595000D01*
X429314Y276186D02*
Y289814D01*
X422687Y276186D02*
X429314D01*
X422687D02*
Y289814D01*
X429314D01*
X714571Y468619D02*
Y485380D01*
X723429D01*
Y468619D02*
Y485380D01*
X714571Y468619D02*
X723429D01*
X808500Y398969D02*
Y415031D01*
X817500D01*
Y398969D02*
Y415031D01*
X808500Y398969D02*
X817500D01*
X757250Y279638D02*
Y294362D01*
X764750D01*
Y279638D02*
Y294362D01*
X757250Y279638D02*
X764750D01*
X692250Y347638D02*
Y362363D01*
X699750D01*
Y347638D02*
Y362363D01*
X692250Y347638D02*
X699750D01*
X468250Y450000D02*
Y464000D01*
X475750D01*
Y450000D02*
Y464000D01*
X468250Y450000D02*
X475750D01*
X463000Y277500D02*
Y294500D01*
X471000D01*
Y277500D02*
Y294500D01*
X463000Y277500D02*
X471000D01*
X881572Y475554D02*
Y492315D01*
X890430D01*
Y475554D02*
Y492315D01*
X881572Y475554D02*
X890430D01*
X761251Y398852D02*
Y413577D01*
X768750D01*
Y398852D02*
Y413577D01*
X761251Y398852D02*
X768750D01*
X395000Y491000D02*
Y507000D01*
X403000D01*
Y491000D02*
Y507000D01*
X395000Y491000D02*
X403000D01*
X434250Y489852D02*
Y504577D01*
X441750D01*
Y489852D02*
Y504577D01*
X434250Y489852D02*
X441750D01*
X742000Y359750D02*
X756000D01*
Y352250D02*
Y359750D01*
X742000Y352250D02*
X756000D01*
X742000D02*
Y359750D01*
X765500Y545669D02*
Y567791D01*
X776500D01*
Y545669D02*
Y567791D01*
X765500Y545669D02*
X776500D01*
X629500Y542939D02*
Y565061D01*
X618500Y542939D02*
X629500D01*
X618500D02*
Y565061D01*
X629500D01*
X645500Y467000D02*
X662500D01*
Y459000D02*
Y467000D01*
X645500Y459000D02*
X662500D01*
X645500D02*
Y467000D01*
X648500Y392000D02*
X665500D01*
X648500D02*
Y400000D01*
X665500D01*
Y392000D02*
Y400000D01*
X703500Y398079D02*
Y414141D01*
X712500D01*
Y398079D02*
Y414141D01*
X703500Y398079D02*
X712500D01*
X588000Y328000D02*
Y352000D01*
X600000D01*
Y328000D02*
Y352000D01*
X588000Y328000D02*
X600000D01*
X403000Y450000D02*
Y466000D01*
X395000Y450000D02*
X403000D01*
X395000D02*
Y466000D01*
X403000D01*
X433250Y450638D02*
Y465363D01*
X440750D01*
Y450638D02*
Y465363D01*
X433250Y450638D02*
X440750D01*
X467250Y403852D02*
Y418576D01*
X474750D01*
Y403852D02*
Y418576D01*
X467250Y403852D02*
X474750D01*
X645500Y505000D02*
X662500D01*
Y497000D02*
Y505000D01*
X645500Y497000D02*
X662500D01*
X645500D02*
Y505000D01*
X629001Y327000D02*
Y351000D01*
X641001D01*
Y327000D02*
Y351000D01*
X629001Y327000D02*
X641001D01*
X356500Y447079D02*
Y463141D01*
X365500D01*
Y447079D02*
Y463141D01*
X356500Y447079D02*
X365500D01*
X646500Y434000D02*
X663500D01*
Y426000D02*
Y434000D01*
X646500Y426000D02*
X663500D01*
X646500D02*
Y434000D01*
X356686Y494186D02*
Y507814D01*
X363313D01*
Y494186D02*
Y507814D01*
X356686Y494186D02*
X363313D01*
X497501Y446000D02*
X514500D01*
Y438000D02*
Y446000D01*
X497501Y438000D02*
X514500D01*
X497501D02*
Y446000D01*
X772000Y472500D02*
Y489500D01*
X764000Y472500D02*
X772000D01*
X764000D02*
Y489500D01*
X772000D01*
X811000Y471500D02*
Y488500D01*
X819000D01*
Y471500D02*
Y488500D01*
X811000Y471500D02*
X819000D01*
X546500Y269000D02*
X645750D01*
X546500D02*
Y306000D01*
X645750D01*
Y269000D02*
Y306000D01*
X258650Y541750D02*
Y654250D01*
Y541750D02*
X559150D01*
Y654250D01*
X258650D02*
X559150D01*
X803400Y349350D02*
X818400D01*
X803400D02*
Y359850D01*
X818400D01*
Y349350D02*
Y359850D01*
X883499Y549939D02*
Y572061D01*
X894500D01*
Y549939D02*
Y572061D01*
X883499Y549939D02*
X894500D01*
X840000Y553000D02*
Y569000D01*
X832000Y553000D02*
X840000D01*
X832000D02*
Y569000D01*
X840000D01*
X530500Y331501D02*
Y352500D01*
Y331501D02*
X555500D01*
Y352500D01*
X530500D02*
X555500D01*
M02*
