G04*
G04 #@! TF.GenerationSoftware,Altium Limited,Altium Designer,23.9.2 (47)*
G04*
G04 Layer_Physical_Order=1*
G04 Layer_Color=255*
%FSLAX44Y44*%
%MOMM*%
G71*
G04*
G04 #@! TF.SameCoordinates,250A9CB9-7403-4FF4-BB43-A60BEB693519*
G04*
G04*
G04 #@! TF.FilePolarity,Positive*
G04*
G01*
G75*
%ADD11C,0.2000*%
%ADD15C,0.2540*%
%ADD18R,0.6500X0.2200*%
%ADD19R,0.2200X0.6500*%
%ADD21R,0.6500X0.7000*%
%ADD22R,0.9000X0.3000*%
%ADD24R,0.5400X0.6000*%
%ADD25R,0.6000X0.5400*%
G04:AMPARAMS|DCode=26|XSize=0.6mm|YSize=1.05mm|CornerRadius=0.075mm|HoleSize=0mm|Usage=FLASHONLY|Rotation=180.000|XOffset=0mm|YOffset=0mm|HoleType=Round|Shape=RoundedRectangle|*
%AMROUNDEDRECTD26*
21,1,0.6000,0.9000,0,0,180.0*
21,1,0.4500,1.0500,0,0,180.0*
1,1,0.1500,-0.2250,0.4500*
1,1,0.1500,0.2250,0.4500*
1,1,0.1500,0.2250,-0.4500*
1,1,0.1500,-0.2250,-0.4500*
%
%ADD26ROUNDEDRECTD26*%
%ADD27O,2.0500X0.6000*%
%ADD28R,0.9000X0.8000*%
%ADD29R,0.4725X0.5153*%
%ADD30R,0.5153X0.4725*%
%ADD31R,0.5000X0.4000*%
%ADD32R,0.5200X0.5200*%
%ADD33R,2.5000X1.0000*%
%ADD34R,0.6062X0.6281*%
%ADD35R,0.3627X0.4541*%
%ADD36R,0.7500X0.9000*%
%ADD37R,0.9000X0.7500*%
%ADD38R,0.4000X0.5000*%
%ADD39R,0.4541X0.3627*%
%ADD40R,0.6631X0.5955*%
G04:AMPARAMS|DCode=41|XSize=0.6mm|YSize=1.15mm|CornerRadius=0.075mm|HoleSize=0mm|Usage=FLASHONLY|Rotation=0.000|XOffset=0mm|YOffset=0mm|HoleType=Round|Shape=RoundedRectangle|*
%AMROUNDEDRECTD41*
21,1,0.6000,1.0000,0,0,0.0*
21,1,0.4500,1.1500,0,0,0.0*
1,1,0.1500,0.2250,-0.5000*
1,1,0.1500,-0.2250,-0.5000*
1,1,0.1500,-0.2250,0.5000*
1,1,0.1500,0.2250,0.5000*
%
%ADD41ROUNDEDRECTD41*%
G04:AMPARAMS|DCode=42|XSize=0.3mm|YSize=1.15mm|CornerRadius=0.0375mm|HoleSize=0mm|Usage=FLASHONLY|Rotation=0.000|XOffset=0mm|YOffset=0mm|HoleType=Round|Shape=RoundedRectangle|*
%AMROUNDEDRECTD42*
21,1,0.3000,1.0750,0,0,0.0*
21,1,0.2250,1.1500,0,0,0.0*
1,1,0.0750,0.1125,-0.5375*
1,1,0.0750,-0.1125,-0.5375*
1,1,0.0750,-0.1125,0.5375*
1,1,0.0750,0.1125,0.5375*
%
%ADD42ROUNDEDRECTD42*%
%ADD43R,1.0500X0.6500*%
%ADD44C,0.2500*%
%ADD45R,0.6500X1.0500*%
%ADD46R,0.7581X0.8121*%
%ADD63R,1.3500X1.3500*%
%ADD64C,1.3500*%
%ADD73C,0.3500*%
%ADD74C,0.2880*%
%ADD75C,0.2880*%
%ADD76P,0.4950X4X270.0*%
%ADD77R,4.1000X4.1000*%
%ADD78R,0.2500X1.6500*%
%ADD79R,3.9400X0.5000*%
%ADD80R,0.5000X2.7000*%
%ADD81R,2.6400X0.5000*%
%ADD82R,0.5000X2.0000*%
%ADD83R,4.9000X0.5000*%
%ADD84R,0.5000X5.0000*%
%ADD85R,4.9000X0.9000*%
%ADD86C,0.2389*%
%ADD87C,0.3677*%
%ADD88C,0.6000*%
%ADD89C,0.5000*%
%ADD90C,0.4000*%
%ADD91C,1.0000*%
%ADD92O,1.0000X1.8000*%
%ADD93C,0.6500*%
%ADD94O,1.0000X2.1000*%
%ADD95C,0.8000*%
G36*
X119960Y182749D02*
X116324D01*
X116324Y182749D01*
X115153Y182516D01*
X114574Y182129D01*
X111410D01*
X111377Y182208D01*
X109818Y183767D01*
X107950Y184540D01*
Y179070D01*
Y173600D01*
X109818Y174373D01*
X111377Y175932D01*
X111410Y176011D01*
X112594D01*
X113080Y174838D01*
X110867Y172625D01*
X110204Y171633D01*
X109971Y170462D01*
X109971Y170462D01*
Y168072D01*
X96084D01*
Y170763D01*
X96173Y170781D01*
X97165Y171444D01*
X98336Y172615D01*
X98336Y172615D01*
X99000Y173608D01*
X99232Y174778D01*
X99232Y174778D01*
Y186426D01*
X108106D01*
X108106Y186426D01*
X109277Y186659D01*
X110269Y187322D01*
X110389Y187441D01*
X119960D01*
Y182749D01*
D02*
G37*
G36*
X398780Y106315D02*
X397607Y105829D01*
X394673Y108763D01*
X393680Y109426D01*
X392510Y109659D01*
X392510Y109659D01*
X352813D01*
Y113110D01*
X347243D01*
Y115650D01*
X352813D01*
Y120060D01*
X350301D01*
Y127753D01*
X350301Y127753D01*
X350068Y128924D01*
X349405Y129916D01*
X349405Y129916D01*
X347004Y132318D01*
X347386Y132980D01*
X347826Y134620D01*
X341630D01*
Y128424D01*
X342116Y128554D01*
X344184Y126487D01*
Y120060D01*
X341671D01*
Y115482D01*
X340806Y114904D01*
X340806Y114904D01*
X339049Y113146D01*
X338386Y112154D01*
X338153Y110983D01*
X338153Y110983D01*
Y102217D01*
X338153Y102217D01*
X338386Y101046D01*
X339049Y100054D01*
X339536Y99566D01*
X339050Y98393D01*
X329807D01*
X329806Y98393D01*
X328636Y98160D01*
X327644Y97497D01*
X327643Y97497D01*
X325034Y94887D01*
X324323Y94816D01*
X323348Y94998D01*
X323099Y95247D01*
Y104067D01*
X323237Y104934D01*
X324325Y105240D01*
X324794D01*
X326187Y105817D01*
X327253Y106883D01*
X327616Y107760D01*
X324040D01*
Y110300D01*
X327616D01*
X327374Y110885D01*
Y111175D01*
X327616Y111760D01*
X324040D01*
Y114300D01*
X327616D01*
X327374Y114885D01*
Y115175D01*
X327830Y116276D01*
Y116494D01*
X332248Y120913D01*
X332248Y120913D01*
X332911Y121905D01*
X333144Y123075D01*
X333144Y123076D01*
Y124345D01*
X333144Y124346D01*
X333144Y124346D01*
Y124348D01*
X337615Y128820D01*
X339090Y128424D01*
Y134620D01*
X332894D01*
X333289Y133145D01*
X327923Y127778D01*
X327749Y127519D01*
X318770D01*
X318770Y127519D01*
X317600Y127286D01*
X316607Y126623D01*
X310463Y120479D01*
X309893Y120243D01*
X308827Y119177D01*
X308464Y118300D01*
X312040D01*
Y116280D01*
X311394D01*
X310932Y116089D01*
X309880D01*
X309880Y116089D01*
X308709Y115856D01*
X308565Y115760D01*
X308464D01*
X308486Y115707D01*
X307717Y115193D01*
X307717Y115193D01*
X299723Y107199D01*
X295405D01*
X294649Y107955D01*
X292995Y108640D01*
X291205D01*
X289551Y107955D01*
X288285Y106689D01*
X287600Y105035D01*
Y103245D01*
X288285Y101591D01*
X289551Y100325D01*
X291205Y99640D01*
X292995D01*
X294649Y100325D01*
X295405Y101081D01*
X299333D01*
X300182Y99811D01*
X299871Y99060D01*
X304800D01*
Y97790D01*
X306070D01*
Y92861D01*
X307655Y93517D01*
X308869Y94731D01*
X310381D01*
Y90388D01*
X309906Y90294D01*
X308818Y89567D01*
X308091Y88479D01*
X307988Y87959D01*
X306593Y87428D01*
X305770Y88059D01*
X304067Y88765D01*
X302240Y89005D01*
X300413Y88765D01*
X298710Y88059D01*
X297248Y86937D01*
X296126Y85475D01*
X295420Y83772D01*
X295180Y81945D01*
Y70945D01*
X295420Y69117D01*
X296126Y67415D01*
X297248Y65952D01*
X298710Y64830D01*
X300413Y64125D01*
X302240Y63885D01*
X304067Y64125D01*
X305770Y64830D01*
X307233Y65952D01*
X308355Y67415D01*
X309060Y69117D01*
X309301Y70945D01*
Y72350D01*
X310431Y73249D01*
X311290Y72489D01*
Y70401D01*
X312089Y68471D01*
X313566Y66994D01*
X315496Y66195D01*
X317584D01*
X319514Y66994D01*
X320991Y68471D01*
X321790Y70401D01*
Y72489D01*
X321440Y73335D01*
X322145Y74391D01*
X323690D01*
X324763Y74605D01*
X325309Y74970D01*
X325888Y74583D01*
X326815Y74398D01*
X329065D01*
X329881Y73728D01*
Y63697D01*
X321984Y55800D01*
X320315D01*
X318478Y55039D01*
X317071Y53632D01*
X316310Y51795D01*
Y49805D01*
X317071Y47968D01*
X318478Y46561D01*
X320315Y45800D01*
X322305D01*
X324142Y46561D01*
X325549Y47968D01*
X326310Y49805D01*
Y51474D01*
X333996Y59160D01*
X335341Y58709D01*
X335436Y58028D01*
X334851Y57442D01*
X334090Y55605D01*
Y53615D01*
X334851Y51778D01*
X336258Y50371D01*
X338095Y49610D01*
X340085D01*
X341922Y50371D01*
X343329Y51778D01*
X344090Y53615D01*
Y55605D01*
X343329Y57442D01*
X342347Y58424D01*
Y69878D01*
X343617Y70557D01*
X344090Y70241D01*
X345336Y69993D01*
X349803D01*
Y66044D01*
X348821Y65062D01*
X348060Y63225D01*
Y61235D01*
X348821Y59398D01*
X350228Y57991D01*
X352065Y57230D01*
X354055D01*
X355892Y57991D01*
X357299Y59398D01*
X358060Y61235D01*
Y63225D01*
X357299Y65062D01*
X356317Y66044D01*
Y73990D01*
X356815Y74398D01*
X359065D01*
X359881Y73729D01*
Y57070D01*
X359685D01*
X357848Y56309D01*
X356441Y54902D01*
X355680Y53065D01*
Y51075D01*
X356441Y49238D01*
X357848Y47831D01*
X359685Y47070D01*
X361675D01*
X363512Y47831D01*
X364919Y49238D01*
X365680Y51075D01*
Y53065D01*
X365412Y53712D01*
X365766Y54242D01*
X365999Y55413D01*
X365999Y55413D01*
Y73333D01*
X367190Y74391D01*
X368735D01*
X369440Y73335D01*
X369090Y72489D01*
Y70401D01*
X369889Y68471D01*
X371366Y66994D01*
X372243Y66631D01*
X372541Y65133D01*
X371212Y63804D01*
X370549Y62811D01*
X370367Y61898D01*
X370242Y61847D01*
X368683Y60288D01*
X367910Y58420D01*
X378850D01*
X378077Y60288D01*
X377212Y61153D01*
X382032Y65972D01*
X383648Y65952D01*
X385110Y64830D01*
X386813Y64125D01*
X388640Y63885D01*
X390468Y64125D01*
X392170Y64830D01*
X393633Y65952D01*
X394451Y67019D01*
X395721Y66588D01*
Y43002D01*
X394451Y42571D01*
X393633Y43637D01*
X392170Y44759D01*
X390468Y45465D01*
X388640Y45705D01*
X386813Y45465D01*
X385110Y44759D01*
X383648Y43637D01*
X382526Y42175D01*
X381820Y40472D01*
X381580Y38645D01*
Y30645D01*
X381820Y28818D01*
X382526Y27115D01*
X383648Y25653D01*
X385110Y24531D01*
X386813Y23825D01*
X388640Y23585D01*
X390468Y23825D01*
X392170Y24531D01*
X393633Y25653D01*
X394451Y26719D01*
X395721Y26288D01*
Y11709D01*
X274904D01*
Y17920D01*
X274690Y18993D01*
X274083Y19902D01*
X273173Y20510D01*
X272100Y20724D01*
X267600D01*
X266527Y20510D01*
X266407Y20430D01*
X264972Y20292D01*
X263884Y21019D01*
X263409Y21113D01*
Y25400D01*
Y53518D01*
X267121D01*
Y47129D01*
X266527Y47011D01*
X265618Y46403D01*
X265010Y45493D01*
X264796Y44420D01*
Y35420D01*
X265010Y34347D01*
X265618Y33438D01*
X266527Y32830D01*
X267600Y32616D01*
X272100D01*
X273173Y32830D01*
X274083Y33438D01*
X274690Y34347D01*
X274904Y35420D01*
Y44420D01*
X274690Y45493D01*
X274083Y46403D01*
X273239Y46967D01*
Y54058D01*
X275087D01*
Y62782D01*
X268055D01*
Y63322D01*
X264209D01*
Y58420D01*
X262939D01*
Y57150D01*
X257511D01*
X257292Y56046D01*
X257292Y56046D01*
Y28459D01*
X251457D01*
X248548Y31368D01*
X249095Y32616D01*
X253100D01*
X254173Y32830D01*
X255083Y33438D01*
X255691Y34347D01*
X255904Y35420D01*
Y44420D01*
X255691Y45493D01*
X255083Y46403D01*
X254173Y47011D01*
X253909Y47063D01*
Y58540D01*
X253676Y59710D01*
X253013Y60703D01*
X253013Y60703D01*
X228000Y85716D01*
X228128Y86360D01*
X227740Y88311D01*
X226635Y89965D01*
X224981Y91070D01*
X223030Y91458D01*
X208530D01*
X206579Y91070D01*
X204925Y89965D01*
X203820Y88311D01*
X203432Y86360D01*
X203820Y84409D01*
X203967Y84189D01*
X203369Y83069D01*
X197887D01*
X197634Y84339D01*
X198412Y84661D01*
X199819Y86068D01*
X200580Y87905D01*
Y89895D01*
X199819Y91732D01*
X199444Y92107D01*
X199970Y93377D01*
X204824D01*
X204824Y93377D01*
X205994Y93610D01*
X206982Y94270D01*
X208530Y93962D01*
X223030D01*
X224981Y94350D01*
X226635Y95455D01*
X227740Y97109D01*
X228128Y99060D01*
X227979Y99811D01*
X229021Y101081D01*
X233680D01*
X233680Y101081D01*
X234851Y101314D01*
X235843Y101977D01*
X239183Y105317D01*
X239846Y106310D01*
X240079Y107480D01*
Y140130D01*
X243520D01*
Y145571D01*
X245861D01*
Y117889D01*
X245384Y117691D01*
X244259Y116566D01*
X243650Y115096D01*
Y113504D01*
X244259Y112034D01*
X245384Y110909D01*
X245861Y110711D01*
Y107170D01*
X245861Y107170D01*
X246094Y105999D01*
X246757Y105007D01*
X252060Y99704D01*
X251932Y99060D01*
X252320Y97109D01*
X253425Y95455D01*
X255079Y94350D01*
X257030Y93962D01*
X271530D01*
X273481Y94350D01*
X275135Y95455D01*
X276240Y97109D01*
X276628Y99060D01*
X276240Y101011D01*
X275135Y102665D01*
X273481Y103770D01*
X271530Y104158D01*
X257030D01*
X256386Y104030D01*
X254810Y105605D01*
X255108Y106973D01*
X255182Y107030D01*
X257030Y106662D01*
X271530D01*
X273481Y107050D01*
X275135Y108155D01*
X275499Y108701D01*
X278635D01*
X279391Y107945D01*
X281045Y107260D01*
X282835D01*
X284489Y107945D01*
X285755Y109211D01*
X286440Y110865D01*
Y111934D01*
X286643Y112137D01*
X286643Y112137D01*
X287306Y113129D01*
X287539Y114300D01*
Y147549D01*
X287747Y147861D01*
X287980Y149032D01*
X287747Y150202D01*
X287085Y151194D01*
X282486Y155793D01*
X281494Y156456D01*
X280323Y156689D01*
X280323Y156689D01*
X244060D01*
Y157360D01*
X237020D01*
Y158630D01*
X235750D01*
Y162670D01*
X234306D01*
X225159Y171817D01*
X225466Y172350D01*
X225906Y173990D01*
X210974D01*
X211414Y172350D01*
X212407Y170630D01*
X213810Y169226D01*
X215530Y168234D01*
X217447Y167720D01*
X218071D01*
X220461Y165330D01*
Y161920D01*
X219730D01*
Y156520D01*
X218460Y155994D01*
X218161Y156293D01*
X217169Y156956D01*
X216520Y157085D01*
Y162130D01*
X203520D01*
Y161189D01*
X196230D01*
X195060Y160956D01*
X194067Y160293D01*
X194067Y160293D01*
X187067Y153293D01*
X186404Y152301D01*
X186171Y151130D01*
X186171Y151130D01*
Y147536D01*
X176450D01*
Y157936D01*
X167557D01*
X166889Y158750D01*
X166889Y158750D01*
Y161232D01*
X167221Y161564D01*
X167830Y163034D01*
Y164626D01*
X167221Y166096D01*
X166096Y167221D01*
X164626Y167830D01*
X163034D01*
X161564Y167221D01*
X160439Y166096D01*
X159830Y164626D01*
Y163034D01*
X160439Y161564D01*
X160732Y161271D01*
Y159978D01*
X159188Y158433D01*
X158855Y157936D01*
X151620D01*
X151495Y159206D01*
X152039Y159314D01*
X153031Y159977D01*
X158084Y165031D01*
X158748Y166023D01*
X158980Y167194D01*
X158980Y167194D01*
Y169511D01*
X158980Y169511D01*
X159103Y169661D01*
X175358D01*
X175358Y169661D01*
X176529Y169894D01*
X177521Y170557D01*
X181141Y174177D01*
X181804Y175169D01*
X182037Y176340D01*
Y176631D01*
X183924Y178518D01*
X186629D01*
Y177978D01*
X190476D01*
Y182880D01*
Y187782D01*
X186629D01*
Y187242D01*
X179598D01*
Y182843D01*
X176815Y180061D01*
X176152Y179068D01*
X175919Y177898D01*
X175919Y177898D01*
Y177607D01*
X174091Y175779D01*
X160017D01*
X159032Y176764D01*
X159058Y178034D01*
X169400D01*
Y187988D01*
X167144D01*
Y227642D01*
X166911Y228813D01*
X166248Y229805D01*
X166248Y229805D01*
X149526Y246527D01*
X149691Y246813D01*
X150287Y249038D01*
Y251342D01*
X149691Y253567D01*
X148539Y255563D01*
X146910Y257192D01*
X144915Y258344D01*
X142689Y258940D01*
X140386D01*
X138160Y258344D01*
X136165Y257192D01*
X134536Y255563D01*
X133384Y253567D01*
X132787Y251342D01*
Y249038D01*
X133384Y246813D01*
X134536Y244817D01*
X136165Y243188D01*
X138160Y242036D01*
X140386Y241440D01*
X142689D01*
X144915Y242036D01*
X145201Y242201D01*
X161026Y226375D01*
Y190482D01*
X160464Y190148D01*
X159756Y190009D01*
X156130Y193636D01*
Y195305D01*
X155369Y197142D01*
X153962Y198549D01*
X152125Y199310D01*
X150135D01*
X148298Y198549D01*
X146891Y197142D01*
X146130Y195305D01*
Y193315D01*
X146891Y191478D01*
X148298Y190071D01*
X150135Y189310D01*
X150639D01*
X150674Y189258D01*
X150640Y187988D01*
X150640D01*
Y180778D01*
X149466Y180292D01*
X148906Y180853D01*
X147914Y181516D01*
X147500Y181598D01*
Y188690D01*
X138826D01*
X134853Y192663D01*
X133861Y193326D01*
X132690Y193559D01*
X132690Y193559D01*
X109122D01*
X107951Y193326D01*
X106959Y192663D01*
X106840Y192544D01*
X96173D01*
X95003Y192311D01*
X94011Y191648D01*
X93348Y190655D01*
X93115Y189485D01*
Y177868D01*
X93084Y176665D01*
X92788Y176607D01*
X88424D01*
Y177146D01*
X84453D01*
Y171607D01*
X83183D01*
Y170336D01*
X77888D01*
X72421Y164869D01*
X71758Y163877D01*
X71525Y162707D01*
X71525Y162706D01*
Y146207D01*
X71525Y146207D01*
X71758Y145036D01*
X72421Y144044D01*
X73691Y142774D01*
X73691Y142774D01*
X74683Y142111D01*
X75854Y141878D01*
X75854Y141878D01*
X77731D01*
Y139697D01*
X82001D01*
Y144937D01*
X84541D01*
Y139221D01*
X84728Y138993D01*
X84728Y138993D01*
Y136050D01*
X77430D01*
Y132292D01*
X66040Y120902D01*
X64770Y121428D01*
Y191770D01*
X2540D01*
Y304800D01*
X398780D01*
Y106315D01*
D02*
G37*
G36*
X120500Y171947D02*
Y165690D01*
X123160D01*
Y164072D01*
X116630D01*
X116591Y164099D01*
X115957Y165047D01*
X115884Y165342D01*
X116089Y166370D01*
Y169195D01*
X119327Y172433D01*
X120500Y171947D01*
D02*
G37*
G36*
X133500Y165690D02*
X133961Y165150D01*
X134389Y164115D01*
X131219Y160944D01*
X129277Y162886D01*
Y165690D01*
X133500D01*
D02*
G37*
G36*
X85554Y162850D02*
X85554Y162850D01*
X86348Y162320D01*
X86696Y161188D01*
X86737Y160913D01*
X86164Y160055D01*
X83945Y157837D01*
X78271D01*
X77642Y158846D01*
Y161439D01*
X81471Y165268D01*
X82721Y165684D01*
X85554Y162850D01*
D02*
G37*
G36*
X118250Y157936D02*
Y155459D01*
X116898D01*
X116566Y155791D01*
X115096Y156400D01*
X113504D01*
X112034Y155791D01*
X110909Y154666D01*
X110428Y153504D01*
X109127Y153009D01*
X108843Y153293D01*
X107851Y153956D01*
X106680Y154189D01*
X106680Y154189D01*
X93980D01*
X93980Y154189D01*
X92809Y153956D01*
X91817Y153293D01*
X91817Y153293D01*
X90547Y152023D01*
X89884Y151031D01*
X88610Y151138D01*
X88271Y151332D01*
Y153511D01*
X91063Y156302D01*
X91063Y156302D01*
X91636Y157160D01*
X92430Y157954D01*
X116987D01*
X118250Y157936D01*
D02*
G37*
G36*
X203520Y151189D02*
X201466D01*
X200249Y152407D01*
X198211Y153251D01*
X197833Y153973D01*
X197634Y154590D01*
X198000Y155071D01*
X203520D01*
Y151189D01*
D02*
G37*
G36*
X118250Y148980D02*
Y147536D01*
X117118D01*
X116593Y148806D01*
X116980Y149192D01*
X118250Y148980D01*
D02*
G37*
G36*
X106948Y146536D02*
X106394Y145707D01*
X106385Y145662D01*
X106348Y145607D01*
X106115Y144436D01*
X106213Y143944D01*
X105332Y142674D01*
X96816D01*
X95769Y143917D01*
Y148071D01*
X105413D01*
X106948Y146536D01*
D02*
G37*
G36*
X99261Y126580D02*
X99157Y125884D01*
X99056Y125380D01*
X99057Y125380D01*
Y124242D01*
X98394Y123783D01*
X97124Y124396D01*
Y126621D01*
X98389Y127467D01*
X99261Y126580D01*
D02*
G37*
G36*
X195657Y141320D02*
X197385D01*
X197715Y140430D01*
X197749Y140050D01*
X196421Y138722D01*
X195660Y136885D01*
Y134895D01*
X196421Y133058D01*
X197828Y131651D01*
X199665Y130890D01*
X201655D01*
X203492Y131651D01*
X204899Y133058D01*
X205660Y134895D01*
Y136885D01*
X205350Y137634D01*
X207846Y140130D01*
X214461D01*
Y136240D01*
X214461Y136240D01*
X214694Y135069D01*
X215357Y134077D01*
X218606Y130828D01*
X218080Y129558D01*
X208530D01*
X206579Y129170D01*
X204925Y128065D01*
X204561Y127519D01*
X200660D01*
X199489Y127286D01*
X198497Y126623D01*
X193462Y121588D01*
X192289Y122074D01*
Y141737D01*
X193559Y142189D01*
X195657Y141320D01*
D02*
G37*
G36*
X148620Y119706D02*
X150505D01*
X150350Y119331D01*
Y117541D01*
X150505Y117166D01*
X144196D01*
X144351Y117541D01*
Y119331D01*
X144196Y119706D01*
X146080D01*
Y121591D01*
X146455Y121436D01*
X148245D01*
X148620Y121591D01*
Y119706D01*
D02*
G37*
G36*
X107850Y120423D02*
X106600Y120375D01*
X105839Y122212D01*
X105174Y122877D01*
Y124113D01*
X106338Y125277D01*
X107850D01*
Y120423D01*
D02*
G37*
G36*
X281421Y148206D02*
Y116260D01*
X281045D01*
X279391Y115575D01*
X278635Y114819D01*
X275499D01*
X275135Y115365D01*
X273481Y116470D01*
X271530Y116858D01*
X257030D01*
X255079Y116470D01*
X253425Y115365D01*
X253249Y115101D01*
X251979Y115486D01*
Y119936D01*
X253249Y120323D01*
X254868Y119241D01*
X257030Y118812D01*
X263010D01*
Y124460D01*
Y130108D01*
X257030D01*
X254868Y129679D01*
X253249Y128596D01*
X251979Y128984D01*
Y147320D01*
X251746Y148490D01*
X251204Y149301D01*
X251566Y150571D01*
X279056D01*
X281421Y148206D01*
D02*
G37*
G36*
X84571Y121811D02*
X80744D01*
Y116671D01*
X79474D01*
Y115401D01*
X73878D01*
X72882Y114405D01*
X72219Y113413D01*
X71999Y112305D01*
X71974Y112234D01*
X71639Y112028D01*
X70369Y112739D01*
Y116579D01*
X73160Y119370D01*
X74334Y118884D01*
Y117941D01*
X78204D01*
Y121811D01*
X77260D01*
X76774Y122984D01*
X82213Y128423D01*
X84571D01*
Y121811D01*
D02*
G37*
G36*
X204925Y120855D02*
X206579Y119750D01*
X208530Y119362D01*
X223030D01*
X224701Y119694D01*
X224835Y119624D01*
X225214Y118270D01*
X223674Y116730D01*
X223030Y116858D01*
X208530D01*
X206579Y116470D01*
X204925Y115365D01*
X204070Y114084D01*
X203491Y113969D01*
X203390Y113902D01*
X202947Y114017D01*
X202007Y114505D01*
X201511Y115702D01*
X200386Y116827D01*
X199511Y117189D01*
X199135Y118610D01*
X201927Y121401D01*
X204561D01*
X204925Y120855D01*
D02*
G37*
G36*
X107850Y118337D02*
Y113336D01*
Y101336D01*
Y89336D01*
X109060D01*
X109586Y88066D01*
X109181Y87662D01*
X108642Y86360D01*
X113030D01*
Y85090D01*
X114300D01*
Y80702D01*
X115602Y81241D01*
X116879Y82518D01*
X116980Y82763D01*
X118250Y82510D01*
Y78936D01*
X134483D01*
X135000Y77752D01*
X134387Y76994D01*
X118110D01*
X116834Y76740D01*
X115752Y76017D01*
X113212Y73478D01*
X113197Y73454D01*
X111562Y73293D01*
X101256Y83599D01*
X100263Y84262D01*
X99309Y84452D01*
X99166Y84702D01*
X99032Y85085D01*
X98962Y85765D01*
X99831Y86634D01*
X100440Y88104D01*
Y89696D01*
X99831Y91166D01*
X98706Y92291D01*
X97236Y92900D01*
X95644D01*
X94296Y92341D01*
X93674D01*
X91992Y94024D01*
Y95895D01*
X92934D01*
Y100569D01*
X96228Y103864D01*
X96891Y104856D01*
X97124Y106026D01*
X97124Y106027D01*
Y114989D01*
X98394Y115515D01*
X98768Y115141D01*
X100605Y114380D01*
X102595D01*
X104432Y115141D01*
X105839Y116548D01*
X106600Y118385D01*
X107850Y118337D01*
D02*
G37*
G36*
X229980Y158344D02*
Y154590D01*
X230520D01*
Y150130D01*
Y140130D01*
X233961D01*
Y108747D01*
X232413Y107199D01*
X227702D01*
X227678Y107223D01*
X227515Y107332D01*
X227188Y108982D01*
X227740Y109809D01*
X228128Y111760D01*
X228000Y112404D01*
X231193Y115597D01*
X231193Y115597D01*
X231856Y116589D01*
X232089Y117760D01*
X232089Y117760D01*
Y126945D01*
X231856Y128116D01*
X231193Y129108D01*
X231193Y129108D01*
X230763Y129538D01*
X230763Y129538D01*
X230763Y129538D01*
X225790Y134512D01*
X224797Y135175D01*
X223627Y135408D01*
X223626Y135408D01*
X222678D01*
X220579Y137507D01*
Y140340D01*
X222250D01*
Y151130D01*
X223520D01*
Y152400D01*
X227310D01*
Y159355D01*
X228483Y159841D01*
X229980Y158344D01*
D02*
G37*
G36*
X91006Y107294D02*
X88608Y104895D01*
X79953D01*
X79105Y106165D01*
X79318Y106680D01*
X76200D01*
Y103213D01*
X76934Y102723D01*
Y95895D01*
X77875D01*
Y87787D01*
X77875Y87787D01*
X78108Y86616D01*
X78771Y85624D01*
X85121Y79274D01*
X85121Y79274D01*
X86113Y78611D01*
X87283Y78378D01*
X97826D01*
X110539Y65665D01*
Y62751D01*
X109999D01*
Y60473D01*
X103608D01*
Y62225D01*
X103068D01*
Y67771D01*
X99309D01*
X93797Y73283D01*
X92805Y73946D01*
X91634Y74179D01*
X91634Y74179D01*
X88958D01*
X88626Y74511D01*
X87156Y75120D01*
X85564D01*
X84094Y74511D01*
X82969Y73386D01*
X82360Y71916D01*
Y70324D01*
X82969Y68854D01*
X84094Y67729D01*
X85564Y67120D01*
X87156D01*
X88626Y67729D01*
X88958Y68061D01*
X90367D01*
X93808Y64620D01*
X90435Y61248D01*
X89772Y60256D01*
X89539Y59085D01*
X89539Y59085D01*
Y44027D01*
X87731Y42219D01*
X70369D01*
Y73893D01*
X71639Y74146D01*
X71961Y73368D01*
X73368Y71961D01*
X75205Y71200D01*
X77195D01*
X79032Y71961D01*
X80439Y73368D01*
X81200Y75205D01*
Y77195D01*
X80439Y79032D01*
X79032Y80439D01*
X77195Y81200D01*
X75205D01*
X73368Y80439D01*
X71961Y79032D01*
X71639Y78254D01*
X70369Y78506D01*
Y104295D01*
X71639Y104821D01*
X72358Y104101D01*
X73660Y103562D01*
Y107950D01*
X74930D01*
Y109220D01*
X79318D01*
X78887Y110261D01*
X79264Y111144D01*
X79566Y111531D01*
X84614D01*
Y112071D01*
X91006D01*
Y107294D01*
D02*
G37*
G36*
X176350Y141336D02*
Y129336D01*
Y117336D01*
Y105056D01*
X175080Y104208D01*
X174786Y104330D01*
X173194D01*
X171724Y103721D01*
X171660Y103657D01*
X170390Y104183D01*
Y117166D01*
X159195D01*
X159351Y117541D01*
Y119331D01*
X159195Y119706D01*
X170390D01*
Y141476D01*
X148620D01*
Y130281D01*
X148245Y130437D01*
X146455D01*
X146080Y130281D01*
Y141476D01*
X124310D01*
Y119706D01*
X135505D01*
X135350Y119331D01*
Y117541D01*
X135505Y117166D01*
X124310D01*
Y95396D01*
X133820D01*
X134264Y94732D01*
Y93140D01*
X134873Y91670D01*
X135837Y90706D01*
X135700Y89945D01*
X135447Y89436D01*
X118350D01*
Y101336D01*
Y113336D01*
Y125336D01*
Y137336D01*
Y147436D01*
X176350D01*
Y141336D01*
D02*
G37*
G36*
X308915Y105943D02*
X308960Y105715D01*
X309683Y104634D01*
X310381Y104167D01*
Y100849D01*
X308869D01*
X307655Y102063D01*
X305802Y102830D01*
X305665D01*
X305179Y104003D01*
X307537Y106361D01*
X308915Y105943D01*
D02*
G37*
G36*
X202847Y100187D02*
X202508Y99495D01*
X186850D01*
Y101377D01*
X202050D01*
X202847Y100187D01*
D02*
G37*
G36*
X144497Y94508D02*
X144147Y93372D01*
X143375Y93139D01*
X142935Y93177D01*
X142263Y93848D01*
Y94732D01*
X142708Y95396D01*
X143842D01*
X144497Y94508D01*
D02*
G37*
G36*
X355591Y91718D02*
X355641Y91072D01*
X355396Y90199D01*
X354733Y89859D01*
X354065Y89991D01*
X351815D01*
X350888Y89807D01*
X350728Y89874D01*
X350644Y90295D01*
X350169Y91006D01*
X350667Y92276D01*
X355033D01*
X355591Y91718D01*
D02*
G37*
G36*
X335711Y91006D02*
X335236Y90295D01*
X335152Y89874D01*
X334992Y89807D01*
X334065Y89991D01*
X331815D01*
X330888Y89807D01*
X330551Y90111D01*
X330504Y91706D01*
X331073Y92276D01*
X335213D01*
X335711Y91006D01*
D02*
G37*
G36*
X374381Y90388D02*
X373906Y90294D01*
X372954Y89658D01*
X372763Y89785D01*
X371690Y89999D01*
X370294D01*
X370266Y90138D01*
X369603Y91131D01*
X368446Y92288D01*
X368932Y93461D01*
X374381D01*
Y90388D01*
D02*
G37*
G36*
X171724Y96939D02*
X173194Y96330D01*
X174786D01*
X175080Y96452D01*
X176350Y95604D01*
Y89436D01*
X152633D01*
X152090Y90706D01*
X152590Y91914D01*
Y93506D01*
X152333Y94126D01*
X153182Y95396D01*
X170390D01*
Y96477D01*
X171660Y97003D01*
X171724Y96939D01*
D02*
G37*
G36*
X395721Y99063D02*
Y86302D01*
X394451Y85871D01*
X393633Y86937D01*
X392170Y88059D01*
X390468Y88765D01*
X388640Y89005D01*
X386813Y88765D01*
X385110Y88059D01*
X384786Y87811D01*
X383510Y88164D01*
X383341Y88303D01*
X382753Y89183D01*
X380499Y91437D01*
Y95348D01*
X380499Y95348D01*
X380266Y96519D01*
X379603Y97511D01*
X379603Y97511D01*
X378431Y98683D01*
X377439Y99346D01*
X376268Y99579D01*
X376268Y99579D01*
X362039D01*
X360086Y101531D01*
X359094Y102194D01*
X358706Y102271D01*
X358831Y103541D01*
X391243D01*
X395721Y99063D01*
D02*
G37*
G36*
X85875Y92757D02*
X85875Y92757D01*
X86108Y91586D01*
X86771Y90594D01*
X90244Y87120D01*
X90244Y87120D01*
X91237Y86457D01*
X92407Y86224D01*
X92408Y86224D01*
X92784D01*
X93152Y85765D01*
X92542Y84495D01*
X88551D01*
X83992Y89053D01*
Y95895D01*
X85875D01*
Y92757D01*
D02*
G37*
G36*
X191716Y92107D02*
X191341Y91732D01*
X190580Y89895D01*
Y87905D01*
X191341Y86068D01*
X192748Y84661D01*
X193526Y84339D01*
X193274Y83069D01*
X190497D01*
X187380Y86186D01*
Y87255D01*
X187016Y88135D01*
X186850Y89336D01*
X186850Y89336D01*
X186850Y89336D01*
Y93377D01*
X191190D01*
X191716Y92107D01*
D02*
G37*
G36*
X178542Y88451D02*
X178650Y87907D01*
X178380Y87255D01*
Y85465D01*
X178983Y84010D01*
X178672Y83231D01*
X178418Y82855D01*
X177475Y82670D01*
X176450Y83567D01*
Y89336D01*
X178542D01*
Y88451D01*
D02*
G37*
G36*
X224726Y80339D02*
X224200Y79069D01*
X214474D01*
X213988Y80242D01*
X215008Y81262D01*
X223030D01*
X223674Y81390D01*
X224726Y80339D01*
D02*
G37*
G36*
X187067Y77847D02*
X187067Y77847D01*
X188059Y77184D01*
X189230Y76951D01*
X199236D01*
X199722Y75778D01*
X183514Y59569D01*
X182437Y60289D01*
X182800Y61165D01*
Y63155D01*
X182039Y64992D01*
X180632Y66399D01*
X178795Y67160D01*
X178384D01*
X177377Y68166D01*
Y68450D01*
X177129Y69697D01*
X176423Y70753D01*
X175023Y72153D01*
X173967Y72859D01*
X172720Y73107D01*
X168565D01*
X168212Y73397D01*
Y74890D01*
X168267Y75169D01*
Y77787D01*
X168654Y78366D01*
X168768Y78936D01*
X172125D01*
X174101Y76960D01*
X174101Y76960D01*
X175093Y76297D01*
X176046Y76107D01*
X176804Y75349D01*
X178274Y74740D01*
X179866D01*
X181336Y75349D01*
X182461Y76474D01*
X183070Y77944D01*
Y79536D01*
X182708Y80411D01*
X183784Y81130D01*
X187067Y77847D01*
D02*
G37*
G36*
X143766Y75025D02*
X143856Y74522D01*
X142226Y72892D01*
X141708Y72967D01*
X141260Y74315D01*
X142400Y75455D01*
X143766Y75025D01*
D02*
G37*
G36*
X158038Y70431D02*
Y68938D01*
X156757D01*
X155511Y68690D01*
X154454Y67984D01*
X153630Y67160D01*
X152135D01*
X151080Y66723D01*
X151070Y66730D01*
Y66730D01*
X146512D01*
X145986Y68000D01*
X148902Y70917D01*
X150603Y70926D01*
X150838Y70691D01*
X152675Y69930D01*
X154665D01*
X156502Y70691D01*
X156768Y70957D01*
X158038Y70431D01*
D02*
G37*
G36*
X162456Y67218D02*
X162738Y66937D01*
X162890Y66569D01*
X162890Y66370D01*
X162890Y64060D01*
X161000Y62170D01*
X159690D01*
Y66370D01*
Y66569D01*
X159842Y66937D01*
X160124Y67218D01*
X160491Y67370D01*
X160690D01*
X161890Y67370D01*
X161890Y67370D01*
X162089Y67370D01*
X162456Y67218D01*
D02*
G37*
G36*
X166690Y67370D02*
X166889D01*
X167257Y67218D01*
X167538Y66937D01*
X167690Y66569D01*
Y66370D01*
X167690D01*
Y62170D01*
X166380D01*
X164490Y64060D01*
Y66370D01*
Y66569D01*
X164642Y66937D01*
X164924Y67218D01*
X165291Y67370D01*
X165490D01*
X165490Y67370D01*
X166690Y67370D01*
D02*
G37*
G36*
X171110Y65571D02*
X171817Y64514D01*
X172910Y63420D01*
X172800Y63155D01*
Y61165D01*
X173561Y59328D01*
X174968Y57921D01*
X175577Y57669D01*
X175325Y56399D01*
X170317D01*
X170317Y56399D01*
X169729Y56881D01*
Y59570D01*
X169574Y60350D01*
X169439Y60552D01*
X169757Y60870D01*
X169439Y61188D01*
X169574Y61390D01*
X169729Y62170D01*
Y66004D01*
X170999Y66129D01*
X171110Y65571D01*
D02*
G37*
G36*
X162890Y57680D02*
X162890Y55370D01*
X162890Y55171D01*
X162738Y54804D01*
X162456Y54522D01*
X162089Y54370D01*
X161890Y54370D01*
X160690Y54370D01*
X160491D01*
X160124Y54522D01*
X159842Y54804D01*
X159690Y55171D01*
Y55370D01*
Y55370D01*
Y59570D01*
X161000D01*
X162890Y57680D01*
D02*
G37*
G36*
X167690Y55370D02*
X167690D01*
Y55171D01*
X167538Y54804D01*
X167257Y54522D01*
X166889Y54370D01*
X166690D01*
X165490Y54370D01*
X165291Y54370D01*
X164924Y54522D01*
X164642Y54804D01*
X164490Y55171D01*
X164490Y55370D01*
Y57680D01*
X166380Y59570D01*
X167690D01*
Y55370D01*
D02*
G37*
G36*
X228081Y68583D02*
Y63457D01*
X226238D01*
Y59611D01*
X231140D01*
Y57071D01*
X226238D01*
Y53540D01*
X219388D01*
Y62193D01*
X210388D01*
Y61251D01*
X202316D01*
X202316Y61252D01*
X201145Y61019D01*
X200153Y60356D01*
X198907Y59110D01*
X197225D01*
X195571Y58425D01*
X194305Y57159D01*
X193620Y55505D01*
Y53715D01*
X194305Y52061D01*
X195571Y50795D01*
X197225Y50110D01*
X199015D01*
X200669Y50795D01*
X201935Y52061D01*
X202620Y53715D01*
Y54171D01*
X203582Y55134D01*
X210388D01*
Y46193D01*
X219388D01*
Y47422D01*
X226778D01*
Y46193D01*
X228081D01*
Y35380D01*
X228081Y35380D01*
X228314Y34210D01*
X228977Y33217D01*
X245797Y16398D01*
Y8920D01*
X246010Y7847D01*
X246618Y6937D01*
X247527Y6329D01*
X248600Y6116D01*
X249573D01*
Y5080D01*
X249806Y3909D01*
X249872Y3810D01*
X249193Y2540D01*
X199367D01*
X198841Y3810D01*
X199819Y4788D01*
X200580Y6625D01*
Y8615D01*
X199819Y10452D01*
X198412Y11859D01*
X196575Y12620D01*
X194585D01*
X192748Y11859D01*
X191341Y10452D01*
X190580Y8615D01*
Y6625D01*
X191341Y4788D01*
X192319Y3810D01*
X191793Y2540D01*
X164023D01*
Y15147D01*
X164606Y16020D01*
X164839Y17190D01*
X164839Y17190D01*
Y23066D01*
X167186Y25413D01*
X167186Y25413D01*
X167849Y26405D01*
X168082Y27576D01*
X168081Y27576D01*
Y40332D01*
X168082Y40332D01*
X167849Y41503D01*
X167186Y42495D01*
X167186Y42495D01*
X165685Y43996D01*
X166103Y45374D01*
X166407Y45434D01*
X167400Y46097D01*
X171584Y50281D01*
X177541D01*
X178755Y49067D01*
X180340Y48411D01*
Y53340D01*
X181610D01*
Y54610D01*
X187206D01*
X205547Y72951D01*
X223713D01*
X228081Y68583D01*
D02*
G37*
G36*
X116840Y51390D02*
X121141D01*
Y51390D01*
X121808Y51666D01*
X125211Y48263D01*
Y36979D01*
X124730Y36583D01*
X116990D01*
Y38420D01*
X103990D01*
Y28028D01*
X103583Y27752D01*
X102313Y28425D01*
Y52604D01*
X103608D01*
Y54355D01*
X109999D01*
Y51390D01*
X114300D01*
Y57070D01*
X116840D01*
Y51390D01*
D02*
G37*
G36*
X148867Y52589D02*
X148186Y51319D01*
X146569D01*
Y52650D01*
X148826D01*
X148867Y52589D01*
D02*
G37*
G36*
X247792Y57273D02*
Y47366D01*
X246700Y46673D01*
X245629Y47200D01*
Y55880D01*
X245629Y55880D01*
X245396Y57050D01*
X244733Y58043D01*
X242272Y60504D01*
X241280Y61167D01*
X240109Y61399D01*
X240109Y61399D01*
X236042D01*
Y63457D01*
X234199D01*
Y69069D01*
X235469Y69596D01*
X247792Y57273D01*
D02*
G37*
G36*
X96195Y40458D02*
Y23767D01*
X95250Y23004D01*
Y16510D01*
X101446D01*
X101421Y16604D01*
X102194Y17611D01*
X103450D01*
Y14380D01*
X109220D01*
Y20670D01*
X110490D01*
Y21940D01*
X117530D01*
Y26960D01*
X116990D01*
Y28756D01*
X123020D01*
Y23380D01*
Y13880D01*
X133520D01*
Y15131D01*
X133753Y15315D01*
X135023Y14700D01*
Y2540D01*
X65978D01*
X64804Y2560D01*
X64770Y3742D01*
Y9850D01*
X65740D01*
Y15101D01*
X86440D01*
Y14247D01*
X86954Y12330D01*
X87947Y10610D01*
X89350Y9207D01*
X91070Y8214D01*
X92710Y7774D01*
Y15240D01*
Y22706D01*
X91070Y22266D01*
X89350Y21274D01*
X89229Y21152D01*
X88895Y21219D01*
X88895Y21219D01*
X65740D01*
Y23930D01*
X64770D01*
Y33390D01*
X65200D01*
Y36101D01*
X88998D01*
X88998Y36101D01*
X90169Y36334D01*
X91161Y36997D01*
X94761Y40597D01*
X94925Y40843D01*
X96195Y40458D01*
D02*
G37*
G36*
X133824Y48070D02*
X134294D01*
X140004Y42360D01*
X139702Y41326D01*
X139529Y41090D01*
X135023D01*
Y32793D01*
X133520D01*
Y34380D01*
X131329D01*
Y47908D01*
X131740Y48218D01*
X132599Y48578D01*
X133824Y48070D01*
D02*
G37*
G36*
X239511Y54613D02*
Y33131D01*
X239255Y32916D01*
X238313Y32533D01*
X234199Y36647D01*
Y46193D01*
X235502D01*
Y53224D01*
X236042D01*
Y55282D01*
X238842D01*
X239511Y54613D01*
D02*
G37*
G36*
X257080Y21071D02*
X256817Y21019D01*
X255729Y20292D01*
X254293Y20430D01*
X254173Y20510D01*
X253100Y20724D01*
X250903D01*
X250658Y21071D01*
X251317Y22341D01*
X256954D01*
X257080Y21071D01*
D02*
G37*
G36*
X159165Y25820D02*
X158954Y25504D01*
X158721Y24333D01*
X158721Y24333D01*
Y18457D01*
X156513Y16249D01*
X144047D01*
X138753Y21543D01*
X137761Y22206D01*
X136590Y22439D01*
X136590Y22439D01*
X133520D01*
Y24966D01*
X137035D01*
X138533Y25264D01*
X139802Y26112D01*
X140780Y27090D01*
X158487D01*
X159165Y25820D01*
D02*
G37*
G36*
X273120Y5591D02*
X273120Y5591D01*
X397608D01*
X397608Y5591D01*
X398780Y4529D01*
Y2540D01*
X272260D01*
X271734Y3810D01*
X272013Y4089D01*
X272013Y4089D01*
X272676Y5081D01*
X272791Y5657D01*
X273120Y5591D01*
D02*
G37*
%LPC*%
G36*
X105410Y184540D02*
X103542Y183767D01*
X101983Y182208D01*
X101210Y180340D01*
X105410D01*
Y184540D01*
D02*
G37*
G36*
Y177800D02*
X101210D01*
X101983Y175932D01*
X103542Y174373D01*
X105410Y173600D01*
Y177800D01*
D02*
G37*
G36*
X372230Y299050D02*
X367710D01*
Y292530D01*
X372230D01*
Y299050D01*
D02*
G37*
G36*
X293370Y296300D02*
X291502Y295527D01*
X289943Y293968D01*
X289170Y292100D01*
X293370D01*
Y296300D01*
D02*
G37*
G36*
X327780Y289990D02*
X323260D01*
Y283470D01*
X327780D01*
Y289990D01*
D02*
G37*
G36*
X201627Y259480D02*
X193607D01*
Y251460D01*
X201627D01*
Y259480D01*
D02*
G37*
G36*
X191067D02*
X183047D01*
Y251460D01*
X191067D01*
Y259480D01*
D02*
G37*
G36*
X327780Y257550D02*
X323260D01*
Y251030D01*
X327780D01*
Y257550D01*
D02*
G37*
G36*
X365170D02*
X360650D01*
Y251030D01*
X365170D01*
Y257550D01*
D02*
G37*
G36*
X372230Y248490D02*
X367710D01*
Y241970D01*
X372230D01*
Y248490D01*
D02*
G37*
G36*
X365170D02*
X360650D01*
Y241970D01*
X365170D01*
Y248490D01*
D02*
G37*
G36*
X327780D02*
X323260D01*
Y241970D01*
X327780D01*
Y248490D01*
D02*
G37*
G36*
X320720D02*
X316200D01*
Y241970D01*
X320720D01*
Y248490D01*
D02*
G37*
G36*
X168089Y258940D02*
X165786D01*
X163560Y258344D01*
X161565Y257192D01*
X159936Y255563D01*
X158784Y253567D01*
X158187Y251342D01*
Y249038D01*
X158784Y246813D01*
X159936Y244817D01*
X161565Y243188D01*
X163560Y242036D01*
X165786Y241440D01*
X168089D01*
X170315Y242036D01*
X172310Y243188D01*
X173939Y244817D01*
X175091Y246813D01*
X175687Y249038D01*
Y251342D01*
X175091Y253567D01*
X173939Y255563D01*
X172310Y257192D01*
X170315Y258344D01*
X168089Y258940D01*
D02*
G37*
G36*
X117289D02*
X114986D01*
X112760Y258344D01*
X110765Y257192D01*
X109136Y255563D01*
X107984Y253567D01*
X107387Y251342D01*
Y249038D01*
X107984Y246813D01*
X109136Y244817D01*
X110765Y243188D01*
X112760Y242036D01*
X114986Y241440D01*
X117289D01*
X119515Y242036D01*
X121510Y243188D01*
X123139Y244817D01*
X124291Y246813D01*
X124887Y249038D01*
Y251342D01*
X124291Y253567D01*
X123139Y255563D01*
X121510Y257192D01*
X119515Y258344D01*
X117289Y258940D01*
D02*
G37*
G36*
X201627Y248920D02*
X193607D01*
Y240900D01*
X201627D01*
Y248920D01*
D02*
G37*
G36*
X191067D02*
X183047D01*
Y240900D01*
X191067D01*
Y248920D01*
D02*
G37*
G36*
X347982Y302569D02*
X347982Y302568D01*
X323640D01*
X322469Y302336D01*
X321477Y301673D01*
X321477Y301673D01*
X320417Y300613D01*
X319754Y299620D01*
X319641Y299050D01*
X316200D01*
Y293889D01*
X299370D01*
X299337Y293968D01*
X297778Y295527D01*
X295910Y296300D01*
Y290830D01*
X294640D01*
Y289560D01*
X289170D01*
X289943Y287692D01*
X291502Y286133D01*
X291581Y286101D01*
Y258982D01*
X291581Y258982D01*
X291814Y257811D01*
X292477Y256819D01*
X293649Y255647D01*
X293649Y255647D01*
X294641Y254984D01*
X295812Y254751D01*
X295812Y254751D01*
X312673D01*
X315577Y251847D01*
X316200Y251431D01*
Y251030D01*
X320720D01*
Y257550D01*
X318526D01*
X316103Y259973D01*
X315111Y260636D01*
X313940Y260869D01*
X313940Y260869D01*
X297699D01*
Y286101D01*
X297778Y286133D01*
X299337Y287692D01*
X299370Y287771D01*
X316200D01*
Y283470D01*
X320720D01*
Y291260D01*
X321990D01*
Y292530D01*
X327780D01*
Y296451D01*
X338240D01*
Y284010D01*
X340431D01*
Y257010D01*
X338240D01*
Y246836D01*
X330037Y238633D01*
X329925Y238680D01*
X327935D01*
X326098Y237919D01*
X324691Y236512D01*
X323930Y234675D01*
Y232685D01*
X324691Y230848D01*
X325871Y229668D01*
Y227041D01*
X322029D01*
Y214919D01*
X333299D01*
X333611Y214919D01*
X334569D01*
X334881Y214919D01*
X337301D01*
Y200150D01*
X328870D01*
Y198639D01*
X316995D01*
X316239Y199395D01*
X314585Y200080D01*
X312795D01*
X311141Y199395D01*
X309875Y198129D01*
X309190Y196475D01*
Y194685D01*
X309875Y193031D01*
X311141Y191765D01*
X312795Y191080D01*
X314585D01*
X316239Y191765D01*
X316995Y192521D01*
X328870D01*
Y189650D01*
X343370D01*
Y191842D01*
X370370D01*
Y189650D01*
X384870D01*
Y200150D01*
X380679D01*
Y213604D01*
X381995Y214919D01*
X389250D01*
Y227041D01*
X382696D01*
X382210Y228214D01*
X390103Y236107D01*
X390766Y237099D01*
X390999Y238270D01*
X390999Y238270D01*
Y242510D01*
X393190D01*
Y257010D01*
X390999D01*
Y284010D01*
X393190D01*
Y298510D01*
X382690D01*
Y284010D01*
X384881D01*
Y257010D01*
X382690D01*
Y242510D01*
X384881D01*
Y239536D01*
X372385Y227041D01*
X365130D01*
Y224039D01*
X363220D01*
X363220Y224039D01*
X362049Y223806D01*
X361057Y223143D01*
X361057Y223143D01*
X358814Y220900D01*
X357145D01*
X355308Y220139D01*
X353901Y218732D01*
X353140Y216895D01*
Y214905D01*
X353901Y213068D01*
X355308Y211661D01*
X357145Y210900D01*
X359135D01*
X360972Y211661D01*
X362379Y213068D01*
X363140Y214905D01*
Y216354D01*
X363957Y217003D01*
X365130Y216489D01*
Y214919D01*
X374521D01*
X374562Y214871D01*
X374562Y214870D01*
Y200150D01*
X370370D01*
Y197959D01*
X343419D01*
Y214919D01*
X346151D01*
Y227041D01*
X334881D01*
X334569Y227041D01*
X333611D01*
X333299Y227041D01*
X331989D01*
Y229668D01*
X333169Y230848D01*
X333930Y232685D01*
Y233875D01*
X342566Y242510D01*
X348740D01*
Y257010D01*
X346549D01*
Y284010D01*
X348740D01*
Y292767D01*
X349913Y293253D01*
X354070Y289097D01*
X354070Y289097D01*
X355062Y288434D01*
X356232Y288201D01*
X356232Y288201D01*
X360650D01*
Y283470D01*
X363381D01*
Y279245D01*
X363381Y279245D01*
X363614Y278074D01*
X364277Y277082D01*
X373241Y268118D01*
Y262887D01*
X367904Y257550D01*
X367710D01*
Y251030D01*
X372230D01*
Y253225D01*
X378463Y259457D01*
X378463Y259457D01*
X379126Y260449D01*
X379359Y261620D01*
Y269385D01*
X379126Y270555D01*
X378463Y271548D01*
X378463Y271548D01*
X369499Y280512D01*
Y283470D01*
X372230D01*
Y289990D01*
X366440D01*
Y291260D01*
X365170D01*
Y299050D01*
X360650D01*
Y294319D01*
X357499D01*
X350145Y301673D01*
X349153Y302336D01*
X347982Y302569D01*
D02*
G37*
G36*
X78394Y190506D02*
Y186847D01*
X82053D01*
X81396Y188431D01*
X79978Y189849D01*
X78394Y190506D01*
D02*
G37*
G36*
X75854D02*
X74269Y189849D01*
X72851Y188431D01*
X72194Y186847D01*
X75854D01*
Y190506D01*
D02*
G37*
G36*
X219710Y182726D02*
Y176530D01*
X225906D01*
X225466Y178170D01*
X224473Y179890D01*
X223070Y181294D01*
X221350Y182286D01*
X219710Y182726D01*
D02*
G37*
G36*
X196863Y187782D02*
X193016D01*
Y182880D01*
Y177978D01*
X196863D01*
Y179821D01*
X209553D01*
X211369Y178005D01*
X210974Y176530D01*
X217170D01*
Y182726D01*
X215695Y182330D01*
X212983Y185043D01*
X211991Y185706D01*
X210820Y185939D01*
X210820Y185939D01*
X196863D01*
Y187782D01*
D02*
G37*
G36*
X82053Y184307D02*
X72194D01*
X72851Y182722D01*
X74065Y181508D01*
Y177966D01*
X74065Y177966D01*
X74298Y176796D01*
X74961Y175804D01*
X77888Y172876D01*
X81913D01*
Y177502D01*
X80182Y179233D01*
Y181508D01*
X81396Y182722D01*
X82053Y184307D01*
D02*
G37*
G36*
X311946Y241490D02*
X310354D01*
X308884Y240881D01*
X307759Y239756D01*
X307150Y238286D01*
Y237816D01*
X286127Y216793D01*
X285464Y215800D01*
X285231Y214630D01*
X285231Y214630D01*
Y205740D01*
X285231Y205740D01*
X285464Y204569D01*
X286127Y203577D01*
X318467Y171237D01*
X319459Y170574D01*
X320630Y170341D01*
X320630Y170341D01*
X328870D01*
Y168150D01*
X343370D01*
Y170341D01*
X370370D01*
Y168150D01*
X384870D01*
Y178650D01*
X370370D01*
Y176459D01*
X343370D01*
Y178650D01*
X328870D01*
Y176459D01*
X321897D01*
X291349Y207007D01*
Y213363D01*
X311476Y233490D01*
X311946D01*
X313416Y234099D01*
X314541Y235224D01*
X315150Y236694D01*
Y238286D01*
X314541Y239756D01*
X313416Y240881D01*
X311946Y241490D01*
D02*
G37*
G36*
X244060Y162670D02*
X238290D01*
Y159900D01*
X244060D01*
Y162670D01*
D02*
G37*
G36*
X341630Y143356D02*
Y137160D01*
X347826D01*
X347386Y138800D01*
X346394Y140520D01*
X344990Y141924D01*
X343270Y142916D01*
X341630Y143356D01*
D02*
G37*
G36*
X339090D02*
X337450Y142916D01*
X335730Y141924D01*
X334327Y140520D01*
X333334Y138800D01*
X332894Y137160D01*
X339090D01*
Y143356D01*
D02*
G37*
G36*
X303530Y96520D02*
X299871D01*
X300527Y94935D01*
X301945Y93517D01*
X303530Y92861D01*
Y96520D01*
D02*
G37*
G36*
X271530Y91458D02*
X257030D01*
X255079Y91070D01*
X253425Y89965D01*
X252320Y88311D01*
X251932Y86360D01*
X252320Y84409D01*
X253425Y82755D01*
X255079Y81650D01*
X257030Y81262D01*
X271530D01*
X273481Y81650D01*
X275135Y82755D01*
X275499Y83301D01*
X277081D01*
X277279Y82824D01*
X278404Y81699D01*
X279874Y81090D01*
X281466D01*
X282936Y81699D01*
X284061Y82824D01*
X284670Y84294D01*
Y85886D01*
X284061Y87356D01*
X282936Y88481D01*
X281466Y89090D01*
X280173D01*
X280029Y89186D01*
X278859Y89419D01*
X278859Y89419D01*
X275499D01*
X275135Y89965D01*
X273481Y91070D01*
X271530Y91458D01*
D02*
G37*
G36*
X261669Y63322D02*
X257822D01*
Y59690D01*
X261669D01*
Y63322D01*
D02*
G37*
G36*
X378850Y55880D02*
X374650D01*
Y51680D01*
X376518Y52453D01*
X378077Y54012D01*
X378850Y55880D01*
D02*
G37*
G36*
X372110D02*
X367910D01*
X368683Y54012D01*
X370242Y52453D01*
X372110Y51680D01*
Y55880D01*
D02*
G37*
G36*
X302240Y45705D02*
X300413Y45465D01*
X298710Y44759D01*
X297248Y43637D01*
X296126Y42175D01*
X295420Y40472D01*
X295180Y38645D01*
Y30645D01*
X295420Y28818D01*
X296126Y27115D01*
X297248Y25653D01*
X298710Y24531D01*
X300413Y23825D01*
X302240Y23585D01*
X304067Y23825D01*
X305770Y24531D01*
X307233Y25653D01*
X308355Y27115D01*
X309060Y28818D01*
X309301Y30645D01*
Y38645D01*
X309060Y40472D01*
X308355Y42175D01*
X307233Y43637D01*
X305770Y44759D01*
X304067Y45465D01*
X302240Y45705D01*
D02*
G37*
G36*
X270510Y148436D02*
Y142240D01*
X276706D01*
X276266Y143880D01*
X275273Y145600D01*
X273870Y147003D01*
X272150Y147996D01*
X270510Y148436D01*
D02*
G37*
G36*
X267970D02*
X266330Y147996D01*
X264610Y147003D01*
X263207Y145600D01*
X262214Y143880D01*
X261774Y142240D01*
X267970D01*
Y148436D01*
D02*
G37*
G36*
X276706Y139700D02*
X261774D01*
X262214Y138060D01*
X263207Y136340D01*
X264610Y134937D01*
X266181Y134030D01*
Y130108D01*
X265550D01*
Y125730D01*
X276926D01*
X276748Y126622D01*
X275524Y128454D01*
X273692Y129679D01*
X272299Y129956D01*
Y134030D01*
X273870Y134937D01*
X275273Y136340D01*
X276266Y138060D01*
X276706Y139700D01*
D02*
G37*
G36*
X276926Y123190D02*
X265550D01*
Y118812D01*
X271530D01*
X273692Y119241D01*
X275524Y120466D01*
X276748Y122298D01*
X276926Y123190D01*
D02*
G37*
G36*
X111760Y83820D02*
X108642D01*
X109181Y82518D01*
X110458Y81241D01*
X111760Y80702D01*
Y83820D01*
D02*
G37*
G36*
X227310Y149860D02*
X224790D01*
Y140340D01*
X227310D01*
Y149860D01*
D02*
G37*
G36*
X186539Y52070D02*
X182880D01*
Y48411D01*
X184465Y49067D01*
X185883Y50485D01*
X186539Y52070D01*
D02*
G37*
G36*
X117530Y19400D02*
X111760D01*
Y14380D01*
X117530D01*
Y19400D01*
D02*
G37*
G36*
X101446Y13970D02*
X95250D01*
Y7774D01*
X96890Y8214D01*
X98610Y9207D01*
X100014Y10610D01*
X101006Y12330D01*
X101446Y13970D01*
D02*
G37*
%LPD*%
D11*
X294640Y258982D02*
Y290830D01*
Y258982D02*
X295812Y257810D01*
X313940D01*
X319740Y254010D02*
X321990Y251760D01*
X317740Y254010D02*
X319740D01*
X313940Y257810D02*
X317740Y254010D01*
X321990Y249760D02*
Y251760D01*
X196850Y147320D02*
X197660Y148130D01*
X209520D02*
X210020Y148630D01*
X197660Y148130D02*
X209520D01*
X195580Y96436D02*
X204824D01*
X181600D02*
X195580D01*
Y88900D02*
Y96436D01*
X181600Y116436D02*
X189230D01*
X192636D01*
X189230Y151130D02*
X196230Y158130D01*
X189230Y116436D02*
Y151130D01*
X196230Y158130D02*
X209520D01*
X157351Y79594D02*
Y84186D01*
X153670Y75914D02*
X157156Y79399D01*
X153670Y74930D02*
Y75914D01*
X157156Y79399D02*
Y79594D01*
X147468Y76645D02*
X149350Y78528D01*
X147468Y73808D02*
Y76645D01*
X149350Y78528D02*
Y84186D01*
X143050Y69390D02*
X147468Y73808D01*
X137350Y156400D02*
X140970Y160020D01*
X137350Y152686D02*
Y156400D01*
X126219Y161619D02*
X129350Y158488D01*
X91163Y161013D02*
X126825D01*
X129350Y152686D02*
Y158488D01*
X126219Y161619D02*
Y170909D01*
X127000Y171690D01*
X150868Y162140D02*
X155922Y167194D01*
X146743Y178690D02*
X155922Y169511D01*
Y167194D02*
Y169511D01*
X133350Y158750D02*
X139290Y164690D01*
X145393Y162140D02*
X150868D01*
X142844Y164690D02*
X145393Y162140D01*
X139290Y164690D02*
X142844D01*
X201425Y136655D02*
Y138035D01*
X200660Y135890D02*
X201425Y136655D01*
X207020Y143630D02*
X210020D01*
X201425Y138035D02*
X207020Y143630D01*
X192636Y116436D02*
X200660Y124460D01*
X313690Y195580D02*
X335440D01*
X336120Y194900D01*
X141537Y250190D02*
X164085Y227642D01*
Y183011D02*
Y227642D01*
X209430Y80010D02*
X215780Y86360D01*
X189230Y80010D02*
X209430D01*
X204280Y76010D02*
X224980D01*
X182880Y86360D02*
X189230Y80010D01*
X181610Y53340D02*
X204280Y76010D01*
X224980D02*
X231140Y69850D01*
X215780Y86360D02*
X223030D01*
X280129Y85090D02*
X280670D01*
X264280Y86360D02*
X278859D01*
X280129Y85090D01*
X176264Y79123D02*
X178687D01*
X179070Y78740D01*
X173350Y82036D02*
Y84186D01*
Y82036D02*
X176264Y79123D01*
X288290Y205740D02*
Y214630D01*
X311150Y237490D01*
X288290Y205740D02*
X320630Y173400D01*
X336120D01*
X370920Y221250D02*
X387940Y238270D01*
Y249760D01*
X370920Y220980D02*
Y221250D01*
X248920Y107170D02*
Y147320D01*
X197579Y113436D02*
X198120D01*
X181600Y112436D02*
X196579D01*
X197579Y113436D01*
X205421Y104436D02*
X206045Y105060D01*
X181600Y104436D02*
X205421D01*
X181600Y108436D02*
X201954D01*
X204662Y111143D01*
X363220Y220980D02*
X370920D01*
X358140Y215900D02*
X363220Y220980D01*
X101600Y119380D02*
X102115Y119895D01*
Y125380D01*
X105071Y128336D01*
X113000D02*
X113100Y128436D01*
X105071Y128336D02*
X113000D01*
X88933Y92757D02*
X92407Y89283D01*
X96057D02*
X96440Y88900D01*
X92407Y89283D02*
X96057D01*
X88933Y92757D02*
Y100395D01*
Y100895D01*
X100330Y132080D02*
X100686Y132436D01*
X113100D01*
X366440Y279245D02*
Y291260D01*
Y279245D02*
X376300Y269385D01*
Y261620D02*
Y269385D01*
X366440Y249760D02*
Y251760D01*
X376300Y261620D01*
X322580Y291850D02*
Y298450D01*
X321990Y291260D02*
X322580Y291850D01*
X347982Y299510D02*
X356232Y291260D01*
X322580Y298450D02*
X323640Y299510D01*
X356232Y291260D02*
X366440D01*
X323640Y299510D02*
X347982D01*
X294640Y290830D02*
X321560D01*
X321990Y291260D01*
X328930Y222090D02*
Y233680D01*
X327820Y220980D02*
X328930Y222090D01*
X343490Y247760D02*
Y249760D01*
X329410Y233680D02*
X343490Y247760D01*
X328930Y233680D02*
X329410D01*
X387940Y249760D02*
Y291260D01*
X343490Y249760D02*
Y291260D01*
X271850Y9170D02*
X272600D01*
X273120Y8650D01*
X397608D01*
X269850Y11170D02*
Y11920D01*
Y11170D02*
X271850Y9170D01*
X269850Y11920D02*
Y13420D01*
X151130Y194310D02*
X157770Y187670D01*
Y184826D02*
Y187670D01*
X155955Y183011D02*
X157770Y184826D01*
X332940Y62430D02*
Y82195D01*
X321310Y50800D02*
X332940Y62430D01*
X362940Y55413D02*
Y82195D01*
X360680Y53152D02*
X362940Y55413D01*
X360680Y52070D02*
Y53152D01*
X367440Y84195D02*
Y88968D01*
X359484Y92151D02*
X364257D01*
X356301Y95334D02*
X359484Y92151D01*
X329806Y95334D02*
X356301D01*
X323440Y84195D02*
Y88968D01*
X321440Y82195D02*
X323440Y84195D01*
X367440D02*
X369440Y82195D01*
X342969Y112741D02*
X345604D01*
X360772Y96520D02*
X376268D01*
X323440Y88968D02*
X329806Y95334D01*
X364257Y92151D02*
X367440Y88968D01*
X344060Y99368D02*
X357923D01*
X341212Y110983D02*
X342969Y112741D01*
X341212Y102217D02*
X344060Y99368D01*
X357923D02*
X360772Y96520D01*
X341212Y102217D02*
Y110983D01*
X345604Y112741D02*
X347243Y114380D01*
X376268Y96520D02*
X377440Y95348D01*
X373374Y57155D02*
Y61641D01*
X380590Y68856D01*
X373374Y57155D02*
X373380Y57150D01*
X156561Y56959D02*
X161279D01*
X154211Y54610D02*
X156561Y56959D01*
X161279D02*
X161290Y56970D01*
X153670Y54610D02*
X154211D01*
X98440Y64771D02*
X99254Y63957D01*
X97984Y64771D02*
X98440D01*
X99254Y63500D02*
Y63957D01*
X91634Y71120D02*
X97984Y64771D01*
X86360Y71120D02*
X91634D01*
X161780Y24333D02*
X165023Y27576D01*
X144682Y48260D02*
X165237D01*
X143510Y49432D02*
X144682Y48260D01*
X142430Y44260D02*
X161095D01*
X143510Y49432D02*
Y58420D01*
X165023Y27576D02*
Y40332D01*
X165237Y48260D02*
X170317Y53340D01*
X161095Y44260D02*
X165023Y40332D01*
X161780Y17190D02*
Y24333D01*
X134620Y52070D02*
X142430Y44260D01*
X383460Y220710D02*
Y220980D01*
X377620Y194900D02*
Y214871D01*
X383460Y220710D01*
X338110Y194900D02*
X377620D01*
X338110D02*
X340360Y197150D01*
X336120Y194900D02*
X338110D01*
X340360Y197150D02*
Y220980D01*
X336120Y173400D02*
X377620D01*
X122258Y179690D02*
X124000D01*
X116324D02*
X122258D01*
X115704Y179070D02*
X116324Y179690D01*
X124000D02*
X127000Y182690D01*
X106680Y179070D02*
X115704D01*
X113030Y170462D02*
X122258Y179690D01*
X146055Y167135D02*
X149095D01*
X141000Y171690D02*
X141501D01*
X146055Y167135D01*
X148590Y167640D02*
X149095Y167135D01*
X138264Y93523D02*
Y93936D01*
X141350Y84186D02*
Y90436D01*
X138264Y93523D02*
X141350Y90436D01*
X377440Y90170D02*
Y95348D01*
X380590Y68856D02*
Y87020D01*
X377440Y90170D02*
X380590Y87020D01*
X398780Y9821D02*
Y100330D01*
X397608Y8650D02*
X398780Y9821D01*
X198120Y54610D02*
X198733D01*
X202316Y58193D02*
X214888D01*
X198733Y54610D02*
X202316Y58193D01*
X309880Y113030D02*
X312040D01*
X300990Y104140D02*
X309880Y113030D01*
X292100Y104140D02*
X300990D01*
X181600Y88451D02*
Y92436D01*
X173990Y100330D02*
X174096Y100436D01*
X181600D01*
X204662Y111143D02*
X215163D01*
X215780Y111760D01*
X163830Y158750D02*
Y163830D01*
X161350Y156271D02*
X163830Y158750D01*
X161350Y152686D02*
Y156271D01*
X84883Y167847D02*
X87717Y165013D01*
X111673D01*
X84883Y167847D02*
Y169907D01*
X83183Y171607D02*
X84883Y169907D01*
X75045Y108065D02*
Y112242D01*
X79474Y116671D01*
X74930Y107950D02*
X75045Y108065D01*
X170317Y53340D02*
X181610D01*
X145350Y89470D02*
X148590Y92710D01*
X145350Y84186D02*
Y89470D01*
X134620Y52070D02*
Y60390D01*
X134050Y60960D02*
X134620Y60390D01*
X128270Y29130D02*
Y49530D01*
X123190Y54610D02*
X128270Y49530D01*
X123190Y54610D02*
Y68120D01*
X113030Y136436D02*
Y140366D01*
X109844Y136536D02*
X110110D01*
X106765Y139615D02*
X109844Y136536D01*
X95237Y139615D02*
X106765D01*
X94065Y138443D02*
X95237Y139615D01*
X94065Y106026D02*
Y138443D01*
X88933Y100895D02*
X94065Y106026D01*
X67310Y39160D02*
X88998D01*
X57750D02*
X67310D01*
X80430Y131423D02*
X81244Y132236D01*
X67310Y39160D02*
Y117846D01*
X81244Y132236D02*
X81701D01*
X80430Y130966D02*
Y131423D01*
X67310Y117846D02*
X80430Y130966D01*
X109274Y144536D02*
X110445Y145708D01*
X109174Y144436D02*
X109274Y144536D01*
X109174Y144436D02*
X113100D01*
X106680Y151130D02*
X110445Y147365D01*
Y145708D02*
Y147365D01*
X109220Y144536D02*
X109274D01*
X93980Y151130D02*
X106680D01*
X92710Y149860D02*
X93980Y151130D01*
X92710Y143917D02*
Y149860D01*
X87787Y138993D02*
X92710Y143917D01*
X87787Y132236D02*
Y138993D01*
X111673Y165013D02*
X113030Y166370D01*
X88900Y158750D02*
X91163Y161013D01*
X113030Y166370D02*
Y170462D01*
X88900Y158465D02*
Y158750D01*
X83271Y153137D02*
X83571D01*
X88900Y158465D01*
X114300Y152400D02*
X121250D01*
X121350Y152500D02*
Y152686D01*
X121250Y152400D02*
X121350Y152500D01*
X113030Y140366D02*
X113100Y140436D01*
X108106Y189485D02*
X109122Y190500D01*
X96173Y189485D02*
X108106D01*
X77123Y177966D02*
X83183Y171907D01*
X77123Y177966D02*
Y185576D01*
X75854Y144937D02*
X83271D01*
X87630Y132080D02*
X87787Y132236D01*
X87630Y116827D02*
Y132080D01*
X87473Y116671D02*
X87630Y116827D01*
X74584Y146207D02*
X75854Y144937D01*
X267392Y124460D02*
X269240Y126308D01*
X233680Y104140D02*
X237020Y107480D01*
X248920Y107170D02*
X257030Y99060D01*
X264280D01*
X237020Y107480D02*
Y143630D01*
X264280Y124460D02*
X267392D01*
X269240Y126308D02*
Y140970D01*
X223520Y151130D02*
Y166597D01*
X218440Y174210D02*
Y175260D01*
X226435Y104140D02*
X233680D01*
X218440Y171677D02*
X223520Y166597D01*
X218440Y174210D02*
X234020Y158630D01*
X228600Y127375D02*
X229030Y126945D01*
X221411Y132349D02*
X223627D01*
X200660Y124460D02*
X215780D01*
X225515Y105060D02*
X226435Y104140D01*
X206045Y105060D02*
X225515D01*
X215780Y111760D02*
X223030D01*
X229030Y117760D01*
Y126945D01*
X223627Y132349D02*
X228600Y127375D01*
Y127375D02*
Y127375D01*
X247610Y148630D02*
X248920Y147320D01*
X210520Y154130D02*
X215998D01*
X217520Y152608D01*
X210020Y153630D02*
X210520Y154130D01*
X207448Y99060D02*
X215780D01*
X204824Y96436D02*
X207448Y99060D01*
X209520Y158130D02*
X210020Y158630D01*
X234020D02*
X237020D01*
X217520Y136240D02*
Y152608D01*
X237020Y148630D02*
X247610D01*
X217520Y136240D02*
X221411Y132349D01*
X250850Y13420D02*
X252632Y11639D01*
X231140Y35380D02*
X250850Y15670D01*
X260350Y13420D02*
Y25400D01*
X250190D02*
X260350D01*
X250850Y13420D02*
Y15670D01*
X242570Y33020D02*
X250190Y25400D01*
X210820Y182880D02*
X218440Y175260D01*
X191746Y182880D02*
X210820D01*
X155955Y175515D02*
Y183011D01*
X183960Y182880D02*
X184175D01*
X237020Y153630D02*
X280323D01*
X178978Y176340D02*
Y177898D01*
X140500Y182690D02*
X141000D01*
X132690Y190500D02*
X140500Y182690D01*
X141000D02*
X141501D01*
X145501Y178690D02*
X146743D01*
X141501Y182690D02*
X145501Y178690D01*
X155955Y175515D02*
X158750Y172720D01*
X175358D02*
X178978Y176340D01*
X158750Y172720D02*
X175358D01*
X178978Y177898D02*
X183960Y182880D01*
X133350Y152686D02*
Y158750D01*
X128270Y28880D02*
Y29130D01*
Y19380D02*
X136590D01*
X223030Y86360D02*
X250850Y58540D01*
X264280Y111760D02*
X281940D01*
X284480Y148590D02*
X284922Y149032D01*
X284480Y114300D02*
Y148590D01*
X280323Y153630D02*
X284922Y149032D01*
X281940Y111760D02*
X284480Y114300D01*
X270180Y40250D02*
Y58090D01*
X269850Y39920D02*
X270180Y40250D01*
X250850Y39920D02*
Y58540D01*
X260350Y25400D02*
Y56046D01*
X142780Y13190D02*
X150280D01*
X157780D01*
X136590Y19380D02*
X142780Y13190D01*
X157780D02*
X161780Y17190D01*
X270180Y58090D02*
X270510Y58420D01*
X231140Y58341D02*
X240109D01*
X231140D02*
Y69850D01*
X260350Y56046D02*
X262724Y58420D01*
X262939D01*
X240109Y58341D02*
X242570Y55880D01*
X214888Y50193D02*
X215176Y50481D01*
X230852D01*
X231140Y50770D01*
Y35380D02*
Y50770D01*
X242570Y33020D02*
Y55880D01*
X99864Y20670D02*
X110490D01*
X91815Y15240D02*
X93980D01*
X96198Y62685D02*
X98440D01*
X124460Y69390D02*
X143050D01*
X123190Y68120D02*
X124460Y69390D01*
X115570Y64850D02*
Y64959D01*
X87283Y81437D02*
X99093D01*
X115570Y64959D01*
X115226Y57414D02*
X115570Y57070D01*
X99254Y57414D02*
X115226D01*
X83183Y171306D02*
Y171607D01*
X91384D02*
Y171907D01*
X96173Y174778D02*
Y189485D01*
X95002Y173606D02*
X96173Y174778D01*
X93084Y173606D02*
X95002D01*
X91384Y171907D02*
X93084Y173606D01*
X83183Y171607D02*
Y171907D01*
X109122Y190500D02*
X132690D01*
X268678Y5080D02*
X269850Y6252D01*
X74584Y162707D02*
X83183Y171306D01*
X252632Y5080D02*
Y11639D01*
Y5080D02*
X268678D01*
X269850Y6252D02*
Y11920D01*
X88998Y39160D02*
X92598Y42760D01*
X93980Y16006D02*
X99254Y21280D01*
Y57414D01*
X92598Y59085D02*
X96198Y62685D01*
X92598Y42760D02*
Y59085D01*
X88895Y18160D02*
X91815Y15240D01*
X57750Y18160D02*
X88895D01*
X93980Y15240D02*
Y16006D01*
X80934Y87787D02*
X87283Y81437D01*
X80934Y87787D02*
Y100395D01*
X74584Y146207D02*
Y162707D01*
X11700Y37390D02*
X12201Y37890D01*
X38700D01*
X11700Y58390D02*
X13200Y59890D01*
X11700Y37390D02*
Y58390D01*
X13200Y59890D02*
X27400D01*
X36600D02*
X38100Y61390D01*
X27400Y59890D02*
X36600D01*
X38100Y61390D02*
Y72390D01*
X36600Y84890D02*
X38100Y83390D01*
Y72390D02*
Y83390D01*
X27400Y84890D02*
X36600D01*
X11700Y86390D02*
X13200Y84890D01*
X11700Y86390D02*
Y95890D01*
X13200Y84890D02*
X27400D01*
X13200Y106890D02*
X27400D01*
X11700Y105390D02*
X13200Y106890D01*
X11700Y95890D02*
Y105390D01*
X36600Y106890D02*
X38100Y108390D01*
Y119390D01*
X27400Y106890D02*
X36600D01*
X38100Y119390D02*
Y130390D01*
X27400Y131890D02*
X36600D01*
X38100Y130390D01*
X11700Y133390D02*
X13200Y131890D01*
X11700Y133390D02*
Y142890D01*
X13200Y131890D02*
X27400D01*
X13200Y153890D02*
X33900D01*
X11700Y152390D02*
X13200Y153890D01*
X11700Y142890D02*
Y152390D01*
X313440Y97790D02*
Y105591D01*
Y82195D02*
Y97790D01*
X304800D02*
X313440D01*
X330085Y124346D02*
Y125616D01*
Y123075D02*
Y124346D01*
X318770Y124460D02*
X329971D01*
X330085Y124346D01*
X312040Y117030D02*
Y117730D01*
X318770Y124460D01*
X312386Y106646D02*
X313440Y105591D01*
X347243Y106600D02*
X392510D01*
X398780Y100330D01*
X321440Y82195D02*
Y92580D01*
X320040Y93980D02*
X321440Y92580D01*
X316040Y108895D02*
X320040Y104895D01*
Y93980D02*
Y104895D01*
X316040Y108895D02*
Y109030D01*
X347243Y114380D02*
Y127753D01*
X340360Y134636D02*
X347243Y127753D01*
X340360Y134636D02*
Y135890D01*
X330085Y125616D02*
X340360Y135890D01*
X324040Y117030D02*
X330085Y123075D01*
D15*
X135890Y73660D02*
X141350Y79120D01*
Y84186D01*
X118110Y73660D02*
X135890D01*
X115570Y71120D02*
X118110Y73660D01*
X115570Y64959D02*
Y71120D01*
X312040Y106991D02*
Y109030D01*
X320040D02*
Y113030D01*
X316040Y109030D02*
X320040D01*
X324040D02*
Y117030D01*
D18*
X181600Y144436D02*
D03*
Y140436D02*
D03*
Y136436D02*
D03*
Y132436D02*
D03*
Y128436D02*
D03*
Y124436D02*
D03*
Y120436D02*
D03*
Y116436D02*
D03*
Y112436D02*
D03*
Y108436D02*
D03*
Y104436D02*
D03*
Y100436D02*
D03*
Y96436D02*
D03*
Y92436D02*
D03*
X113100D02*
D03*
Y96436D02*
D03*
Y100436D02*
D03*
Y104436D02*
D03*
Y108436D02*
D03*
Y112436D02*
D03*
Y116436D02*
D03*
Y120436D02*
D03*
Y124436D02*
D03*
Y128436D02*
D03*
Y132436D02*
D03*
Y136436D02*
D03*
Y140436D02*
D03*
Y144436D02*
D03*
D19*
X121350Y152686D02*
D03*
X125350D02*
D03*
X129350D02*
D03*
X133350D02*
D03*
X137350D02*
D03*
X141350D02*
D03*
X145350D02*
D03*
X149350D02*
D03*
X153350D02*
D03*
X157351D02*
D03*
X161350D02*
D03*
X165350D02*
D03*
X169350D02*
D03*
X173350D02*
D03*
Y84186D02*
D03*
X169350D02*
D03*
X165350D02*
D03*
X161350D02*
D03*
X157351D02*
D03*
X153350D02*
D03*
X149350D02*
D03*
X145350D02*
D03*
X141350D02*
D03*
X137350D02*
D03*
X133350D02*
D03*
X129350D02*
D03*
X125350D02*
D03*
X121350D02*
D03*
D21*
X128270Y19380D02*
D03*
Y28880D02*
D03*
D22*
X237020Y158630D02*
D03*
Y153630D02*
D03*
Y148630D02*
D03*
Y143630D02*
D03*
X210020Y158630D02*
D03*
Y153630D02*
D03*
Y148630D02*
D03*
Y143630D02*
D03*
D24*
X83183Y171607D02*
D03*
X91384D02*
D03*
D25*
X83271Y144937D02*
D03*
Y153137D02*
D03*
D26*
X250850Y13420D02*
D03*
X260350D02*
D03*
X269850D02*
D03*
Y39920D02*
D03*
X250850D02*
D03*
D27*
X264280Y86360D02*
D03*
Y99060D02*
D03*
Y111760D02*
D03*
Y124460D02*
D03*
X215780Y86360D02*
D03*
Y99060D02*
D03*
Y111760D02*
D03*
Y124460D02*
D03*
D28*
X127000Y171690D02*
D03*
X141000Y182690D02*
D03*
X127000D02*
D03*
X141000Y171690D02*
D03*
D29*
X231140Y50770D02*
D03*
Y58341D02*
D03*
D30*
X270510Y58420D02*
D03*
X262939D02*
D03*
X184175Y182880D02*
D03*
X191746D02*
D03*
D31*
X214888Y58193D02*
D03*
Y50193D02*
D03*
D32*
X79474Y116671D02*
D03*
X87473D02*
D03*
D33*
X149523Y9090D02*
D03*
Y34090D02*
D03*
D34*
X115570Y64850D02*
D03*
Y57070D02*
D03*
X347243Y114380D02*
D03*
Y106600D02*
D03*
D35*
X99254Y63500D02*
D03*
Y57414D02*
D03*
D36*
X144780Y59690D02*
D03*
X132780D02*
D03*
D37*
X110490Y20670D02*
D03*
Y32670D02*
D03*
D38*
X80934Y100395D02*
D03*
X88933D02*
D03*
D39*
X81701Y132236D02*
D03*
X87787D02*
D03*
D40*
X155955Y183011D02*
D03*
X164085D02*
D03*
D41*
X377440Y82195D02*
D03*
X369440D02*
D03*
X313440D02*
D03*
X321440D02*
D03*
D42*
X362940D02*
D03*
X357940D02*
D03*
X327940D02*
D03*
X332940D02*
D03*
X337940D02*
D03*
X352940D02*
D03*
X347940D02*
D03*
X342940D02*
D03*
D43*
X377620Y173400D02*
D03*
X336120D02*
D03*
X377620Y194900D02*
D03*
X336120D02*
D03*
D44*
X324040Y109030D02*
D03*
X320040D02*
D03*
X316040D02*
D03*
X312040D02*
D03*
X324040Y113030D02*
D03*
X320040D02*
D03*
X316040D02*
D03*
X312040D02*
D03*
X324040Y117030D02*
D03*
X320040D02*
D03*
X316040D02*
D03*
X312040D02*
D03*
D45*
X387940Y291260D02*
D03*
Y249760D02*
D03*
X366440Y291260D02*
D03*
Y249760D02*
D03*
X321990D02*
D03*
Y291260D02*
D03*
X343490Y249760D02*
D03*
Y291260D02*
D03*
D46*
X340360Y220980D02*
D03*
X327820D02*
D03*
X383460D02*
D03*
X370920D02*
D03*
D63*
X192337Y250190D02*
D03*
D64*
X166937D02*
D03*
X141537D02*
D03*
X116137D02*
D03*
D73*
X163690Y60870D02*
D03*
D74*
X166090Y64770D02*
D03*
D75*
X161290D02*
D03*
Y56970D02*
D03*
X166090D02*
D03*
D76*
X163690Y60870D02*
D03*
D77*
X147350Y118436D02*
D03*
D78*
X223520Y151130D02*
D03*
D79*
X33900Y153890D02*
D03*
D80*
X11700Y142890D02*
D03*
Y95890D02*
D03*
D81*
X27400Y131890D02*
D03*
Y106890D02*
D03*
Y84890D02*
D03*
Y59890D02*
D03*
D82*
X38100Y119390D02*
D03*
Y72390D02*
D03*
D83*
X38700Y37890D02*
D03*
D84*
X11700Y37390D02*
D03*
D85*
X38700Y16890D02*
D03*
D86*
X156757Y65681D02*
X159606D01*
X153030Y62660D02*
X153736D01*
X156757Y65681D01*
X159606D02*
X161296Y67370D01*
X174120Y66817D02*
Y68450D01*
X172720Y69850D02*
X174120Y68450D01*
Y66817D02*
X177800Y63137D01*
Y62160D02*
Y63137D01*
X161296Y75113D02*
Y76629D01*
X164955Y69238D02*
X165204Y68989D01*
X168565Y69850D02*
X172720D01*
X161296Y67370D02*
Y75113D01*
X165204Y68989D02*
X166085Y68108D01*
Y67370D02*
X168565Y69850D01*
X165645Y79613D02*
Y84186D01*
X345544Y91140D02*
X347635Y89049D01*
X340336Y91140D02*
X345544D01*
X347635Y82500D02*
X347940Y82195D01*
X347635Y82500D02*
Y89049D01*
X338245Y82500D02*
Y89048D01*
X340336Y91140D01*
X337940Y82195D02*
X338245Y82500D01*
Y75342D02*
X339090Y74497D01*
Y54610D02*
Y74497D01*
X337940Y82195D02*
X338245Y81890D01*
Y75342D02*
Y81890D01*
X161350Y76685D02*
Y84186D01*
X161296Y76629D02*
X161350Y76685D01*
X161296Y65468D02*
Y67370D01*
X352635Y75342D02*
X353060Y74916D01*
X345336Y73250D02*
X350544D01*
X343245Y75341D02*
X345336Y73250D01*
X342940Y82195D02*
X343245Y81890D01*
Y75341D02*
Y81890D01*
X353060Y62230D02*
Y74916D01*
X350544Y73250D02*
X352635Y75342D01*
X165010Y78978D02*
X165645Y79613D01*
X165350Y84186D02*
X165645D01*
X165010Y75169D02*
Y78978D01*
X164955Y75113D02*
X165010Y75169D01*
X164955Y69238D02*
Y75113D01*
X166085Y67370D02*
Y68108D01*
D87*
X137035Y28880D02*
X138861Y30706D01*
Y30928D02*
X142961Y35028D01*
X149969D01*
X138861Y30706D02*
Y30928D01*
X128270Y28880D02*
X137035D01*
X110490Y32670D02*
X124730D01*
X128270Y29130D01*
D88*
X294640Y290830D02*
D03*
X106680Y179070D02*
D03*
X373380Y57150D02*
D03*
X195580Y88900D02*
D03*
Y7620D02*
D03*
X153670Y74930D02*
D03*
X177800Y62160D02*
D03*
X200660Y135890D02*
D03*
X358140Y215900D02*
D03*
X76200Y76200D02*
D03*
X101600Y119380D02*
D03*
X100330Y132080D02*
D03*
X328930Y233680D02*
D03*
X151130Y194310D02*
D03*
X339090Y54610D02*
D03*
X353060Y62230D02*
D03*
X321310Y50800D02*
D03*
X360680Y52070D02*
D03*
D89*
X148590Y167640D02*
D03*
X181610Y53340D02*
D03*
X139850Y133436D02*
D03*
X132350Y125936D02*
D03*
Y110936D02*
D03*
X147350D02*
D03*
X139850Y103436D02*
D03*
X154850D02*
D03*
X162350Y110936D02*
D03*
Y125936D02*
D03*
X147350D02*
D03*
X154850Y133436D02*
D03*
Y118436D02*
D03*
X139850D02*
D03*
X77123Y185576D02*
D03*
X304800Y97790D02*
D03*
X153030Y62660D02*
D03*
X313690Y195580D02*
D03*
X198120Y54610D02*
D03*
X292100Y104140D02*
D03*
X182880Y86360D02*
D03*
X281940Y111760D02*
D03*
D90*
X113030Y85090D02*
D03*
X74930Y107950D02*
D03*
X146050Y134620D02*
D03*
X152400Y128270D02*
D03*
X153670Y111760D02*
D03*
X148590Y92710D02*
D03*
X140970Y160020D02*
D03*
X280670Y85090D02*
D03*
X179070Y78740D02*
D03*
X311150Y237490D02*
D03*
X247650Y114300D02*
D03*
X198120Y113436D02*
D03*
X96440Y88900D02*
D03*
X86360Y71120D02*
D03*
X153670Y54610D02*
D03*
X138264Y93936D02*
D03*
X173990Y100330D02*
D03*
X163830Y163830D02*
D03*
X134620Y52070D02*
D03*
X114300Y152400D02*
D03*
D91*
X93980Y15240D02*
D03*
X218440Y175260D02*
D03*
X269240Y140970D02*
D03*
X340360Y135890D02*
D03*
D92*
X388640Y34645D02*
D03*
X302240D02*
D03*
D93*
X374340Y71445D02*
D03*
X316540D02*
D03*
D94*
X302240Y76445D02*
D03*
X388640D02*
D03*
D95*
X196850Y147320D02*
D03*
M02*
