G04*
G04 #@! TF.GenerationSoftware,Altium Limited,Altium Designer,23.9.2 (47)*
G04*
G04 Layer_Color=8388736*
%FSLAX44Y44*%
%MOMM*%
G71*
G04*
G04 #@! TF.SameCoordinates,2E1E75F7-3D1D-466E-99F7-38A65D3F2882*
G04*
G04*
G04 #@! TF.FilePolarity,Negative*
G04*
G01*
G75*
%ADD20R,0.5200X0.5200*%
%ADD21R,0.3627X0.4541*%
%ADD23R,0.4725X0.5153*%
%ADD24R,0.5955X0.6631*%
%ADD25R,0.6062X0.6281*%
%ADD26R,0.5000X0.4000*%
%ADD28R,0.6000X0.5000*%
%ADD29R,0.4000X0.5000*%
%ADD30R,0.8121X0.7581*%
%ADD32R,0.5000X0.6000*%
%ADD33R,0.9000X0.7500*%
%ADD37R,2.5000X1.0000*%
%ADD44R,0.9000X0.8000*%
%ADD46P,0.3535X4X180.0*%
G04:AMPARAMS|DCode=47|XSize=0.7mm|YSize=1.25mm|CornerRadius=0.125mm|HoleSize=0mm|Usage=FLASHONLY|Rotation=90.000|XOffset=0mm|YOffset=0mm|HoleType=Round|Shape=RoundedRectangle|*
%AMROUNDEDRECTD47*
21,1,0.7000,1.0000,0,0,90.0*
21,1,0.4500,1.2500,0,0,90.0*
1,1,0.2500,0.5000,0.2250*
1,1,0.2500,0.5000,-0.2250*
1,1,0.2500,-0.5000,-0.2250*
1,1,0.2500,-0.5000,0.2250*
%
%ADD47ROUNDEDRECTD47*%
G04:AMPARAMS|DCode=48|XSize=0.4mm|YSize=1.25mm|CornerRadius=0.0875mm|HoleSize=0mm|Usage=FLASHONLY|Rotation=90.000|XOffset=0mm|YOffset=0mm|HoleType=Round|Shape=RoundedRectangle|*
%AMROUNDEDRECTD48*
21,1,0.4000,1.0750,0,0,90.0*
21,1,0.2250,1.2500,0,0,90.0*
1,1,0.1750,0.5375,0.1125*
1,1,0.1750,0.5375,-0.1125*
1,1,0.1750,-0.5375,-0.1125*
1,1,0.1750,-0.5375,0.1125*
%
%ADD48ROUNDEDRECTD48*%
G04:AMPARAMS|DCode=49|XSize=0.8032mm|YSize=1.2532mm|CornerRadius=0.1766mm|HoleSize=0mm|Usage=FLASHONLY|Rotation=90.000|XOffset=0mm|YOffset=0mm|HoleType=Round|Shape=RoundedRectangle|*
%AMROUNDEDRECTD49*
21,1,0.8032,0.9000,0,0,90.0*
21,1,0.4500,1.2532,0,0,90.0*
1,1,0.3532,0.4500,0.2250*
1,1,0.3532,0.4500,-0.2250*
1,1,0.3532,-0.4500,-0.2250*
1,1,0.3532,-0.4500,0.2250*
%
%ADD49ROUNDEDRECTD49*%
%ADD50R,0.8032X0.7432*%
%ADD51R,0.7432X0.8032*%
%ADD52R,0.7500X0.3200*%
%ADD53R,0.3200X0.7500*%
%ADD54R,4.3032X4.3032*%
%ADD55C,0.4532*%
G04:AMPARAMS|DCode=56|XSize=1.0032mm|YSize=1.2032mm|CornerRadius=0.2016mm|HoleSize=0mm|Usage=FLASHONLY|Rotation=90.000|XOffset=0mm|YOffset=0mm|HoleType=Round|Shape=RoundedRectangle|*
%AMROUNDEDRECTD56*
21,1,1.0032,0.8000,0,0,90.0*
21,1,0.6000,1.2032,0,0,90.0*
1,1,0.4032,0.4000,0.3000*
1,1,0.4032,0.4000,-0.3000*
1,1,0.4032,-0.4000,-0.3000*
1,1,0.4032,-0.4000,0.3000*
%
%ADD56ROUNDEDRECTD56*%
%ADD57R,1.2532X0.8532*%
%ADD58R,0.4532X1.8532*%
%ADD59R,1.1600X0.5600*%
%ADD60O,2.2532X0.8032*%
%ADD61R,0.8532X0.9032*%
%ADD62O,2.3032X1.2032*%
%ADD63C,0.7500*%
%ADD64O,2.0032X1.2032*%
%ADD65C,1.3500*%
%ADD66R,1.3500X1.3500*%
%ADD67C,0.5032*%
%ADD68C,0.8032*%
%ADD69C,1.4732*%
%ADD70C,0.3500*%
G36*
X804900Y351600D02*
Y351501D01*
X804976Y351317D01*
X805116Y351177D01*
X805300Y351101D01*
X805400D01*
X805400D01*
X809100Y351100D01*
Y351700D01*
X807500Y353300D01*
X805400Y353300D01*
X805300D01*
X805116Y353224D01*
X804976Y353084D01*
X804900Y352900D01*
Y352800D01*
Y352800D01*
Y351600D01*
D02*
G37*
G36*
Y357600D02*
Y357700D01*
X804976Y357884D01*
X805116Y358024D01*
X805300Y358100D01*
X805400D01*
X805400Y358100D01*
X809100Y358100D01*
Y357500D01*
X807500Y355900D01*
X805400D01*
X805300D01*
X805116Y355976D01*
X804976Y356117D01*
X804900Y356301D01*
Y356400D01*
Y356400D01*
Y357600D01*
D02*
G37*
G36*
X816900Y351600D02*
Y351501D01*
X816824Y351317D01*
X816683Y351176D01*
X816499Y351100D01*
X816400D01*
X816400D01*
X812700D01*
Y351700D01*
X814300Y353300D01*
X816400Y353300D01*
X816499D01*
X816683Y353224D01*
X816824Y353084D01*
X816900Y352900D01*
Y352800D01*
X816900Y352800D01*
X816900Y351600D01*
D02*
G37*
G36*
Y357600D02*
Y357700D01*
X816824Y357884D01*
X816683Y358024D01*
X816499Y358100D01*
X816400D01*
Y358100D01*
X812700Y358100D01*
Y357500D01*
X814300Y355900D01*
X816400D01*
X816499D01*
X816683Y355976D01*
X816824Y356117D01*
X816900Y356301D01*
Y356400D01*
X816900Y356400D01*
X816900Y357600D01*
D02*
G37*
D20*
X388457Y281914D02*
D03*
Y273914D02*
D03*
X729000Y552000D02*
D03*
Y560000D02*
D03*
X473000Y494000D02*
D03*
Y502000D02*
D03*
X591000Y549000D02*
D03*
Y557000D02*
D03*
X399000Y495000D02*
D03*
Y503000D02*
D03*
Y462000D02*
D03*
Y454000D02*
D03*
X836000Y565000D02*
D03*
Y557000D02*
D03*
D21*
X359000Y278957D02*
D03*
Y285043D02*
D03*
X426000Y286043D02*
D03*
Y279957D02*
D03*
X360000Y497957D02*
D03*
Y504043D02*
D03*
D23*
X514000Y493214D02*
D03*
Y500785D02*
D03*
X761000Y283215D02*
D03*
Y290786D02*
D03*
X696000Y351214D02*
D03*
Y358786D02*
D03*
X765000Y402429D02*
D03*
Y410000D02*
D03*
X438000Y493428D02*
D03*
Y501000D02*
D03*
X437000Y454215D02*
D03*
Y461786D02*
D03*
X471000Y407429D02*
D03*
Y415000D02*
D03*
D24*
X719000Y481065D02*
D03*
Y472935D02*
D03*
X886000Y488000D02*
D03*
Y479869D02*
D03*
D25*
X813000Y403110D02*
D03*
Y410890D02*
D03*
X708000Y402221D02*
D03*
Y410000D02*
D03*
X361000Y451220D02*
D03*
Y459000D02*
D03*
D26*
X472000Y453000D02*
D03*
Y461000D02*
D03*
D28*
X467000Y281000D02*
D03*
Y291000D02*
D03*
X768000Y486000D02*
D03*
Y476000D02*
D03*
X815000Y475000D02*
D03*
Y485000D02*
D03*
D29*
X745000Y356000D02*
D03*
X753000D02*
D03*
D30*
X771000Y550460D02*
D03*
Y563000D02*
D03*
X624000Y560270D02*
D03*
Y547730D02*
D03*
X888999Y567270D02*
D03*
Y554730D02*
D03*
D32*
X649000Y463000D02*
D03*
X659000D02*
D03*
X662000Y396000D02*
D03*
X652000D02*
D03*
X649000Y501000D02*
D03*
X659000D02*
D03*
X650000Y430000D02*
D03*
X660000D02*
D03*
X501000Y442000D02*
D03*
X511000D02*
D03*
D33*
X594000Y346000D02*
D03*
Y334000D02*
D03*
X635000Y345000D02*
D03*
Y333000D02*
D03*
D37*
X560000Y275000D02*
D03*
Y300000D02*
D03*
D44*
X536000Y347500D02*
D03*
X550000Y336500D02*
D03*
Y347500D02*
D03*
X536000Y336500D02*
D03*
D46*
X810903Y354599D02*
D03*
D47*
X903225Y355000D02*
D03*
Y291000D02*
D03*
Y299000D02*
D03*
Y347000D02*
D03*
D48*
Y320500D02*
D03*
Y325500D02*
D03*
Y330500D02*
D03*
Y315500D02*
D03*
Y310500D02*
D03*
Y305500D02*
D03*
Y335500D02*
D03*
Y340500D02*
D03*
D49*
X712000Y295000D02*
D03*
Y276000D02*
D03*
X685500D02*
D03*
Y295000D02*
D03*
Y285501D02*
D03*
D50*
X504000Y383000D02*
D03*
Y374800D02*
D03*
D51*
X491000Y331000D02*
D03*
X482800D02*
D03*
D52*
X431250Y405000D02*
D03*
Y401000D02*
D03*
Y397000D02*
D03*
Y393000D02*
D03*
Y389000D02*
D03*
Y385000D02*
D03*
Y381000D02*
D03*
Y377000D02*
D03*
Y373000D02*
D03*
Y369000D02*
D03*
Y365000D02*
D03*
Y361000D02*
D03*
Y357000D02*
D03*
Y352999D02*
D03*
X362750D02*
D03*
Y357000D02*
D03*
Y361000D02*
D03*
Y365000D02*
D03*
Y369000D02*
D03*
Y373000D02*
D03*
Y377000D02*
D03*
Y381000D02*
D03*
Y385000D02*
D03*
Y389000D02*
D03*
Y393000D02*
D03*
Y397000D02*
D03*
Y401000D02*
D03*
Y405000D02*
D03*
D53*
X370999Y413250D02*
D03*
X375000D02*
D03*
X379000D02*
D03*
X383000D02*
D03*
X387000D02*
D03*
X391000D02*
D03*
X395000D02*
D03*
X399000D02*
D03*
X403000D02*
D03*
X407000D02*
D03*
X411000D02*
D03*
X415000D02*
D03*
X419000D02*
D03*
X423000D02*
D03*
Y344750D02*
D03*
X419000D02*
D03*
X415000D02*
D03*
X411000D02*
D03*
X407000D02*
D03*
X403000D02*
D03*
X399000D02*
D03*
X395000D02*
D03*
X391000D02*
D03*
X387000D02*
D03*
X383000D02*
D03*
X379000D02*
D03*
X375000D02*
D03*
X370999D02*
D03*
D54*
X397000Y379000D02*
D03*
D55*
X816000Y287000D02*
D03*
X812000D02*
D03*
X816000Y291000D02*
D03*
X812000D02*
D03*
X808000D02*
D03*
X816000Y295000D02*
D03*
X812000D02*
D03*
X808000D02*
D03*
X820000D02*
D03*
Y291000D02*
D03*
X808000Y287000D02*
D03*
X820000D02*
D03*
D56*
X932000Y622000D02*
D03*
Y637000D02*
D03*
X680000Y547500D02*
D03*
Y562500D02*
D03*
D57*
X774750Y617250D02*
D03*
X733250D02*
D03*
X774750Y638750D02*
D03*
X733250D02*
D03*
X885750Y617250D02*
D03*
X844250D02*
D03*
X885750Y638750D02*
D03*
X844250D02*
D03*
X634750Y617250D02*
D03*
X593250D02*
D03*
X634750Y638750D02*
D03*
X593250D02*
D03*
D58*
X580000Y495000D02*
D03*
D59*
X566500Y487500D02*
D03*
X593500Y502500D02*
D03*
Y497500D02*
D03*
Y492500D02*
D03*
Y487500D02*
D03*
X566500Y502500D02*
D03*
Y497500D02*
D03*
Y492500D02*
D03*
D60*
X546750Y399950D02*
D03*
Y438050D02*
D03*
Y425350D02*
D03*
Y412650D02*
D03*
X595250Y438050D02*
D03*
Y425350D02*
D03*
Y412650D02*
D03*
Y399950D02*
D03*
D61*
X507000Y282250D02*
D03*
Y291750D02*
D03*
D62*
X908975Y366200D02*
D03*
Y279800D02*
D03*
D63*
X913975Y294100D02*
D03*
Y351900D02*
D03*
D64*
X950775Y279800D02*
D03*
Y366200D02*
D03*
D65*
X447000Y598000D02*
D03*
X421600D02*
D03*
X396200D02*
D03*
D66*
X370800D02*
D03*
D67*
X534000Y358000D02*
D03*
X816000Y291000D02*
D03*
X808000Y291000D02*
D03*
D68*
X549000Y368000D02*
D03*
X396808Y362314D02*
D03*
X602148Y497500D02*
D03*
X817118Y617250D02*
D03*
X580744Y438050D02*
D03*
X721516Y276000D02*
D03*
X672000Y309000D02*
D03*
X666000Y275000D02*
D03*
X455000Y405000D02*
D03*
X456000Y379000D02*
D03*
X696000Y458000D02*
D03*
X472000Y362000D02*
D03*
X448000Y367000D02*
D03*
X461000Y365000D02*
D03*
X334000Y419000D02*
D03*
X423000Y369000D02*
D03*
X437000Y330000D02*
D03*
X380000Y435000D02*
D03*
X406000Y353000D02*
D03*
X579680Y346000D02*
D03*
X367000Y437000D02*
D03*
X401000Y311000D02*
D03*
X729000Y351000D02*
D03*
X392000Y433000D02*
D03*
X417000Y319000D02*
D03*
Y332000D02*
D03*
X468000Y304000D02*
D03*
X781000Y594000D02*
D03*
X345000Y381000D02*
D03*
Y393000D02*
D03*
X561000Y614000D02*
D03*
X803000Y333000D02*
D03*
X728000Y447000D02*
D03*
X715000Y371000D02*
D03*
X787000Y356000D02*
D03*
X433000Y268000D02*
D03*
X406000Y281000D02*
D03*
X376000Y267000D02*
D03*
X332000Y404000D02*
D03*
X515930Y282250D02*
D03*
X533680Y300000D02*
D03*
X473807Y395381D02*
D03*
X485648Y469392D02*
D03*
X753000Y283215D02*
D03*
Y342392D02*
D03*
X657754Y547730D02*
D03*
X802374Y403110D02*
D03*
X518263Y391092D02*
D03*
X830000Y333000D02*
D03*
X800736Y475488D02*
D03*
X844000Y485944D02*
D03*
Y386200D02*
D03*
X615294Y547730D02*
D03*
X609854Y425350D02*
D03*
X532230Y438050D02*
D03*
X547570Y507580D02*
D03*
X658368Y381737D02*
D03*
X518192Y427737D02*
D03*
X667193Y444263D02*
D03*
X674320Y484375D02*
D03*
X654000Y527455D02*
D03*
X883000Y287000D02*
D03*
X839000Y271000D02*
D03*
X649000Y452304D02*
D03*
X548894Y492252D02*
D03*
X563826Y444246D02*
D03*
X650000D02*
D03*
X605076Y452374D02*
D03*
X538480Y484378D02*
D03*
X475488Y428752D02*
D03*
X454406Y461786D02*
D03*
X533527Y280035D02*
D03*
X579628Y300000D02*
D03*
X604774Y351282D02*
D03*
X422148Y355600D02*
D03*
X781812Y471424D02*
D03*
X777608Y485000D02*
D03*
X504290Y399950D02*
D03*
X765000Y319484D02*
D03*
X890016Y502666D02*
D03*
X913130Y340614D02*
D03*
X636524Y517398D02*
D03*
X609770Y399950D02*
D03*
X608198Y487426D02*
D03*
X532230Y412650D02*
D03*
X816864Y388620D02*
D03*
X779331Y563000D02*
D03*
X917000Y302000D02*
D03*
D69*
X817000Y639000D02*
D03*
D70*
X810900Y354600D02*
D03*
M02*
