G04*
G04 #@! TF.GenerationSoftware,Altium Limited,Altium Designer,23.9.2 (47)*
G04*
G04 Layer_Color=16711935*
%FSLAX44Y44*%
%MOMM*%
G71*
G04*
G04 #@! TF.SameCoordinates,250A9CB9-7403-4FF4-BB43-A60BEB693519*
G04*
G04*
G04 #@! TF.FilePolarity,Positive*
G04*
G01*
G75*
%ADD11C,0.2000*%
%ADD14C,0.1270*%
%ADD99C,0.1000*%
%ADD100C,0.1500*%
%ADD101C,0.1750*%
D11*
X103800Y144436D02*
G03*
X103800Y144436I-1000J0D01*
G01*
X252020Y143630D02*
G03*
X252020Y143630I-1000J0D01*
G01*
X304590Y117030D02*
G03*
X304590Y117030I-1000J0D01*
G01*
X203520Y163630D02*
X246020D01*
X203520Y138630D02*
X246020D01*
X203520D02*
Y163630D01*
X246020Y138630D02*
Y163630D01*
X292940Y5920D02*
Y28420D01*
Y5920D02*
X397940D01*
Y90920D01*
X292940D02*
X397940D01*
X292940Y28420D02*
Y90920D01*
X386870Y164150D02*
Y204150D01*
X326870D02*
X386870D01*
X326870Y164150D02*
Y204150D01*
Y164150D02*
X386870D01*
X357190Y240510D02*
Y300510D01*
X397190D01*
Y240510D02*
Y300510D01*
X357190Y240510D02*
X397190D01*
X312740D02*
X352740D01*
Y300510D01*
X312740D02*
X352740D01*
X312740Y240510D02*
Y300510D01*
D14*
X112350Y83436D02*
Y153436D01*
X182350Y83436D02*
Y153436D01*
X112350D02*
X182350D01*
X112350Y83436D02*
X182350D01*
X308590Y106030D02*
Y120030D01*
X327490Y106030D02*
Y120030D01*
X308590D02*
X327490D01*
X308590Y106030D02*
X327490D01*
D99*
X255530Y89910D02*
G03*
X255530Y89910I-5000J0D01*
G01*
X125520Y18880D02*
Y29380D01*
X131020Y18880D02*
Y29380D01*
X125520Y18880D02*
X131020D01*
X125520Y29380D02*
X131020D01*
X81783Y168356D02*
Y174857D01*
X92784Y168356D02*
Y174857D01*
X81783D02*
X92784D01*
X81783Y168356D02*
X92784D01*
X80021Y143536D02*
X86521D01*
X80021Y154537D02*
X86521D01*
X80021Y143536D02*
Y154537D01*
X86521Y143536D02*
Y154537D01*
X245850Y23670D02*
Y34670D01*
Y23670D02*
X250850Y18670D01*
X274850D01*
X245850Y34670D02*
X274850D01*
Y18670D02*
Y34670D01*
X259530Y80910D02*
Y129910D01*
X220530Y80910D02*
Y129910D01*
Y80910D02*
X259530D01*
X220530Y129910D02*
X259530D01*
D100*
X230668Y146132D02*
Y154462D01*
X229002Y156128D01*
X225670D01*
X224004Y154462D01*
Y146132D01*
X220672D02*
X214007D01*
Y147798D01*
X220672Y154462D01*
Y156128D01*
X373858Y261306D02*
X372192Y259639D01*
Y256307D01*
X373858Y254641D01*
X375524D01*
X377190Y256307D01*
Y259639D01*
X378856Y261306D01*
X380522D01*
X382188Y259639D01*
Y256307D01*
X380522Y254641D01*
X372192Y264638D02*
X382188D01*
X378856Y267970D01*
X382188Y271302D01*
X372192D01*
X382188Y281299D02*
Y274634D01*
X375524Y281299D01*
X373858D01*
X372192Y279633D01*
Y276301D01*
X373858Y274634D01*
X328138Y264242D02*
X326472Y262575D01*
Y259243D01*
X328138Y257577D01*
X329804D01*
X331470Y259243D01*
Y262575D01*
X333136Y264242D01*
X334802D01*
X336468Y262575D01*
Y259243D01*
X334802Y257577D01*
X326472Y267574D02*
X336468D01*
X333136Y270906D01*
X336468Y274238D01*
X326472D01*
X336468Y277571D02*
Y280903D01*
Y279237D01*
X326472D01*
X328138Y277571D01*
X362754Y178381D02*
X364420Y176714D01*
X367752D01*
X369418Y178381D01*
Y180047D01*
X367752Y181713D01*
X364420D01*
X362754Y183379D01*
Y185045D01*
X364420Y186711D01*
X367752D01*
X369418Y185045D01*
X359422Y176714D02*
Y186711D01*
X356089Y183379D01*
X352757Y186711D01*
Y176714D01*
X349425Y178381D02*
X347759Y176714D01*
X344426D01*
X342760Y178381D01*
Y180047D01*
X344426Y181713D01*
X346092D01*
X344426D01*
X342760Y183379D01*
Y185045D01*
X344426Y186711D01*
X347759D01*
X349425Y185045D01*
D101*
X345440Y63418D02*
X342108D01*
X343774D01*
Y55088D01*
X342108Y53422D01*
X340442D01*
X338775Y55088D01*
X348772Y53422D02*
X352104D01*
X350438D01*
Y63418D01*
X348772Y61752D01*
M02*
