G04*
G04 #@! TF.GenerationSoftware,Altium Limited,Altium Designer,23.9.2 (47)*
G04*
G04 Layer_Physical_Order=4*
G04 Layer_Color=16711680*
%FSLAX44Y44*%
%MOMM*%
G71*
G04*
G04 #@! TF.SameCoordinates,2E1E75F7-3D1D-466E-99F7-38A65D3F2882*
G04*
G04*
G04 #@! TF.FilePolarity,Positive*
G04*
G01*
G75*
%ADD15C,0.2540*%
%ADD65C,1.3500*%
%ADD66R,1.3500X1.3500*%
%ADD70C,0.3500*%
%ADD84C,0.2100*%
%ADD86O,2.1000X1.0000*%
%ADD87C,0.6500*%
%ADD88O,1.8000X1.0000*%
%ADD89C,0.5000*%
%ADD90C,0.3000*%
%ADD91C,0.6000*%
%ADD92C,1.2700*%
%ADD95C,0.1959*%
%ADD96C,0.1444*%
D15*
X561000Y331000D02*
Y354000D01*
X526000Y331000D02*
Y355512D01*
X527488Y357000D02*
X558000D01*
X526000Y331000D02*
X531000Y326000D01*
X556000D02*
X561000Y331000D01*
X531000Y326000D02*
X556000D01*
X558000Y357000D02*
X561000Y354000D01*
X526000Y355512D02*
X527488Y357000D01*
X775000Y281000D02*
Y310000D01*
X467000Y263000D02*
X757000D01*
X775000Y281000D01*
X333000Y437000D02*
X345000Y425000D01*
X461580Y507580D02*
X547570D01*
X456000Y502000D02*
X461580Y507580D01*
X456000Y487000D02*
Y502000D01*
X445000Y476000D02*
X456000Y487000D01*
X445000Y444000D02*
Y476000D01*
Y444000D02*
X455000Y434000D01*
Y405000D02*
Y434000D01*
X532230Y425230D02*
Y439770D01*
X524000Y417000D02*
X532230Y425230D01*
X497000Y417000D02*
X524000D01*
X489000Y409000D02*
X497000Y417000D01*
X489000Y368000D02*
Y409000D01*
X451000Y330000D02*
X489000Y368000D01*
X437000Y330000D02*
X451000D01*
X345000Y393000D02*
Y425000D01*
X396200Y598000D02*
X406000Y588200D01*
Y459000D02*
Y588200D01*
Y353000D02*
Y459000D01*
X527492Y274000D02*
X533527Y280035D01*
X496000Y274000D02*
X527492D01*
X493000Y277000D02*
X496000Y274000D01*
X493000Y277000D02*
Y308000D01*
X490000Y311000D02*
X493000Y308000D01*
X458000Y311000D02*
X490000D01*
X454000Y307000D02*
X458000Y311000D01*
X401000D02*
X405000Y307000D01*
X515930Y282250D02*
Y310070D01*
X507000Y319000D02*
X515930Y310070D01*
X417000Y319000D02*
X507000D01*
X816000Y291000D02*
X841000D01*
X852000Y302000D01*
X917000D01*
X486000Y614000D02*
X561000D01*
X471000Y629000D02*
X486000Y614000D01*
X318000Y629000D02*
X471000D01*
X312000Y623000D02*
X318000Y629000D01*
X787000Y322000D02*
Y356000D01*
X775000Y310000D02*
X787000Y322000D01*
X462000Y268000D02*
X467000Y263000D01*
X433000Y268000D02*
X462000D01*
X332000Y283000D02*
Y404000D01*
Y283000D02*
X348000Y267000D01*
X376000D01*
X867000Y271000D02*
X883000Y287000D01*
X839000Y271000D02*
X867000D01*
D65*
X447000Y598000D02*
D03*
X421600D02*
D03*
X396200D02*
D03*
D66*
X370800D02*
D03*
D70*
X810900Y354600D02*
D03*
D84*
X333000Y437000D02*
Y498000D01*
X405000Y307000D02*
X454000D01*
X312000Y519000D02*
Y623000D01*
Y519000D02*
X333000Y498000D01*
D86*
X908975Y366200D02*
D03*
Y279800D02*
D03*
D87*
X913975Y294100D02*
D03*
Y351900D02*
D03*
D88*
X950775Y279800D02*
D03*
Y366200D02*
D03*
D89*
X389500Y394000D02*
D03*
X382000Y386500D02*
D03*
Y371500D02*
D03*
X397000D02*
D03*
X389500Y364000D02*
D03*
X404500D02*
D03*
X412000Y371500D02*
D03*
Y386500D02*
D03*
X397000D02*
D03*
X404500Y394000D02*
D03*
Y379000D02*
D03*
X389500D02*
D03*
D90*
X534000Y358000D02*
D03*
X816000Y291000D02*
D03*
X808000Y291000D02*
D03*
D91*
X549000Y368000D02*
D03*
X396808Y362314D02*
D03*
X602148Y497500D02*
D03*
X817118Y617250D02*
D03*
X580744Y438050D02*
D03*
X721516Y276000D02*
D03*
X672000Y309000D02*
D03*
X666000Y275000D02*
D03*
X455000Y405000D02*
D03*
X456000Y379000D02*
D03*
X696000Y458000D02*
D03*
X472000Y362000D02*
D03*
X448000Y367000D02*
D03*
X461000Y365000D02*
D03*
X334000Y419000D02*
D03*
X423000Y369000D02*
D03*
X437000Y330000D02*
D03*
X380000Y435000D02*
D03*
X406000Y353000D02*
D03*
X579680Y346000D02*
D03*
X367000Y437000D02*
D03*
X401000Y311000D02*
D03*
X729000Y351000D02*
D03*
X392000Y433000D02*
D03*
X417000Y319000D02*
D03*
Y332000D02*
D03*
X468000Y304000D02*
D03*
X781000Y594000D02*
D03*
X345000Y381000D02*
D03*
Y393000D02*
D03*
X561000Y614000D02*
D03*
X803000Y333000D02*
D03*
X728000Y447000D02*
D03*
X715000Y371000D02*
D03*
X787000Y356000D02*
D03*
X433000Y268000D02*
D03*
X406000Y281000D02*
D03*
X376000Y267000D02*
D03*
X332000Y404000D02*
D03*
X515930Y282250D02*
D03*
X533680Y300000D02*
D03*
X473807Y395381D02*
D03*
X485648Y469392D02*
D03*
X753000Y283215D02*
D03*
Y342392D02*
D03*
X657754Y547730D02*
D03*
X802374Y403110D02*
D03*
X518263Y391092D02*
D03*
X830000Y333000D02*
D03*
X800736Y475488D02*
D03*
X844000Y485944D02*
D03*
Y386200D02*
D03*
X615294Y547730D02*
D03*
X609854Y425350D02*
D03*
X532230Y438050D02*
D03*
X547570Y507580D02*
D03*
X658368Y381737D02*
D03*
X518192Y427737D02*
D03*
X667193Y444263D02*
D03*
X674320Y484375D02*
D03*
X654000Y527455D02*
D03*
X883000Y287000D02*
D03*
X839000Y271000D02*
D03*
X649000Y452304D02*
D03*
X548894Y492252D02*
D03*
X563826Y444246D02*
D03*
X650000D02*
D03*
X605076Y452374D02*
D03*
X538480Y484378D02*
D03*
X475488Y428752D02*
D03*
X454406Y461786D02*
D03*
X533527Y280035D02*
D03*
X579628Y300000D02*
D03*
X604774Y351282D02*
D03*
X422148Y355600D02*
D03*
X781812Y471424D02*
D03*
X777608Y485000D02*
D03*
X504290Y399950D02*
D03*
X765000Y319484D02*
D03*
X890016Y502666D02*
D03*
X913130Y340614D02*
D03*
X636524Y517398D02*
D03*
X609770Y399950D02*
D03*
X608198Y487426D02*
D03*
X532230Y412650D02*
D03*
X816864Y388620D02*
D03*
X779331Y563000D02*
D03*
X917000Y302000D02*
D03*
D92*
X817000Y639000D02*
D03*
D95*
X357148Y437000D02*
X367000D01*
X355000Y434852D02*
X357148Y437000D01*
X462192Y298192D02*
X468000Y304000D01*
X356148Y298192D02*
X462192D01*
X355000Y299340D02*
X356148Y298192D01*
X355000Y299340D02*
Y434852D01*
X830000Y333000D02*
Y446225D01*
X800736Y475488D02*
X830000Y446225D01*
X844000Y386200D02*
Y485944D01*
D96*
X422148Y355600D02*
X537972Y471424D01*
X781812D01*
M02*
