G04*
G04 #@! TF.GenerationSoftware,Altium Limited,Altium Designer,23.9.2 (47)*
G04*
G04 Layer_Color=16711935*
%FSLAX44Y44*%
%MOMM*%
G71*
G04*
G04 #@! TF.SameCoordinates,2E1E75F7-3D1D-466E-99F7-38A65D3F2882*
G04*
G04*
G04 #@! TF.FilePolarity,Positive*
G04*
G01*
G75*
%ADD11C,0.2000*%
%ADD14C,0.1270*%
%ADD97C,0.1000*%
%ADD98C,0.1750*%
%ADD99C,0.1500*%
D11*
X353450Y405000D02*
G03*
X353450Y405000I-1000J0D01*
G01*
X800550Y295000D02*
G03*
X800550Y295000I-1000J0D01*
G01*
X553500Y502500D02*
G03*
X553500Y502500I-1000J0D01*
G01*
X894500Y270500D02*
X957000D01*
X894500D02*
Y375500D01*
X979500D01*
Y270500D02*
Y375500D01*
X957000Y270500D02*
X979500D01*
X724000Y648000D02*
X784000D01*
Y608000D02*
Y648000D01*
X724000Y608000D02*
X784000D01*
X724000D02*
Y648000D01*
X835000D02*
X895000D01*
Y608000D02*
Y648000D01*
X835000Y608000D02*
X895000D01*
X835000D02*
Y648000D01*
X584000D02*
X644000D01*
Y608000D02*
Y648000D01*
X584000Y608000D02*
X644000D01*
X584000D02*
Y648000D01*
X557500Y482500D02*
Y507500D01*
X600000Y482500D02*
Y507500D01*
X557500D02*
X600000D01*
X557500Y482500D02*
X600000D01*
D14*
X362000Y344000D02*
Y414000D01*
X432000Y344000D02*
Y414000D01*
X362000D02*
X432000D01*
X362000Y344000D02*
X432000D01*
X804550Y284000D02*
Y298000D01*
X823450Y284000D02*
Y298000D01*
X804550D02*
X823450D01*
X804550Y284000D02*
X823450D01*
D97*
X565500Y434500D02*
G03*
X565500Y434500I-5000J0D01*
G01*
X690750Y271000D02*
X706750D01*
Y300000D01*
X690750Y271000D02*
Y295000D01*
X695750Y300000D01*
X706750D01*
X500750Y373400D02*
X507250D01*
X500750Y384400D02*
X507250D01*
X500750Y373400D02*
Y384400D01*
X507250Y373400D02*
Y384400D01*
X481400Y327750D02*
Y334250D01*
X492400Y327750D02*
Y334250D01*
X481400D02*
X492400D01*
X481400Y327750D02*
X492400D01*
X551500Y394501D02*
Y443500D01*
X590500Y394501D02*
Y443500D01*
X551500D02*
X590500D01*
X551500Y394501D02*
X590500D01*
X504250Y281750D02*
X509750D01*
X504250Y292250D02*
X509750D01*
X504250Y281750D02*
Y292250D01*
X509750Y281750D02*
Y292250D01*
X691000Y538666D02*
Y535334D01*
X692666Y537000D02*
X689334D01*
X921000Y645834D02*
Y649166D01*
X919334Y647500D02*
X922666D01*
D98*
X940250Y614500D02*
Y644500D01*
X923750D02*
X940250D01*
X923750Y614500D02*
Y644500D01*
Y614500D02*
X940250D01*
X671750Y540000D02*
Y570000D01*
Y540000D02*
X688250D01*
Y570000D01*
X671750D02*
X688250D01*
X922002Y323000D02*
Y319668D01*
Y321334D01*
X930332D01*
X931998Y319668D01*
Y318002D01*
X930332Y316336D01*
X931998Y326332D02*
Y329665D01*
Y327999D01*
X922002D01*
X923668Y326332D01*
D99*
X607752Y631082D02*
X606086Y632748D01*
X602753D01*
X601087Y631082D01*
Y629416D01*
X602753Y627750D01*
X606086D01*
X607752Y626084D01*
Y624418D01*
X606086Y622752D01*
X602753D01*
X601087Y624418D01*
X611084Y632748D02*
Y622752D01*
X614416Y626084D01*
X617748Y622752D01*
Y632748D01*
X621081Y622752D02*
X624413D01*
X622747D01*
Y632748D01*
X621081Y631082D01*
X747335Y631332D02*
X745669Y632998D01*
X742337D01*
X740671Y631332D01*
Y629666D01*
X742337Y628000D01*
X745669D01*
X747335Y626334D01*
Y624668D01*
X745669Y623002D01*
X742337D01*
X740671Y624668D01*
X750668Y632998D02*
Y623002D01*
X754000Y626334D01*
X757332Y623002D01*
Y632998D01*
X767329Y623002D02*
X760664D01*
X767329Y629666D01*
Y631332D01*
X765663Y632998D01*
X762331D01*
X760664Y631332D01*
X567504Y499999D02*
Y491668D01*
X569170Y490002D01*
X572502D01*
X574169Y491668D01*
Y499999D01*
X577501Y490002D02*
X580833D01*
X579167D01*
Y499999D01*
X577501Y498332D01*
X585831D02*
X587498Y499999D01*
X590830D01*
X592496Y498332D01*
Y491668D01*
X590830Y490002D01*
X587498D01*
X585831Y491668D01*
Y498332D01*
X858335Y631332D02*
X856669Y632998D01*
X853337D01*
X851671Y631332D01*
Y629666D01*
X853337Y628000D01*
X856669D01*
X858335Y626334D01*
Y624668D01*
X856669Y623002D01*
X853337D01*
X851671Y624668D01*
X861668Y632998D02*
Y623002D01*
X865000Y626334D01*
X868332Y623002D01*
Y632998D01*
X871665Y631332D02*
X873331Y632998D01*
X876663D01*
X878329Y631332D01*
Y629666D01*
X876663Y628000D01*
X874997D01*
X876663D01*
X878329Y626334D01*
Y624668D01*
X876663Y623002D01*
X873331D01*
X871665Y624668D01*
X927001Y621170D02*
X936998D01*
Y626168D01*
X935332Y627834D01*
X928668D01*
X927001Y626168D01*
Y621170D01*
X928668Y631166D02*
X927001Y632832D01*
Y636165D01*
X928668Y637831D01*
X930334D01*
X932000Y636165D01*
Y634499D01*
Y636165D01*
X933666Y637831D01*
X935332D01*
X936998Y636165D01*
Y632832D01*
X935332Y631166D01*
X684998Y563331D02*
X675002D01*
Y558332D01*
X676668Y556666D01*
X683332D01*
X684998Y558332D01*
Y563331D01*
X675002Y546669D02*
Y553334D01*
X681666Y546669D01*
X683332D01*
X684998Y548335D01*
Y551668D01*
X683332Y553334D01*
M02*
