G04*
G04 #@! TF.GenerationSoftware,Altium Limited,Altium Designer,23.9.2 (47)*
G04*
G04 Layer_Color=2752767*
%FSLAX44Y44*%
%MOMM*%
G71*
G04*
G04 #@! TF.SameCoordinates,250A9CB9-7403-4FF4-BB43-A60BEB693519*
G04*
G04*
G04 #@! TF.FilePolarity,Positive*
G04*
G01*
G75*
%ADD14C,0.1270*%
%ADD103C,0.1693*%
%ADD104C,0.1016*%
D14*
X289560Y285750D02*
Y295910D01*
X299720D01*
Y285750D01*
X289560D01*
X113030Y80010D02*
X115570Y82550D01*
X118110D01*
X115570Y85090D01*
X118110Y87630D01*
X115570D01*
X113030Y90170D01*
X110490Y87630D01*
X107950D01*
X110490Y85090D01*
X107950Y82550D01*
X110490D01*
X113030Y80010D01*
Y82042D02*
X114554Y83566D01*
X116078D01*
X114554Y85090D01*
X116078Y86614D01*
X114554D01*
X113030Y88138D01*
X111506Y86614D01*
X109982D01*
X111506Y85090D01*
X109982Y83566D01*
X111506D01*
X113030Y82042D01*
X74930Y102870D02*
X77470Y105410D01*
X80010D01*
X77470Y107950D01*
X80010Y110490D01*
X77470D01*
X74930Y113030D01*
X72390Y110490D01*
X69850D01*
X72390Y107950D01*
X69850Y105410D01*
X72390D01*
X74930Y102870D01*
Y104902D02*
X76454Y106426D01*
X77978D01*
X76454Y107950D01*
X77978Y109474D01*
X76454D01*
X74930Y110998D01*
X73406Y109474D01*
X71882D01*
X73406Y107950D01*
X71882Y106426D01*
X73406D01*
X74930Y104902D01*
X146050Y129540D02*
X148590Y132080D01*
X151130D01*
X148590Y134620D01*
X151130Y137160D01*
X148590D01*
X146050Y139700D01*
X143510Y137160D01*
X140970D01*
X143510Y134620D01*
X140970Y132080D01*
X143510D01*
X146050Y129540D01*
Y131572D02*
X147574Y133096D01*
X149098D01*
X147574Y134620D01*
X149098Y136144D01*
X147574D01*
X146050Y137668D01*
X144526Y136144D01*
X143002D01*
X144526Y134620D01*
X143002Y133096D01*
X144526D01*
X146050Y131572D01*
X152400Y123190D02*
X154940Y125730D01*
X157480D01*
X154940Y128270D01*
X157480Y130810D01*
X154940D01*
X152400Y133350D01*
X149860Y130810D01*
X147320D01*
X149860Y128270D01*
X147320Y125730D01*
X149860D01*
X152400Y123190D01*
Y125222D02*
X153924Y126746D01*
X155448D01*
X153924Y128270D01*
X155448Y129794D01*
X153924D01*
X152400Y131318D01*
X150876Y129794D01*
X149352D01*
X150876Y128270D01*
X149352Y126746D01*
X150876D01*
X152400Y125222D01*
X153670Y106680D02*
X156210Y109220D01*
X158750D01*
X156210Y111760D01*
X158750Y114300D01*
X156210D01*
X153670Y116840D01*
X151130Y114300D01*
X148590D01*
X151130Y111760D01*
X148590Y109220D01*
X151130D01*
X153670Y106680D01*
Y108712D02*
X155194Y110236D01*
X156718D01*
X155194Y111760D01*
X156718Y113284D01*
X155194D01*
X153670Y114808D01*
X152146Y113284D01*
X150622D01*
X152146Y111760D01*
X150622Y110236D01*
X152146D01*
X153670Y108712D01*
X176530Y48260D02*
Y58420D01*
X186690D01*
Y48260D01*
X176530D01*
X178562Y50292D02*
Y56388D01*
X184658D01*
Y50292D01*
X178562D01*
X134770Y128356D02*
Y138516D01*
X144930D01*
Y128356D01*
X134770D01*
X127270Y120856D02*
Y131016D01*
X137430D01*
Y120856D01*
X127270D01*
Y105856D02*
Y116016D01*
X137430D01*
Y105856D01*
X127270D01*
X142270D02*
Y116016D01*
X152430D01*
Y105856D01*
X142270D01*
X134770Y98356D02*
Y108516D01*
X144930D01*
Y98356D01*
X134770D01*
X149770D02*
Y108516D01*
X159930D01*
Y98356D01*
X149770D01*
X157270Y105856D02*
Y116016D01*
X167430D01*
Y105856D01*
X157270D01*
Y120856D02*
Y131016D01*
X167430D01*
Y120856D01*
X157270D01*
X142270D02*
Y131016D01*
X152430D01*
Y120856D01*
X142270D01*
X149770Y128356D02*
Y138516D01*
X159930D01*
Y128356D01*
X149770D01*
Y113356D02*
Y123516D01*
X159930D01*
Y113356D01*
X149770D01*
X134770D02*
Y123516D01*
X144930D01*
Y113356D01*
X134770D01*
X72043Y180497D02*
Y190657D01*
X82204D01*
Y180497D01*
X72043D01*
X74075Y182528D02*
Y188624D01*
X80171D01*
Y182528D01*
X74075D01*
X88900Y15240D02*
X93980Y20320D01*
X99060Y15240D01*
X93980Y10160D01*
X88900Y15240D01*
X213360Y175260D02*
X218440Y180340D01*
X223520Y175260D01*
X218440Y170180D01*
X213360Y175260D01*
X264160Y140970D02*
X269240Y146050D01*
X274320Y140970D01*
X269240Y135890D01*
X264160Y140970D01*
X335280Y135890D02*
X340360Y140970D01*
X345440Y135890D01*
X340360Y130810D01*
X335280Y135890D01*
X383560Y29565D02*
X386100Y34645D01*
X383560Y39725D01*
X388640Y37185D01*
X393720Y39725D01*
X391180Y34645D01*
X393720Y29565D01*
X388640Y32105D01*
X383560Y29565D01*
X297160D02*
X299700Y34645D01*
X297160Y39725D01*
X302240Y37185D01*
X307320Y39725D01*
X304780Y34645D01*
X307320Y29565D01*
X302240Y32105D01*
X297160Y29565D01*
X374340Y66365D02*
X376880Y68905D01*
X379420D01*
X376880Y71445D01*
X379420Y73985D01*
X376880D01*
X374340Y76525D01*
X371800Y73985D01*
X369260D01*
X371800Y71445D01*
X369260Y68905D01*
X371800D01*
X374340Y66365D01*
X316540D02*
X319080Y68905D01*
X321620D01*
X319080Y71445D01*
X321620Y73985D01*
X319080D01*
X316540Y76525D01*
X314000Y73985D01*
X311460D01*
X314000Y71445D01*
X311460Y68905D01*
X314000D01*
X316540Y66365D01*
X302240Y71365D02*
X297160Y81525D01*
X307320D01*
X302240Y71365D01*
X388640D02*
X383560Y81525D01*
X393720D01*
X388640Y71365D01*
X191770Y142240D02*
Y152400D01*
X201930D01*
Y142240D01*
X191770D01*
X148590Y87630D02*
X151130Y90170D01*
X153670D01*
X151130Y92710D01*
X153670Y95250D01*
X151130D01*
X148590Y97790D01*
X146050Y95250D01*
X143510D01*
X146050Y92710D01*
X143510Y90170D01*
X146050D01*
X148590Y87630D01*
Y89662D02*
X150114Y91186D01*
X151638D01*
X150114Y92710D01*
X151638Y94234D01*
X150114D01*
X148590Y95758D01*
X147066Y94234D01*
X145542D01*
X147066Y92710D01*
X145542Y91186D01*
X147066D01*
X148590Y89662D01*
X147950Y57580D02*
Y67740D01*
X158110D01*
Y57580D01*
X147950D01*
X149982Y59612D02*
Y65708D01*
X156078D01*
Y59612D01*
X149982D01*
X140970Y154940D02*
X143510Y157480D01*
X146050D01*
X143510Y160020D01*
X146050Y162560D01*
X143510D01*
X140970Y165100D01*
X138430Y162560D01*
X135890D01*
X138430Y160020D01*
X135890Y157480D01*
X138430D01*
X140970Y154940D01*
Y156972D02*
X142494Y158496D01*
X144018D01*
X142494Y160020D01*
X144018Y161544D01*
X142494D01*
X140970Y163068D01*
X139446Y161544D01*
X137922D01*
X139446Y160020D01*
X137922Y158496D01*
X139446D01*
X140970Y156972D01*
X308610Y190500D02*
Y200660D01*
X318770D01*
Y190500D01*
X308610D01*
X310642Y192532D02*
Y198628D01*
X316738D01*
Y192532D01*
X310642D01*
X280670Y80010D02*
X283210Y82550D01*
X285750D01*
X283210Y85090D01*
X285750Y87630D01*
X283210D01*
X280670Y90170D01*
X278130Y87630D01*
X275590D01*
X278130Y85090D01*
X275590Y82550D01*
X278130D01*
X280670Y80010D01*
Y82042D02*
X282194Y83566D01*
X283718D01*
X282194Y85090D01*
X283718Y86614D01*
X282194D01*
X280670Y88138D01*
X279146Y86614D01*
X277622D01*
X279146Y85090D01*
X277622Y83566D01*
X279146D01*
X280670Y82042D01*
X179070Y73660D02*
X181610Y76200D01*
X184150D01*
X181610Y78740D01*
X184150Y81280D01*
X181610D01*
X179070Y83820D01*
X176530Y81280D01*
X173990D01*
X176530Y78740D01*
X173990Y76200D01*
X176530D01*
X179070Y73660D01*
Y75692D02*
X180594Y77216D01*
X182118D01*
X180594Y78740D01*
X182118Y80264D01*
X180594D01*
X179070Y81788D01*
X177546Y80264D01*
X176022D01*
X177546Y78740D01*
X176022Y77216D01*
X177546D01*
X179070Y75692D01*
X311150Y232410D02*
X313690Y234950D01*
X316230D01*
X313690Y237490D01*
X316230Y240030D01*
X313690D01*
X311150Y242570D01*
X308610Y240030D01*
X306070D01*
X308610Y237490D01*
X306070Y234950D01*
X308610D01*
X311150Y232410D01*
Y234442D02*
X312674Y235966D01*
X314198D01*
X312674Y237490D01*
X314198Y239014D01*
X312674D01*
X311150Y240538D01*
X309626Y239014D01*
X308102D01*
X309626Y237490D01*
X308102Y235966D01*
X309626D01*
X311150Y234442D01*
X247650Y109220D02*
X250190Y111760D01*
X252730D01*
X250190Y114300D01*
X252730Y116840D01*
X250190D01*
X247650Y119380D01*
X245110Y116840D01*
X242570D01*
X245110Y114300D01*
X242570Y111760D01*
X245110D01*
X247650Y109220D01*
Y111252D02*
X249174Y112776D01*
X250698D01*
X249174Y114300D01*
X250698Y115824D01*
X249174D01*
X247650Y117348D01*
X246126Y115824D01*
X244602D01*
X246126Y114300D01*
X244602Y112776D01*
X246126D01*
X247650Y111252D01*
X198120Y108356D02*
X200660Y110896D01*
X203200D01*
X200660Y113436D01*
X203200Y115976D01*
X200660D01*
X198120Y118516D01*
X195580Y115976D01*
X193040D01*
X195580Y113436D01*
X193040Y110896D01*
X195580D01*
X198120Y108356D01*
Y110388D02*
X199644Y111912D01*
X201168D01*
X199644Y113436D01*
X201168Y114960D01*
X199644D01*
X198120Y116484D01*
X196596Y114960D01*
X195072D01*
X196596Y113436D01*
X195072Y111912D01*
X196596D01*
X198120Y110388D01*
X96440Y83820D02*
X98980Y86360D01*
X101520D01*
X98980Y88900D01*
X101520Y91440D01*
X98980D01*
X96440Y93980D01*
X93900Y91440D01*
X91360D01*
X93900Y88900D01*
X91360Y86360D01*
X93900D01*
X96440Y83820D01*
Y85852D02*
X97964Y87376D01*
X99488D01*
X97964Y88900D01*
X99488Y90424D01*
X97964D01*
X96440Y91948D01*
X94916Y90424D01*
X93392D01*
X94916Y88900D01*
X93392Y87376D01*
X94916D01*
X96440Y85852D01*
X86360Y66040D02*
X88900Y68580D01*
X91440D01*
X88900Y71120D01*
X91440Y73660D01*
X88900D01*
X86360Y76200D01*
X83820Y73660D01*
X81280D01*
X83820Y71120D01*
X81280Y68580D01*
X83820D01*
X86360Y66040D01*
Y68072D02*
X87884Y69596D01*
X89408D01*
X87884Y71120D01*
X89408Y72644D01*
X87884D01*
X86360Y74168D01*
X84836Y72644D01*
X83312D01*
X84836Y71120D01*
X83312Y69596D01*
X84836D01*
X86360Y68072D01*
X153670Y49530D02*
X156210Y52070D01*
X158750D01*
X156210Y54610D01*
X158750Y57150D01*
X156210D01*
X153670Y59690D01*
X151130Y57150D01*
X148590D01*
X151130Y54610D01*
X148590Y52070D01*
X151130D01*
X153670Y49530D01*
Y51562D02*
X155194Y53086D01*
X156718D01*
X155194Y54610D01*
X156718Y56134D01*
X155194D01*
X153670Y57658D01*
X152146Y56134D01*
X150622D01*
X152146Y54610D01*
X150622Y53086D01*
X152146D01*
X153670Y51562D01*
X161150Y58330D02*
Y55790D01*
X166230D01*
Y58330D01*
X168770D01*
Y63410D01*
X166230D01*
Y65950D01*
X161150D01*
Y63410D01*
X158610D01*
Y58330D01*
X161150D01*
X138264Y88856D02*
X140804Y91396D01*
X143344D01*
X140804Y93936D01*
X143344Y96476D01*
X140804D01*
X138264Y99016D01*
X135724Y96476D01*
X133184D01*
X135724Y93936D01*
X133184Y91396D01*
X135724D01*
X138264Y88856D01*
Y90888D02*
X139788Y92412D01*
X141312D01*
X139788Y93936D01*
X141312Y95460D01*
X139788D01*
X138264Y96984D01*
X136740Y95460D01*
X135216D01*
X136740Y93936D01*
X135216Y92412D01*
X136740D01*
X138264Y90888D01*
X193040Y49530D02*
Y59690D01*
X203200D01*
Y49530D01*
X193040D01*
X195072Y51562D02*
Y57658D01*
X201168D01*
Y51562D01*
X195072D01*
X287020Y99060D02*
Y109220D01*
X297180D01*
Y99060D01*
X287020D01*
X289052Y101092D02*
Y107188D01*
X295148D01*
Y101092D01*
X289052D01*
X182880Y81280D02*
X185420Y83820D01*
X187960D01*
X185420Y86360D01*
X187960Y88900D01*
X185420D01*
X182880Y91440D01*
X180340Y88900D01*
X177800D01*
X180340Y86360D01*
X177800Y83820D01*
X180340D01*
X182880Y81280D01*
Y83312D02*
X184404Y84836D01*
X185928D01*
X184404Y86360D01*
X185928Y87884D01*
X184404D01*
X182880Y89408D01*
X181356Y87884D01*
X179832D01*
X181356Y86360D01*
X179832Y84836D01*
X181356D01*
X182880Y83312D01*
X276860Y106680D02*
Y116840D01*
X287020D01*
Y106680D01*
X276860D01*
X278892Y108712D02*
Y114808D01*
X284988D01*
Y108712D01*
X278892D01*
X173990Y95250D02*
X176530Y97790D01*
X179070D01*
X176530Y100330D01*
X179070Y102870D01*
X176530D01*
X173990Y105410D01*
X171450Y102870D01*
X168910D01*
X171450Y100330D01*
X168910Y97790D01*
X171450D01*
X173990Y95250D01*
Y97282D02*
X175514Y98806D01*
X177038D01*
X175514Y100330D01*
X177038Y101854D01*
X175514D01*
X173990Y103378D01*
X172466Y101854D01*
X170942D01*
X172466Y100330D01*
X170942Y98806D01*
X172466D01*
X173990Y97282D01*
X163830Y158750D02*
X166370Y161290D01*
X168910D01*
X166370Y163830D01*
X168910Y166370D01*
X166370D01*
X163830Y168910D01*
X161290Y166370D01*
X158750D01*
X161290Y163830D01*
X158750Y161290D01*
X161290D01*
X163830Y158750D01*
Y160782D02*
X165354Y162306D01*
X166878D01*
X165354Y163830D01*
X166878Y165354D01*
X165354D01*
X163830Y166878D01*
X162306Y165354D01*
X160782D01*
X162306Y163830D01*
X160782Y162306D01*
X162306D01*
X163830Y160782D01*
X134620Y46990D02*
X137160Y49530D01*
X139700D01*
X137160Y52070D01*
X139700Y54610D01*
X137160D01*
X134620Y57150D01*
X132080Y54610D01*
X129540D01*
X132080Y52070D01*
X129540Y49530D01*
X132080D01*
X134620Y46990D01*
Y49022D02*
X136144Y50546D01*
X137668D01*
X136144Y52070D01*
X137668Y53594D01*
X136144D01*
X134620Y55118D01*
X133096Y53594D01*
X131572D01*
X133096Y52070D01*
X131572Y50546D01*
X133096D01*
X134620Y49022D01*
X114300Y147320D02*
X116840Y149860D01*
X119380D01*
X116840Y152400D01*
X119380Y154940D01*
X116840D01*
X114300Y157480D01*
X111760Y154940D01*
X109220D01*
X111760Y152400D01*
X109220Y149860D01*
X111760D01*
X114300Y147320D01*
Y149352D02*
X115824Y150876D01*
X117348D01*
X115824Y152400D01*
X117348Y153924D01*
X115824D01*
X114300Y155448D01*
X112776Y153924D01*
X111252D01*
X112776Y152400D01*
X111252Y150876D01*
X112776D01*
X114300Y149352D01*
D103*
X197417Y250190D02*
G03*
X197417Y250190I-5080J0D01*
G01*
X172017D02*
G03*
X172017Y250190I-5080J0D01*
G01*
X146617D02*
G03*
X146617Y250190I-5080J0D01*
G01*
X121217D02*
G03*
X121217Y250190I-5080J0D01*
G01*
X111760Y179070D02*
G03*
X111760Y179070I-5080J0D01*
G01*
X378460Y57150D02*
G03*
X378460Y57150I-5080J0D01*
G01*
X309880Y97790D02*
G03*
X309880Y97790I-5080J0D01*
G01*
X200660Y88900D02*
G03*
X200660Y88900I-5080J0D01*
G01*
Y7620D02*
G03*
X200660Y7620I-5080J0D01*
G01*
X158750Y74930D02*
G03*
X158750Y74930I-5080J0D01*
G01*
X182880Y62160D02*
G03*
X182880Y62160I-5080J0D01*
G01*
X205740Y135890D02*
G03*
X205740Y135890I-5080J0D01*
G01*
X363220Y215900D02*
G03*
X363220Y215900I-5080J0D01*
G01*
X81280Y76200D02*
G03*
X81280Y76200I-5080J0D01*
G01*
X106680Y119380D02*
G03*
X106680Y119380I-5080J0D01*
G01*
X105410Y132080D02*
G03*
X105410Y132080I-5080J0D01*
G01*
X334010Y233680D02*
G03*
X334010Y233680I-5080J0D01*
G01*
X156210Y194310D02*
G03*
X156210Y194310I-5080J0D01*
G01*
X344170Y54610D02*
G03*
X344170Y54610I-5080J0D01*
G01*
X358140Y62230D02*
G03*
X358140Y62230I-5080J0D01*
G01*
X326390Y50800D02*
G03*
X326390Y50800I-5080J0D01*
G01*
X365760Y52070D02*
G03*
X365760Y52070I-5080J0D01*
G01*
D104*
X109728Y179070D02*
G03*
X109728Y179070I-3048J0D01*
G01*
X376428Y57150D02*
G03*
X376428Y57150I-3048J0D01*
G01*
X307848Y97790D02*
G03*
X307848Y97790I-3048J0D01*
G01*
X198628Y88900D02*
G03*
X198628Y88900I-3048J0D01*
G01*
Y7620D02*
G03*
X198628Y7620I-3048J0D01*
G01*
X156718Y74930D02*
G03*
X156718Y74930I-3048J0D01*
G01*
X180848Y62160D02*
G03*
X180848Y62160I-3048J0D01*
G01*
X203708Y135890D02*
G03*
X203708Y135890I-3048J0D01*
G01*
X361188Y215900D02*
G03*
X361188Y215900I-3048J0D01*
G01*
X79248Y76200D02*
G03*
X79248Y76200I-3048J0D01*
G01*
X104648Y119380D02*
G03*
X104648Y119380I-3048J0D01*
G01*
X103378Y132080D02*
G03*
X103378Y132080I-3048J0D01*
G01*
X331978Y233680D02*
G03*
X331978Y233680I-3048J0D01*
G01*
X154178Y194310D02*
G03*
X154178Y194310I-3048J0D01*
G01*
X342138Y54610D02*
G03*
X342138Y54610I-3048J0D01*
G01*
X356108Y62230D02*
G03*
X356108Y62230I-3048J0D01*
G01*
X324358Y50800D02*
G03*
X324358Y50800I-3048J0D01*
G01*
X363728Y52070D02*
G03*
X363728Y52070I-3048J0D01*
G01*
M02*
