G04*
G04 #@! TF.GenerationSoftware,Altium Limited,Altium Designer,23.9.2 (47)*
G04*
G04 Layer_Color=2752767*
%FSLAX44Y44*%
%MOMM*%
G71*
G04*
G04 #@! TF.SameCoordinates,2E1E75F7-3D1D-466E-99F7-38A65D3F2882*
G04*
G04*
G04 #@! TF.FilePolarity,Positive*
G04*
G01*
G75*
%ADD14C,0.1270*%
%ADD101C,0.1693*%
D14*
X906435Y363660D02*
Y361120D01*
X911515D01*
Y363660D01*
X914055D01*
Y368740D01*
X911515D01*
Y371280D01*
X906435D01*
Y368740D01*
X903895D01*
Y363660D01*
X906435D01*
Y277260D02*
Y274720D01*
X911515D01*
Y277260D01*
X914055D01*
Y282340D01*
X911515D01*
Y284880D01*
X906435D01*
Y282340D01*
X903895D01*
Y277260D01*
X906435D01*
X908895Y289020D02*
X911435D01*
X913975Y291560D01*
X916515Y289020D01*
X919055D01*
Y291560D01*
X916515Y294100D01*
X919055Y296640D01*
Y299180D01*
X916515D01*
X913975Y296640D01*
X911435Y299180D01*
X908895D01*
Y296640D01*
X911435Y294100D01*
X908895Y291560D01*
Y289020D01*
Y346820D02*
X911435D01*
X913975Y349360D01*
X916515Y346820D01*
X919055D01*
Y349360D01*
X916515Y351900D01*
X919055Y354440D01*
Y356980D01*
X916515D01*
X913975Y354440D01*
X911435Y356980D01*
X908895D01*
Y354440D01*
X911435Y351900D01*
X908895Y349360D01*
Y346820D01*
X945695Y279800D02*
X950775Y284880D01*
X955855Y279800D01*
X950775Y274720D01*
X945695Y279800D01*
Y366200D02*
X950775Y371280D01*
X955855Y366200D01*
X950775Y361120D01*
X945695Y366200D01*
X441920Y592920D02*
X444460Y598000D01*
X441920Y603080D01*
X447000Y600540D01*
X452080Y603080D01*
X449540Y598000D01*
X452080Y592920D01*
X447000Y595460D01*
X441920Y592920D01*
X416520D02*
X419060Y598000D01*
X416520Y603080D01*
X421600Y600540D01*
X426680Y603080D01*
X424140Y598000D01*
X426680Y592920D01*
X421600Y595460D01*
X416520Y592920D01*
X391120D02*
X393660Y598000D01*
X391120Y603080D01*
X396200Y600540D01*
X401280Y603080D01*
X398740Y598000D01*
X401280Y592920D01*
X396200Y595460D01*
X391120Y592920D01*
X365720D02*
X368260Y598000D01*
X365720Y603080D01*
X370800Y600540D01*
X375880Y603080D01*
X373340Y598000D01*
X375880Y592920D01*
X370800Y595460D01*
X365720Y592920D01*
X534000Y352920D02*
X536540Y355460D01*
X539080D01*
X536540Y358000D01*
X539080Y360540D01*
X536540D01*
X534000Y363080D01*
X531460Y360540D01*
X528920D01*
X531460Y358000D01*
X528920Y355460D01*
X531460D01*
X534000Y352920D01*
X543920Y362920D02*
Y373080D01*
X554080D01*
Y362920D01*
X543920D01*
X391728Y357234D02*
Y367394D01*
X401888D01*
Y357234D01*
X391728D01*
X597068Y492420D02*
Y502580D01*
X607228D01*
Y492420D01*
X597068D01*
X812038Y612170D02*
Y622330D01*
X822198D01*
Y612170D01*
X812038D01*
X575664Y432970D02*
Y443130D01*
X585824D01*
Y432970D01*
X575664D01*
X716436Y270921D02*
Y281080D01*
X726597D01*
Y270921D01*
X716436D01*
X666920Y303920D02*
Y314080D01*
X677080D01*
Y303920D01*
X666920D01*
X660920Y269920D02*
Y280080D01*
X671080D01*
Y269920D01*
X660920D01*
X449920Y399920D02*
Y410080D01*
X460080D01*
Y399920D01*
X449920D01*
X450920Y373920D02*
Y384080D01*
X461080D01*
Y373920D01*
X450920D01*
X690920Y452920D02*
Y463080D01*
X701080D01*
Y452920D01*
X690920D01*
X466920Y356920D02*
Y367080D01*
X477080D01*
Y356920D01*
X466920D01*
X442920Y361920D02*
Y372080D01*
X453080D01*
Y361920D01*
X442920D01*
X455920Y359920D02*
Y370080D01*
X466080D01*
Y359920D01*
X455920D01*
X328920Y413920D02*
Y424080D01*
X339080D01*
Y413920D01*
X328920D01*
X417920Y363920D02*
Y374080D01*
X428080D01*
Y363920D01*
X417920D01*
X431920Y324920D02*
Y335080D01*
X442080D01*
Y324920D01*
X431920D01*
X374920Y429920D02*
Y440080D01*
X385080D01*
Y429920D01*
X374920D01*
X400920Y347920D02*
Y358080D01*
X411080D01*
Y347920D01*
X400920D01*
X574600Y340920D02*
Y351080D01*
X584760D01*
Y340920D01*
X574600D01*
X361920Y431920D02*
Y442080D01*
X372080D01*
Y431920D01*
X361920D01*
X395920Y305920D02*
Y316080D01*
X406080D01*
Y305920D01*
X395920D01*
X816000Y285920D02*
X818540Y288460D01*
X821080D01*
X818540Y291000D01*
X821080Y293540D01*
X818540D01*
X816000Y296080D01*
X813460Y293540D01*
X810920D01*
X813460Y291000D01*
X810920Y288460D01*
X813460D01*
X816000Y285920D01*
X723920Y345920D02*
Y356080D01*
X734080D01*
Y345920D01*
X723920D01*
X808000Y285920D02*
X810540Y288460D01*
X813080D01*
X810540Y291000D01*
X813080Y293540D01*
X810540D01*
X808000Y296080D01*
X805460Y293540D01*
X802920D01*
X805460Y291000D01*
X802920Y288460D01*
X805460D01*
X808000Y285920D01*
X817000Y633920D02*
X811920Y644080D01*
X822080D01*
X817000Y633920D01*
X386920Y427920D02*
Y438080D01*
X397080D01*
Y427920D01*
X386920D01*
X411920Y313920D02*
Y324080D01*
X422080D01*
Y313920D01*
X411920D01*
Y326920D02*
Y337080D01*
X422080D01*
Y326920D01*
X411920D01*
X462920Y298920D02*
Y309080D01*
X473080D01*
Y298920D01*
X462920D01*
X775920Y588920D02*
Y599080D01*
X786080D01*
Y588920D01*
X775920D01*
X339920Y375920D02*
Y386080D01*
X350080D01*
Y375920D01*
X339920D01*
Y387920D02*
Y398080D01*
X350080D01*
Y387920D01*
X339920D01*
X555920Y608920D02*
Y619080D01*
X566080D01*
Y608920D01*
X555920D01*
X797920Y327920D02*
Y338080D01*
X808080D01*
Y327920D01*
X797920D01*
X722920Y441920D02*
Y452080D01*
X733080D01*
Y441920D01*
X722920D01*
X709920Y365920D02*
Y376080D01*
X720080D01*
Y365920D01*
X709920D01*
X781920Y350920D02*
Y361080D01*
X792080D01*
Y350920D01*
X781920D01*
X427920Y262920D02*
Y273080D01*
X438080D01*
Y262920D01*
X427920D01*
X400920Y275920D02*
Y286080D01*
X411080D01*
Y275920D01*
X400920D01*
X370920Y261920D02*
Y272080D01*
X381080D01*
Y261920D01*
X370920D01*
X326920Y398920D02*
Y409080D01*
X337080D01*
Y398920D01*
X326920D01*
X510850Y277170D02*
Y287330D01*
X521010D01*
Y277170D01*
X510850D01*
X528600Y294920D02*
Y305080D01*
X538760D01*
Y294920D01*
X528600D01*
X468727Y390301D02*
Y400461D01*
X478887D01*
Y390301D01*
X468727D01*
X480568Y464312D02*
Y474472D01*
X490728D01*
Y464312D01*
X480568D01*
X747920Y278135D02*
Y288295D01*
X758080D01*
Y278135D01*
X747920D01*
Y337312D02*
Y347472D01*
X758080D01*
Y337312D01*
X747920D01*
X652674Y542650D02*
Y552810D01*
X662834D01*
Y542650D01*
X652674D01*
X797294Y398030D02*
Y408190D01*
X807454D01*
Y398030D01*
X797294D01*
X513183Y386012D02*
Y396172D01*
X523343D01*
Y386012D01*
X513183D01*
X824920Y327920D02*
Y338080D01*
X835080D01*
Y327920D01*
X824920D01*
X795657Y470408D02*
Y480568D01*
X805816D01*
Y470408D01*
X795657D01*
X838920Y480864D02*
Y491024D01*
X849080D01*
Y480864D01*
X838920D01*
Y381120D02*
Y391280D01*
X849080D01*
Y381120D01*
X838920D01*
X610214Y542650D02*
Y552810D01*
X620374D01*
Y542650D01*
X610214D01*
X604774Y420270D02*
Y430430D01*
X614934D01*
Y420270D01*
X604774D01*
X527150Y432970D02*
Y443130D01*
X537310D01*
Y432970D01*
X527150D01*
X542490Y502500D02*
Y512660D01*
X552650D01*
Y502500D01*
X542490D01*
X653288Y376657D02*
Y386817D01*
X663448D01*
Y376657D01*
X653288D01*
X513112Y422657D02*
Y432817D01*
X523273D01*
Y422657D01*
X513112D01*
X662113Y439183D02*
Y449343D01*
X672272D01*
Y439183D01*
X662113D01*
X669240Y479295D02*
Y489455D01*
X679400D01*
Y479295D01*
X669240D01*
X648920Y522375D02*
Y532535D01*
X659080D01*
Y522375D01*
X648920D01*
X877920Y281920D02*
Y292080D01*
X888080D01*
Y281920D01*
X877920D01*
X833920Y265920D02*
Y276080D01*
X844080D01*
Y265920D01*
X833920D01*
X643920Y447224D02*
Y457384D01*
X654080D01*
Y447224D01*
X643920D01*
X543814Y487172D02*
Y497332D01*
X553974D01*
Y487172D01*
X543814D01*
X558746Y439166D02*
Y449326D01*
X568906D01*
Y439166D01*
X558746D01*
X644920D02*
Y449326D01*
X655080D01*
Y439166D01*
X644920D01*
X599996Y447294D02*
Y457454D01*
X610156D01*
Y447294D01*
X599996D01*
X533400Y479298D02*
Y489458D01*
X543560D01*
Y479298D01*
X533400D01*
X470408Y423672D02*
Y433832D01*
X480568D01*
Y423672D01*
X470408D01*
X449326Y456706D02*
Y466866D01*
X459486D01*
Y456706D01*
X449326D01*
X528447Y274955D02*
Y285115D01*
X538607D01*
Y274955D01*
X528447D01*
X574548Y294920D02*
Y305080D01*
X584708D01*
Y294920D01*
X574548D01*
X599694Y346202D02*
Y356362D01*
X609854D01*
Y346202D01*
X599694D01*
X417068Y350520D02*
Y360680D01*
X427228D01*
Y350520D01*
X417068D01*
X776732Y466344D02*
Y476504D01*
X786892D01*
Y466344D01*
X776732D01*
X772528Y479920D02*
Y490080D01*
X782688D01*
Y479920D01*
X772528D01*
X499210Y394870D02*
Y405030D01*
X509370D01*
Y394870D01*
X499210D01*
X759920Y314404D02*
Y324564D01*
X770080D01*
Y314404D01*
X759920D01*
X884936Y497586D02*
Y507746D01*
X895096D01*
Y497586D01*
X884936D01*
X908050Y335534D02*
Y345694D01*
X918210D01*
Y335534D01*
X908050D01*
X631444Y512318D02*
Y522478D01*
X641604D01*
Y512318D01*
X631444D01*
X604690Y394870D02*
Y405030D01*
X614850D01*
Y394870D01*
X604690D01*
X603118Y482346D02*
Y492506D01*
X613278D01*
Y482346D01*
X603118D01*
X527150Y407570D02*
Y417730D01*
X537310D01*
Y407570D01*
X527150D01*
X811784Y383540D02*
Y393700D01*
X821944D01*
Y383540D01*
X811784D01*
X774251Y557920D02*
Y568080D01*
X784411D01*
Y557920D01*
X774251D01*
X911920Y296920D02*
Y307080D01*
X922080D01*
Y296920D01*
X911920D01*
X805820Y349520D02*
Y359680D01*
X815980D01*
Y349520D01*
X805820D01*
X807852Y351552D02*
Y357648D01*
X813948D01*
Y351552D01*
X807852D01*
D101*
X394580Y394000D02*
G03*
X394580Y394000I-5080J0D01*
G01*
X387080Y386500D02*
G03*
X387080Y386500I-5080J0D01*
G01*
Y371500D02*
G03*
X387080Y371500I-5080J0D01*
G01*
X402080D02*
G03*
X402080Y371500I-5080J0D01*
G01*
X394580Y364000D02*
G03*
X394580Y364000I-5080J0D01*
G01*
X409580D02*
G03*
X409580Y364000I-5080J0D01*
G01*
X417080Y371500D02*
G03*
X417080Y371500I-5080J0D01*
G01*
Y386500D02*
G03*
X417080Y386500I-5080J0D01*
G01*
X402080D02*
G03*
X402080Y386500I-5080J0D01*
G01*
X409580Y394000D02*
G03*
X409580Y394000I-5080J0D01*
G01*
Y379000D02*
G03*
X409580Y379000I-5080J0D01*
G01*
X394580D02*
G03*
X394580Y379000I-5080J0D01*
G01*
M02*
