G04*
G04 #@! TF.GenerationSoftware,Altium Limited,Altium Designer,23.9.2 (47)*
G04*
G04 Layer_Color=255*
%FSLAX44Y44*%
%MOMM*%
G71*
G04*
G04 #@! TF.SameCoordinates,250A9CB9-7403-4FF4-BB43-A60BEB693519*
G04*
G04*
G04 #@! TF.FilePolarity,Positive*
G04*
G01*
G75*
%ADD30R,0.5153X0.4725*%
%ADD32R,0.5200X0.5200*%
%ADD39R,0.4541X0.3627*%
%ADD40R,0.6631X0.5955*%
%ADD46R,0.7581X0.8121*%
%ADD63R,1.3500X1.3500*%
%ADD64C,1.3500*%
%ADD88C,0.6000*%
%ADD89C,0.5000*%
%ADD90C,0.4000*%
%ADD91C,1.0000*%
%ADD92O,1.0000X1.8000*%
%ADD93C,0.6500*%
%ADD94O,1.0000X2.1000*%
%ADD97R,0.6281X0.6062*%
%ADD98R,0.5200X0.5200*%
D30*
X163879Y141713D02*
D03*
X171450D02*
D03*
X132080Y89844D02*
D03*
X124509D02*
D03*
X167676Y90536D02*
D03*
X160105D02*
D03*
X130761Y121920D02*
D03*
X123190D02*
D03*
D32*
X151320Y143510D02*
D03*
X143320D02*
D03*
X167830Y106680D02*
D03*
X159830D02*
D03*
X121730Y140970D02*
D03*
X129730D02*
D03*
X347980Y266700D02*
D03*
X339980D02*
D03*
D39*
X125227Y105410D02*
D03*
X131313D02*
D03*
D40*
X371428Y38100D02*
D03*
X363297D02*
D03*
X325197D02*
D03*
X333328D02*
D03*
D46*
X314960Y265430D02*
D03*
X327500D02*
D03*
D63*
X192337Y250190D02*
D03*
D64*
X166937D02*
D03*
X141537D02*
D03*
X116137D02*
D03*
D88*
X294640Y290830D02*
D03*
X106680Y179070D02*
D03*
X373380Y57150D02*
D03*
D89*
X148590Y167640D02*
D03*
X181610Y53340D02*
D03*
X139850Y133436D02*
D03*
X132350Y125936D02*
D03*
Y110936D02*
D03*
X147350D02*
D03*
X139850Y103436D02*
D03*
X154850D02*
D03*
X162350Y110936D02*
D03*
Y125936D02*
D03*
X147350D02*
D03*
X154850Y133436D02*
D03*
Y118436D02*
D03*
X139850D02*
D03*
X77123Y185576D02*
D03*
X304800Y97790D02*
D03*
D90*
X113030Y85090D02*
D03*
X74930Y107950D02*
D03*
X146050Y134620D02*
D03*
X152400Y128270D02*
D03*
X153670Y111760D02*
D03*
D91*
X93980Y15240D02*
D03*
X218440Y175260D02*
D03*
X269240Y140970D02*
D03*
X340360Y135890D02*
D03*
D92*
X388640Y34645D02*
D03*
X302240D02*
D03*
D93*
X374340Y71445D02*
D03*
X316540D02*
D03*
D94*
X302240Y76445D02*
D03*
X388640D02*
D03*
D97*
X168990Y124460D02*
D03*
X161210D02*
D03*
D98*
X389890Y270700D02*
D03*
Y262700D02*
D03*
X369570Y269430D02*
D03*
Y261430D02*
D03*
M02*
