G04*
G04 #@! TF.GenerationSoftware,Altium Limited,Altium Designer,23.9.2 (47)*
G04*
G04 Layer_Color=255*
%FSLAX44Y44*%
%MOMM*%
G71*
G04*
G04 #@! TF.SameCoordinates,250A9CB9-7403-4FF4-BB43-A60BEB693519*
G04*
G04*
G04 #@! TF.FilePolarity,Positive*
G04*
G01*
G75*
%ADD18R,0.6500X0.2200*%
%ADD19R,0.2200X0.6500*%
%ADD21R,0.6500X0.7000*%
%ADD22R,0.9000X0.3000*%
%ADD24R,0.5400X0.6000*%
%ADD25R,0.6000X0.5400*%
G04:AMPARAMS|DCode=26|XSize=0.6mm|YSize=1.05mm|CornerRadius=0.075mm|HoleSize=0mm|Usage=FLASHONLY|Rotation=180.000|XOffset=0mm|YOffset=0mm|HoleType=Round|Shape=RoundedRectangle|*
%AMROUNDEDRECTD26*
21,1,0.6000,0.9000,0,0,180.0*
21,1,0.4500,1.0500,0,0,180.0*
1,1,0.1500,-0.2250,0.4500*
1,1,0.1500,0.2250,0.4500*
1,1,0.1500,0.2250,-0.4500*
1,1,0.1500,-0.2250,-0.4500*
%
%ADD26ROUNDEDRECTD26*%
%ADD27O,2.0500X0.6000*%
%ADD28R,0.9000X0.8000*%
%ADD29R,0.4725X0.5153*%
%ADD30R,0.5153X0.4725*%
%ADD31R,0.5000X0.4000*%
%ADD32R,0.5200X0.5200*%
%ADD33R,2.5000X1.0000*%
%ADD34R,0.6062X0.6281*%
%ADD35R,0.3627X0.4541*%
%ADD36R,0.7500X0.9000*%
%ADD37R,0.9000X0.7500*%
%ADD38R,0.4000X0.5000*%
%ADD39R,0.4541X0.3627*%
%ADD40R,0.6631X0.5955*%
G04:AMPARAMS|DCode=41|XSize=0.6mm|YSize=1.15mm|CornerRadius=0.075mm|HoleSize=0mm|Usage=FLASHONLY|Rotation=0.000|XOffset=0mm|YOffset=0mm|HoleType=Round|Shape=RoundedRectangle|*
%AMROUNDEDRECTD41*
21,1,0.6000,1.0000,0,0,0.0*
21,1,0.4500,1.1500,0,0,0.0*
1,1,0.1500,0.2250,-0.5000*
1,1,0.1500,-0.2250,-0.5000*
1,1,0.1500,-0.2250,0.5000*
1,1,0.1500,0.2250,0.5000*
%
%ADD41ROUNDEDRECTD41*%
G04:AMPARAMS|DCode=42|XSize=0.3mm|YSize=1.15mm|CornerRadius=0.0375mm|HoleSize=0mm|Usage=FLASHONLY|Rotation=0.000|XOffset=0mm|YOffset=0mm|HoleType=Round|Shape=RoundedRectangle|*
%AMROUNDEDRECTD42*
21,1,0.3000,1.0750,0,0,0.0*
21,1,0.2250,1.1500,0,0,0.0*
1,1,0.0750,0.1125,-0.5375*
1,1,0.0750,-0.1125,-0.5375*
1,1,0.0750,-0.1125,0.5375*
1,1,0.0750,0.1125,0.5375*
%
%ADD42ROUNDEDRECTD42*%
%ADD43R,1.0500X0.6500*%
%ADD44C,0.2500*%
%ADD45R,0.6500X1.0500*%
%ADD46R,0.7581X0.8121*%
%ADD63R,1.3500X1.3500*%
%ADD64C,1.3500*%
%ADD74C,0.2880*%
%ADD75C,0.2880*%
%ADD76P,0.4950X4X270.0*%
%ADD77R,4.1000X4.1000*%
%ADD78R,0.2500X1.6500*%
%ADD79R,3.9400X0.5000*%
%ADD80R,0.5000X2.7000*%
%ADD81R,2.6400X0.5000*%
%ADD82R,0.5000X2.0000*%
%ADD83R,4.9000X0.5000*%
%ADD84R,0.5000X5.0000*%
%ADD85R,4.9000X0.9000*%
%ADD88C,0.6000*%
%ADD89C,0.5000*%
%ADD90C,0.4000*%
%ADD91C,1.0000*%
%ADD92O,1.0000X1.8000*%
%ADD93C,0.6500*%
%ADD94O,1.0000X2.1000*%
D18*
X181600Y144436D02*
D03*
Y140436D02*
D03*
Y136436D02*
D03*
Y132436D02*
D03*
Y128436D02*
D03*
Y124436D02*
D03*
Y120436D02*
D03*
Y116436D02*
D03*
Y112436D02*
D03*
Y108436D02*
D03*
Y104436D02*
D03*
Y100436D02*
D03*
Y96436D02*
D03*
Y92436D02*
D03*
X113100D02*
D03*
Y96436D02*
D03*
Y100436D02*
D03*
Y104436D02*
D03*
Y108436D02*
D03*
Y112436D02*
D03*
Y116436D02*
D03*
Y120436D02*
D03*
Y124436D02*
D03*
Y128436D02*
D03*
Y132436D02*
D03*
Y136436D02*
D03*
Y140436D02*
D03*
Y144436D02*
D03*
D19*
X121350Y152686D02*
D03*
X125350D02*
D03*
X129350D02*
D03*
X133350D02*
D03*
X137350D02*
D03*
X141350D02*
D03*
X145350D02*
D03*
X149350D02*
D03*
X153350D02*
D03*
X157351D02*
D03*
X161350D02*
D03*
X165350D02*
D03*
X169350D02*
D03*
X173350D02*
D03*
Y84186D02*
D03*
X169350D02*
D03*
X165350D02*
D03*
X161350D02*
D03*
X157351D02*
D03*
X153350D02*
D03*
X149350D02*
D03*
X145350D02*
D03*
X141350D02*
D03*
X137350D02*
D03*
X133350D02*
D03*
X129350D02*
D03*
X125350D02*
D03*
X121350D02*
D03*
D21*
X128270Y19380D02*
D03*
Y28880D02*
D03*
D22*
X237020Y158630D02*
D03*
Y153630D02*
D03*
Y148630D02*
D03*
Y143630D02*
D03*
X210020Y158630D02*
D03*
Y153630D02*
D03*
Y148630D02*
D03*
Y143630D02*
D03*
D24*
X83183Y171607D02*
D03*
X91384D02*
D03*
D25*
X83271Y144937D02*
D03*
Y153137D02*
D03*
D26*
X250850Y13420D02*
D03*
X260350D02*
D03*
X269850D02*
D03*
Y39920D02*
D03*
X250850D02*
D03*
D27*
X264280Y86360D02*
D03*
Y99060D02*
D03*
Y111760D02*
D03*
Y124460D02*
D03*
X215780Y86360D02*
D03*
Y99060D02*
D03*
Y111760D02*
D03*
Y124460D02*
D03*
D28*
X127000Y171690D02*
D03*
X141000Y182690D02*
D03*
X127000D02*
D03*
X141000Y171690D02*
D03*
D29*
X231140Y50770D02*
D03*
Y58341D02*
D03*
D30*
X270510Y58420D02*
D03*
X262939D02*
D03*
X184175Y182880D02*
D03*
X191746D02*
D03*
D31*
X214888Y58193D02*
D03*
Y50193D02*
D03*
D32*
X79474Y116671D02*
D03*
X87473D02*
D03*
D33*
X149523Y9090D02*
D03*
Y34090D02*
D03*
D34*
X115570Y64850D02*
D03*
Y57070D02*
D03*
X347243Y114380D02*
D03*
Y106600D02*
D03*
D35*
X99254Y63500D02*
D03*
Y57414D02*
D03*
D36*
X144780Y59690D02*
D03*
X132780D02*
D03*
D37*
X110490Y20670D02*
D03*
Y32670D02*
D03*
D38*
X80934Y100395D02*
D03*
X88933D02*
D03*
D39*
X81701Y132236D02*
D03*
X87787D02*
D03*
D40*
X155955Y183011D02*
D03*
X164085D02*
D03*
D41*
X377440Y82195D02*
D03*
X369440D02*
D03*
X313440D02*
D03*
X321440D02*
D03*
D42*
X362940D02*
D03*
X357940D02*
D03*
X327940D02*
D03*
X332940D02*
D03*
X337940D02*
D03*
X352940D02*
D03*
X347940D02*
D03*
X342940D02*
D03*
D43*
X377620Y173400D02*
D03*
X336120D02*
D03*
X377620Y194900D02*
D03*
X336120D02*
D03*
D44*
X324040Y109030D02*
D03*
X320040D02*
D03*
X316040D02*
D03*
X312040D02*
D03*
X324040Y113030D02*
D03*
X320040D02*
D03*
X316040D02*
D03*
X312040D02*
D03*
X324040Y117030D02*
D03*
X320040D02*
D03*
X316040D02*
D03*
X312040D02*
D03*
D45*
X387940Y291260D02*
D03*
Y249760D02*
D03*
X366440Y291260D02*
D03*
Y249760D02*
D03*
X321990D02*
D03*
Y291260D02*
D03*
X343490Y249760D02*
D03*
Y291260D02*
D03*
D46*
X340360Y220980D02*
D03*
X327820D02*
D03*
X383460D02*
D03*
X370920D02*
D03*
D63*
X192337Y250190D02*
D03*
D64*
X166937D02*
D03*
X141537D02*
D03*
X116137D02*
D03*
D74*
X166090Y64770D02*
D03*
D75*
X161290D02*
D03*
Y56970D02*
D03*
X166090D02*
D03*
D76*
X163690Y60870D02*
D03*
D77*
X147350Y118436D02*
D03*
D78*
X223520Y151130D02*
D03*
D79*
X33900Y153890D02*
D03*
D80*
X11700Y142890D02*
D03*
Y95890D02*
D03*
D81*
X27400Y131890D02*
D03*
Y106890D02*
D03*
Y84890D02*
D03*
Y59890D02*
D03*
D82*
X38100Y119390D02*
D03*
Y72390D02*
D03*
D83*
X38700Y37890D02*
D03*
D84*
X11700Y37390D02*
D03*
D85*
X38700Y16890D02*
D03*
D88*
X294640Y290830D02*
D03*
X106680Y179070D02*
D03*
X373380Y57150D02*
D03*
D89*
X148590Y167640D02*
D03*
X181610Y53340D02*
D03*
X139850Y133436D02*
D03*
X132350Y125936D02*
D03*
Y110936D02*
D03*
X147350D02*
D03*
X139850Y103436D02*
D03*
X154850D02*
D03*
X162350Y110936D02*
D03*
Y125936D02*
D03*
X147350D02*
D03*
X154850Y133436D02*
D03*
Y118436D02*
D03*
X139850D02*
D03*
X77123Y185576D02*
D03*
X304800Y97790D02*
D03*
D90*
X113030Y85090D02*
D03*
X74930Y107950D02*
D03*
X146050Y134620D02*
D03*
X152400Y128270D02*
D03*
X153670Y111760D02*
D03*
D91*
X93980Y15240D02*
D03*
X218440Y175260D02*
D03*
X269240Y140970D02*
D03*
X340360Y135890D02*
D03*
D92*
X388640Y34645D02*
D03*
X302240D02*
D03*
D93*
X374340Y71445D02*
D03*
X316540D02*
D03*
D94*
X302240Y76445D02*
D03*
X388640D02*
D03*
M02*
