G04*
G04 #@! TF.GenerationSoftware,Altium Limited,Altium Designer,23.9.2 (47)*
G04*
G04 Layer_Color=128*
%FSLAX44Y44*%
%MOMM*%
G71*
G04*
G04 #@! TF.SameCoordinates,250A9CB9-7403-4FF4-BB43-A60BEB693519*
G04*
G04*
G04 #@! TF.FilePolarity,Positive*
G04*
G01*
G75*
%ADD30R,0.5153X0.4725*%
%ADD32R,0.5200X0.5200*%
%ADD39R,0.4541X0.3627*%
%ADD40R,0.6631X0.5955*%
%ADD46R,0.7581X0.8121*%
%ADD97R,0.6281X0.6062*%
%ADD98R,0.5200X0.5200*%
D30*
X163879Y141713D02*
D03*
X171450D02*
D03*
X132080Y89844D02*
D03*
X124509D02*
D03*
X167676Y90536D02*
D03*
X160105D02*
D03*
X130761Y121920D02*
D03*
X123190D02*
D03*
D32*
X151320Y143510D02*
D03*
X143320D02*
D03*
X167830Y106680D02*
D03*
X159830D02*
D03*
X121730Y140970D02*
D03*
X129730D02*
D03*
X347980Y266700D02*
D03*
X339980D02*
D03*
D39*
X125227Y105410D02*
D03*
X131313D02*
D03*
D40*
X371428Y38100D02*
D03*
X363297D02*
D03*
X325197D02*
D03*
X333328D02*
D03*
D46*
X314960Y265430D02*
D03*
X327500D02*
D03*
D97*
X168990Y124460D02*
D03*
X161210D02*
D03*
D98*
X389890Y270700D02*
D03*
Y262700D02*
D03*
X369570Y269430D02*
D03*
Y261430D02*
D03*
M02*
