G04*
G04 #@! TF.GenerationSoftware,Altium Limited,Altium Designer,23.9.2 (47)*
G04*
G04 Layer_Color=32768*
%FSLAX44Y44*%
%MOMM*%
G71*
G04*
G04 #@! TF.SameCoordinates,250A9CB9-7403-4FF4-BB43-A60BEB693519*
G04*
G04*
G04 #@! TF.FilePolarity,Positive*
G04*
G01*
G75*
%ADD99C,0.1000*%
%ADD102C,0.0500*%
D99*
X125520Y24130D02*
X131020D01*
X128270Y21380D02*
Y26880D01*
X223520Y146130D02*
Y156130D01*
X218520Y151130D02*
X228520D01*
X202470Y164130D02*
X244570D01*
X202470Y138630D02*
X244570D01*
X202470D02*
Y164130D01*
X244570Y138630D02*
Y164130D01*
X84033Y171607D02*
X90534D01*
X87283Y168356D02*
Y174857D01*
X83271Y145786D02*
Y152287D01*
X80021Y149037D02*
X86521D01*
X260350Y21670D02*
Y31670D01*
X255350Y26670D02*
X265350D01*
X235030Y105410D02*
X245030D01*
X240030Y100410D02*
Y110410D01*
D102*
X188350Y77436D02*
Y159436D01*
X106350Y77436D02*
Y159436D01*
X188350D01*
X106350Y77436D02*
X188350D01*
X122770Y13630D02*
Y34630D01*
X133770Y13630D02*
Y34630D01*
X122770Y13630D02*
X133770D01*
X122770Y34630D02*
X133770D01*
X79284Y167107D02*
Y176106D01*
X95283Y167107D02*
Y176106D01*
X79284D02*
X95283D01*
X79284Y167107D02*
X95283D01*
X78771Y141037D02*
X87771D01*
X78771Y157037D02*
X87771D01*
X78771Y141037D02*
Y157037D01*
X87771Y141037D02*
Y157037D01*
X243350Y5920D02*
X277350D01*
X243350Y47420D02*
X277350D01*
X243350Y5920D02*
Y47420D01*
X277350Y5920D02*
Y47420D01*
X277030Y78410D02*
Y132410D01*
X203030Y78410D02*
Y132410D01*
Y78410D02*
X277030D01*
X203030Y132410D02*
X277030D01*
X337490Y96030D02*
Y130030D01*
X298590Y96030D02*
Y130030D01*
X337490D01*
X298590Y96030D02*
X337490D01*
M02*
