G04*
G04 #@! TF.GenerationSoftware,Altium Limited,Altium Designer,23.9.2 (47)*
G04*
G04 Layer_Physical_Order=2*
G04 Layer_Color=36540*
%FSLAX44Y44*%
%MOMM*%
G71*
G04*
G04 #@! TF.SameCoordinates,250A9CB9-7403-4FF4-BB43-A60BEB693519*
G04*
G04*
G04 #@! TF.FilePolarity,Positive*
G04*
G01*
G75*
%ADD63R,1.3500X1.3500*%
%ADD64C,1.3500*%
%ADD73C,0.3500*%
%ADD88C,0.6000*%
%ADD89C,0.5000*%
%ADD90C,0.4000*%
%ADD91C,1.0000*%
%ADD92O,1.0000X1.8000*%
%ADD93C,0.6500*%
%ADD94O,1.0000X2.1000*%
%ADD95C,0.8000*%
G36*
X398780Y2540D02*
X199367D01*
X198841Y3810D01*
X199819Y4788D01*
X200580Y6625D01*
Y8615D01*
X199819Y10452D01*
X198412Y11859D01*
X196575Y12620D01*
X194585D01*
X192748Y11859D01*
X191341Y10452D01*
X190580Y8615D01*
Y6625D01*
X191341Y4788D01*
X192319Y3810D01*
X191793Y2540D01*
X64770D01*
Y191770D01*
X2540D01*
Y304800D01*
X398780D01*
Y2540D01*
D02*
G37*
%LPC*%
G36*
X295910Y296300D02*
Y292100D01*
X300110D01*
X299337Y293968D01*
X297778Y295527D01*
X295910Y296300D01*
D02*
G37*
G36*
X293370D02*
X291502Y295527D01*
X289943Y293968D01*
X289170Y292100D01*
X293370D01*
Y296300D01*
D02*
G37*
G36*
X300110Y289560D02*
X295910D01*
Y285360D01*
X297778Y286133D01*
X299337Y287692D01*
X300110Y289560D01*
D02*
G37*
G36*
X293370D02*
X289170D01*
X289943Y287692D01*
X291502Y286133D01*
X293370Y285360D01*
Y289560D01*
D02*
G37*
G36*
X201627Y259480D02*
X193607D01*
Y251460D01*
X201627D01*
Y259480D01*
D02*
G37*
G36*
X191067D02*
X183047D01*
Y251460D01*
X191067D01*
Y259480D01*
D02*
G37*
G36*
X168089Y258940D02*
X165786D01*
X163560Y258344D01*
X161565Y257192D01*
X159936Y255563D01*
X158784Y253567D01*
X158187Y251342D01*
Y249038D01*
X158784Y246813D01*
X159936Y244817D01*
X161565Y243188D01*
X163560Y242036D01*
X165786Y241440D01*
X168089D01*
X170315Y242036D01*
X172310Y243188D01*
X173939Y244817D01*
X175091Y246813D01*
X175687Y249038D01*
Y251342D01*
X175091Y253567D01*
X173939Y255563D01*
X172310Y257192D01*
X170315Y258344D01*
X168089Y258940D01*
D02*
G37*
G36*
X142689D02*
X140386D01*
X138160Y258344D01*
X136165Y257192D01*
X134536Y255563D01*
X133384Y253567D01*
X132787Y251342D01*
Y249038D01*
X133384Y246813D01*
X134536Y244817D01*
X136165Y243188D01*
X138160Y242036D01*
X140386Y241440D01*
X142689D01*
X144915Y242036D01*
X146910Y243188D01*
X148539Y244817D01*
X149691Y246813D01*
X150287Y249038D01*
Y251342D01*
X149691Y253567D01*
X148539Y255563D01*
X146910Y257192D01*
X144915Y258344D01*
X142689Y258940D01*
D02*
G37*
G36*
X117289D02*
X114986D01*
X112760Y258344D01*
X110765Y257192D01*
X109136Y255563D01*
X107984Y253567D01*
X107387Y251342D01*
Y249038D01*
X107984Y246813D01*
X109136Y244817D01*
X110765Y243188D01*
X112760Y242036D01*
X114986Y241440D01*
X117289D01*
X119515Y242036D01*
X121510Y243188D01*
X123139Y244817D01*
X124291Y246813D01*
X124887Y249038D01*
Y251342D01*
X124291Y253567D01*
X123139Y255563D01*
X121510Y257192D01*
X119515Y258344D01*
X117289Y258940D01*
D02*
G37*
G36*
X201627Y248920D02*
X193607D01*
Y240900D01*
X201627D01*
Y248920D01*
D02*
G37*
G36*
X191067D02*
X183047D01*
Y240900D01*
X191067D01*
Y248920D01*
D02*
G37*
G36*
X311946Y241490D02*
X310354D01*
X308884Y240881D01*
X307759Y239756D01*
X307150Y238286D01*
Y236694D01*
X307759Y235224D01*
X308884Y234099D01*
X310354Y233490D01*
X311946D01*
X313416Y234099D01*
X314541Y235224D01*
X315150Y236694D01*
Y238286D01*
X314541Y239756D01*
X313416Y240881D01*
X311946Y241490D01*
D02*
G37*
G36*
X329925Y238680D02*
X327935D01*
X326098Y237919D01*
X324691Y236512D01*
X323930Y234675D01*
Y232685D01*
X324691Y230848D01*
X326098Y229441D01*
X327935Y228680D01*
X329925D01*
X331762Y229441D01*
X333169Y230848D01*
X333930Y232685D01*
Y234675D01*
X333169Y236512D01*
X331762Y237919D01*
X329925Y238680D01*
D02*
G37*
G36*
X359135Y220900D02*
X357145D01*
X355308Y220139D01*
X353901Y218732D01*
X353140Y216895D01*
Y214905D01*
X353901Y213068D01*
X355308Y211661D01*
X357145Y210900D01*
X359135D01*
X360972Y211661D01*
X362379Y213068D01*
X363140Y214905D01*
Y216895D01*
X362379Y218732D01*
X360972Y220139D01*
X359135Y220900D01*
D02*
G37*
G36*
X314585Y200080D02*
X312795D01*
X311141Y199395D01*
X309875Y198129D01*
X309190Y196475D01*
Y194685D01*
X309875Y193031D01*
X311141Y191765D01*
X312795Y191080D01*
X314585D01*
X316239Y191765D01*
X317505Y193031D01*
X318190Y194685D01*
Y196475D01*
X317505Y198129D01*
X316239Y199395D01*
X314585Y200080D01*
D02*
G37*
G36*
X152125Y199310D02*
X150135D01*
X148298Y198549D01*
X146891Y197142D01*
X146130Y195305D01*
Y193315D01*
X146891Y191478D01*
X148298Y190071D01*
X150135Y189310D01*
X152125D01*
X153962Y190071D01*
X155369Y191478D01*
X156130Y193315D01*
Y195305D01*
X155369Y197142D01*
X153962Y198549D01*
X152125Y199310D01*
D02*
G37*
G36*
X78394Y190506D02*
Y186847D01*
X82053D01*
X81396Y188431D01*
X79978Y189849D01*
X78394Y190506D01*
D02*
G37*
G36*
X75854D02*
X74269Y189849D01*
X72851Y188431D01*
X72194Y186847D01*
X75854D01*
Y190506D01*
D02*
G37*
G36*
X82053Y184307D02*
X78394D01*
Y180647D01*
X79978Y181304D01*
X81396Y182722D01*
X82053Y184307D01*
D02*
G37*
G36*
X75854D02*
X72194D01*
X72851Y182722D01*
X74269Y181304D01*
X75854Y180647D01*
Y184307D01*
D02*
G37*
G36*
X107950Y184540D02*
Y180340D01*
X112150D01*
X111377Y182208D01*
X109818Y183767D01*
X107950Y184540D01*
D02*
G37*
G36*
X105410D02*
X103542Y183767D01*
X101983Y182208D01*
X101210Y180340D01*
X105410D01*
Y184540D01*
D02*
G37*
G36*
X219710Y182726D02*
Y176530D01*
X225906D01*
X225466Y178170D01*
X224473Y179890D01*
X223070Y181294D01*
X221350Y182286D01*
X219710Y182726D01*
D02*
G37*
G36*
X217170D02*
X215530Y182286D01*
X213810Y181294D01*
X212407Y179890D01*
X211414Y178170D01*
X210974Y176530D01*
X217170D01*
Y182726D01*
D02*
G37*
G36*
X112150Y177800D02*
X107950D01*
Y173600D01*
X109818Y174373D01*
X111377Y175932D01*
X112150Y177800D01*
D02*
G37*
G36*
X105410D02*
X101210D01*
X101983Y175932D01*
X103542Y174373D01*
X105410Y173600D01*
Y177800D01*
D02*
G37*
G36*
X149860Y172569D02*
Y168910D01*
X153519D01*
X152863Y170495D01*
X151445Y171913D01*
X149860Y172569D01*
D02*
G37*
G36*
X147320D02*
X145735Y171913D01*
X144317Y170495D01*
X143661Y168910D01*
X147320D01*
Y172569D01*
D02*
G37*
G36*
X225906Y173990D02*
X219710D01*
Y167794D01*
X221350Y168234D01*
X223070Y169226D01*
X224473Y170630D01*
X225466Y172350D01*
X225906Y173990D01*
D02*
G37*
G36*
X217170D02*
X210974D01*
X211414Y172350D01*
X212407Y170630D01*
X213810Y169226D01*
X215530Y168234D01*
X217170Y167794D01*
Y173990D01*
D02*
G37*
G36*
X153519Y166370D02*
X149860D01*
Y162711D01*
X151445Y163367D01*
X152863Y164785D01*
X153519Y166370D01*
D02*
G37*
G36*
X147320D02*
X143661D01*
X144317Y164785D01*
X145735Y163367D01*
X147320Y162711D01*
Y166370D01*
D02*
G37*
G36*
X164626Y167830D02*
X163034D01*
X161564Y167221D01*
X160439Y166096D01*
X159830Y164626D01*
Y163034D01*
X160439Y161564D01*
X161564Y160439D01*
X163034Y159830D01*
X164626D01*
X166096Y160439D01*
X167221Y161564D01*
X167830Y163034D01*
Y164626D01*
X167221Y166096D01*
X166096Y167221D01*
X164626Y167830D01*
D02*
G37*
G36*
X141766Y164020D02*
X140174D01*
X138704Y163411D01*
X137579Y162286D01*
X136970Y160816D01*
Y159224D01*
X137579Y157754D01*
X138704Y156629D01*
X140174Y156020D01*
X141766D01*
X143236Y156629D01*
X144361Y157754D01*
X144970Y159224D01*
Y160816D01*
X144361Y162286D01*
X143236Y163411D01*
X141766Y164020D01*
D02*
G37*
G36*
X115096Y156400D02*
X113504D01*
X112034Y155791D01*
X110909Y154666D01*
X110300Y153196D01*
Y151604D01*
X110909Y150134D01*
X112034Y149009D01*
X113504Y148400D01*
X115096D01*
X116566Y149009D01*
X117691Y150134D01*
X118300Y151604D01*
Y153196D01*
X117691Y154666D01*
X116566Y155791D01*
X115096Y156400D01*
D02*
G37*
G36*
X270510Y148436D02*
Y142240D01*
X276706D01*
X276266Y143880D01*
X275273Y145600D01*
X273870Y147003D01*
X272150Y147996D01*
X270510Y148436D01*
D02*
G37*
G36*
X267970D02*
X266330Y147996D01*
X264610Y147003D01*
X263207Y145600D01*
X262214Y143880D01*
X261774Y142240D01*
X267970D01*
Y148436D01*
D02*
G37*
G36*
X341630Y143356D02*
Y137160D01*
X347826D01*
X347386Y138800D01*
X346394Y140520D01*
X344990Y141924D01*
X343270Y142916D01*
X341630Y143356D01*
D02*
G37*
G36*
X339090D02*
X337450Y142916D01*
X335730Y141924D01*
X334327Y140520D01*
X333334Y138800D01*
X332894Y137160D01*
X339090D01*
Y143356D01*
D02*
G37*
G36*
X147320Y139008D02*
Y134620D01*
X144780D01*
Y139008D01*
X143478Y138469D01*
X142301Y137292D01*
X140745Y137936D01*
X138955D01*
X137301Y137251D01*
X136035Y135985D01*
X135350Y134332D01*
Y132541D01*
X136035Y130887D01*
X137301Y129621D01*
X138955Y128936D01*
X140745D01*
X142399Y129621D01*
X142706Y129928D01*
X143071Y129817D01*
X143503Y128578D01*
X143485Y128364D01*
X142850Y126831D01*
Y125041D01*
X143535Y123387D01*
X144801Y122121D01*
X146455Y121436D01*
X148245D01*
X149899Y122121D01*
X151165Y123387D01*
X151335Y123797D01*
X151497Y123730D01*
X152553D01*
X152806Y122460D01*
X152301Y122251D01*
X151035Y120985D01*
X150350Y119331D01*
Y117541D01*
X150657Y116801D01*
X151098Y115609D01*
X150070Y114580D01*
X149899Y114751D01*
X148245Y115436D01*
X146455D01*
X144801Y114751D01*
X143535Y113485D01*
X142850Y111831D01*
Y110041D01*
X143535Y108387D01*
X144801Y107121D01*
X146455Y106436D01*
X148245D01*
X149899Y107121D01*
X149986Y107208D01*
X150351Y107098D01*
X150533Y106802D01*
X150880Y105610D01*
X150350Y104332D01*
Y102541D01*
X151035Y100887D01*
X152301Y99621D01*
X153955Y98936D01*
X155745D01*
X157399Y99621D01*
X158665Y100887D01*
X159350Y102541D01*
Y104332D01*
X158665Y105985D01*
X157399Y107251D01*
X157705Y107803D01*
X159155Y107767D01*
X159801Y107121D01*
X161455Y106436D01*
X163245D01*
X164899Y107121D01*
X166165Y108387D01*
X166850Y110041D01*
Y111831D01*
X166165Y113485D01*
X164899Y114751D01*
X163245Y115436D01*
X161455D01*
X159801Y114751D01*
X159749Y114698D01*
X158299Y115045D01*
X158182Y115404D01*
X158665Y115887D01*
X159350Y117541D01*
Y119331D01*
X158665Y120985D01*
X157399Y122251D01*
X155745Y122936D01*
X154705D01*
X154453Y124206D01*
X154972Y124421D01*
X156249Y125698D01*
X156580Y126498D01*
X157850Y126246D01*
Y125041D01*
X158535Y123387D01*
X159801Y122121D01*
X161455Y121436D01*
X163245D01*
X164899Y122121D01*
X166165Y123387D01*
X166850Y125041D01*
Y126831D01*
X166165Y128485D01*
X164899Y129751D01*
X163245Y130436D01*
X161455D01*
X159801Y129751D01*
X158535Y128485D01*
X158210Y127700D01*
X156940Y127953D01*
Y129173D01*
X156849Y129394D01*
X157399Y129621D01*
X158665Y130887D01*
X159350Y132541D01*
Y134332D01*
X158665Y135985D01*
X157399Y137251D01*
X155745Y137936D01*
X153955D01*
X152301Y137251D01*
X151557Y136507D01*
X150082Y136750D01*
X149899Y137192D01*
X148622Y138469D01*
X147320Y139008D01*
D02*
G37*
G36*
X276706Y139700D02*
X270510D01*
Y133504D01*
X272150Y133944D01*
X273870Y134937D01*
X275273Y136340D01*
X276266Y138060D01*
X276706Y139700D01*
D02*
G37*
G36*
X267970D02*
X261774D01*
X262214Y138060D01*
X263207Y136340D01*
X264610Y134937D01*
X266330Y133944D01*
X267970Y133504D01*
Y139700D01*
D02*
G37*
G36*
X198043Y153320D02*
X195657D01*
X193451Y152407D01*
X191763Y150719D01*
X190850Y148513D01*
Y146126D01*
X191763Y143921D01*
X193451Y142233D01*
X195657Y141320D01*
X197385D01*
X197715Y140430D01*
X197749Y140050D01*
X196421Y138722D01*
X195660Y136885D01*
Y134895D01*
X196421Y133058D01*
X197828Y131651D01*
X199665Y130890D01*
X201655D01*
X203492Y131651D01*
X204899Y133058D01*
X205660Y134895D01*
Y136885D01*
X204899Y138722D01*
X203492Y140129D01*
X201655Y140890D01*
X200324D01*
X200071Y142160D01*
X200249Y142233D01*
X201937Y143921D01*
X202850Y146126D01*
Y148513D01*
X201937Y150719D01*
X200249Y152407D01*
X198043Y153320D01*
D02*
G37*
G36*
X347826Y134620D02*
X341630D01*
Y128424D01*
X343270Y128864D01*
X344990Y129857D01*
X346394Y131260D01*
X347386Y132980D01*
X347826Y134620D01*
D02*
G37*
G36*
X339090D02*
X332894D01*
X333334Y132980D01*
X334327Y131260D01*
X335730Y129857D01*
X337450Y128864D01*
X339090Y128424D01*
Y134620D01*
D02*
G37*
G36*
X101325Y137080D02*
X99335D01*
X97498Y136319D01*
X96091Y134912D01*
X95330Y133075D01*
Y131085D01*
X96091Y129248D01*
X97498Y127841D01*
X99335Y127080D01*
X101325D01*
X103162Y127841D01*
X104569Y129248D01*
X105330Y131085D01*
Y133075D01*
X104569Y134912D01*
X103162Y136319D01*
X101325Y137080D01*
D02*
G37*
G36*
X133245Y130436D02*
X131455D01*
X129801Y129751D01*
X128535Y128485D01*
X127850Y126831D01*
Y125041D01*
X128535Y123387D01*
X129801Y122121D01*
X131455Y121436D01*
X133245D01*
X134899Y122121D01*
X136165Y123387D01*
X136850Y125041D01*
Y126831D01*
X136165Y128485D01*
X134899Y129751D01*
X133245Y130436D01*
D02*
G37*
G36*
X102595Y124380D02*
X100605D01*
X98768Y123619D01*
X97361Y122212D01*
X96600Y120375D01*
Y118385D01*
X97361Y116548D01*
X98768Y115141D01*
X100605Y114380D01*
X102595D01*
X104432Y115141D01*
X105839Y116548D01*
X106600Y118385D01*
Y120375D01*
X105839Y122212D01*
X104432Y123619D01*
X102595Y124380D01*
D02*
G37*
G36*
X140745Y122936D02*
X138955D01*
X137301Y122251D01*
X136035Y120985D01*
X135350Y119331D01*
Y117541D01*
X136035Y115887D01*
X137301Y114621D01*
X138955Y113936D01*
X140745D01*
X142399Y114621D01*
X143665Y115887D01*
X144350Y117541D01*
Y119331D01*
X143665Y120985D01*
X142399Y122251D01*
X140745Y122936D01*
D02*
G37*
G36*
X248446Y118300D02*
X246854D01*
X245384Y117691D01*
X244259Y116566D01*
X243650Y115096D01*
Y113504D01*
X244259Y112034D01*
X245384Y110909D01*
X246854Y110300D01*
X248446D01*
X249916Y110909D01*
X251041Y112034D01*
X251650Y113504D01*
Y115096D01*
X251041Y116566D01*
X249916Y117691D01*
X248446Y118300D01*
D02*
G37*
G36*
X198916Y117436D02*
X197324D01*
X195854Y116827D01*
X194729Y115702D01*
X194120Y114232D01*
Y112640D01*
X194729Y111170D01*
X195854Y110045D01*
X197324Y109436D01*
X198916D01*
X200386Y110045D01*
X201511Y111170D01*
X202120Y112640D01*
Y114232D01*
X201511Y115702D01*
X200386Y116827D01*
X198916Y117436D01*
D02*
G37*
G36*
X76200Y112338D02*
Y109220D01*
X79318D01*
X78779Y110522D01*
X77502Y111799D01*
X76200Y112338D01*
D02*
G37*
G36*
X73660D02*
X72358Y111799D01*
X71081Y110522D01*
X70542Y109220D01*
X73660D01*
Y112338D01*
D02*
G37*
G36*
X282835Y116260D02*
X281045D01*
X279391Y115575D01*
X278125Y114309D01*
X277440Y112655D01*
Y110865D01*
X278125Y109211D01*
X279391Y107945D01*
X281045Y107260D01*
X282835D01*
X284489Y107945D01*
X285755Y109211D01*
X286440Y110865D01*
Y112655D01*
X285755Y114309D01*
X284489Y115575D01*
X282835Y116260D01*
D02*
G37*
G36*
X133245Y115436D02*
X131455D01*
X129801Y114751D01*
X128535Y113485D01*
X127850Y111831D01*
Y110041D01*
X128535Y108387D01*
X129801Y107121D01*
X131455Y106436D01*
X133245D01*
X134899Y107121D01*
X136165Y108387D01*
X136850Y110041D01*
Y111831D01*
X136165Y113485D01*
X134899Y114751D01*
X133245Y115436D01*
D02*
G37*
G36*
X79318Y106680D02*
X76200D01*
Y103562D01*
X77502Y104101D01*
X78779Y105378D01*
X79318Y106680D01*
D02*
G37*
G36*
X73660D02*
X70542D01*
X71081Y105378D01*
X72358Y104101D01*
X73660Y103562D01*
Y106680D01*
D02*
G37*
G36*
X292995Y108640D02*
X291205D01*
X289551Y107955D01*
X288285Y106689D01*
X287600Y105035D01*
Y103245D01*
X288285Y101591D01*
X289551Y100325D01*
X291205Y99640D01*
X292995D01*
X294649Y100325D01*
X295915Y101591D01*
X296600Y103245D01*
Y105035D01*
X295915Y106689D01*
X294649Y107955D01*
X292995Y108640D01*
D02*
G37*
G36*
X306070Y102719D02*
Y99060D01*
X309729D01*
X309073Y100645D01*
X307655Y102063D01*
X306070Y102719D01*
D02*
G37*
G36*
X303530D02*
X301945Y102063D01*
X300527Y100645D01*
X299871Y99060D01*
X303530D01*
Y102719D01*
D02*
G37*
G36*
X174786Y104330D02*
X173194D01*
X171724Y103721D01*
X170599Y102596D01*
X169990Y101126D01*
Y99534D01*
X170599Y98064D01*
X171724Y96939D01*
X173194Y96330D01*
X174786D01*
X176256Y96939D01*
X177381Y98064D01*
X177990Y99534D01*
Y101126D01*
X177381Y102596D01*
X176256Y103721D01*
X174786Y104330D01*
D02*
G37*
G36*
X309729Y96520D02*
X306070D01*
Y92861D01*
X307655Y93517D01*
X309073Y94935D01*
X309729Y96520D01*
D02*
G37*
G36*
X303530D02*
X299871D01*
X300527Y94935D01*
X301945Y93517D01*
X303530Y92861D01*
Y96520D01*
D02*
G37*
G36*
X140745Y107936D02*
X138955D01*
X137301Y107251D01*
X136035Y105985D01*
X135350Y104332D01*
Y102541D01*
X136035Y100887D01*
X137301Y99621D01*
X138304Y99206D01*
X138052Y97936D01*
X137468D01*
X135998Y97327D01*
X134873Y96202D01*
X134264Y94732D01*
Y93140D01*
X134873Y91670D01*
X135998Y90545D01*
X137468Y89936D01*
X139059D01*
X140529Y90545D01*
X141655Y91670D01*
X142263Y93140D01*
Y94732D01*
X141655Y96202D01*
X140529Y97327D01*
X139710Y97666D01*
X139963Y98936D01*
X140745D01*
X142399Y99621D01*
X143665Y100887D01*
X144350Y102541D01*
Y104332D01*
X143665Y105985D01*
X142399Y107251D01*
X140745Y107936D01*
D02*
G37*
G36*
X149386Y96710D02*
X147794D01*
X146324Y96101D01*
X145199Y94976D01*
X144590Y93506D01*
Y91914D01*
X145199Y90444D01*
X146324Y89319D01*
X147794Y88710D01*
X149386D01*
X150856Y89319D01*
X151981Y90444D01*
X152590Y91914D01*
Y93506D01*
X151981Y94976D01*
X150856Y96101D01*
X149386Y96710D01*
D02*
G37*
G36*
X114300Y89478D02*
Y86360D01*
X117418D01*
X116879Y87662D01*
X115602Y88939D01*
X114300Y89478D01*
D02*
G37*
G36*
X111760D02*
X110458Y88939D01*
X109181Y87662D01*
X108642Y86360D01*
X111760D01*
Y89478D01*
D02*
G37*
G36*
X97236Y92900D02*
X95644D01*
X94174Y92291D01*
X93049Y91166D01*
X92440Y89696D01*
Y88104D01*
X93049Y86634D01*
X94174Y85509D01*
X95644Y84900D01*
X97236D01*
X98706Y85509D01*
X99831Y86634D01*
X100440Y88104D01*
Y89696D01*
X99831Y91166D01*
X98706Y92291D01*
X97236Y92900D01*
D02*
G37*
G36*
X196575Y93900D02*
X194585D01*
X192748Y93139D01*
X191341Y91732D01*
X190580Y89895D01*
Y87905D01*
X191341Y86068D01*
X192748Y84661D01*
X194585Y83900D01*
X196575D01*
X198412Y84661D01*
X199819Y86068D01*
X200580Y87905D01*
Y89895D01*
X199819Y91732D01*
X198412Y93139D01*
X196575Y93900D01*
D02*
G37*
G36*
X281466Y89090D02*
X279874D01*
X278404Y88481D01*
X277279Y87356D01*
X276670Y85886D01*
Y84294D01*
X277279Y82824D01*
X278404Y81699D01*
X279874Y81090D01*
X281466D01*
X282936Y81699D01*
X284061Y82824D01*
X284670Y84294D01*
Y85886D01*
X284061Y87356D01*
X282936Y88481D01*
X281466Y89090D01*
D02*
G37*
G36*
X117418Y83820D02*
X114300D01*
Y80702D01*
X115602Y81241D01*
X116879Y82518D01*
X117418Y83820D01*
D02*
G37*
G36*
X111760D02*
X108642D01*
X109181Y82518D01*
X110458Y81241D01*
X111760Y80702D01*
Y83820D01*
D02*
G37*
G36*
X183775Y90860D02*
X181985D01*
X180331Y90175D01*
X179065Y88909D01*
X178380Y87255D01*
Y85465D01*
X178983Y84010D01*
X178672Y83231D01*
X178340Y82740D01*
X178274D01*
X176804Y82131D01*
X175679Y81006D01*
X175070Y79536D01*
Y77944D01*
X175679Y76474D01*
X176804Y75349D01*
X178274Y74740D01*
X179866D01*
X181336Y75349D01*
X182461Y76474D01*
X183070Y77944D01*
Y79536D01*
X182633Y80590D01*
X183170Y81667D01*
X183377Y81860D01*
X183775D01*
X185429Y82545D01*
X186695Y83811D01*
X187380Y85465D01*
Y87255D01*
X186695Y88909D01*
X185429Y90175D01*
X183775Y90860D01*
D02*
G37*
G36*
X77195Y81200D02*
X75205D01*
X73368Y80439D01*
X71961Y79032D01*
X71200Y77195D01*
Y75205D01*
X71961Y73368D01*
X73368Y71961D01*
X75205Y71200D01*
X77195D01*
X79032Y71961D01*
X80439Y73368D01*
X81200Y75205D01*
Y77195D01*
X80439Y79032D01*
X79032Y80439D01*
X77195Y81200D01*
D02*
G37*
G36*
X154665Y79930D02*
X152675D01*
X150838Y79169D01*
X149431Y77762D01*
X148670Y75925D01*
Y73935D01*
X149431Y72098D01*
X150838Y70691D01*
X152675Y69930D01*
X154665D01*
X156502Y70691D01*
X157909Y72098D01*
X158670Y73935D01*
Y75925D01*
X157909Y77762D01*
X156502Y79169D01*
X154665Y79930D01*
D02*
G37*
G36*
X87156Y75120D02*
X85564D01*
X84094Y74511D01*
X82969Y73386D01*
X82360Y71916D01*
Y70324D01*
X82969Y68854D01*
X84094Y67729D01*
X85564Y67120D01*
X87156D01*
X88626Y67729D01*
X89751Y68854D01*
X90360Y70324D01*
Y71916D01*
X89751Y73386D01*
X88626Y74511D01*
X87156Y75120D01*
D02*
G37*
G36*
X375384Y76695D02*
X373296D01*
X371366Y75896D01*
X369889Y74419D01*
X369090Y72489D01*
Y70401D01*
X369889Y68471D01*
X371366Y66994D01*
X373296Y66195D01*
X375384D01*
X377314Y66994D01*
X378791Y68471D01*
X379590Y70401D01*
Y72489D01*
X378791Y74419D01*
X377314Y75896D01*
X375384Y76695D01*
D02*
G37*
G36*
X317584D02*
X315496D01*
X313566Y75896D01*
X312089Y74419D01*
X311290Y72489D01*
Y70401D01*
X312089Y68471D01*
X313566Y66994D01*
X315496Y66195D01*
X317584D01*
X319514Y66994D01*
X320991Y68471D01*
X321790Y70401D01*
Y72489D01*
X320991Y74419D01*
X319514Y75896D01*
X317584Y76695D01*
D02*
G37*
G36*
X388640Y89005D02*
X386813Y88765D01*
X385110Y88059D01*
X383648Y86937D01*
X382526Y85475D01*
X381820Y83772D01*
X381580Y81945D01*
Y70945D01*
X381820Y69117D01*
X382526Y67415D01*
X383648Y65952D01*
X385110Y64830D01*
X386813Y64125D01*
X388640Y63885D01*
X390468Y64125D01*
X392170Y64830D01*
X393633Y65952D01*
X394755Y67415D01*
X395460Y69117D01*
X395701Y70945D01*
Y81945D01*
X395460Y83772D01*
X394755Y85475D01*
X393633Y86937D01*
X392170Y88059D01*
X390468Y88765D01*
X388640Y89005D01*
D02*
G37*
G36*
X302240D02*
X300413Y88765D01*
X298710Y88059D01*
X297248Y86937D01*
X296126Y85475D01*
X295420Y83772D01*
X295180Y81945D01*
Y70945D01*
X295420Y69117D01*
X296126Y67415D01*
X297248Y65952D01*
X298710Y64830D01*
X300413Y64125D01*
X302240Y63885D01*
X304067Y64125D01*
X305770Y64830D01*
X307233Y65952D01*
X308355Y67415D01*
X309060Y69117D01*
X309301Y70945D01*
Y81945D01*
X309060Y83772D01*
X308355Y85475D01*
X307233Y86937D01*
X305770Y88059D01*
X304067Y88765D01*
X302240Y89005D01*
D02*
G37*
G36*
X374650Y62620D02*
Y58420D01*
X378850D01*
X378077Y60288D01*
X376518Y61847D01*
X374650Y62620D01*
D02*
G37*
G36*
X372110D02*
X370242Y61847D01*
X368683Y60288D01*
X367910Y58420D01*
X372110D01*
Y62620D01*
D02*
G37*
G36*
X354055Y67230D02*
X352065D01*
X350228Y66469D01*
X348821Y65062D01*
X348060Y63225D01*
Y61235D01*
X348821Y59398D01*
X350228Y57991D01*
X352065Y57230D01*
X354055D01*
X355892Y57991D01*
X357299Y59398D01*
X358060Y61235D01*
Y63225D01*
X357299Y65062D01*
X355892Y66469D01*
X354055Y67230D01*
D02*
G37*
G36*
X178795Y67160D02*
X176805D01*
X174968Y66399D01*
X173561Y64992D01*
X172800Y63155D01*
Y61165D01*
X173561Y59328D01*
X174968Y57921D01*
X176594Y57248D01*
X176818Y56931D01*
X177018Y56494D01*
X177211Y55890D01*
X176681Y54610D01*
X186539D01*
X185883Y56195D01*
X184465Y57613D01*
X182807Y58300D01*
X182496Y58715D01*
X182172Y59650D01*
X182800Y61165D01*
Y63155D01*
X182039Y64992D01*
X180632Y66399D01*
X178795Y67160D01*
D02*
G37*
G36*
X378850Y55880D02*
X374650D01*
Y51680D01*
X376518Y52453D01*
X378077Y54012D01*
X378850Y55880D01*
D02*
G37*
G36*
X372110D02*
X367910D01*
X368683Y54012D01*
X370242Y52453D01*
X372110Y51680D01*
Y55880D01*
D02*
G37*
G36*
X153925Y67160D02*
X152135D01*
X150481Y66475D01*
X149215Y65209D01*
X148530Y63555D01*
Y61765D01*
X149215Y60111D01*
X150481Y58845D01*
X150759Y57355D01*
X150279Y56876D01*
X149670Y55406D01*
Y53814D01*
X150279Y52344D01*
X151404Y51219D01*
X152874Y50610D01*
X154466D01*
X155936Y51219D01*
X157061Y52344D01*
X157670Y53814D01*
Y55406D01*
X157061Y56876D01*
X156165Y57772D01*
X155951Y58164D01*
X156059Y59325D01*
X156845Y60111D01*
X157530Y61765D01*
Y63555D01*
X156845Y65209D01*
X155579Y66475D01*
X153925Y67160D01*
D02*
G37*
G36*
X199015Y59110D02*
X197225D01*
X195571Y58425D01*
X194305Y57159D01*
X193620Y55505D01*
Y53715D01*
X194305Y52061D01*
X195571Y50795D01*
X197225Y50110D01*
X199015D01*
X200669Y50795D01*
X201935Y52061D01*
X202620Y53715D01*
Y55505D01*
X201935Y57159D01*
X200669Y58425D01*
X199015Y59110D01*
D02*
G37*
G36*
X340085Y59610D02*
X338095D01*
X336258Y58849D01*
X334851Y57442D01*
X334090Y55605D01*
Y53615D01*
X334851Y51778D01*
X336258Y50371D01*
X338095Y49610D01*
X340085D01*
X341922Y50371D01*
X343329Y51778D01*
X344090Y53615D01*
Y55605D01*
X343329Y57442D01*
X341922Y58849D01*
X340085Y59610D01*
D02*
G37*
G36*
X186539Y52070D02*
X182880D01*
Y48411D01*
X184465Y49067D01*
X185883Y50485D01*
X186539Y52070D01*
D02*
G37*
G36*
X180340D02*
X176681D01*
X177337Y50485D01*
X178755Y49067D01*
X180340Y48411D01*
Y52070D01*
D02*
G37*
G36*
X135416Y56070D02*
X133824D01*
X132354Y55461D01*
X131229Y54336D01*
X130620Y52866D01*
Y51274D01*
X131229Y49804D01*
X132354Y48679D01*
X133824Y48070D01*
X135416D01*
X136886Y48679D01*
X138011Y49804D01*
X138620Y51274D01*
Y52866D01*
X138011Y54336D01*
X136886Y55461D01*
X135416Y56070D01*
D02*
G37*
G36*
X361675Y57070D02*
X359685D01*
X357848Y56309D01*
X356441Y54902D01*
X355680Y53065D01*
Y51075D01*
X356441Y49238D01*
X357848Y47831D01*
X359685Y47070D01*
X361675D01*
X363512Y47831D01*
X364919Y49238D01*
X365680Y51075D01*
Y53065D01*
X364919Y54902D01*
X363512Y56309D01*
X361675Y57070D01*
D02*
G37*
G36*
X322305Y55800D02*
X320315D01*
X318478Y55039D01*
X317071Y53632D01*
X316310Y51795D01*
Y49805D01*
X317071Y47968D01*
X318478Y46561D01*
X320315Y45800D01*
X322305D01*
X324142Y46561D01*
X325549Y47968D01*
X326310Y49805D01*
Y51795D01*
X325549Y53632D01*
X324142Y55039D01*
X322305Y55800D01*
D02*
G37*
G36*
X388640Y45705D02*
X386813Y45465D01*
X385110Y44759D01*
X383648Y43637D01*
X382526Y42175D01*
X381820Y40472D01*
X381580Y38645D01*
Y30645D01*
X381820Y28818D01*
X382526Y27115D01*
X383648Y25653D01*
X385110Y24531D01*
X386813Y23825D01*
X388640Y23585D01*
X390468Y23825D01*
X392170Y24531D01*
X393633Y25653D01*
X394755Y27115D01*
X395460Y28818D01*
X395701Y30645D01*
Y38645D01*
X395460Y40472D01*
X394755Y42175D01*
X393633Y43637D01*
X392170Y44759D01*
X390468Y45465D01*
X388640Y45705D01*
D02*
G37*
G36*
X302240D02*
X300413Y45465D01*
X298710Y44759D01*
X297248Y43637D01*
X296126Y42175D01*
X295420Y40472D01*
X295180Y38645D01*
Y30645D01*
X295420Y28818D01*
X296126Y27115D01*
X297248Y25653D01*
X298710Y24531D01*
X300413Y23825D01*
X302240Y23585D01*
X304067Y23825D01*
X305770Y24531D01*
X307233Y25653D01*
X308355Y27115D01*
X309060Y28818D01*
X309301Y30645D01*
Y38645D01*
X309060Y40472D01*
X308355Y42175D01*
X307233Y43637D01*
X305770Y44759D01*
X304067Y45465D01*
X302240Y45705D01*
D02*
G37*
G36*
X95250Y22706D02*
Y16510D01*
X101446D01*
X101006Y18150D01*
X100014Y19870D01*
X98610Y21274D01*
X96890Y22266D01*
X95250Y22706D01*
D02*
G37*
G36*
X92710D02*
X91070Y22266D01*
X89350Y21274D01*
X87947Y19870D01*
X86954Y18150D01*
X86514Y16510D01*
X92710D01*
Y22706D01*
D02*
G37*
G36*
X101446Y13970D02*
X95250D01*
Y7774D01*
X96890Y8214D01*
X98610Y9207D01*
X100014Y10610D01*
X101006Y12330D01*
X101446Y13970D01*
D02*
G37*
G36*
X92710D02*
X86514D01*
X86954Y12330D01*
X87947Y10610D01*
X89350Y9207D01*
X91070Y8214D01*
X92710Y7774D01*
Y13970D01*
D02*
G37*
%LPD*%
D63*
X192337Y250190D02*
D03*
D64*
X166937D02*
D03*
X141537D02*
D03*
X116137D02*
D03*
D73*
X163690Y60870D02*
D03*
D88*
X294640Y290830D02*
D03*
X106680Y179070D02*
D03*
X373380Y57150D02*
D03*
X195580Y88900D02*
D03*
Y7620D02*
D03*
X153670Y74930D02*
D03*
X177800Y62160D02*
D03*
X200660Y135890D02*
D03*
X358140Y215900D02*
D03*
X76200Y76200D02*
D03*
X101600Y119380D02*
D03*
X100330Y132080D02*
D03*
X328930Y233680D02*
D03*
X151130Y194310D02*
D03*
X339090Y54610D02*
D03*
X353060Y62230D02*
D03*
X321310Y50800D02*
D03*
X360680Y52070D02*
D03*
D89*
X148590Y167640D02*
D03*
X181610Y53340D02*
D03*
X139850Y133436D02*
D03*
X132350Y125936D02*
D03*
Y110936D02*
D03*
X147350D02*
D03*
X139850Y103436D02*
D03*
X154850D02*
D03*
X162350Y110936D02*
D03*
Y125936D02*
D03*
X147350D02*
D03*
X154850Y133436D02*
D03*
Y118436D02*
D03*
X139850D02*
D03*
X77123Y185576D02*
D03*
X304800Y97790D02*
D03*
X153030Y62660D02*
D03*
X313690Y195580D02*
D03*
X198120Y54610D02*
D03*
X292100Y104140D02*
D03*
X182880Y86360D02*
D03*
X281940Y111760D02*
D03*
D90*
X113030Y85090D02*
D03*
X74930Y107950D02*
D03*
X146050Y134620D02*
D03*
X152400Y128270D02*
D03*
X153670Y111760D02*
D03*
X148590Y92710D02*
D03*
X140970Y160020D02*
D03*
X280670Y85090D02*
D03*
X179070Y78740D02*
D03*
X311150Y237490D02*
D03*
X247650Y114300D02*
D03*
X198120Y113436D02*
D03*
X96440Y88900D02*
D03*
X86360Y71120D02*
D03*
X153670Y54610D02*
D03*
X138264Y93936D02*
D03*
X173990Y100330D02*
D03*
X163830Y163830D02*
D03*
X134620Y52070D02*
D03*
X114300Y152400D02*
D03*
D91*
X93980Y15240D02*
D03*
X218440Y175260D02*
D03*
X269240Y140970D02*
D03*
X340360Y135890D02*
D03*
D92*
X388640Y34645D02*
D03*
X302240D02*
D03*
D93*
X374340Y71445D02*
D03*
X316540D02*
D03*
D94*
X302240Y76445D02*
D03*
X388640D02*
D03*
D95*
X196850Y147320D02*
D03*
M02*
