G04*
G04 #@! TF.GenerationSoftware,Altium Limited,Altium Designer,23.9.2 (47)*
G04*
G04 Layer_Color=32768*
%FSLAX44Y44*%
%MOMM*%
G71*
G04*
G04 #@! TF.SameCoordinates,2E1E75F7-3D1D-466E-99F7-38A65D3F2882*
G04*
G04*
G04 #@! TF.FilePolarity,Positive*
G04*
G01*
G75*
%ADD97C,0.1000*%
%ADD100C,0.0500*%
D97*
X698750Y280500D02*
Y290500D01*
X693750Y285501D02*
X703750D01*
X504000Y375650D02*
Y382150D01*
X500750Y378900D02*
X507250D01*
X483650Y331000D02*
X490150D01*
X486900Y327750D02*
Y334250D01*
X558950Y482000D02*
Y507500D01*
X601050Y482000D02*
Y507500D01*
X558950D02*
X601050D01*
X558950Y482000D02*
X601050D01*
X575000Y495000D02*
X585000D01*
X580000Y490000D02*
Y500000D01*
X566000Y419000D02*
X576000D01*
X571000Y414000D02*
Y424000D01*
X507000Y284250D02*
Y289750D01*
X504250Y287000D02*
X509750D01*
D100*
X678000Y268500D02*
X719500D01*
X678000Y302500D02*
X719500D01*
Y268500D02*
Y302500D01*
X678000Y268500D02*
Y302500D01*
X499500Y370900D02*
X508500D01*
X499500Y386900D02*
X508500D01*
X499500Y370900D02*
Y386900D01*
X508500Y370900D02*
Y386900D01*
X478900Y326500D02*
Y335500D01*
X494900Y326500D02*
Y335500D01*
X478900D02*
X494900D01*
X478900Y326500D02*
X494900D01*
X438000Y338000D02*
Y420000D01*
X356000Y338000D02*
Y420000D01*
X438000D01*
X356000Y338000D02*
X438000D01*
X833450Y274000D02*
Y308000D01*
X794550Y274000D02*
Y308000D01*
X833450D01*
X794550Y274000D02*
X833450D01*
X534000Y392000D02*
Y446000D01*
X608000Y392000D02*
Y446000D01*
X534000D02*
X608000D01*
X534000Y392000D02*
X608000D01*
X501500Y276500D02*
X512500D01*
X501500Y297500D02*
X512500D01*
X501500Y276500D02*
Y297500D01*
X512500Y276500D02*
Y297500D01*
M02*
