G04*
G04 #@! TF.GenerationSoftware,Altium Limited,Altium Designer,23.9.2 (47)*
G04*
G04 Layer_Physical_Order=2*
G04 Layer_Color=16440176*
%FSLAX44Y44*%
%MOMM*%
G71*
G04*
G04 #@! TF.SameCoordinates,2E1E75F7-3D1D-466E-99F7-38A65D3F2882*
G04*
G04*
G04 #@! TF.FilePolarity,Positive*
G04*
G01*
G75*
%ADD15C,0.2540*%
%ADD65C,1.3500*%
%ADD66R,1.3500X1.3500*%
%ADD70C,0.3500*%
%ADD84C,0.2100*%
%ADD86O,2.1000X1.0000*%
%ADD87C,0.6500*%
%ADD88O,1.8000X1.0000*%
%ADD89C,0.5000*%
%ADD90C,0.3000*%
%ADD91C,0.6000*%
%ADD92C,1.2700*%
%ADD93C,0.2096*%
%ADD94C,0.3810*%
D15*
X530000Y319000D02*
X558000D01*
X566000Y327000D01*
Y357000D01*
X472000Y362000D02*
X487000D01*
X530000Y319000D01*
X667193Y444263D02*
X680000Y431456D01*
Y387000D02*
Y431456D01*
X661000Y368000D02*
X680000Y387000D01*
X647000Y368000D02*
X661000D01*
X636000Y379000D02*
X647000Y368000D01*
X573000Y379000D02*
X636000D01*
X560000Y366000D02*
X573000Y379000D01*
X560000Y352000D02*
Y366000D01*
X558000Y350000D02*
X560000Y352000D01*
X524000Y350000D02*
X558000D01*
X505000Y369000D02*
X524000Y350000D01*
X469000Y369000D02*
X505000D01*
X465000Y365000D02*
X469000Y369000D01*
X461000Y365000D02*
X465000D01*
X696000Y439000D02*
Y458000D01*
X691000Y434000D02*
X696000Y439000D01*
X691000Y387000D02*
Y434000D01*
X662000Y358000D02*
X691000Y387000D01*
X567000Y358000D02*
X662000D01*
X566000Y357000D02*
X567000Y358000D01*
X306000Y494000D02*
X324000Y476000D01*
Y383000D02*
Y476000D01*
X466455Y527455D02*
X654000D01*
X444000Y505000D02*
X466455Y527455D01*
X444000Y486000D02*
Y505000D01*
X423000Y465000D02*
X444000Y486000D01*
X423000Y369000D02*
Y465000D01*
X374000Y313000D02*
X406000Y281000D01*
X374000Y313000D02*
Y348500D01*
X326000Y381000D02*
X345000D01*
X324000Y383000D02*
X326000Y381000D01*
X306000Y494000D02*
Y558000D01*
X366000Y618000D02*
X456000D01*
X481000Y593000D01*
X578000D01*
X589000Y604000D01*
X700000D01*
X710000Y594000D01*
X781000D01*
X715000Y371000D02*
X767000D01*
X770000Y368000D01*
Y348000D02*
Y368000D01*
Y348000D02*
X785000Y333000D01*
X803000D01*
X728000Y447000D02*
X733000Y442000D01*
Y397000D02*
Y442000D01*
X715000Y379000D02*
X733000Y397000D01*
X715000Y371000D02*
Y379000D01*
D65*
X447000Y598000D02*
D03*
X421600D02*
D03*
X396200D02*
D03*
D66*
X370800D02*
D03*
D70*
X810900Y354600D02*
D03*
D84*
X306000Y558000D02*
X366000Y618000D01*
D86*
X908975Y366200D02*
D03*
Y279800D02*
D03*
D87*
X913975Y294100D02*
D03*
Y351900D02*
D03*
D88*
X950775Y279800D02*
D03*
Y366200D02*
D03*
D89*
X389500Y394000D02*
D03*
X382000Y386500D02*
D03*
Y371500D02*
D03*
X397000D02*
D03*
X389500Y364000D02*
D03*
X404500D02*
D03*
X412000Y371500D02*
D03*
Y386500D02*
D03*
X397000D02*
D03*
X404500Y394000D02*
D03*
Y379000D02*
D03*
X389500D02*
D03*
D90*
X534000Y358000D02*
D03*
X816000Y291000D02*
D03*
X808000Y291000D02*
D03*
D91*
X549000Y368000D02*
D03*
X396808Y362314D02*
D03*
X602148Y497500D02*
D03*
X817118Y617250D02*
D03*
X580744Y438050D02*
D03*
X721516Y276000D02*
D03*
X672000Y309000D02*
D03*
X666000Y275000D02*
D03*
X455000Y405000D02*
D03*
X456000Y379000D02*
D03*
X696000Y458000D02*
D03*
X472000Y362000D02*
D03*
X448000Y367000D02*
D03*
X461000Y365000D02*
D03*
X334000Y419000D02*
D03*
X423000Y369000D02*
D03*
X437000Y330000D02*
D03*
X380000Y435000D02*
D03*
X406000Y353000D02*
D03*
X579680Y346000D02*
D03*
X367000Y437000D02*
D03*
X401000Y311000D02*
D03*
X729000Y351000D02*
D03*
X392000Y433000D02*
D03*
X417000Y319000D02*
D03*
Y332000D02*
D03*
X468000Y304000D02*
D03*
X781000Y594000D02*
D03*
X345000Y381000D02*
D03*
Y393000D02*
D03*
X561000Y614000D02*
D03*
X803000Y333000D02*
D03*
X728000Y447000D02*
D03*
X715000Y371000D02*
D03*
X787000Y356000D02*
D03*
X433000Y268000D02*
D03*
X406000Y281000D02*
D03*
X376000Y267000D02*
D03*
X332000Y404000D02*
D03*
X515930Y282250D02*
D03*
X533680Y300000D02*
D03*
X473807Y395381D02*
D03*
X485648Y469392D02*
D03*
X753000Y283215D02*
D03*
Y342392D02*
D03*
X657754Y547730D02*
D03*
X802374Y403110D02*
D03*
X518263Y391092D02*
D03*
X830000Y333000D02*
D03*
X800736Y475488D02*
D03*
X844000Y485944D02*
D03*
Y386200D02*
D03*
X615294Y547730D02*
D03*
X609854Y425350D02*
D03*
X532230Y438050D02*
D03*
X547570Y507580D02*
D03*
X658368Y381737D02*
D03*
X518192Y427737D02*
D03*
X667193Y444263D02*
D03*
X674320Y484375D02*
D03*
X654000Y527455D02*
D03*
X883000Y287000D02*
D03*
X839000Y271000D02*
D03*
X649000Y452304D02*
D03*
X548894Y492252D02*
D03*
X563826Y444246D02*
D03*
X650000D02*
D03*
X605076Y452374D02*
D03*
X538480Y484378D02*
D03*
X475488Y428752D02*
D03*
X454406Y461786D02*
D03*
X533527Y280035D02*
D03*
X579628Y300000D02*
D03*
X604774Y351282D02*
D03*
X422148Y355600D02*
D03*
X781812Y471424D02*
D03*
X777608Y485000D02*
D03*
X504290Y399950D02*
D03*
X765000Y319484D02*
D03*
X890016Y502666D02*
D03*
X913130Y340614D02*
D03*
X636524Y517398D02*
D03*
X609770Y399950D02*
D03*
X608198Y487426D02*
D03*
X532230Y412650D02*
D03*
X816864Y388620D02*
D03*
X779331Y563000D02*
D03*
X917000Y302000D02*
D03*
D92*
X817000Y639000D02*
D03*
D93*
X518263Y391092D02*
X525908D01*
X549000Y368000D01*
X392452Y358452D02*
X396314Y362314D01*
X396808D01*
X380989Y362989D02*
X382725D01*
X383952Y361702D02*
X387202Y358452D01*
X374000Y356000D02*
X380989Y362989D01*
X382725D02*
X383952Y361761D01*
Y361702D02*
Y361761D01*
X387202Y358452D02*
X392452D01*
X374000Y348500D02*
Y356000D01*
X673000Y311000D02*
X721608D01*
X666000Y304000D02*
X673000Y311000D01*
X721608D02*
X753000Y342392D01*
X666000Y275000D02*
Y304000D01*
X533527Y280035D02*
X604774Y351282D01*
X753000Y283215D02*
Y342392D01*
X563826Y444246D02*
X650000D01*
X476998Y484378D02*
X538480D01*
X454406Y461786D02*
X476998Y484378D01*
D94*
X417419Y332419D02*
X419505D01*
X417000Y332000D02*
X417419Y332419D01*
X419505D02*
X438404Y351318D01*
Y406146D01*
X501603Y469345D01*
X761953D01*
X777608Y485000D01*
M02*
