G04*
G04 #@! TF.GenerationSoftware,Altium Limited,Altium Designer,23.9.2 (47)*
G04*
G04 Layer_Color=32896*
%FSLAX44Y44*%
%MOMM*%
G71*
G04*
G04 #@! TF.SameCoordinates,250A9CB9-7403-4FF4-BB43-A60BEB693519*
G04*
G04*
G04 #@! TF.FilePolarity,Positive*
G04*
G01*
G75*
%ADD11C,0.2000*%
G36*
X170854Y143585D02*
X171029Y143575D01*
X171351Y143507D01*
X171497Y143468D01*
X171644Y143419D01*
X171771Y143371D01*
X171888Y143322D01*
X171995Y143273D01*
X172083Y143224D01*
X172161Y143176D01*
X172229Y143137D01*
X172288Y143098D01*
X172327Y143068D01*
X172346Y143059D01*
X172356Y143049D01*
X172483Y142942D01*
X172600Y142824D01*
X172795Y142571D01*
X172970Y142308D01*
X173097Y142044D01*
X173156Y141927D01*
X173195Y141820D01*
X173234Y141713D01*
X173273Y141635D01*
X173292Y141557D01*
X173312Y141508D01*
X173321Y141469D01*
Y141459D01*
X172473Y141244D01*
X172395Y141527D01*
X172297Y141781D01*
X172180Y141986D01*
X172073Y142161D01*
X171966Y142288D01*
X171878Y142386D01*
X171819Y142444D01*
X171810Y142454D01*
X171800Y142464D01*
X171605Y142600D01*
X171410Y142698D01*
X171205Y142776D01*
X171020Y142824D01*
X170854Y142854D01*
X170776Y142864D01*
X170717D01*
X170669Y142873D01*
X170600D01*
X170386Y142864D01*
X170181Y142824D01*
X169995Y142776D01*
X169839Y142727D01*
X169703Y142668D01*
X169596Y142629D01*
X169557Y142610D01*
X169527Y142590D01*
X169518Y142581D01*
X169508D01*
X169332Y142454D01*
X169186Y142308D01*
X169059Y142161D01*
X168952Y142005D01*
X168874Y141878D01*
X168825Y141761D01*
X168806Y141722D01*
X168786Y141693D01*
X168776Y141673D01*
Y141664D01*
X168698Y141430D01*
X168640Y141186D01*
X168601Y140942D01*
X168571Y140718D01*
X168562Y140620D01*
X168552Y140532D01*
Y140445D01*
X168542Y140376D01*
Y140318D01*
Y140279D01*
Y140250D01*
Y140240D01*
X168552Y140006D01*
X168571Y139781D01*
X168601Y139577D01*
X168640Y139391D01*
X168679Y139235D01*
X168689Y139167D01*
X168708Y139118D01*
X168718Y139069D01*
X168727Y139040D01*
X168737Y139021D01*
Y139011D01*
X168825Y138796D01*
X168932Y138601D01*
X169049Y138445D01*
X169157Y138308D01*
X169264Y138201D01*
X169352Y138123D01*
X169410Y138075D01*
X169420Y138055D01*
X169430D01*
X169625Y137938D01*
X169830Y137850D01*
X170035Y137782D01*
X170230Y137743D01*
X170405Y137714D01*
X170473Y137704D01*
X170542D01*
X170590Y137694D01*
X170659D01*
X170893Y137704D01*
X171098Y137743D01*
X171283Y137792D01*
X171429Y137850D01*
X171556Y137918D01*
X171644Y137967D01*
X171702Y138006D01*
X171722Y138016D01*
X171878Y138153D01*
X172005Y138308D01*
X172122Y138484D01*
X172210Y138650D01*
X172278Y138796D01*
X172307Y138864D01*
X172336Y138923D01*
X172356Y138972D01*
X172366Y139011D01*
X172375Y139030D01*
Y139040D01*
X173214Y138845D01*
X173097Y138533D01*
X173029Y138387D01*
X172961Y138260D01*
X172883Y138133D01*
X172805Y138016D01*
X172736Y137918D01*
X172658Y137821D01*
X172590Y137743D01*
X172522Y137675D01*
X172453Y137606D01*
X172405Y137557D01*
X172356Y137519D01*
X172327Y137489D01*
X172307Y137479D01*
X172297Y137470D01*
X172171Y137382D01*
X172044Y137304D01*
X171907Y137236D01*
X171771Y137177D01*
X171497Y137089D01*
X171244Y137031D01*
X171127Y137011D01*
X171020Y137002D01*
X170922Y136992D01*
X170844Y136982D01*
X170776Y136972D01*
X170678D01*
X170366Y136992D01*
X170074Y137031D01*
X169810Y137099D01*
X169693Y137128D01*
X169586Y137167D01*
X169488Y137206D01*
X169391Y137236D01*
X169313Y137275D01*
X169254Y137304D01*
X169196Y137323D01*
X169157Y137343D01*
X169137Y137362D01*
X169127D01*
X168884Y137519D01*
X168659Y137704D01*
X168474Y137889D01*
X168328Y138075D01*
X168201Y138240D01*
X168152Y138308D01*
X168113Y138367D01*
X168084Y138426D01*
X168064Y138465D01*
X168045Y138484D01*
Y138494D01*
X167918Y138777D01*
X167820Y139079D01*
X167762Y139372D01*
X167713Y139645D01*
X167694Y139772D01*
X167684Y139879D01*
X167674Y139986D01*
Y140074D01*
X167664Y140142D01*
Y140191D01*
Y140230D01*
Y140240D01*
X167674Y140581D01*
X167713Y140893D01*
X167772Y141186D01*
X167801Y141322D01*
X167830Y141439D01*
X167859Y141557D01*
X167889Y141654D01*
X167918Y141742D01*
X167947Y141820D01*
X167967Y141878D01*
X167986Y141917D01*
X167996Y141947D01*
Y141956D01*
X168133Y142239D01*
X168298Y142483D01*
X168454Y142698D01*
X168620Y142864D01*
X168757Y143000D01*
X168874Y143098D01*
X168923Y143127D01*
X168952Y143156D01*
X168971Y143166D01*
X168981Y143176D01*
X169108Y143254D01*
X169244Y143312D01*
X169518Y143419D01*
X169800Y143488D01*
X170074Y143546D01*
X170191Y143556D01*
X170308Y143575D01*
X170405Y143585D01*
X170493D01*
X170571Y143595D01*
X170669D01*
X170854Y143585D01*
D02*
G37*
G36*
X181222D02*
X181388Y143566D01*
X181544Y143546D01*
X181690Y143507D01*
X181827Y143458D01*
X181953Y143410D01*
X182071Y143361D01*
X182178Y143302D01*
X182265Y143254D01*
X182353Y143205D01*
X182431Y143156D01*
X182490Y143107D01*
X182539Y143068D01*
X182568Y143049D01*
X182587Y143029D01*
X182597Y143020D01*
X182704Y142902D01*
X182802Y142785D01*
X182880Y142668D01*
X182948Y142551D01*
X183017Y142434D01*
X183065Y142308D01*
X183134Y142083D01*
X183163Y141986D01*
X183182Y141888D01*
X183192Y141810D01*
X183202Y141732D01*
X183212Y141673D01*
Y141635D01*
Y141605D01*
Y141595D01*
X183202Y141371D01*
X183163Y141166D01*
X183114Y140991D01*
X183056Y140844D01*
X182987Y140727D01*
X182938Y140640D01*
X182899Y140581D01*
X182890Y140562D01*
X182763Y140415D01*
X182617Y140298D01*
X182470Y140201D01*
X182334Y140133D01*
X182207Y140074D01*
X182110Y140045D01*
X182071Y140025D01*
X182041D01*
X182022Y140015D01*
X182012D01*
X182168Y139937D01*
X182304Y139840D01*
X182412Y139752D01*
X182509Y139664D01*
X182578Y139586D01*
X182636Y139528D01*
X182665Y139489D01*
X182675Y139469D01*
X182753Y139342D01*
X182802Y139206D01*
X182841Y139079D01*
X182870Y138962D01*
X182890Y138864D01*
X182899Y138786D01*
Y138738D01*
Y138718D01*
X182890Y138552D01*
X182861Y138406D01*
X182822Y138270D01*
X182782Y138143D01*
X182743Y138045D01*
X182704Y137967D01*
X182675Y137918D01*
X182665Y137899D01*
X182568Y137762D01*
X182461Y137635D01*
X182344Y137528D01*
X182236Y137441D01*
X182139Y137372D01*
X182061Y137323D01*
X182002Y137294D01*
X181992Y137284D01*
X181983D01*
X181817Y137206D01*
X181651Y137148D01*
X181485Y137109D01*
X181339Y137080D01*
X181212Y137060D01*
X181115Y137050D01*
X180890D01*
X180754Y137070D01*
X180510Y137119D01*
X180285Y137187D01*
X180100Y137265D01*
X179954Y137353D01*
X179895Y137392D01*
X179847Y137421D01*
X179798Y137450D01*
X179769Y137470D01*
X179759Y137479D01*
X179749Y137489D01*
X179573Y137665D01*
X179437Y137860D01*
X179320Y138065D01*
X179242Y138260D01*
X179174Y138435D01*
X179154Y138513D01*
X179135Y138582D01*
X179125Y138630D01*
X179115Y138669D01*
X179105Y138699D01*
Y138708D01*
X179895Y138845D01*
X179934Y138640D01*
X179993Y138465D01*
X180051Y138318D01*
X180120Y138201D01*
X180178Y138104D01*
X180227Y138035D01*
X180266Y137996D01*
X180276Y137987D01*
X180403Y137889D01*
X180529Y137821D01*
X180656Y137762D01*
X180783Y137733D01*
X180881Y137714D01*
X180968Y137694D01*
X181046D01*
X181212Y137704D01*
X181358Y137743D01*
X181485Y137782D01*
X181593Y137840D01*
X181680Y137889D01*
X181749Y137938D01*
X181788Y137977D01*
X181797Y137987D01*
X181895Y138094D01*
X181963Y138221D01*
X182022Y138338D01*
X182051Y138445D01*
X182071Y138552D01*
X182090Y138630D01*
Y138679D01*
Y138689D01*
Y138699D01*
X182071Y138894D01*
X182022Y139060D01*
X181963Y139196D01*
X181885Y139303D01*
X181807Y139391D01*
X181749Y139459D01*
X181700Y139499D01*
X181680Y139508D01*
X181524Y139596D01*
X181368Y139655D01*
X181222Y139703D01*
X181085Y139733D01*
X180958Y139752D01*
X180871Y139762D01*
X180744D01*
X180705Y139752D01*
X180656D01*
X180568Y140445D01*
X180685Y140415D01*
X180793Y140396D01*
X180890Y140386D01*
X180968Y140376D01*
X181037Y140366D01*
X181124D01*
X181319Y140386D01*
X181485Y140425D01*
X181641Y140474D01*
X181768Y140542D01*
X181875Y140610D01*
X181953Y140659D01*
X181992Y140698D01*
X182012Y140718D01*
X182129Y140854D01*
X182217Y141000D01*
X182285Y141157D01*
X182324Y141293D01*
X182353Y141420D01*
X182363Y141517D01*
X182373Y141557D01*
Y141586D01*
Y141595D01*
Y141605D01*
X182353Y141810D01*
X182314Y141995D01*
X182256Y142161D01*
X182188Y142298D01*
X182110Y142415D01*
X182051Y142493D01*
X182012Y142542D01*
X181992Y142561D01*
X181846Y142688D01*
X181690Y142785D01*
X181534Y142844D01*
X181378Y142893D01*
X181251Y142922D01*
X181154Y142932D01*
X181115Y142942D01*
X181056D01*
X180890Y142932D01*
X180734Y142893D01*
X180598Y142844D01*
X180490Y142795D01*
X180393Y142737D01*
X180325Y142698D01*
X180285Y142659D01*
X180266Y142649D01*
X180159Y142522D01*
X180061Y142376D01*
X179983Y142210D01*
X179925Y142054D01*
X179876Y141908D01*
X179847Y141791D01*
X179827Y141752D01*
Y141713D01*
X179817Y141693D01*
Y141683D01*
X179027Y141791D01*
X179047Y141937D01*
X179076Y142073D01*
X179164Y142327D01*
X179261Y142551D01*
X179379Y142746D01*
X179427Y142824D01*
X179486Y142893D01*
X179534Y142951D01*
X179573Y143010D01*
X179613Y143049D01*
X179642Y143078D01*
X179652Y143088D01*
X179661Y143098D01*
X179769Y143185D01*
X179886Y143263D01*
X179993Y143332D01*
X180110Y143380D01*
X180344Y143478D01*
X180568Y143537D01*
X180666Y143556D01*
X180763Y143566D01*
X180842Y143575D01*
X180919Y143585D01*
X180978Y143595D01*
X181056D01*
X181222Y143585D01*
D02*
G37*
G36*
X177008Y137050D02*
X176491D01*
X176404Y137206D01*
X176296Y137362D01*
X176179Y137509D01*
X176062Y137645D01*
X175955Y137753D01*
X175867Y137840D01*
X175809Y137899D01*
X175799Y137909D01*
X175789Y137918D01*
X175604Y138075D01*
X175409Y138221D01*
X175214Y138348D01*
X175038Y138455D01*
X174882Y138543D01*
X174814Y138572D01*
X174755Y138601D01*
X174716Y138630D01*
X174677Y138650D01*
X174658Y138660D01*
X174648D01*
Y139430D01*
X174785Y139372D01*
X174931Y139303D01*
X175067Y139245D01*
X175194Y139177D01*
X175301Y139118D01*
X175389Y139069D01*
X175448Y139030D01*
X175457Y139021D01*
X175467D01*
X175633Y138923D01*
X175779Y138816D01*
X175906Y138728D01*
X176014Y138640D01*
X176101Y138572D01*
X176169Y138523D01*
X176208Y138484D01*
X176218Y138474D01*
Y143488D01*
X177008D01*
Y137050D01*
D02*
G37*
G36*
X144618Y150113D02*
X144911Y150074D01*
X145174Y150006D01*
X145291Y149977D01*
X145399Y149937D01*
X145496Y149899D01*
X145594Y149869D01*
X145672Y149830D01*
X145730Y149801D01*
X145789Y149781D01*
X145828Y149762D01*
X145847Y149742D01*
X145857D01*
X146101Y149586D01*
X146325Y149401D01*
X146511Y149216D01*
X146657Y149030D01*
X146784Y148865D01*
X146832Y148796D01*
X146872Y148738D01*
X146901Y148679D01*
X146920Y148640D01*
X146940Y148621D01*
Y148611D01*
X147066Y148328D01*
X147164Y148026D01*
X147223Y147733D01*
X147271Y147460D01*
X147291Y147333D01*
X147301Y147226D01*
X147310Y147119D01*
Y147031D01*
X147320Y146963D01*
Y146914D01*
Y146875D01*
Y146865D01*
X147310Y146524D01*
X147271Y146212D01*
X147213Y145919D01*
X147184Y145782D01*
X147154Y145665D01*
X147125Y145548D01*
X147096Y145451D01*
X147066Y145363D01*
X147037Y145285D01*
X147018Y145226D01*
X146998Y145188D01*
X146988Y145158D01*
Y145148D01*
X146852Y144866D01*
X146686Y144622D01*
X146530Y144407D01*
X146364Y144241D01*
X146228Y144105D01*
X146111Y144007D01*
X146062Y143978D01*
X146033Y143949D01*
X146013Y143939D01*
X146003Y143929D01*
X145877Y143851D01*
X145740Y143793D01*
X145467Y143685D01*
X145184Y143617D01*
X144911Y143559D01*
X144794Y143549D01*
X144677Y143529D01*
X144579Y143520D01*
X144492D01*
X144414Y143510D01*
X144316D01*
X144131Y143520D01*
X143955Y143529D01*
X143633Y143598D01*
X143487Y143637D01*
X143341Y143685D01*
X143214Y143734D01*
X143097Y143783D01*
X142990Y143832D01*
X142902Y143881D01*
X142824Y143929D01*
X142755Y143968D01*
X142697Y144007D01*
X142658Y144037D01*
X142638Y144046D01*
X142629Y144056D01*
X142502Y144163D01*
X142385Y144280D01*
X142190Y144534D01*
X142014Y144797D01*
X141887Y145061D01*
X141829Y145178D01*
X141790Y145285D01*
X141751Y145392D01*
X141712Y145470D01*
X141692Y145548D01*
X141673Y145597D01*
X141663Y145636D01*
Y145646D01*
X142512Y145861D01*
X142590Y145578D01*
X142687Y145324D01*
X142804Y145119D01*
X142912Y144944D01*
X143019Y144817D01*
X143107Y144719D01*
X143165Y144661D01*
X143175Y144651D01*
X143185Y144641D01*
X143380Y144505D01*
X143575Y144407D01*
X143780Y144329D01*
X143965Y144280D01*
X144131Y144251D01*
X144209Y144241D01*
X144267D01*
X144316Y144232D01*
X144384D01*
X144599Y144241D01*
X144804Y144280D01*
X144989Y144329D01*
X145145Y144378D01*
X145282Y144437D01*
X145389Y144475D01*
X145428Y144495D01*
X145457Y144515D01*
X145467Y144524D01*
X145477D01*
X145652Y144651D01*
X145799Y144797D01*
X145925Y144944D01*
X146033Y145100D01*
X146111Y145226D01*
X146159Y145344D01*
X146179Y145383D01*
X146199Y145412D01*
X146208Y145431D01*
Y145441D01*
X146286Y145675D01*
X146345Y145919D01*
X146384Y146163D01*
X146413Y146387D01*
X146423Y146485D01*
X146433Y146573D01*
Y146660D01*
X146442Y146729D01*
Y146787D01*
Y146826D01*
Y146855D01*
Y146865D01*
X146433Y147099D01*
X146413Y147324D01*
X146384Y147528D01*
X146345Y147714D01*
X146306Y147870D01*
X146296Y147938D01*
X146277Y147987D01*
X146267Y148035D01*
X146257Y148065D01*
X146247Y148084D01*
Y148094D01*
X146159Y148309D01*
X146052Y148504D01*
X145935Y148660D01*
X145828Y148796D01*
X145721Y148904D01*
X145633Y148982D01*
X145574Y149030D01*
X145564Y149050D01*
X145555D01*
X145360Y149167D01*
X145155Y149255D01*
X144950Y149323D01*
X144755Y149362D01*
X144579Y149391D01*
X144511Y149401D01*
X144443D01*
X144394Y149411D01*
X144326D01*
X144092Y149401D01*
X143887Y149362D01*
X143701Y149313D01*
X143555Y149255D01*
X143428Y149186D01*
X143341Y149138D01*
X143282Y149099D01*
X143263Y149089D01*
X143107Y148952D01*
X142980Y148796D01*
X142863Y148621D01*
X142775Y148455D01*
X142707Y148309D01*
X142677Y148240D01*
X142648Y148182D01*
X142629Y148133D01*
X142619Y148094D01*
X142609Y148075D01*
Y148065D01*
X141770Y148260D01*
X141887Y148572D01*
X141956Y148718D01*
X142024Y148845D01*
X142102Y148972D01*
X142180Y149089D01*
X142248Y149186D01*
X142326Y149284D01*
X142395Y149362D01*
X142463Y149430D01*
X142531Y149499D01*
X142580Y149547D01*
X142629Y149586D01*
X142658Y149616D01*
X142677Y149625D01*
X142687Y149635D01*
X142814Y149723D01*
X142941Y149801D01*
X143077Y149869D01*
X143214Y149928D01*
X143487Y150015D01*
X143741Y150074D01*
X143858Y150094D01*
X143965Y150103D01*
X144062Y150113D01*
X144141Y150123D01*
X144209Y150133D01*
X144306D01*
X144618Y150113D01*
D02*
G37*
G36*
X140892Y149196D02*
X137752D01*
X137976Y148923D01*
X138181Y148640D01*
X138376Y148357D01*
X138552Y148094D01*
X138620Y147967D01*
X138688Y147860D01*
X138747Y147762D01*
X138795Y147675D01*
X138834Y147606D01*
X138864Y147558D01*
X138883Y147519D01*
X138893Y147509D01*
X139078Y147138D01*
X139244Y146768D01*
X139381Y146416D01*
X139439Y146251D01*
X139498Y146104D01*
X139546Y145958D01*
X139586Y145831D01*
X139625Y145724D01*
X139654Y145626D01*
X139673Y145548D01*
X139693Y145490D01*
X139703Y145451D01*
Y145441D01*
X139800Y145051D01*
X139839Y144875D01*
X139868Y144700D01*
X139898Y144544D01*
X139917Y144397D01*
X139937Y144251D01*
X139956Y144124D01*
X139966Y144017D01*
X139976Y143910D01*
X139985Y143822D01*
Y143754D01*
X139995Y143695D01*
Y143656D01*
Y143627D01*
Y143617D01*
X139186D01*
X139156Y143968D01*
X139117Y144300D01*
X139069Y144593D01*
X139039Y144729D01*
X139020Y144856D01*
X138991Y144963D01*
X138971Y145070D01*
X138952Y145158D01*
X138932Y145236D01*
X138912Y145295D01*
X138903Y145334D01*
X138893Y145363D01*
Y145373D01*
X138757Y145802D01*
X138610Y146202D01*
X138532Y146397D01*
X138454Y146582D01*
X138376Y146758D01*
X138308Y146914D01*
X138239Y147060D01*
X138171Y147197D01*
X138113Y147314D01*
X138064Y147411D01*
X138025Y147489D01*
X137996Y147548D01*
X137976Y147587D01*
X137966Y147597D01*
X137849Y147792D01*
X137742Y147987D01*
X137625Y148162D01*
X137518Y148328D01*
X137420Y148484D01*
X137313Y148621D01*
X137215Y148757D01*
X137128Y148874D01*
X137050Y148972D01*
X136972Y149069D01*
X136903Y149148D01*
X136854Y149216D01*
X136806Y149264D01*
X136777Y149304D01*
X136757Y149323D01*
X136747Y149333D01*
Y149947D01*
X140892D01*
Y149196D01*
D02*
G37*
G36*
X155715Y113205D02*
X155959Y113156D01*
X156183Y113088D01*
X156369Y113010D01*
X156515Y112922D01*
X156573Y112883D01*
X156622Y112854D01*
X156671Y112825D01*
X156700Y112805D01*
X156710Y112795D01*
X156720Y112786D01*
X156895Y112610D01*
X157032Y112415D01*
X157149Y112210D01*
X157227Y112015D01*
X157295Y111840D01*
X157315Y111762D01*
X157334Y111693D01*
X157344Y111644D01*
X157354Y111605D01*
X157364Y111576D01*
Y111566D01*
X156573Y111430D01*
X156534Y111635D01*
X156476Y111810D01*
X156417Y111957D01*
X156349Y112074D01*
X156291Y112171D01*
X156242Y112239D01*
X156203Y112278D01*
X156193Y112288D01*
X156066Y112386D01*
X155940Y112454D01*
X155813Y112513D01*
X155686Y112542D01*
X155588Y112561D01*
X155501Y112581D01*
X155422D01*
X155257Y112571D01*
X155110Y112532D01*
X154984Y112493D01*
X154876Y112435D01*
X154789Y112386D01*
X154720Y112337D01*
X154681Y112298D01*
X154671Y112288D01*
X154574Y112181D01*
X154506Y112054D01*
X154447Y111937D01*
X154418Y111830D01*
X154398Y111722D01*
X154379Y111644D01*
Y111596D01*
Y111586D01*
Y111576D01*
X154398Y111381D01*
X154447Y111215D01*
X154506Y111079D01*
X154584Y110971D01*
X154662Y110884D01*
X154720Y110815D01*
X154769Y110776D01*
X154789Y110767D01*
X154945Y110679D01*
X155101Y110620D01*
X155247Y110572D01*
X155384Y110542D01*
X155510Y110523D01*
X155598Y110513D01*
X155725D01*
X155764Y110523D01*
X155813D01*
X155900Y109830D01*
X155783Y109860D01*
X155676Y109879D01*
X155579Y109889D01*
X155501Y109899D01*
X155432Y109908D01*
X155344D01*
X155149Y109889D01*
X154984Y109850D01*
X154828Y109801D01*
X154701Y109733D01*
X154593Y109664D01*
X154515Y109616D01*
X154476Y109577D01*
X154457Y109557D01*
X154340Y109421D01*
X154252Y109274D01*
X154184Y109118D01*
X154145Y108982D01*
X154115Y108855D01*
X154106Y108757D01*
X154096Y108718D01*
Y108689D01*
Y108679D01*
Y108670D01*
X154115Y108465D01*
X154155Y108279D01*
X154213Y108114D01*
X154281Y107977D01*
X154359Y107860D01*
X154418Y107782D01*
X154457Y107733D01*
X154476Y107714D01*
X154623Y107587D01*
X154779Y107489D01*
X154935Y107431D01*
X155091Y107382D01*
X155218Y107353D01*
X155315Y107343D01*
X155354Y107333D01*
X155413D01*
X155579Y107343D01*
X155735Y107382D01*
X155871Y107431D01*
X155978Y107480D01*
X156076Y107538D01*
X156144Y107577D01*
X156183Y107616D01*
X156203Y107626D01*
X156310Y107753D01*
X156408Y107899D01*
X156486Y108065D01*
X156544Y108221D01*
X156593Y108367D01*
X156622Y108484D01*
X156642Y108523D01*
Y108562D01*
X156651Y108582D01*
Y108592D01*
X157442Y108484D01*
X157422Y108338D01*
X157393Y108201D01*
X157305Y107948D01*
X157207Y107724D01*
X157090Y107528D01*
X157042Y107450D01*
X156983Y107382D01*
X156934Y107324D01*
X156895Y107265D01*
X156856Y107226D01*
X156827Y107197D01*
X156817Y107187D01*
X156807Y107177D01*
X156700Y107090D01*
X156583Y107011D01*
X156476Y106943D01*
X156359Y106895D01*
X156125Y106797D01*
X155900Y106738D01*
X155803Y106719D01*
X155705Y106709D01*
X155627Y106699D01*
X155549Y106690D01*
X155491Y106680D01*
X155413D01*
X155247Y106690D01*
X155081Y106709D01*
X154925Y106729D01*
X154779Y106768D01*
X154642Y106816D01*
X154515Y106865D01*
X154398Y106914D01*
X154291Y106973D01*
X154203Y107021D01*
X154115Y107070D01*
X154038Y107119D01*
X153979Y107168D01*
X153930Y107207D01*
X153901Y107226D01*
X153882Y107246D01*
X153872Y107255D01*
X153764Y107372D01*
X153667Y107489D01*
X153589Y107606D01*
X153521Y107724D01*
X153452Y107841D01*
X153404Y107967D01*
X153335Y108192D01*
X153306Y108289D01*
X153287Y108387D01*
X153277Y108465D01*
X153267Y108543D01*
X153257Y108601D01*
Y108640D01*
Y108670D01*
Y108679D01*
X153267Y108904D01*
X153306Y109108D01*
X153355Y109284D01*
X153413Y109430D01*
X153482Y109547D01*
X153530Y109635D01*
X153569Y109694D01*
X153579Y109713D01*
X153706Y109860D01*
X153852Y109977D01*
X153998Y110074D01*
X154135Y110142D01*
X154262Y110201D01*
X154359Y110230D01*
X154398Y110250D01*
X154428D01*
X154447Y110259D01*
X154457D01*
X154301Y110337D01*
X154164Y110435D01*
X154057Y110523D01*
X153960Y110611D01*
X153891Y110689D01*
X153833Y110747D01*
X153803Y110786D01*
X153794Y110806D01*
X153716Y110932D01*
X153667Y111069D01*
X153628Y111196D01*
X153599Y111313D01*
X153579Y111410D01*
X153569Y111488D01*
Y111537D01*
Y111557D01*
X153579Y111722D01*
X153608Y111869D01*
X153647Y112005D01*
X153686Y112132D01*
X153725Y112230D01*
X153764Y112308D01*
X153794Y112357D01*
X153803Y112376D01*
X153901Y112513D01*
X154008Y112639D01*
X154125Y112747D01*
X154233Y112834D01*
X154330Y112903D01*
X154408Y112951D01*
X154467Y112981D01*
X154476Y112991D01*
X154486D01*
X154652Y113069D01*
X154818Y113127D01*
X154984Y113166D01*
X155130Y113195D01*
X155257Y113215D01*
X155354Y113224D01*
X155579D01*
X155715Y113205D01*
D02*
G37*
G36*
X161128Y113283D02*
X161421Y113244D01*
X161684Y113176D01*
X161801Y113146D01*
X161909Y113108D01*
X162006Y113069D01*
X162104Y113039D01*
X162182Y113000D01*
X162240Y112971D01*
X162299Y112951D01*
X162338Y112932D01*
X162357Y112912D01*
X162367D01*
X162611Y112756D01*
X162835Y112571D01*
X163021Y112386D01*
X163167Y112200D01*
X163294Y112035D01*
X163342Y111966D01*
X163382Y111908D01*
X163411Y111849D01*
X163430Y111810D01*
X163450Y111791D01*
Y111781D01*
X163577Y111498D01*
X163674Y111196D01*
X163733Y110903D01*
X163781Y110630D01*
X163801Y110503D01*
X163811Y110396D01*
X163820Y110289D01*
Y110201D01*
X163830Y110133D01*
Y110084D01*
Y110045D01*
Y110035D01*
X163820Y109694D01*
X163781Y109382D01*
X163723Y109089D01*
X163694Y108953D01*
X163664Y108835D01*
X163635Y108718D01*
X163606Y108621D01*
X163577Y108533D01*
X163547Y108455D01*
X163528Y108397D01*
X163508Y108357D01*
X163498Y108328D01*
Y108319D01*
X163362Y108036D01*
X163196Y107792D01*
X163040Y107577D01*
X162874Y107411D01*
X162738Y107275D01*
X162621Y107177D01*
X162572Y107148D01*
X162543Y107119D01*
X162523Y107109D01*
X162513Y107099D01*
X162387Y107021D01*
X162250Y106963D01*
X161977Y106855D01*
X161694Y106787D01*
X161421Y106729D01*
X161304Y106719D01*
X161187Y106699D01*
X161089Y106690D01*
X161002D01*
X160924Y106680D01*
X160826D01*
X160641Y106690D01*
X160465Y106699D01*
X160143Y106768D01*
X159997Y106807D01*
X159851Y106855D01*
X159724Y106904D01*
X159607Y106953D01*
X159500Y107002D01*
X159412Y107051D01*
X159334Y107099D01*
X159265Y107138D01*
X159207Y107177D01*
X159168Y107207D01*
X159148Y107216D01*
X159139Y107226D01*
X159012Y107333D01*
X158895Y107450D01*
X158700Y107704D01*
X158524Y107967D01*
X158397Y108231D01*
X158339Y108348D01*
X158300Y108455D01*
X158261Y108562D01*
X158222Y108640D01*
X158202Y108718D01*
X158183Y108767D01*
X158173Y108806D01*
Y108816D01*
X159022Y109031D01*
X159100Y108748D01*
X159197Y108494D01*
X159314Y108289D01*
X159422Y108114D01*
X159529Y107987D01*
X159617Y107889D01*
X159675Y107831D01*
X159685Y107821D01*
X159695Y107811D01*
X159890Y107675D01*
X160085Y107577D01*
X160290Y107499D01*
X160475Y107450D01*
X160641Y107421D01*
X160719Y107411D01*
X160777D01*
X160826Y107402D01*
X160894D01*
X161109Y107411D01*
X161314Y107450D01*
X161499Y107499D01*
X161655Y107548D01*
X161792Y107606D01*
X161899Y107646D01*
X161938Y107665D01*
X161967Y107684D01*
X161977Y107694D01*
X161987D01*
X162162Y107821D01*
X162309Y107967D01*
X162435Y108114D01*
X162543Y108270D01*
X162621Y108397D01*
X162669Y108513D01*
X162689Y108553D01*
X162708Y108582D01*
X162718Y108601D01*
Y108611D01*
X162796Y108845D01*
X162855Y109089D01*
X162894Y109333D01*
X162923Y109557D01*
X162933Y109655D01*
X162943Y109742D01*
Y109830D01*
X162952Y109899D01*
Y109957D01*
Y109996D01*
Y110025D01*
Y110035D01*
X162943Y110269D01*
X162923Y110493D01*
X162894Y110698D01*
X162855Y110884D01*
X162816Y111040D01*
X162806Y111108D01*
X162787Y111157D01*
X162777Y111206D01*
X162767Y111235D01*
X162757Y111254D01*
Y111264D01*
X162669Y111479D01*
X162562Y111674D01*
X162445Y111830D01*
X162338Y111966D01*
X162230Y112074D01*
X162143Y112152D01*
X162084Y112200D01*
X162075Y112220D01*
X162065D01*
X161870Y112337D01*
X161665Y112425D01*
X161460Y112493D01*
X161265Y112532D01*
X161089Y112561D01*
X161021Y112571D01*
X160953D01*
X160904Y112581D01*
X160836D01*
X160602Y112571D01*
X160397Y112532D01*
X160212Y112483D01*
X160065Y112425D01*
X159938Y112357D01*
X159851Y112308D01*
X159792Y112269D01*
X159773Y112259D01*
X159617Y112122D01*
X159490Y111966D01*
X159373Y111791D01*
X159285Y111625D01*
X159217Y111479D01*
X159187Y111410D01*
X159158Y111352D01*
X159139Y111303D01*
X159129Y111264D01*
X159119Y111245D01*
Y111235D01*
X158280Y111430D01*
X158397Y111742D01*
X158466Y111888D01*
X158534Y112015D01*
X158612Y112142D01*
X158690Y112259D01*
X158758Y112357D01*
X158836Y112454D01*
X158905Y112532D01*
X158973Y112600D01*
X159041Y112669D01*
X159090Y112717D01*
X159139Y112756D01*
X159168Y112786D01*
X159187Y112795D01*
X159197Y112805D01*
X159324Y112893D01*
X159451Y112971D01*
X159587Y113039D01*
X159724Y113098D01*
X159997Y113186D01*
X160251Y113244D01*
X160368Y113264D01*
X160475Y113273D01*
X160572Y113283D01*
X160651Y113293D01*
X160719Y113303D01*
X160816D01*
X161128Y113283D01*
D02*
G37*
G36*
X156644Y130995D02*
X156819Y130975D01*
X156985Y130936D01*
X157141Y130887D01*
X157288Y130829D01*
X157414Y130771D01*
X157541Y130702D01*
X157648Y130634D01*
X157746Y130566D01*
X157834Y130497D01*
X157902Y130439D01*
X157970Y130380D01*
X158019Y130331D01*
X158048Y130293D01*
X158068Y130273D01*
X158077Y130263D01*
X158195Y130098D01*
X158302Y129902D01*
X158390Y129707D01*
X158468Y129483D01*
X158536Y129268D01*
X158595Y129044D01*
X158643Y128820D01*
X158673Y128595D01*
X158702Y128391D01*
X158721Y128195D01*
X158741Y128020D01*
X158750Y127864D01*
X158760Y127737D01*
Y127640D01*
Y127610D01*
Y127581D01*
Y127571D01*
Y127562D01*
X158750Y127259D01*
X158731Y126986D01*
X158702Y126723D01*
X158663Y126489D01*
X158614Y126274D01*
X158565Y126079D01*
X158507Y125903D01*
X158448Y125747D01*
X158399Y125611D01*
X158341Y125494D01*
X158292Y125396D01*
X158243Y125318D01*
X158204Y125260D01*
X158175Y125221D01*
X158156Y125191D01*
X158146Y125182D01*
X158029Y125055D01*
X157902Y124948D01*
X157765Y124850D01*
X157629Y124762D01*
X157492Y124694D01*
X157366Y124635D01*
X157229Y124587D01*
X157102Y124548D01*
X156985Y124518D01*
X156878Y124499D01*
X156780Y124479D01*
X156702Y124470D01*
X156634D01*
X156575Y124460D01*
X156537D01*
X156332Y124470D01*
X156137Y124499D01*
X155961Y124548D01*
X155805Y124596D01*
X155688Y124645D01*
X155590Y124694D01*
X155532Y124723D01*
X155512Y124733D01*
X155346Y124850D01*
X155210Y124977D01*
X155083Y125104D01*
X154976Y125230D01*
X154898Y125347D01*
X154839Y125435D01*
X154820Y125474D01*
X154800Y125504D01*
X154791Y125513D01*
Y125523D01*
X154703Y125718D01*
X154635Y125913D01*
X154595Y126108D01*
X154557Y126274D01*
X154537Y126430D01*
Y126489D01*
X154527Y126547D01*
Y126586D01*
Y126615D01*
Y126635D01*
Y126645D01*
X154537Y126811D01*
X154547Y126976D01*
X154576Y127123D01*
X154615Y127269D01*
X154654Y127396D01*
X154703Y127522D01*
X154752Y127630D01*
X154800Y127737D01*
X154859Y127825D01*
X154908Y127903D01*
X154956Y127971D01*
X154995Y128030D01*
X155034Y128078D01*
X155064Y128108D01*
X155073Y128127D01*
X155083Y128137D01*
X155190Y128244D01*
X155298Y128332D01*
X155415Y128410D01*
X155532Y128478D01*
X155639Y128537D01*
X155756Y128576D01*
X155961Y128654D01*
X156146Y128693D01*
X156224Y128703D01*
X156293Y128712D01*
X156351Y128722D01*
X156429D01*
X156595Y128712D01*
X156751Y128693D01*
X156897Y128654D01*
X157024Y128615D01*
X157131Y128576D01*
X157219Y128537D01*
X157268Y128517D01*
X157288Y128508D01*
X157434Y128420D01*
X157570Y128322D01*
X157687Y128215D01*
X157785Y128108D01*
X157873Y128010D01*
X157931Y127932D01*
X157970Y127883D01*
X157980Y127874D01*
Y128039D01*
X157970Y128205D01*
X157961Y128361D01*
X157951Y128508D01*
X157931Y128634D01*
X157912Y128761D01*
X157892Y128869D01*
X157873Y128966D01*
X157853Y129054D01*
X157834Y129132D01*
X157814Y129200D01*
X157795Y129249D01*
X157785Y129288D01*
X157775Y129327D01*
X157765Y129337D01*
Y129346D01*
X157678Y129532D01*
X157580Y129698D01*
X157483Y129834D01*
X157385Y129941D01*
X157307Y130029D01*
X157239Y130098D01*
X157200Y130136D01*
X157180Y130146D01*
X157063Y130215D01*
X156956Y130273D01*
X156839Y130312D01*
X156732Y130331D01*
X156644Y130351D01*
X156575Y130361D01*
X156507D01*
X156341Y130351D01*
X156185Y130312D01*
X156049Y130253D01*
X155932Y130195D01*
X155844Y130127D01*
X155776Y130078D01*
X155727Y130039D01*
X155717Y130019D01*
X155649Y129932D01*
X155590Y129834D01*
X155493Y129610D01*
X155464Y129512D01*
X155434Y129434D01*
X155415Y129376D01*
Y129366D01*
Y129356D01*
X154635Y129415D01*
X154683Y129678D01*
X154771Y129912D01*
X154859Y130107D01*
X154966Y130273D01*
X155064Y130400D01*
X155142Y130497D01*
X155200Y130556D01*
X155210Y130575D01*
X155220D01*
X155317Y130653D01*
X155415Y130722D01*
X155620Y130819D01*
X155824Y130897D01*
X156019Y130956D01*
X156195Y130985D01*
X156273Y130995D01*
X156332D01*
X156390Y131004D01*
X156458D01*
X156644Y130995D01*
D02*
G37*
G36*
X162398Y131063D02*
X162691Y131024D01*
X162954Y130956D01*
X163071Y130927D01*
X163179Y130887D01*
X163276Y130849D01*
X163374Y130819D01*
X163452Y130780D01*
X163510Y130751D01*
X163569Y130731D01*
X163608Y130712D01*
X163627Y130692D01*
X163637D01*
X163881Y130536D01*
X164105Y130351D01*
X164291Y130166D01*
X164437Y129980D01*
X164564Y129815D01*
X164612Y129746D01*
X164652Y129688D01*
X164681Y129629D01*
X164700Y129590D01*
X164720Y129571D01*
Y129561D01*
X164846Y129278D01*
X164944Y128976D01*
X165003Y128683D01*
X165051Y128410D01*
X165071Y128283D01*
X165081Y128176D01*
X165090Y128069D01*
Y127981D01*
X165100Y127913D01*
Y127864D01*
Y127825D01*
Y127815D01*
X165090Y127474D01*
X165051Y127162D01*
X164993Y126869D01*
X164964Y126733D01*
X164934Y126615D01*
X164905Y126498D01*
X164876Y126401D01*
X164846Y126313D01*
X164817Y126235D01*
X164798Y126177D01*
X164778Y126138D01*
X164769Y126108D01*
Y126098D01*
X164632Y125816D01*
X164466Y125572D01*
X164310Y125357D01*
X164144Y125191D01*
X164008Y125055D01*
X163891Y124957D01*
X163842Y124928D01*
X163813Y124899D01*
X163793Y124889D01*
X163783Y124879D01*
X163657Y124801D01*
X163520Y124743D01*
X163247Y124635D01*
X162964Y124567D01*
X162691Y124509D01*
X162574Y124499D01*
X162457Y124479D01*
X162359Y124470D01*
X162272D01*
X162194Y124460D01*
X162096D01*
X161911Y124470D01*
X161735Y124479D01*
X161413Y124548D01*
X161267Y124587D01*
X161121Y124635D01*
X160994Y124684D01*
X160877Y124733D01*
X160770Y124782D01*
X160682Y124831D01*
X160604Y124879D01*
X160535Y124918D01*
X160477Y124957D01*
X160438Y124987D01*
X160418Y124996D01*
X160409Y125006D01*
X160282Y125113D01*
X160165Y125230D01*
X159970Y125484D01*
X159794Y125747D01*
X159667Y126011D01*
X159609Y126128D01*
X159570Y126235D01*
X159531Y126342D01*
X159492Y126420D01*
X159472Y126498D01*
X159453Y126547D01*
X159443Y126586D01*
Y126596D01*
X160292Y126811D01*
X160370Y126528D01*
X160467Y126274D01*
X160584Y126069D01*
X160692Y125894D01*
X160799Y125767D01*
X160887Y125669D01*
X160945Y125611D01*
X160955Y125601D01*
X160965Y125591D01*
X161160Y125455D01*
X161355Y125357D01*
X161560Y125279D01*
X161745Y125230D01*
X161911Y125201D01*
X161989Y125191D01*
X162047D01*
X162096Y125182D01*
X162164D01*
X162379Y125191D01*
X162584Y125230D01*
X162769Y125279D01*
X162925Y125328D01*
X163062Y125386D01*
X163169Y125426D01*
X163208Y125445D01*
X163237Y125464D01*
X163247Y125474D01*
X163257D01*
X163432Y125601D01*
X163579Y125747D01*
X163705Y125894D01*
X163813Y126050D01*
X163891Y126177D01*
X163939Y126293D01*
X163959Y126333D01*
X163979Y126362D01*
X163988Y126381D01*
Y126391D01*
X164066Y126625D01*
X164125Y126869D01*
X164164Y127113D01*
X164193Y127337D01*
X164203Y127435D01*
X164212Y127522D01*
Y127610D01*
X164222Y127679D01*
Y127737D01*
Y127776D01*
Y127805D01*
Y127815D01*
X164212Y128049D01*
X164193Y128273D01*
X164164Y128478D01*
X164125Y128664D01*
X164086Y128820D01*
X164076Y128888D01*
X164056Y128937D01*
X164047Y128986D01*
X164037Y129015D01*
X164027Y129034D01*
Y129044D01*
X163939Y129259D01*
X163832Y129454D01*
X163715Y129610D01*
X163608Y129746D01*
X163500Y129854D01*
X163413Y129932D01*
X163354Y129980D01*
X163344Y130000D01*
X163335D01*
X163140Y130117D01*
X162935Y130205D01*
X162730Y130273D01*
X162535Y130312D01*
X162359Y130341D01*
X162291Y130351D01*
X162223D01*
X162174Y130361D01*
X162106D01*
X161872Y130351D01*
X161667Y130312D01*
X161481Y130263D01*
X161335Y130205D01*
X161208Y130136D01*
X161121Y130088D01*
X161062Y130049D01*
X161043Y130039D01*
X160887Y129902D01*
X160760Y129746D01*
X160643Y129571D01*
X160555Y129405D01*
X160487Y129259D01*
X160457Y129190D01*
X160428Y129132D01*
X160409Y129083D01*
X160399Y129044D01*
X160389Y129025D01*
Y129015D01*
X159550Y129210D01*
X159667Y129522D01*
X159736Y129668D01*
X159804Y129795D01*
X159882Y129922D01*
X159960Y130039D01*
X160028Y130136D01*
X160106Y130234D01*
X160175Y130312D01*
X160243Y130380D01*
X160311Y130449D01*
X160360Y130497D01*
X160409Y130536D01*
X160438Y130566D01*
X160457Y130575D01*
X160467Y130585D01*
X160594Y130673D01*
X160721Y130751D01*
X160857Y130819D01*
X160994Y130878D01*
X161267Y130965D01*
X161521Y131024D01*
X161638Y131044D01*
X161745Y131053D01*
X161842Y131063D01*
X161921Y131073D01*
X161989Y131083D01*
X162086D01*
X162398Y131063D01*
D02*
G37*
G36*
X120062Y94496D02*
X120218Y94477D01*
X120365Y94447D01*
X120501Y94418D01*
X120745Y94320D01*
X120852Y94262D01*
X120950Y94213D01*
X121047Y94155D01*
X121125Y94096D01*
X121194Y94047D01*
X121243Y94008D01*
X121291Y93969D01*
X121321Y93940D01*
X121340Y93921D01*
X121350Y93911D01*
X121447Y93794D01*
X121535Y93677D01*
X121613Y93550D01*
X121672Y93413D01*
X121730Y93287D01*
X121779Y93150D01*
X121847Y92906D01*
X121867Y92789D01*
X121886Y92682D01*
X121896Y92584D01*
X121906Y92506D01*
X121916Y92438D01*
Y92380D01*
Y92350D01*
Y92340D01*
X121906Y92165D01*
X121896Y91999D01*
X121867Y91853D01*
X121828Y91706D01*
X121789Y91570D01*
X121740Y91443D01*
X121691Y91326D01*
X121642Y91229D01*
X121594Y91131D01*
X121545Y91053D01*
X121496Y90985D01*
X121457Y90926D01*
X121418Y90878D01*
X121389Y90848D01*
X121379Y90829D01*
X121369Y90819D01*
X121262Y90721D01*
X121155Y90634D01*
X121038Y90556D01*
X120930Y90487D01*
X120813Y90429D01*
X120706Y90380D01*
X120492Y90312D01*
X120306Y90273D01*
X120228Y90263D01*
X120160Y90253D01*
X120101Y90244D01*
X120023D01*
X119848Y90253D01*
X119682Y90282D01*
X119536Y90312D01*
X119409Y90361D01*
X119302Y90400D01*
X119214Y90429D01*
X119165Y90458D01*
X119145Y90468D01*
X118999Y90565D01*
X118872Y90663D01*
X118755Y90770D01*
X118668Y90868D01*
X118590Y90946D01*
X118541Y91024D01*
X118502Y91063D01*
X118492Y91082D01*
Y91014D01*
Y90965D01*
Y90936D01*
Y90926D01*
Y90741D01*
X118511Y90565D01*
X118531Y90409D01*
X118551Y90263D01*
X118570Y90136D01*
X118590Y90039D01*
X118599Y90009D01*
Y89980D01*
X118609Y89970D01*
Y89961D01*
X118658Y89795D01*
X118707Y89649D01*
X118755Y89522D01*
X118794Y89415D01*
X118843Y89327D01*
X118872Y89258D01*
X118892Y89219D01*
X118902Y89210D01*
X118970Y89112D01*
X119048Y89024D01*
X119116Y88946D01*
X119194Y88888D01*
X119253Y88839D01*
X119302Y88800D01*
X119341Y88780D01*
X119350Y88771D01*
X119458Y88712D01*
X119565Y88673D01*
X119672Y88644D01*
X119770Y88624D01*
X119858Y88615D01*
X119926Y88605D01*
X119984D01*
X120140Y88615D01*
X120277Y88644D01*
X120394Y88683D01*
X120492Y88722D01*
X120579Y88761D01*
X120638Y88800D01*
X120677Y88829D01*
X120687Y88839D01*
X120784Y88937D01*
X120862Y89063D01*
X120921Y89190D01*
X120969Y89317D01*
X121008Y89424D01*
X121028Y89522D01*
X121038Y89561D01*
X121047Y89590D01*
Y89600D01*
Y89609D01*
X121798Y89551D01*
X121750Y89278D01*
X121672Y89044D01*
X121584Y88839D01*
X121486Y88673D01*
X121389Y88546D01*
X121311Y88449D01*
X121252Y88390D01*
X121243Y88381D01*
X121233Y88371D01*
X121038Y88234D01*
X120843Y88137D01*
X120638Y88059D01*
X120443Y88010D01*
X120267Y87981D01*
X120189Y87971D01*
X120131D01*
X120072Y87961D01*
X120004D01*
X119750Y87981D01*
X119506Y88020D01*
X119302Y88078D01*
X119116Y88146D01*
X118970Y88215D01*
X118911Y88244D01*
X118863Y88273D01*
X118814Y88302D01*
X118785Y88312D01*
X118775Y88332D01*
X118765D01*
X118580Y88488D01*
X118424Y88663D01*
X118287Y88849D01*
X118170Y89034D01*
X118082Y89190D01*
X118053Y89258D01*
X118024Y89327D01*
X118004Y89375D01*
X117985Y89415D01*
X117975Y89434D01*
Y89444D01*
X117926Y89590D01*
X117887Y89736D01*
X117819Y90058D01*
X117770Y90390D01*
X117731Y90702D01*
X117722Y90848D01*
X117712Y90975D01*
Y91102D01*
X117702Y91199D01*
Y91287D01*
Y91346D01*
Y91394D01*
Y91404D01*
Y91619D01*
X117712Y91824D01*
X117731Y92009D01*
X117741Y92184D01*
X117760Y92340D01*
X117790Y92487D01*
X117809Y92623D01*
X117838Y92740D01*
X117868Y92848D01*
X117887Y92945D01*
X117907Y93023D01*
X117936Y93082D01*
X117946Y93131D01*
X117965Y93170D01*
X117975Y93189D01*
Y93199D01*
X118082Y93423D01*
X118209Y93618D01*
X118346Y93774D01*
X118472Y93921D01*
X118590Y94028D01*
X118677Y94106D01*
X118716Y94125D01*
X118746Y94145D01*
X118755Y94164D01*
X118765D01*
X118960Y94282D01*
X119165Y94360D01*
X119350Y94418D01*
X119526Y94467D01*
X119682Y94486D01*
X119750Y94496D01*
X119799D01*
X119848Y94506D01*
X119906D01*
X120062Y94496D01*
D02*
G37*
G36*
X125593Y94564D02*
X125885Y94525D01*
X126149Y94457D01*
X126266Y94428D01*
X126373Y94389D01*
X126470Y94350D01*
X126568Y94320D01*
X126646Y94282D01*
X126705Y94252D01*
X126763Y94233D01*
X126802Y94213D01*
X126822Y94194D01*
X126831D01*
X127075Y94038D01*
X127299Y93852D01*
X127485Y93667D01*
X127631Y93482D01*
X127758Y93316D01*
X127807Y93248D01*
X127846Y93189D01*
X127875Y93131D01*
X127894Y93092D01*
X127914Y93072D01*
Y93062D01*
X128041Y92779D01*
X128138Y92477D01*
X128197Y92184D01*
X128246Y91911D01*
X128265Y91785D01*
X128275Y91677D01*
X128285Y91570D01*
Y91482D01*
X128294Y91414D01*
Y91365D01*
Y91326D01*
Y91316D01*
X128285Y90975D01*
X128246Y90663D01*
X128187Y90370D01*
X128158Y90234D01*
X128129Y90117D01*
X128099Y90000D01*
X128070Y89902D01*
X128041Y89814D01*
X128012Y89736D01*
X127992Y89678D01*
X127972Y89639D01*
X127963Y89609D01*
Y89600D01*
X127826Y89317D01*
X127660Y89073D01*
X127504Y88858D01*
X127338Y88693D01*
X127202Y88556D01*
X127085Y88459D01*
X127036Y88429D01*
X127007Y88400D01*
X126987Y88390D01*
X126978Y88381D01*
X126851Y88302D01*
X126714Y88244D01*
X126441Y88137D01*
X126158Y88069D01*
X125885Y88010D01*
X125768Y88000D01*
X125651Y87981D01*
X125554Y87971D01*
X125466D01*
X125388Y87961D01*
X125290D01*
X125105Y87971D01*
X124929Y87981D01*
X124607Y88049D01*
X124461Y88088D01*
X124315Y88137D01*
X124188Y88186D01*
X124071Y88234D01*
X123964Y88283D01*
X123876Y88332D01*
X123798Y88381D01*
X123730Y88420D01*
X123671Y88459D01*
X123632Y88488D01*
X123613Y88498D01*
X123603Y88507D01*
X123476Y88615D01*
X123359Y88732D01*
X123164Y88985D01*
X122988Y89249D01*
X122862Y89512D01*
X122803Y89629D01*
X122764Y89736D01*
X122725Y89844D01*
X122686Y89922D01*
X122667Y90000D01*
X122647Y90048D01*
X122637Y90087D01*
Y90097D01*
X123486Y90312D01*
X123564Y90029D01*
X123661Y89775D01*
X123778Y89571D01*
X123886Y89395D01*
X123993Y89268D01*
X124081Y89171D01*
X124139Y89112D01*
X124149Y89102D01*
X124159Y89093D01*
X124354Y88956D01*
X124549Y88858D01*
X124754Y88780D01*
X124939Y88732D01*
X125105Y88702D01*
X125183Y88693D01*
X125241D01*
X125290Y88683D01*
X125359D01*
X125573Y88693D01*
X125778Y88732D01*
X125963Y88780D01*
X126119Y88829D01*
X126256Y88888D01*
X126363Y88927D01*
X126402Y88946D01*
X126431Y88966D01*
X126441Y88975D01*
X126451D01*
X126627Y89102D01*
X126773Y89249D01*
X126900Y89395D01*
X127007Y89551D01*
X127085Y89678D01*
X127134Y89795D01*
X127153Y89834D01*
X127173Y89863D01*
X127183Y89883D01*
Y89892D01*
X127261Y90126D01*
X127319Y90370D01*
X127358Y90614D01*
X127387Y90838D01*
X127397Y90936D01*
X127407Y91024D01*
Y91112D01*
X127417Y91180D01*
Y91238D01*
Y91277D01*
Y91307D01*
Y91316D01*
X127407Y91551D01*
X127387Y91775D01*
X127358Y91980D01*
X127319Y92165D01*
X127280Y92321D01*
X127270Y92389D01*
X127251Y92438D01*
X127241Y92487D01*
X127231Y92516D01*
X127221Y92536D01*
Y92545D01*
X127134Y92760D01*
X127026Y92955D01*
X126909Y93111D01*
X126802Y93248D01*
X126695Y93355D01*
X126607Y93433D01*
X126549Y93482D01*
X126539Y93501D01*
X126529D01*
X126334Y93618D01*
X126129Y93706D01*
X125924Y93774D01*
X125729Y93813D01*
X125554Y93843D01*
X125485Y93852D01*
X125417D01*
X125368Y93862D01*
X125300D01*
X125066Y93852D01*
X124861Y93813D01*
X124676Y93765D01*
X124529Y93706D01*
X124403Y93638D01*
X124315Y93589D01*
X124256Y93550D01*
X124237Y93540D01*
X124081Y93404D01*
X123954Y93248D01*
X123837Y93072D01*
X123749Y92906D01*
X123681Y92760D01*
X123652Y92692D01*
X123622Y92633D01*
X123603Y92584D01*
X123593Y92545D01*
X123583Y92526D01*
Y92516D01*
X122745Y92711D01*
X122862Y93023D01*
X122930Y93170D01*
X122998Y93296D01*
X123076Y93423D01*
X123154Y93540D01*
X123223Y93638D01*
X123301Y93735D01*
X123369Y93813D01*
X123437Y93882D01*
X123505Y93950D01*
X123554Y93999D01*
X123603Y94038D01*
X123632Y94067D01*
X123652Y94077D01*
X123661Y94086D01*
X123788Y94174D01*
X123915Y94252D01*
X124052Y94320D01*
X124188Y94379D01*
X124461Y94467D01*
X124715Y94525D01*
X124832Y94545D01*
X124939Y94555D01*
X125037Y94564D01*
X125115Y94574D01*
X125183Y94584D01*
X125281D01*
X125593Y94564D01*
D02*
G37*
G36*
X155151Y95042D02*
X155259Y94886D01*
X155376Y94740D01*
X155493Y94604D01*
X155600Y94496D01*
X155688Y94408D01*
X155746Y94350D01*
X155756Y94340D01*
X155766Y94330D01*
X155951Y94174D01*
X156146Y94028D01*
X156341Y93901D01*
X156517Y93794D01*
X156673Y93706D01*
X156741Y93677D01*
X156800Y93648D01*
X156839Y93618D01*
X156878Y93599D01*
X156897Y93589D01*
X156907D01*
Y92819D01*
X156770Y92877D01*
X156624Y92945D01*
X156488Y93004D01*
X156361Y93072D01*
X156253Y93131D01*
X156166Y93180D01*
X156107Y93218D01*
X156097Y93228D01*
X156088D01*
X155922Y93326D01*
X155775Y93433D01*
X155649Y93521D01*
X155541Y93609D01*
X155454Y93677D01*
X155385Y93726D01*
X155346Y93765D01*
X155337Y93774D01*
Y88761D01*
X154546D01*
Y95198D01*
X155063D01*
X155151Y95042D01*
D02*
G37*
G36*
X161189Y95257D02*
X161481Y95218D01*
X161745Y95150D01*
X161862Y95120D01*
X161969Y95081D01*
X162066Y95042D01*
X162164Y95013D01*
X162242Y94974D01*
X162301Y94945D01*
X162359Y94925D01*
X162398Y94906D01*
X162418Y94886D01*
X162427D01*
X162671Y94730D01*
X162896Y94545D01*
X163081Y94360D01*
X163227Y94174D01*
X163354Y94009D01*
X163403Y93940D01*
X163442Y93882D01*
X163471Y93823D01*
X163491Y93784D01*
X163510Y93765D01*
Y93755D01*
X163637Y93472D01*
X163734Y93170D01*
X163793Y92877D01*
X163842Y92604D01*
X163861Y92477D01*
X163871Y92370D01*
X163881Y92263D01*
Y92175D01*
X163890Y92107D01*
Y92058D01*
Y92019D01*
Y92009D01*
X163881Y91668D01*
X163842Y91356D01*
X163783Y91063D01*
X163754Y90926D01*
X163725Y90809D01*
X163695Y90692D01*
X163666Y90595D01*
X163637Y90507D01*
X163608Y90429D01*
X163588Y90371D01*
X163569Y90331D01*
X163559Y90302D01*
Y90292D01*
X163422Y90010D01*
X163256Y89766D01*
X163100Y89551D01*
X162935Y89385D01*
X162798Y89249D01*
X162681Y89151D01*
X162632Y89122D01*
X162603Y89093D01*
X162584Y89083D01*
X162574Y89073D01*
X162447Y88995D01*
X162310Y88937D01*
X162037Y88829D01*
X161754Y88761D01*
X161481Y88703D01*
X161364Y88693D01*
X161247Y88673D01*
X161150Y88664D01*
X161062D01*
X160984Y88654D01*
X160886D01*
X160701Y88664D01*
X160525Y88673D01*
X160204Y88742D01*
X160057Y88781D01*
X159911Y88829D01*
X159784Y88878D01*
X159667Y88927D01*
X159560Y88976D01*
X159472Y89024D01*
X159394Y89073D01*
X159326Y89112D01*
X159267Y89151D01*
X159228Y89180D01*
X159209Y89190D01*
X159199Y89200D01*
X159072Y89307D01*
X158955Y89424D01*
X158760Y89678D01*
X158584Y89941D01*
X158458Y90205D01*
X158399Y90322D01*
X158360Y90429D01*
X158321Y90536D01*
X158282Y90614D01*
X158263Y90692D01*
X158243Y90741D01*
X158233Y90780D01*
Y90790D01*
X159082Y91004D01*
X159160Y90722D01*
X159257Y90468D01*
X159375Y90263D01*
X159482Y90088D01*
X159589Y89961D01*
X159677Y89863D01*
X159735Y89805D01*
X159745Y89795D01*
X159755Y89785D01*
X159950Y89649D01*
X160145Y89551D01*
X160350Y89473D01*
X160535Y89424D01*
X160701Y89395D01*
X160779Y89385D01*
X160838D01*
X160886Y89376D01*
X160955D01*
X161169Y89385D01*
X161374Y89424D01*
X161559Y89473D01*
X161715Y89522D01*
X161852Y89580D01*
X161959Y89619D01*
X161998Y89639D01*
X162027Y89658D01*
X162037Y89668D01*
X162047D01*
X162223Y89795D01*
X162369Y89941D01*
X162496Y90088D01*
X162603Y90244D01*
X162681Y90371D01*
X162730Y90487D01*
X162749Y90527D01*
X162769Y90556D01*
X162778Y90575D01*
Y90585D01*
X162857Y90819D01*
X162915Y91063D01*
X162954Y91307D01*
X162983Y91531D01*
X162993Y91629D01*
X163003Y91716D01*
Y91804D01*
X163013Y91873D01*
Y91931D01*
Y91970D01*
Y91999D01*
Y92009D01*
X163003Y92243D01*
X162983Y92467D01*
X162954Y92672D01*
X162915Y92858D01*
X162876Y93014D01*
X162866Y93082D01*
X162847Y93131D01*
X162837Y93180D01*
X162827Y93209D01*
X162818Y93228D01*
Y93238D01*
X162730Y93453D01*
X162623Y93648D01*
X162505Y93804D01*
X162398Y93940D01*
X162291Y94048D01*
X162203Y94126D01*
X162145Y94174D01*
X162135Y94194D01*
X162125D01*
X161930Y94311D01*
X161725Y94399D01*
X161520Y94467D01*
X161325Y94506D01*
X161150Y94535D01*
X161081Y94545D01*
X161013D01*
X160964Y94555D01*
X160896D01*
X160662Y94545D01*
X160457Y94506D01*
X160272Y94457D01*
X160126Y94399D01*
X159999Y94330D01*
X159911Y94282D01*
X159853Y94243D01*
X159833Y94233D01*
X159677Y94096D01*
X159550Y93940D01*
X159433Y93765D01*
X159345Y93599D01*
X159277Y93453D01*
X159248Y93384D01*
X159219Y93326D01*
X159199Y93277D01*
X159189Y93238D01*
X159179Y93218D01*
Y93209D01*
X158341Y93404D01*
X158458Y93716D01*
X158526Y93862D01*
X158594Y93989D01*
X158672Y94116D01*
X158750Y94233D01*
X158819Y94330D01*
X158897Y94428D01*
X158965Y94506D01*
X159033Y94574D01*
X159101Y94642D01*
X159150Y94691D01*
X159199Y94730D01*
X159228Y94760D01*
X159248Y94769D01*
X159257Y94779D01*
X159384Y94867D01*
X159511Y94945D01*
X159648Y95013D01*
X159784Y95072D01*
X160057Y95160D01*
X160311Y95218D01*
X160428Y95238D01*
X160535Y95247D01*
X160633Y95257D01*
X160711Y95267D01*
X160779Y95276D01*
X160877D01*
X161189Y95257D01*
D02*
G37*
G36*
X150704Y95179D02*
X150928Y95140D01*
X151133Y95081D01*
X151299Y95013D01*
X151435Y94935D01*
X151533Y94877D01*
X151572Y94857D01*
X151601Y94838D01*
X151611Y94818D01*
X151620D01*
X151786Y94662D01*
X151923Y94496D01*
X152040Y94321D01*
X152137Y94145D01*
X152215Y93989D01*
X152245Y93921D01*
X152264Y93862D01*
X152284Y93813D01*
X152303Y93774D01*
X152313Y93755D01*
Y93745D01*
X152352Y93609D01*
X152391Y93472D01*
X152440Y93170D01*
X152479Y92867D01*
X152508Y92575D01*
X152518Y92438D01*
X152528Y92311D01*
Y92204D01*
X152537Y92107D01*
Y92029D01*
Y91970D01*
Y91931D01*
Y91921D01*
X152528Y91599D01*
X152508Y91287D01*
X152479Y91014D01*
X152440Y90751D01*
X152391Y90517D01*
X152342Y90302D01*
X152284Y90107D01*
X152225Y89941D01*
X152167Y89785D01*
X152108Y89658D01*
X152059Y89551D01*
X152011Y89463D01*
X151972Y89395D01*
X151942Y89346D01*
X151923Y89317D01*
X151913Y89307D01*
X151806Y89190D01*
X151699Y89093D01*
X151581Y89005D01*
X151455Y88927D01*
X151338Y88868D01*
X151211Y88810D01*
X150977Y88732D01*
X150869Y88712D01*
X150772Y88693D01*
X150684Y88673D01*
X150606Y88664D01*
X150538Y88654D01*
X150450D01*
X150196Y88673D01*
X149972Y88712D01*
X149777Y88771D01*
X149601Y88839D01*
X149475Y88907D01*
X149367Y88966D01*
X149338Y88995D01*
X149309Y89005D01*
X149299Y89024D01*
X149289D01*
X149123Y89180D01*
X148987Y89356D01*
X148870Y89532D01*
X148772Y89707D01*
X148694Y89863D01*
X148665Y89922D01*
X148636Y89980D01*
X148616Y90029D01*
X148607Y90068D01*
X148597Y90088D01*
Y90097D01*
X148558Y90234D01*
X148519Y90371D01*
X148460Y90673D01*
X148421Y90975D01*
X148392Y91268D01*
X148382Y91404D01*
X148372Y91531D01*
Y91638D01*
X148363Y91736D01*
Y91814D01*
Y91873D01*
Y91911D01*
Y91921D01*
X148372Y92263D01*
Y92409D01*
X148382Y92555D01*
X148392Y92692D01*
X148412Y92819D01*
X148421Y92926D01*
X148431Y93033D01*
X148450Y93121D01*
X148460Y93209D01*
X148470Y93277D01*
X148490Y93326D01*
X148499Y93375D01*
Y93404D01*
X148509Y93423D01*
Y93433D01*
X148567Y93638D01*
X148636Y93823D01*
X148704Y93989D01*
X148763Y94126D01*
X148821Y94233D01*
X148870Y94321D01*
X148899Y94369D01*
X148909Y94389D01*
X149007Y94525D01*
X149114Y94642D01*
X149221Y94750D01*
X149319Y94838D01*
X149416Y94896D01*
X149484Y94945D01*
X149533Y94974D01*
X149553Y94984D01*
X149699Y95052D01*
X149855Y95111D01*
X150011Y95150D01*
X150148Y95169D01*
X150265Y95189D01*
X150362Y95198D01*
X150450D01*
X150704Y95179D01*
D02*
G37*
G36*
X128919Y140960D02*
X129095Y140951D01*
X129417Y140882D01*
X129563Y140843D01*
X129709Y140794D01*
X129836Y140746D01*
X129953Y140697D01*
X130060Y140648D01*
X130148Y140599D01*
X130226Y140551D01*
X130295Y140512D01*
X130353Y140473D01*
X130392Y140443D01*
X130412Y140434D01*
X130421Y140424D01*
X130548Y140317D01*
X130665Y140199D01*
X130860Y139946D01*
X131036Y139683D01*
X131163Y139419D01*
X131221Y139302D01*
X131260Y139195D01*
X131299Y139088D01*
X131338Y139010D01*
X131358Y138932D01*
X131377Y138883D01*
X131387Y138844D01*
Y138834D01*
X130538Y138619D01*
X130460Y138902D01*
X130363Y139156D01*
X130246Y139361D01*
X130138Y139536D01*
X130031Y139663D01*
X129943Y139761D01*
X129885Y139819D01*
X129875Y139829D01*
X129865Y139839D01*
X129670Y139975D01*
X129475Y140073D01*
X129270Y140151D01*
X129085Y140199D01*
X128919Y140229D01*
X128841Y140239D01*
X128783D01*
X128734Y140248D01*
X128666D01*
X128451Y140239D01*
X128246Y140199D01*
X128061Y140151D01*
X127905Y140102D01*
X127768Y140043D01*
X127661Y140005D01*
X127622Y139985D01*
X127593Y139965D01*
X127583Y139956D01*
X127573D01*
X127398Y139829D01*
X127251Y139683D01*
X127125Y139536D01*
X127017Y139380D01*
X126939Y139253D01*
X126890Y139136D01*
X126871Y139097D01*
X126852Y139068D01*
X126842Y139049D01*
Y139039D01*
X126764Y138805D01*
X126705Y138561D01*
X126666Y138317D01*
X126637Y138093D01*
X126627Y137995D01*
X126617Y137907D01*
Y137820D01*
X126608Y137751D01*
Y137693D01*
Y137654D01*
Y137625D01*
Y137615D01*
X126617Y137381D01*
X126637Y137156D01*
X126666Y136952D01*
X126705Y136766D01*
X126744Y136610D01*
X126754Y136542D01*
X126774Y136493D01*
X126783Y136444D01*
X126793Y136415D01*
X126803Y136396D01*
Y136386D01*
X126890Y136171D01*
X126998Y135976D01*
X127115Y135820D01*
X127222Y135684D01*
X127329Y135576D01*
X127417Y135498D01*
X127476Y135449D01*
X127486Y135430D01*
X127495D01*
X127690Y135313D01*
X127895Y135225D01*
X128100Y135157D01*
X128295Y135118D01*
X128471Y135089D01*
X128539Y135079D01*
X128607D01*
X128656Y135069D01*
X128724D01*
X128958Y135079D01*
X129163Y135118D01*
X129348Y135167D01*
X129495Y135225D01*
X129621Y135294D01*
X129709Y135342D01*
X129768Y135381D01*
X129787Y135391D01*
X129943Y135528D01*
X130070Y135684D01*
X130187Y135859D01*
X130275Y136025D01*
X130343Y136171D01*
X130372Y136240D01*
X130402Y136298D01*
X130421Y136347D01*
X130431Y136386D01*
X130441Y136405D01*
Y136415D01*
X131280Y136220D01*
X131163Y135908D01*
X131094Y135762D01*
X131026Y135635D01*
X130948Y135508D01*
X130870Y135391D01*
X130802Y135294D01*
X130724Y135196D01*
X130655Y135118D01*
X130587Y135050D01*
X130519Y134981D01*
X130470Y134933D01*
X130421Y134894D01*
X130392Y134864D01*
X130372Y134855D01*
X130363Y134845D01*
X130236Y134757D01*
X130109Y134679D01*
X129973Y134611D01*
X129836Y134552D01*
X129563Y134464D01*
X129309Y134406D01*
X129192Y134386D01*
X129085Y134377D01*
X128988Y134367D01*
X128910Y134357D01*
X128841Y134347D01*
X128744D01*
X128432Y134367D01*
X128139Y134406D01*
X127876Y134474D01*
X127759Y134503D01*
X127651Y134543D01*
X127554Y134581D01*
X127456Y134611D01*
X127378Y134650D01*
X127320Y134679D01*
X127261Y134698D01*
X127222Y134718D01*
X127203Y134738D01*
X127193D01*
X126949Y134894D01*
X126725Y135079D01*
X126539Y135264D01*
X126393Y135449D01*
X126266Y135615D01*
X126217Y135684D01*
X126179Y135742D01*
X126149Y135801D01*
X126130Y135840D01*
X126110Y135859D01*
Y135869D01*
X125983Y136152D01*
X125886Y136454D01*
X125827Y136747D01*
X125779Y137020D01*
X125759Y137147D01*
X125749Y137254D01*
X125740Y137361D01*
Y137449D01*
X125730Y137517D01*
Y137566D01*
Y137605D01*
Y137615D01*
X125740Y137956D01*
X125779Y138268D01*
X125837Y138561D01*
X125866Y138698D01*
X125896Y138814D01*
X125925Y138932D01*
X125954Y139029D01*
X125983Y139117D01*
X126013Y139195D01*
X126032Y139253D01*
X126052Y139292D01*
X126061Y139322D01*
Y139332D01*
X126198Y139614D01*
X126364Y139858D01*
X126520Y140073D01*
X126686Y140239D01*
X126822Y140375D01*
X126939Y140473D01*
X126988Y140502D01*
X127017Y140531D01*
X127037Y140541D01*
X127047Y140551D01*
X127173Y140629D01*
X127310Y140687D01*
X127583Y140794D01*
X127866Y140863D01*
X128139Y140921D01*
X128256Y140931D01*
X128373Y140951D01*
X128471Y140960D01*
X128558D01*
X128636Y140970D01*
X128734D01*
X128919Y140960D01*
D02*
G37*
G36*
X135074Y134425D02*
X134557D01*
X134469Y134581D01*
X134362Y134738D01*
X134245Y134884D01*
X134128Y135020D01*
X134020Y135128D01*
X133933Y135216D01*
X133874Y135274D01*
X133864Y135284D01*
X133855Y135294D01*
X133669Y135449D01*
X133474Y135596D01*
X133279Y135723D01*
X133104Y135830D01*
X132948Y135918D01*
X132879Y135947D01*
X132821Y135976D01*
X132782Y136005D01*
X132743Y136025D01*
X132723Y136035D01*
X132713D01*
Y136805D01*
X132850Y136747D01*
X132996Y136678D01*
X133133Y136620D01*
X133260Y136552D01*
X133367Y136493D01*
X133455Y136444D01*
X133513Y136405D01*
X133523Y136396D01*
X133533D01*
X133699Y136298D01*
X133845Y136191D01*
X133972Y136103D01*
X134079Y136015D01*
X134167Y135947D01*
X134235Y135898D01*
X134274Y135859D01*
X134284Y135849D01*
Y140863D01*
X135074D01*
Y134425D01*
D02*
G37*
G36*
X140389Y139332D02*
X141258D01*
Y138610D01*
X140389D01*
Y134464D01*
X139746D01*
X136820Y138610D01*
Y139332D01*
X139599D01*
Y140863D01*
X140389D01*
Y139332D01*
D02*
G37*
G36*
X119941Y111945D02*
X120097Y111935D01*
X120389Y111876D01*
X120516Y111847D01*
X120643Y111808D01*
X120750Y111760D01*
X120848Y111721D01*
X120935Y111672D01*
X121013Y111633D01*
X121082Y111584D01*
X121140Y111555D01*
X121179Y111525D01*
X121208Y111496D01*
X121228Y111486D01*
X121238Y111477D01*
X121335Y111379D01*
X121413Y111281D01*
X121560Y111057D01*
X121667Y110833D01*
X121745Y110609D01*
X121804Y110414D01*
X121813Y110326D01*
X121833Y110248D01*
X121842Y110189D01*
X121852Y110140D01*
Y110111D01*
Y110101D01*
X121043Y110014D01*
X121023Y110228D01*
X120984Y110414D01*
X120935Y110569D01*
X120867Y110706D01*
X120809Y110813D01*
X120750Y110891D01*
X120711Y110930D01*
X120701Y110950D01*
X120565Y111067D01*
X120419Y111155D01*
X120262Y111213D01*
X120116Y111262D01*
X119989Y111281D01*
X119892Y111291D01*
X119853Y111301D01*
X119794D01*
X119599Y111291D01*
X119424Y111252D01*
X119277Y111203D01*
X119150Y111145D01*
X119053Y111077D01*
X118975Y111028D01*
X118936Y110989D01*
X118916Y110979D01*
X118799Y110852D01*
X118721Y110716D01*
X118663Y110589D01*
X118614Y110462D01*
X118595Y110355D01*
X118585Y110267D01*
X118575Y110209D01*
Y110199D01*
Y110189D01*
X118595Y110023D01*
X118634Y109848D01*
X118692Y109692D01*
X118760Y109545D01*
X118829Y109419D01*
X118887Y109321D01*
X118907Y109282D01*
X118926Y109253D01*
X118946Y109243D01*
Y109233D01*
X119024Y109136D01*
X119111Y109029D01*
X119209Y108921D01*
X119326Y108814D01*
X119560Y108589D01*
X119794Y108365D01*
X120009Y108180D01*
X120106Y108092D01*
X120194Y108024D01*
X120262Y107956D01*
X120311Y107916D01*
X120350Y107887D01*
X120360Y107878D01*
X120594Y107673D01*
X120809Y107487D01*
X120984Y107322D01*
X121131Y107185D01*
X121248Y107068D01*
X121326Y106980D01*
X121374Y106922D01*
X121394Y106912D01*
Y106902D01*
X121521Y106746D01*
X121618Y106600D01*
X121716Y106454D01*
X121784Y106327D01*
X121842Y106210D01*
X121882Y106132D01*
X121901Y106073D01*
X121911Y106063D01*
Y106054D01*
X121940Y105956D01*
X121969Y105858D01*
X121979Y105771D01*
X121989Y105693D01*
X121999Y105625D01*
Y105566D01*
Y105527D01*
Y105517D01*
X117756D01*
Y106268D01*
X120906D01*
X120799Y106424D01*
X120692Y106551D01*
X120643Y106610D01*
X120604Y106649D01*
X120584Y106678D01*
X120575Y106688D01*
X120526Y106736D01*
X120477Y106785D01*
X120350Y106902D01*
X120194Y107039D01*
X120048Y107175D01*
X119902Y107302D01*
X119784Y107400D01*
X119736Y107439D01*
X119697Y107468D01*
X119677Y107487D01*
X119668Y107497D01*
X119511Y107634D01*
X119375Y107751D01*
X119238Y107868D01*
X119121Y107975D01*
X119014Y108082D01*
X118916Y108170D01*
X118819Y108258D01*
X118741Y108336D01*
X118673Y108404D01*
X118614Y108463D01*
X118526Y108551D01*
X118477Y108609D01*
X118458Y108629D01*
X118331Y108785D01*
X118214Y108921D01*
X118126Y109058D01*
X118058Y109175D01*
X118000Y109272D01*
X117961Y109341D01*
X117941Y109389D01*
X117931Y109409D01*
X117873Y109545D01*
X117834Y109682D01*
X117804Y109809D01*
X117785Y109926D01*
X117775Y110023D01*
X117766Y110101D01*
Y110150D01*
Y110170D01*
X117775Y110306D01*
X117785Y110443D01*
X117853Y110687D01*
X117941Y110901D01*
X118039Y111087D01*
X118136Y111233D01*
X118185Y111291D01*
X118224Y111350D01*
X118263Y111389D01*
X118292Y111418D01*
X118302Y111428D01*
X118312Y111438D01*
X118419Y111525D01*
X118526Y111613D01*
X118643Y111681D01*
X118770Y111740D01*
X119014Y111828D01*
X119248Y111886D01*
X119355Y111916D01*
X119453Y111925D01*
X119541Y111935D01*
X119619Y111945D01*
X119687Y111954D01*
X119775D01*
X119941Y111945D01*
D02*
G37*
G36*
X125568Y112013D02*
X125861Y111974D01*
X126124Y111906D01*
X126241Y111876D01*
X126349Y111838D01*
X126446Y111798D01*
X126544Y111769D01*
X126622Y111730D01*
X126680Y111701D01*
X126739Y111681D01*
X126778Y111662D01*
X126797Y111642D01*
X126807D01*
X127051Y111486D01*
X127275Y111301D01*
X127461Y111116D01*
X127607Y110930D01*
X127734Y110765D01*
X127782Y110696D01*
X127822Y110638D01*
X127851Y110579D01*
X127870Y110540D01*
X127890Y110521D01*
Y110511D01*
X128017Y110228D01*
X128114Y109926D01*
X128173Y109633D01*
X128221Y109360D01*
X128241Y109233D01*
X128251Y109126D01*
X128260Y109019D01*
Y108931D01*
X128270Y108863D01*
Y108814D01*
Y108775D01*
Y108765D01*
X128260Y108424D01*
X128221Y108112D01*
X128163Y107819D01*
X128134Y107683D01*
X128104Y107565D01*
X128075Y107448D01*
X128046Y107351D01*
X128017Y107263D01*
X127987Y107185D01*
X127968Y107127D01*
X127948Y107087D01*
X127938Y107058D01*
Y107049D01*
X127802Y106766D01*
X127636Y106522D01*
X127480Y106307D01*
X127314Y106141D01*
X127178Y106005D01*
X127061Y105907D01*
X127012Y105878D01*
X126983Y105849D01*
X126963Y105839D01*
X126953Y105829D01*
X126827Y105751D01*
X126690Y105693D01*
X126417Y105585D01*
X126134Y105517D01*
X125861Y105459D01*
X125744Y105449D01*
X125627Y105429D01*
X125529Y105420D01*
X125442D01*
X125364Y105410D01*
X125266D01*
X125081Y105420D01*
X124905Y105429D01*
X124583Y105498D01*
X124437Y105537D01*
X124291Y105585D01*
X124164Y105634D01*
X124047Y105683D01*
X123940Y105732D01*
X123852Y105780D01*
X123774Y105829D01*
X123705Y105868D01*
X123647Y105907D01*
X123608Y105937D01*
X123588Y105946D01*
X123579Y105956D01*
X123452Y106063D01*
X123335Y106180D01*
X123140Y106434D01*
X122964Y106697D01*
X122837Y106961D01*
X122779Y107078D01*
X122740Y107185D01*
X122701Y107292D01*
X122662Y107370D01*
X122642Y107448D01*
X122623Y107497D01*
X122613Y107536D01*
Y107546D01*
X123462Y107760D01*
X123540Y107478D01*
X123637Y107224D01*
X123754Y107019D01*
X123862Y106844D01*
X123969Y106717D01*
X124057Y106619D01*
X124115Y106561D01*
X124125Y106551D01*
X124135Y106541D01*
X124330Y106405D01*
X124525Y106307D01*
X124730Y106229D01*
X124915Y106180D01*
X125081Y106151D01*
X125159Y106141D01*
X125217D01*
X125266Y106132D01*
X125334D01*
X125549Y106141D01*
X125754Y106180D01*
X125939Y106229D01*
X126095Y106278D01*
X126232Y106336D01*
X126339Y106376D01*
X126378Y106395D01*
X126407Y106414D01*
X126417Y106424D01*
X126427D01*
X126602Y106551D01*
X126749Y106697D01*
X126875Y106844D01*
X126983Y107000D01*
X127061Y107127D01*
X127109Y107243D01*
X127129Y107283D01*
X127149Y107312D01*
X127158Y107331D01*
Y107341D01*
X127236Y107575D01*
X127295Y107819D01*
X127334Y108063D01*
X127363Y108287D01*
X127373Y108385D01*
X127382Y108472D01*
Y108560D01*
X127392Y108629D01*
Y108687D01*
Y108726D01*
Y108755D01*
Y108765D01*
X127382Y108999D01*
X127363Y109223D01*
X127334Y109428D01*
X127295Y109614D01*
X127256Y109770D01*
X127246Y109838D01*
X127226Y109887D01*
X127217Y109936D01*
X127207Y109965D01*
X127197Y109984D01*
Y109994D01*
X127109Y110209D01*
X127002Y110404D01*
X126885Y110560D01*
X126778Y110696D01*
X126671Y110804D01*
X126583Y110882D01*
X126524Y110930D01*
X126515Y110950D01*
X126505D01*
X126310Y111067D01*
X126105Y111155D01*
X125900Y111223D01*
X125705Y111262D01*
X125529Y111291D01*
X125461Y111301D01*
X125393D01*
X125344Y111311D01*
X125276D01*
X125042Y111301D01*
X124837Y111262D01*
X124651Y111213D01*
X124505Y111155D01*
X124378Y111087D01*
X124291Y111038D01*
X124232Y110999D01*
X124213Y110989D01*
X124057Y110852D01*
X123930Y110696D01*
X123813Y110521D01*
X123725Y110355D01*
X123657Y110209D01*
X123627Y110140D01*
X123598Y110082D01*
X123579Y110033D01*
X123569Y109994D01*
X123559Y109975D01*
Y109965D01*
X122720Y110160D01*
X122837Y110472D01*
X122906Y110618D01*
X122974Y110745D01*
X123052Y110872D01*
X123130Y110989D01*
X123198Y111087D01*
X123276Y111184D01*
X123345Y111262D01*
X123413Y111330D01*
X123481Y111399D01*
X123530Y111447D01*
X123579Y111486D01*
X123608Y111516D01*
X123627Y111525D01*
X123637Y111535D01*
X123764Y111623D01*
X123891Y111701D01*
X124027Y111769D01*
X124164Y111828D01*
X124437Y111916D01*
X124691Y111974D01*
X124808Y111994D01*
X124915Y112003D01*
X125012Y112013D01*
X125091Y112023D01*
X125159Y112033D01*
X125256D01*
X125568Y112013D01*
D02*
G37*
G36*
X124274Y126641D02*
X124566Y126602D01*
X124830Y126533D01*
X124947Y126504D01*
X125054Y126465D01*
X125152Y126426D01*
X125249Y126397D01*
X125327Y126358D01*
X125386Y126329D01*
X125444Y126309D01*
X125483Y126290D01*
X125503Y126270D01*
X125513D01*
X125756Y126114D01*
X125981Y125929D01*
X126166Y125743D01*
X126312Y125558D01*
X126439Y125392D01*
X126488Y125324D01*
X126527Y125266D01*
X126556Y125207D01*
X126576Y125168D01*
X126595Y125148D01*
Y125139D01*
X126722Y124856D01*
X126820Y124553D01*
X126878Y124261D01*
X126927Y123988D01*
X126946Y123861D01*
X126956Y123754D01*
X126966Y123646D01*
Y123559D01*
X126976Y123490D01*
Y123442D01*
Y123403D01*
Y123393D01*
X126966Y123051D01*
X126927Y122739D01*
X126868Y122447D01*
X126839Y122310D01*
X126810Y122193D01*
X126781Y122076D01*
X126751Y121979D01*
X126722Y121891D01*
X126693Y121813D01*
X126673Y121754D01*
X126654Y121715D01*
X126644Y121686D01*
Y121676D01*
X126507Y121393D01*
X126342Y121150D01*
X126186Y120935D01*
X126020Y120769D01*
X125883Y120632D01*
X125766Y120535D01*
X125717Y120506D01*
X125688Y120477D01*
X125669Y120467D01*
X125659Y120457D01*
X125532Y120379D01*
X125395Y120320D01*
X125122Y120213D01*
X124840Y120145D01*
X124566Y120086D01*
X124449Y120077D01*
X124332Y120057D01*
X124235Y120047D01*
X124147D01*
X124069Y120038D01*
X123972D01*
X123786Y120047D01*
X123611Y120057D01*
X123289Y120125D01*
X123142Y120164D01*
X122996Y120213D01*
X122869Y120262D01*
X122752Y120311D01*
X122645Y120359D01*
X122557Y120408D01*
X122479Y120457D01*
X122411Y120496D01*
X122352Y120535D01*
X122313Y120564D01*
X122294Y120574D01*
X122284Y120584D01*
X122157Y120691D01*
X122040Y120808D01*
X121845Y121062D01*
X121670Y121325D01*
X121543Y121588D01*
X121484Y121705D01*
X121445Y121813D01*
X121406Y121920D01*
X121367Y121998D01*
X121348Y122076D01*
X121328Y122125D01*
X121319Y122164D01*
Y122174D01*
X122167Y122388D01*
X122245Y122105D01*
X122343Y121852D01*
X122460Y121647D01*
X122567Y121471D01*
X122674Y121344D01*
X122762Y121247D01*
X122821Y121188D01*
X122830Y121179D01*
X122840Y121169D01*
X123035Y121032D01*
X123230Y120935D01*
X123435Y120857D01*
X123620Y120808D01*
X123786Y120779D01*
X123864Y120769D01*
X123923D01*
X123972Y120759D01*
X124040D01*
X124254Y120769D01*
X124459Y120808D01*
X124644Y120857D01*
X124801Y120906D01*
X124937Y120964D01*
X125044Y121003D01*
X125083Y121023D01*
X125113Y121042D01*
X125122Y121052D01*
X125132D01*
X125308Y121179D01*
X125454Y121325D01*
X125581Y121471D01*
X125688Y121627D01*
X125766Y121754D01*
X125815Y121871D01*
X125834Y121910D01*
X125854Y121939D01*
X125864Y121959D01*
Y121969D01*
X125942Y122203D01*
X126000Y122447D01*
X126039Y122690D01*
X126068Y122915D01*
X126078Y123012D01*
X126088Y123100D01*
Y123188D01*
X126098Y123256D01*
Y123315D01*
Y123354D01*
Y123383D01*
Y123393D01*
X126088Y123627D01*
X126068Y123851D01*
X126039Y124056D01*
X126000Y124241D01*
X125961Y124397D01*
X125951Y124466D01*
X125932Y124515D01*
X125922Y124563D01*
X125913Y124593D01*
X125903Y124612D01*
Y124622D01*
X125815Y124836D01*
X125708Y125031D01*
X125591Y125188D01*
X125483Y125324D01*
X125376Y125431D01*
X125288Y125509D01*
X125230Y125558D01*
X125220Y125578D01*
X125210D01*
X125015Y125695D01*
X124810Y125782D01*
X124606Y125851D01*
X124410Y125890D01*
X124235Y125919D01*
X124167Y125929D01*
X124098D01*
X124050Y125939D01*
X123981D01*
X123747Y125929D01*
X123542Y125890D01*
X123357Y125841D01*
X123211Y125782D01*
X123084Y125714D01*
X122996Y125665D01*
X122938Y125626D01*
X122918Y125617D01*
X122762Y125480D01*
X122635Y125324D01*
X122518Y125148D01*
X122430Y124983D01*
X122362Y124836D01*
X122333Y124768D01*
X122304Y124710D01*
X122284Y124661D01*
X122274Y124622D01*
X122265Y124602D01*
Y124593D01*
X121426Y124788D01*
X121543Y125100D01*
X121611Y125246D01*
X121679Y125373D01*
X121757Y125500D01*
X121835Y125617D01*
X121904Y125714D01*
X121982Y125812D01*
X122050Y125890D01*
X122118Y125958D01*
X122187Y126026D01*
X122235Y126075D01*
X122284Y126114D01*
X122313Y126143D01*
X122333Y126153D01*
X122343Y126163D01*
X122470Y126251D01*
X122596Y126329D01*
X122733Y126397D01*
X122869Y126455D01*
X123142Y126543D01*
X123396Y126602D01*
X123513Y126621D01*
X123620Y126631D01*
X123718Y126641D01*
X123796Y126650D01*
X123864Y126660D01*
X123962D01*
X124274Y126641D01*
D02*
G37*
G36*
X118675Y126573D02*
X118812Y126563D01*
X119075Y126504D01*
X119309Y126436D01*
X119495Y126348D01*
X119582Y126299D01*
X119651Y126260D01*
X119709Y126212D01*
X119768Y126182D01*
X119807Y126153D01*
X119836Y126124D01*
X119846Y126114D01*
X119855Y126104D01*
X119943Y126017D01*
X120021Y125919D01*
X120090Y125821D01*
X120138Y125714D01*
X120236Y125519D01*
X120294Y125334D01*
X120324Y125168D01*
X120333Y125100D01*
X120343Y125041D01*
X120353Y124992D01*
Y124953D01*
Y124934D01*
Y124924D01*
X120343Y124758D01*
X120314Y124612D01*
X120275Y124475D01*
X120236Y124358D01*
X120197Y124261D01*
X120158Y124193D01*
X120129Y124154D01*
X120119Y124134D01*
X120021Y124017D01*
X119904Y123919D01*
X119787Y123832D01*
X119660Y123754D01*
X119553Y123705D01*
X119465Y123656D01*
X119407Y123637D01*
X119397Y123627D01*
X119387D01*
X119592Y123559D01*
X119777Y123471D01*
X119934Y123373D01*
X120060Y123276D01*
X120158Y123188D01*
X120236Y123110D01*
X120275Y123061D01*
X120294Y123051D01*
Y123042D01*
X120402Y122876D01*
X120470Y122700D01*
X120528Y122525D01*
X120568Y122359D01*
X120587Y122222D01*
X120597Y122154D01*
Y122105D01*
X120606Y122057D01*
Y122027D01*
Y122008D01*
Y121998D01*
X120597Y121842D01*
X120577Y121696D01*
X120558Y121559D01*
X120519Y121423D01*
X120421Y121188D01*
X120372Y121081D01*
X120314Y120984D01*
X120265Y120896D01*
X120216Y120818D01*
X120168Y120750D01*
X120119Y120691D01*
X120080Y120652D01*
X120060Y120623D01*
X120041Y120603D01*
X120031Y120594D01*
X119914Y120496D01*
X119797Y120408D01*
X119670Y120340D01*
X119543Y120272D01*
X119417Y120223D01*
X119290Y120174D01*
X119046Y120106D01*
X118929Y120086D01*
X118831Y120067D01*
X118734Y120057D01*
X118656Y120047D01*
X118588Y120038D01*
X118500D01*
X118324Y120047D01*
X118158Y120057D01*
X118002Y120086D01*
X117866Y120125D01*
X117729Y120164D01*
X117602Y120213D01*
X117485Y120262D01*
X117378Y120320D01*
X117281Y120369D01*
X117203Y120418D01*
X117134Y120467D01*
X117076Y120506D01*
X117027Y120545D01*
X116998Y120574D01*
X116978Y120584D01*
X116968Y120594D01*
X116861Y120701D01*
X116773Y120808D01*
X116695Y120925D01*
X116627Y121042D01*
X116568Y121159D01*
X116530Y121276D01*
X116452Y121491D01*
X116412Y121686D01*
X116403Y121774D01*
X116393Y121842D01*
X116383Y121901D01*
Y121939D01*
Y121969D01*
Y121979D01*
X116393Y122193D01*
X116432Y122388D01*
X116481Y122564D01*
X116539Y122710D01*
X116598Y122837D01*
X116647Y122925D01*
X116686Y122983D01*
X116695Y123003D01*
X116822Y123149D01*
X116968Y123286D01*
X117115Y123393D01*
X117261Y123481D01*
X117388Y123539D01*
X117495Y123588D01*
X117534Y123607D01*
X117563Y123617D01*
X117583Y123627D01*
X117593D01*
X117427Y123695D01*
X117281Y123783D01*
X117154Y123861D01*
X117056Y123939D01*
X116978Y124017D01*
X116920Y124075D01*
X116890Y124115D01*
X116881Y124124D01*
X116803Y124251D01*
X116744Y124388D01*
X116705Y124515D01*
X116676Y124641D01*
X116656Y124748D01*
X116647Y124827D01*
Y124885D01*
Y124905D01*
X116656Y125031D01*
X116666Y125158D01*
X116725Y125382D01*
X116812Y125587D01*
X116900Y125763D01*
X116998Y125899D01*
X117046Y125958D01*
X117086Y126007D01*
X117115Y126046D01*
X117144Y126075D01*
X117154Y126085D01*
X117163Y126095D01*
X117261Y126182D01*
X117368Y126260D01*
X117476Y126319D01*
X117593Y126377D01*
X117817Y126465D01*
X118032Y126524D01*
X118227Y126553D01*
X118305Y126573D01*
X118383D01*
X118441Y126582D01*
X118519D01*
X118675Y126573D01*
D02*
G37*
G36*
X359287Y44528D02*
X359443Y44518D01*
X359735Y44459D01*
X359862Y44430D01*
X359989Y44391D01*
X360096Y44342D01*
X360194Y44303D01*
X360281Y44254D01*
X360359Y44215D01*
X360428Y44167D01*
X360486Y44137D01*
X360525Y44108D01*
X360555Y44079D01*
X360574Y44069D01*
X360584Y44059D01*
X360681Y43962D01*
X360759Y43864D01*
X360906Y43640D01*
X361013Y43416D01*
X361091Y43191D01*
X361149Y42996D01*
X361159Y42908D01*
X361179Y42830D01*
X361189Y42772D01*
X361198Y42723D01*
Y42694D01*
Y42684D01*
X360389Y42596D01*
X360369Y42811D01*
X360330Y42996D01*
X360281Y43152D01*
X360213Y43289D01*
X360155Y43396D01*
X360096Y43474D01*
X360057Y43513D01*
X360047Y43533D01*
X359911Y43650D01*
X359765Y43738D01*
X359608Y43796D01*
X359462Y43845D01*
X359335Y43864D01*
X359238Y43874D01*
X359199Y43884D01*
X359140D01*
X358945Y43874D01*
X358770Y43835D01*
X358623Y43786D01*
X358497Y43728D01*
X358399Y43659D01*
X358321Y43611D01*
X358282Y43572D01*
X358262Y43562D01*
X358145Y43435D01*
X358067Y43299D01*
X358009Y43172D01*
X357960Y43045D01*
X357941Y42938D01*
X357931Y42850D01*
X357921Y42791D01*
Y42782D01*
Y42772D01*
X357941Y42606D01*
X357980Y42431D01*
X358038Y42274D01*
X358106Y42128D01*
X358175Y42001D01*
X358233Y41904D01*
X358253Y41865D01*
X358272Y41835D01*
X358292Y41826D01*
Y41816D01*
X358370Y41719D01*
X358457Y41611D01*
X358555Y41504D01*
X358672Y41397D01*
X358906Y41172D01*
X359140Y40948D01*
X359355Y40763D01*
X359452Y40675D01*
X359540Y40606D01*
X359608Y40538D01*
X359657Y40499D01*
X359696Y40470D01*
X359706Y40460D01*
X359940Y40255D01*
X360155Y40070D01*
X360330Y39904D01*
X360476Y39768D01*
X360594Y39651D01*
X360672Y39563D01*
X360720Y39504D01*
X360740Y39495D01*
Y39485D01*
X360867Y39329D01*
X360964Y39183D01*
X361062Y39036D01*
X361130Y38909D01*
X361189Y38792D01*
X361227Y38714D01*
X361247Y38656D01*
X361257Y38646D01*
Y38636D01*
X361286Y38539D01*
X361315Y38441D01*
X361325Y38354D01*
X361335Y38275D01*
X361345Y38207D01*
Y38149D01*
Y38110D01*
Y38100D01*
X357102D01*
Y38851D01*
X360252D01*
X360145Y39007D01*
X360038Y39134D01*
X359989Y39192D01*
X359950Y39231D01*
X359930Y39261D01*
X359921Y39270D01*
X359872Y39319D01*
X359823Y39368D01*
X359696Y39485D01*
X359540Y39621D01*
X359394Y39758D01*
X359248Y39885D01*
X359131Y39982D01*
X359082Y40021D01*
X359043Y40051D01*
X359023Y40070D01*
X359013Y40080D01*
X358857Y40216D01*
X358721Y40333D01*
X358584Y40451D01*
X358467Y40558D01*
X358360Y40665D01*
X358262Y40753D01*
X358165Y40841D01*
X358087Y40919D01*
X358019Y40987D01*
X357960Y41045D01*
X357872Y41133D01*
X357823Y41192D01*
X357804Y41211D01*
X357677Y41367D01*
X357560Y41504D01*
X357472Y41640D01*
X357404Y41757D01*
X357346Y41855D01*
X357307Y41923D01*
X357287Y41972D01*
X357277Y41992D01*
X357219Y42128D01*
X357180Y42265D01*
X357150Y42392D01*
X357131Y42509D01*
X357121Y42606D01*
X357112Y42684D01*
Y42733D01*
Y42752D01*
X357121Y42889D01*
X357131Y43025D01*
X357199Y43269D01*
X357287Y43484D01*
X357385Y43669D01*
X357482Y43815D01*
X357531Y43874D01*
X357570Y43932D01*
X357609Y43972D01*
X357638Y44001D01*
X357648Y44011D01*
X357658Y44020D01*
X357765Y44108D01*
X357872Y44196D01*
X357989Y44264D01*
X358116Y44323D01*
X358360Y44411D01*
X358594Y44469D01*
X358701Y44498D01*
X358799Y44508D01*
X358887Y44518D01*
X358965Y44528D01*
X359033Y44537D01*
X359121D01*
X359287Y44528D01*
D02*
G37*
G36*
X367363Y38100D02*
X366514D01*
Y40948D01*
X365422D01*
X365324Y40938D01*
X365246D01*
X365178Y40928D01*
X365129Y40919D01*
X365090D01*
X365070Y40909D01*
X365061D01*
X364914Y40860D01*
X364797Y40802D01*
X364749Y40772D01*
X364710Y40753D01*
X364690Y40743D01*
X364680Y40733D01*
X364602Y40685D01*
X364534Y40616D01*
X364388Y40480D01*
X364339Y40412D01*
X364290Y40353D01*
X364261Y40314D01*
X364251Y40304D01*
X364154Y40177D01*
X364056Y40041D01*
X363949Y39894D01*
X363851Y39748D01*
X363764Y39621D01*
X363695Y39524D01*
X363676Y39485D01*
X363656Y39456D01*
X363637Y39436D01*
Y39426D01*
X362788Y38100D01*
X361725D01*
X362837Y39836D01*
X362964Y40021D01*
X363091Y40187D01*
X363208Y40333D01*
X363315Y40460D01*
X363403Y40558D01*
X363471Y40636D01*
X363520Y40675D01*
X363539Y40694D01*
X363607Y40753D01*
X363695Y40811D01*
X363861Y40919D01*
X363929Y40958D01*
X363988Y40987D01*
X364027Y41006D01*
X364046Y41016D01*
X363881Y41045D01*
X363725Y41075D01*
X363578Y41114D01*
X363451Y41163D01*
X363325Y41211D01*
X363217Y41260D01*
X363110Y41309D01*
X363022Y41358D01*
X362944Y41406D01*
X362876Y41445D01*
X362817Y41494D01*
X362769Y41523D01*
X362739Y41562D01*
X362710Y41582D01*
X362691Y41601D01*
X362613Y41689D01*
X362544Y41787D01*
X362427Y41982D01*
X362349Y42167D01*
X362300Y42352D01*
X362261Y42509D01*
X362252Y42577D01*
Y42635D01*
X362242Y42684D01*
Y42723D01*
Y42743D01*
Y42752D01*
X362252Y42947D01*
X362281Y43123D01*
X362330Y43289D01*
X362379Y43435D01*
X362427Y43552D01*
X362476Y43640D01*
X362505Y43698D01*
X362515Y43718D01*
X362622Y43874D01*
X362739Y44001D01*
X362856Y44108D01*
X362973Y44186D01*
X363071Y44254D01*
X363149Y44303D01*
X363208Y44323D01*
X363217Y44332D01*
X363227D01*
X363315Y44362D01*
X363412Y44391D01*
X363617Y44430D01*
X363832Y44469D01*
X364037Y44489D01*
X364232Y44498D01*
X364310D01*
X364388Y44508D01*
X367363D01*
Y38100D01*
D02*
G37*
G36*
X320777Y44381D02*
X320884Y44225D01*
X321001Y44079D01*
X321118Y43942D01*
X321226Y43835D01*
X321313Y43747D01*
X321372Y43689D01*
X321382Y43679D01*
X321391Y43669D01*
X321577Y43513D01*
X321772Y43367D01*
X321967Y43240D01*
X322142Y43133D01*
X322299Y43045D01*
X322367Y43016D01*
X322425Y42986D01*
X322464Y42957D01*
X322503Y42938D01*
X322523Y42928D01*
X322533D01*
Y42157D01*
X322396Y42216D01*
X322250Y42284D01*
X322113Y42343D01*
X321986Y42411D01*
X321879Y42470D01*
X321791Y42518D01*
X321733Y42557D01*
X321723Y42567D01*
X321713D01*
X321548Y42665D01*
X321401Y42772D01*
X321274Y42860D01*
X321167Y42947D01*
X321079Y43016D01*
X321011Y43064D01*
X320972Y43103D01*
X320962Y43113D01*
Y38100D01*
X320172D01*
Y44537D01*
X320689D01*
X320777Y44381D01*
D02*
G37*
G36*
X329263Y38100D02*
X328414D01*
Y40948D01*
X327322D01*
X327224Y40938D01*
X327146D01*
X327078Y40928D01*
X327029Y40919D01*
X326990D01*
X326970Y40909D01*
X326961D01*
X326814Y40860D01*
X326697Y40802D01*
X326649Y40772D01*
X326610Y40753D01*
X326590Y40743D01*
X326580Y40733D01*
X326502Y40685D01*
X326434Y40616D01*
X326288Y40480D01*
X326239Y40412D01*
X326190Y40353D01*
X326161Y40314D01*
X326151Y40304D01*
X326054Y40177D01*
X325956Y40041D01*
X325849Y39894D01*
X325751Y39748D01*
X325663Y39621D01*
X325595Y39524D01*
X325576Y39485D01*
X325556Y39456D01*
X325537Y39436D01*
Y39426D01*
X324688Y38100D01*
X323625D01*
X324737Y39836D01*
X324864Y40021D01*
X324991Y40187D01*
X325107Y40333D01*
X325215Y40460D01*
X325303Y40558D01*
X325371Y40636D01*
X325420Y40675D01*
X325439Y40694D01*
X325507Y40753D01*
X325595Y40811D01*
X325761Y40919D01*
X325829Y40958D01*
X325888Y40987D01*
X325927Y41006D01*
X325946Y41016D01*
X325780Y41045D01*
X325625Y41075D01*
X325478Y41114D01*
X325351Y41163D01*
X325225Y41211D01*
X325117Y41260D01*
X325010Y41309D01*
X324922Y41358D01*
X324844Y41406D01*
X324776Y41445D01*
X324717Y41494D01*
X324669Y41523D01*
X324639Y41562D01*
X324610Y41582D01*
X324591Y41601D01*
X324513Y41689D01*
X324444Y41787D01*
X324327Y41982D01*
X324249Y42167D01*
X324200Y42352D01*
X324161Y42509D01*
X324152Y42577D01*
Y42635D01*
X324142Y42684D01*
Y42723D01*
Y42743D01*
Y42752D01*
X324152Y42947D01*
X324181Y43123D01*
X324230Y43289D01*
X324278Y43435D01*
X324327Y43552D01*
X324376Y43640D01*
X324405Y43698D01*
X324415Y43718D01*
X324522Y43874D01*
X324639Y44001D01*
X324756Y44108D01*
X324873Y44186D01*
X324971Y44254D01*
X325049Y44303D01*
X325107Y44323D01*
X325117Y44332D01*
X325127D01*
X325215Y44362D01*
X325312Y44391D01*
X325517Y44430D01*
X325732Y44469D01*
X325937Y44489D01*
X326132Y44498D01*
X326210D01*
X326288Y44508D01*
X329263D01*
Y38100D01*
D02*
G37*
G36*
X313027Y271965D02*
X313203Y271945D01*
X313368Y271906D01*
X313524Y271857D01*
X313671Y271799D01*
X313798Y271740D01*
X313924Y271672D01*
X314032Y271604D01*
X314129Y271536D01*
X314217Y271467D01*
X314285Y271409D01*
X314354Y271350D01*
X314402Y271301D01*
X314432Y271262D01*
X314451Y271243D01*
X314461Y271233D01*
X314578Y271068D01*
X314685Y270872D01*
X314773Y270677D01*
X314851Y270453D01*
X314919Y270238D01*
X314978Y270014D01*
X315027Y269790D01*
X315056Y269565D01*
X315085Y269361D01*
X315105Y269165D01*
X315124Y268990D01*
X315134Y268834D01*
X315144Y268707D01*
Y268610D01*
Y268580D01*
Y268551D01*
Y268541D01*
Y268531D01*
X315134Y268229D01*
X315114Y267956D01*
X315085Y267693D01*
X315046Y267459D01*
X314997Y267244D01*
X314949Y267049D01*
X314890Y266873D01*
X314832Y266717D01*
X314783Y266581D01*
X314724Y266464D01*
X314675Y266366D01*
X314627Y266288D01*
X314588Y266230D01*
X314558Y266191D01*
X314539Y266161D01*
X314529Y266152D01*
X314412Y266025D01*
X314285Y265918D01*
X314149Y265820D01*
X314012Y265732D01*
X313876Y265664D01*
X313749Y265605D01*
X313612Y265557D01*
X313486Y265518D01*
X313368Y265488D01*
X313261Y265469D01*
X313164Y265449D01*
X313086Y265440D01*
X313017D01*
X312959Y265430D01*
X312920D01*
X312715Y265440D01*
X312520Y265469D01*
X312344Y265518D01*
X312188Y265566D01*
X312071Y265615D01*
X311974Y265664D01*
X311915Y265693D01*
X311896Y265703D01*
X311730Y265820D01*
X311593Y265947D01*
X311467Y266074D01*
X311359Y266200D01*
X311281Y266318D01*
X311223Y266405D01*
X311203Y266444D01*
X311184Y266474D01*
X311174Y266483D01*
Y266493D01*
X311086Y266688D01*
X311018Y266883D01*
X310979Y267078D01*
X310940Y267244D01*
X310920Y267400D01*
Y267459D01*
X310911Y267517D01*
Y267556D01*
Y267585D01*
Y267605D01*
Y267615D01*
X310920Y267780D01*
X310930Y267946D01*
X310959Y268093D01*
X310998Y268239D01*
X311037Y268366D01*
X311086Y268493D01*
X311135Y268600D01*
X311184Y268707D01*
X311242Y268795D01*
X311291Y268873D01*
X311340Y268941D01*
X311379Y269000D01*
X311418Y269049D01*
X311447Y269078D01*
X311457Y269097D01*
X311467Y269107D01*
X311574Y269214D01*
X311681Y269302D01*
X311798Y269380D01*
X311915Y269448D01*
X312022Y269507D01*
X312139Y269546D01*
X312344Y269624D01*
X312530Y269663D01*
X312608Y269673D01*
X312676Y269682D01*
X312735Y269692D01*
X312812D01*
X312978Y269682D01*
X313134Y269663D01*
X313281Y269624D01*
X313407Y269585D01*
X313515Y269546D01*
X313603Y269507D01*
X313651Y269487D01*
X313671Y269478D01*
X313817Y269390D01*
X313954Y269292D01*
X314071Y269185D01*
X314168Y269078D01*
X314256Y268980D01*
X314315Y268902D01*
X314354Y268853D01*
X314363Y268844D01*
Y269009D01*
X314354Y269175D01*
X314344Y269331D01*
X314334Y269478D01*
X314315Y269604D01*
X314295Y269731D01*
X314275Y269839D01*
X314256Y269936D01*
X314237Y270024D01*
X314217Y270102D01*
X314198Y270170D01*
X314178Y270219D01*
X314168Y270258D01*
X314158Y270297D01*
X314149Y270307D01*
Y270316D01*
X314061Y270502D01*
X313963Y270668D01*
X313866Y270804D01*
X313768Y270911D01*
X313690Y270999D01*
X313622Y271068D01*
X313583Y271106D01*
X313563Y271116D01*
X313447Y271185D01*
X313339Y271243D01*
X313222Y271282D01*
X313115Y271301D01*
X313027Y271321D01*
X312959Y271331D01*
X312890D01*
X312725Y271321D01*
X312569Y271282D01*
X312432Y271224D01*
X312315Y271165D01*
X312227Y271097D01*
X312159Y271048D01*
X312110Y271009D01*
X312101Y270989D01*
X312032Y270902D01*
X311974Y270804D01*
X311876Y270580D01*
X311847Y270482D01*
X311818Y270404D01*
X311798Y270346D01*
Y270336D01*
Y270326D01*
X311018Y270385D01*
X311067Y270648D01*
X311154Y270882D01*
X311242Y271077D01*
X311350Y271243D01*
X311447Y271370D01*
X311525Y271467D01*
X311584Y271526D01*
X311593Y271545D01*
X311603D01*
X311701Y271623D01*
X311798Y271692D01*
X312003Y271789D01*
X312208Y271867D01*
X312403Y271926D01*
X312578Y271955D01*
X312656Y271965D01*
X312715D01*
X312773Y271975D01*
X312842D01*
X313027Y271965D01*
D02*
G37*
G36*
X321230Y265537D02*
X320381D01*
Y268385D01*
X319289D01*
X319191Y268375D01*
X319113D01*
X319045Y268366D01*
X318996Y268356D01*
X318957D01*
X318938Y268346D01*
X318928D01*
X318782Y268297D01*
X318665Y268239D01*
X318616Y268210D01*
X318577Y268190D01*
X318557Y268180D01*
X318548Y268171D01*
X318470Y268122D01*
X318401Y268054D01*
X318255Y267917D01*
X318206Y267849D01*
X318158Y267790D01*
X318128Y267751D01*
X318118Y267742D01*
X318021Y267615D01*
X317923Y267478D01*
X317816Y267332D01*
X317719Y267185D01*
X317631Y267059D01*
X317563Y266961D01*
X317543Y266922D01*
X317523Y266893D01*
X317504Y266873D01*
Y266864D01*
X316655Y265537D01*
X315592D01*
X316704Y267273D01*
X316831Y267459D01*
X316958Y267624D01*
X317075Y267771D01*
X317182Y267897D01*
X317270Y267995D01*
X317338Y268073D01*
X317387Y268112D01*
X317407Y268132D01*
X317475Y268190D01*
X317563Y268249D01*
X317728Y268356D01*
X317797Y268395D01*
X317855Y268424D01*
X317894Y268444D01*
X317914Y268454D01*
X317748Y268483D01*
X317592Y268512D01*
X317446Y268551D01*
X317319Y268600D01*
X317192Y268649D01*
X317085Y268697D01*
X316977Y268746D01*
X316889Y268795D01*
X316812Y268844D01*
X316743Y268883D01*
X316685Y268931D01*
X316636Y268961D01*
X316607Y269000D01*
X316577Y269019D01*
X316558Y269039D01*
X316480Y269126D01*
X316412Y269224D01*
X316294Y269419D01*
X316217Y269604D01*
X316168Y269790D01*
X316129Y269946D01*
X316119Y270014D01*
Y270073D01*
X316109Y270121D01*
Y270160D01*
Y270180D01*
Y270190D01*
X316119Y270385D01*
X316148Y270560D01*
X316197Y270726D01*
X316246Y270872D01*
X316294Y270989D01*
X316343Y271077D01*
X316373Y271136D01*
X316382Y271155D01*
X316490Y271311D01*
X316607Y271438D01*
X316724Y271545D01*
X316841Y271623D01*
X316938Y271692D01*
X317016Y271740D01*
X317075Y271760D01*
X317085Y271770D01*
X317094D01*
X317182Y271799D01*
X317280Y271828D01*
X317484Y271867D01*
X317699Y271906D01*
X317904Y271926D01*
X318099Y271936D01*
X318177D01*
X318255Y271945D01*
X321230D01*
Y265537D01*
D02*
G37*
G36*
X393499Y282218D02*
X393645D01*
X393791Y282208D01*
X393928Y282198D01*
X394055Y282179D01*
X394162Y282169D01*
X394269Y282159D01*
X394357Y282140D01*
X394445Y282130D01*
X394513Y282120D01*
X394562Y282101D01*
X394611Y282091D01*
X394640D01*
X394659Y282081D01*
X394669D01*
X394874Y282023D01*
X395059Y281954D01*
X395225Y281886D01*
X395362Y281828D01*
X395469Y281769D01*
X395557Y281720D01*
X395606Y281691D01*
X395625Y281681D01*
X395761Y281584D01*
X395879Y281476D01*
X395986Y281369D01*
X396074Y281272D01*
X396132Y281174D01*
X396181Y281106D01*
X396210Y281057D01*
X396220Y281038D01*
X396288Y280891D01*
X396347Y280735D01*
X396386Y280579D01*
X396405Y280443D01*
X396425Y280326D01*
X396435Y280228D01*
Y280140D01*
X396415Y279887D01*
X396376Y279662D01*
X396317Y279457D01*
X396249Y279292D01*
X396171Y279155D01*
X396113Y279058D01*
X396093Y279019D01*
X396074Y278989D01*
X396054Y278980D01*
Y278970D01*
X395898Y278804D01*
X395732Y278668D01*
X395557Y278550D01*
X395381Y278453D01*
X395225Y278375D01*
X395157Y278346D01*
X395098Y278326D01*
X395050Y278307D01*
X395010Y278287D01*
X394991Y278277D01*
X394981D01*
X394845Y278238D01*
X394708Y278199D01*
X394406Y278151D01*
X394103Y278111D01*
X393811Y278082D01*
X393674Y278072D01*
X393548Y278063D01*
X393440D01*
X393343Y278053D01*
X393265D01*
X393206D01*
X393167D01*
X393157D01*
X392836Y278063D01*
X392523Y278082D01*
X392250Y278111D01*
X391987Y278151D01*
X391753Y278199D01*
X391538Y278248D01*
X391343Y278307D01*
X391177Y278365D01*
X391021Y278424D01*
X390895Y278482D01*
X390787Y278531D01*
X390699Y278580D01*
X390631Y278619D01*
X390582Y278648D01*
X390553Y278668D01*
X390543Y278677D01*
X390426Y278785D01*
X390329Y278892D01*
X390241Y279009D01*
X390163Y279136D01*
X390104Y279253D01*
X390046Y279380D01*
X389968Y279614D01*
X389948Y279721D01*
X389929Y279818D01*
X389909Y279906D01*
X389900Y279984D01*
X389890Y280053D01*
Y280140D01*
X389909Y280394D01*
X389948Y280618D01*
X390007Y280813D01*
X390075Y280989D01*
X390144Y281116D01*
X390202Y281223D01*
X390231Y281252D01*
X390241Y281282D01*
X390261Y281291D01*
Y281301D01*
X390417Y281467D01*
X390592Y281603D01*
X390768Y281720D01*
X390943Y281818D01*
X391099Y281896D01*
X391158Y281925D01*
X391216Y281954D01*
X391265Y281974D01*
X391304Y281984D01*
X391324Y281994D01*
X391333D01*
X391470Y282033D01*
X391606Y282071D01*
X391909Y282130D01*
X392211Y282169D01*
X392504Y282198D01*
X392640Y282208D01*
X392767Y282218D01*
X392874D01*
X392972Y282228D01*
X393050D01*
X393109D01*
X393148D01*
X393157D01*
X393499Y282218D01*
D02*
G37*
G36*
X390748Y274064D02*
X390904Y274171D01*
X391031Y274278D01*
X391090Y274327D01*
X391129Y274366D01*
X391158Y274386D01*
X391168Y274395D01*
X391216Y274444D01*
X391265Y274493D01*
X391382Y274620D01*
X391519Y274776D01*
X391655Y274922D01*
X391782Y275068D01*
X391880Y275186D01*
X391919Y275234D01*
X391948Y275273D01*
X391967Y275293D01*
X391977Y275303D01*
X392114Y275459D01*
X392231Y275595D01*
X392348Y275732D01*
X392455Y275849D01*
X392562Y275956D01*
X392650Y276054D01*
X392738Y276151D01*
X392816Y276229D01*
X392884Y276297D01*
X392943Y276356D01*
X393031Y276444D01*
X393089Y276492D01*
X393109Y276512D01*
X393265Y276639D01*
X393401Y276756D01*
X393538Y276844D01*
X393655Y276912D01*
X393752Y276970D01*
X393821Y277009D01*
X393869Y277029D01*
X393889Y277039D01*
X394025Y277097D01*
X394162Y277136D01*
X394289Y277165D01*
X394406Y277185D01*
X394503Y277195D01*
X394581Y277204D01*
X394630D01*
X394650D01*
X394786Y277195D01*
X394923Y277185D01*
X395167Y277117D01*
X395381Y277029D01*
X395566Y276931D01*
X395713Y276834D01*
X395771Y276785D01*
X395830Y276746D01*
X395869Y276707D01*
X395898Y276678D01*
X395908Y276668D01*
X395918Y276658D01*
X396005Y276551D01*
X396093Y276444D01*
X396161Y276327D01*
X396220Y276200D01*
X396308Y275956D01*
X396366Y275722D01*
X396395Y275615D01*
X396405Y275517D01*
X396415Y275429D01*
X396425Y275351D01*
X396435Y275283D01*
Y275195D01*
X396425Y275029D01*
X396415Y274873D01*
X396357Y274581D01*
X396327Y274454D01*
X396288Y274327D01*
X396240Y274220D01*
X396200Y274122D01*
X396152Y274035D01*
X396113Y273957D01*
X396064Y273888D01*
X396035Y273830D01*
X396005Y273791D01*
X395976Y273761D01*
X395966Y273742D01*
X395957Y273732D01*
X395859Y273635D01*
X395761Y273557D01*
X395537Y273410D01*
X395313Y273303D01*
X395089Y273225D01*
X394893Y273167D01*
X394806Y273157D01*
X394728Y273137D01*
X394669Y273127D01*
X394620Y273118D01*
X394591D01*
X394581D01*
X394494Y273927D01*
X394708Y273947D01*
X394893Y273986D01*
X395050Y274035D01*
X395186Y274103D01*
X395293Y274161D01*
X395371Y274220D01*
X395410Y274259D01*
X395430Y274269D01*
X395547Y274405D01*
X395635Y274552D01*
X395693Y274708D01*
X395742Y274854D01*
X395761Y274981D01*
X395771Y275078D01*
X395781Y275117D01*
Y275176D01*
X395771Y275371D01*
X395732Y275546D01*
X395684Y275693D01*
X395625Y275819D01*
X395557Y275917D01*
X395508Y275995D01*
X395469Y276034D01*
X395459Y276054D01*
X395332Y276171D01*
X395196Y276249D01*
X395069Y276307D01*
X394942Y276356D01*
X394835Y276375D01*
X394747Y276385D01*
X394689Y276395D01*
X394679D01*
X394669D01*
X394503Y276375D01*
X394328Y276336D01*
X394172Y276278D01*
X394025Y276210D01*
X393899Y276141D01*
X393801Y276083D01*
X393762Y276063D01*
X393733Y276044D01*
X393723Y276024D01*
X393713D01*
X393616Y275946D01*
X393508Y275858D01*
X393401Y275761D01*
X393294Y275644D01*
X393069Y275410D01*
X392845Y275176D01*
X392660Y274961D01*
X392572Y274864D01*
X392504Y274776D01*
X392436Y274708D01*
X392397Y274659D01*
X392367Y274620D01*
X392357Y274610D01*
X392153Y274376D01*
X391967Y274161D01*
X391802Y273986D01*
X391665Y273839D01*
X391548Y273722D01*
X391460Y273644D01*
X391402Y273596D01*
X391392Y273576D01*
X391382D01*
X391226Y273449D01*
X391080Y273352D01*
X390933Y273254D01*
X390807Y273186D01*
X390690Y273127D01*
X390612Y273088D01*
X390553Y273069D01*
X390543Y273059D01*
X390534D01*
X390436Y273030D01*
X390339Y273001D01*
X390251Y272991D01*
X390173Y272981D01*
X390104Y272971D01*
X390046D01*
X390007D01*
X389997D01*
Y277214D01*
X390748D01*
Y274064D01*
D02*
G37*
G36*
X392240Y271508D02*
X391958Y271430D01*
X391704Y271333D01*
X391499Y271216D01*
X391324Y271108D01*
X391197Y271001D01*
X391099Y270913D01*
X391041Y270855D01*
X391031Y270845D01*
X391021Y270835D01*
X390885Y270640D01*
X390787Y270445D01*
X390709Y270240D01*
X390660Y270055D01*
X390631Y269889D01*
X390621Y269811D01*
Y269753D01*
X390612Y269704D01*
Y269636D01*
X390621Y269421D01*
X390660Y269216D01*
X390709Y269031D01*
X390758Y268875D01*
X390816Y268738D01*
X390855Y268631D01*
X390875Y268592D01*
X390895Y268563D01*
X390904Y268553D01*
Y268543D01*
X391031Y268368D01*
X391177Y268221D01*
X391324Y268095D01*
X391480Y267987D01*
X391606Y267909D01*
X391724Y267861D01*
X391763Y267841D01*
X391792Y267822D01*
X391811Y267812D01*
X391821D01*
X392055Y267734D01*
X392299Y267675D01*
X392543Y267636D01*
X392767Y267607D01*
X392865Y267597D01*
X392952Y267587D01*
X393040D01*
X393109Y267578D01*
X393167D01*
X393206D01*
X393235D01*
X393245D01*
X393479Y267587D01*
X393703Y267607D01*
X393908Y267636D01*
X394094Y267675D01*
X394250Y267714D01*
X394318Y267724D01*
X394367Y267743D01*
X394416Y267753D01*
X394445Y267763D01*
X394464Y267773D01*
X394474D01*
X394689Y267861D01*
X394884Y267968D01*
X395040Y268085D01*
X395176Y268192D01*
X395284Y268299D01*
X395362Y268387D01*
X395410Y268446D01*
X395430Y268456D01*
Y268465D01*
X395547Y268660D01*
X395635Y268865D01*
X395703Y269070D01*
X395742Y269265D01*
X395771Y269441D01*
X395781Y269509D01*
Y269577D01*
X395791Y269626D01*
Y269694D01*
X395781Y269928D01*
X395742Y270133D01*
X395693Y270318D01*
X395635Y270465D01*
X395566Y270592D01*
X395518Y270679D01*
X395479Y270738D01*
X395469Y270757D01*
X395332Y270913D01*
X395176Y271040D01*
X395001Y271157D01*
X394835Y271245D01*
X394689Y271313D01*
X394620Y271343D01*
X394562Y271372D01*
X394513Y271391D01*
X394474Y271401D01*
X394455Y271411D01*
X394445D01*
X394640Y272250D01*
X394952Y272133D01*
X395098Y272064D01*
X395225Y271996D01*
X395352Y271918D01*
X395469Y271840D01*
X395566Y271772D01*
X395664Y271694D01*
X395742Y271625D01*
X395810Y271557D01*
X395879Y271489D01*
X395927Y271440D01*
X395966Y271391D01*
X395996Y271362D01*
X396005Y271343D01*
X396015Y271333D01*
X396103Y271206D01*
X396181Y271079D01*
X396249Y270943D01*
X396308Y270806D01*
X396395Y270533D01*
X396454Y270279D01*
X396474Y270162D01*
X396483Y270055D01*
X396493Y269958D01*
X396503Y269879D01*
X396513Y269811D01*
Y269714D01*
X396493Y269402D01*
X396454Y269109D01*
X396386Y268846D01*
X396357Y268729D01*
X396317Y268621D01*
X396278Y268524D01*
X396249Y268426D01*
X396210Y268348D01*
X396181Y268290D01*
X396161Y268231D01*
X396142Y268192D01*
X396122Y268173D01*
Y268163D01*
X395966Y267919D01*
X395781Y267695D01*
X395596Y267509D01*
X395410Y267363D01*
X395245Y267236D01*
X395176Y267188D01*
X395118Y267148D01*
X395059Y267119D01*
X395020Y267100D01*
X395001Y267080D01*
X394991D01*
X394708Y266953D01*
X394406Y266856D01*
X394113Y266797D01*
X393840Y266749D01*
X393713Y266729D01*
X393606Y266719D01*
X393499Y266710D01*
X393411D01*
X393343Y266700D01*
X393294D01*
X393255D01*
X393245D01*
X392904Y266710D01*
X392592Y266749D01*
X392299Y266807D01*
X392163Y266836D01*
X392045Y266866D01*
X391928Y266895D01*
X391831Y266924D01*
X391743Y266953D01*
X391665Y266983D01*
X391606Y267002D01*
X391567Y267022D01*
X391538Y267031D01*
X391529D01*
X391246Y267168D01*
X391002Y267334D01*
X390787Y267490D01*
X390621Y267656D01*
X390485Y267792D01*
X390387Y267909D01*
X390358Y267958D01*
X390329Y267987D01*
X390319Y268007D01*
X390309Y268017D01*
X390231Y268143D01*
X390173Y268280D01*
X390065Y268553D01*
X389997Y268836D01*
X389939Y269109D01*
X389929Y269226D01*
X389909Y269343D01*
X389900Y269441D01*
Y269528D01*
X389890Y269606D01*
Y269704D01*
X389900Y269889D01*
X389909Y270065D01*
X389978Y270387D01*
X390017Y270533D01*
X390065Y270679D01*
X390114Y270806D01*
X390163Y270923D01*
X390212Y271030D01*
X390261Y271118D01*
X390309Y271196D01*
X390348Y271264D01*
X390387Y271323D01*
X390417Y271362D01*
X390426Y271382D01*
X390436Y271391D01*
X390543Y271518D01*
X390660Y271635D01*
X390914Y271830D01*
X391177Y272006D01*
X391441Y272133D01*
X391558Y272191D01*
X391665Y272230D01*
X391772Y272269D01*
X391850Y272308D01*
X391928Y272328D01*
X391977Y272347D01*
X392016Y272357D01*
X392026D01*
X392240Y271508D01*
D02*
G37*
G36*
X376115Y279231D02*
X375959Y279143D01*
X375802Y279036D01*
X375656Y278919D01*
X375520Y278802D01*
X375412Y278695D01*
X375325Y278607D01*
X375266Y278548D01*
X375256Y278539D01*
X375247Y278529D01*
X375090Y278344D01*
X374944Y278148D01*
X374817Y277953D01*
X374710Y277778D01*
X374622Y277622D01*
X374593Y277554D01*
X374564Y277495D01*
X374534Y277456D01*
X374515Y277417D01*
X374505Y277397D01*
Y277388D01*
X373735D01*
X373793Y277524D01*
X373862Y277671D01*
X373920Y277807D01*
X373988Y277934D01*
X374047Y278041D01*
X374095Y278129D01*
X374135Y278188D01*
X374144Y278197D01*
Y278207D01*
X374242Y278373D01*
X374349Y278519D01*
X374437Y278646D01*
X374525Y278753D01*
X374593Y278841D01*
X374642Y278909D01*
X374681Y278948D01*
X374691Y278958D01*
X369677D01*
Y279748D01*
X376115D01*
Y279231D01*
D02*
G37*
G36*
X370428Y272794D02*
X370584Y272901D01*
X370711Y273008D01*
X370770Y273057D01*
X370809Y273096D01*
X370838Y273116D01*
X370848Y273125D01*
X370896Y273174D01*
X370945Y273223D01*
X371062Y273350D01*
X371199Y273506D01*
X371335Y273652D01*
X371462Y273798D01*
X371560Y273916D01*
X371599Y273964D01*
X371628Y274003D01*
X371647Y274023D01*
X371657Y274032D01*
X371794Y274189D01*
X371911Y274325D01*
X372028Y274462D01*
X372135Y274579D01*
X372242Y274686D01*
X372330Y274783D01*
X372418Y274881D01*
X372496Y274959D01*
X372564Y275027D01*
X372623Y275086D01*
X372710Y275174D01*
X372769Y275222D01*
X372789Y275242D01*
X372945Y275369D01*
X373081Y275486D01*
X373218Y275574D01*
X373335Y275642D01*
X373432Y275700D01*
X373501Y275739D01*
X373549Y275759D01*
X373569Y275769D01*
X373705Y275827D01*
X373842Y275866D01*
X373969Y275895D01*
X374086Y275915D01*
X374183Y275925D01*
X374261Y275934D01*
X374310D01*
X374330D01*
X374466Y275925D01*
X374603Y275915D01*
X374847Y275847D01*
X375061Y275759D01*
X375247Y275661D01*
X375393Y275564D01*
X375451Y275515D01*
X375510Y275476D01*
X375549Y275437D01*
X375578Y275408D01*
X375588Y275398D01*
X375598Y275388D01*
X375685Y275281D01*
X375773Y275174D01*
X375841Y275057D01*
X375900Y274930D01*
X375988Y274686D01*
X376046Y274452D01*
X376076Y274345D01*
X376085Y274247D01*
X376095Y274159D01*
X376105Y274081D01*
X376115Y274013D01*
Y273925D01*
X376105Y273759D01*
X376095Y273603D01*
X376036Y273311D01*
X376007Y273184D01*
X375968Y273057D01*
X375919Y272950D01*
X375881Y272852D01*
X375832Y272764D01*
X375793Y272687D01*
X375744Y272618D01*
X375715Y272560D01*
X375685Y272521D01*
X375656Y272491D01*
X375646Y272472D01*
X375637Y272462D01*
X375539Y272365D01*
X375442Y272287D01*
X375217Y272140D01*
X374993Y272033D01*
X374768Y271955D01*
X374574Y271896D01*
X374486Y271887D01*
X374408Y271867D01*
X374349Y271857D01*
X374300Y271848D01*
X374271D01*
X374261D01*
X374174Y272657D01*
X374388Y272677D01*
X374574Y272716D01*
X374729Y272764D01*
X374866Y272833D01*
X374973Y272891D01*
X375051Y272950D01*
X375090Y272989D01*
X375110Y272999D01*
X375227Y273135D01*
X375315Y273281D01*
X375373Y273438D01*
X375422Y273584D01*
X375442Y273711D01*
X375451Y273808D01*
X375461Y273847D01*
Y273906D01*
X375451Y274101D01*
X375412Y274276D01*
X375364Y274423D01*
X375305Y274549D01*
X375237Y274647D01*
X375188Y274725D01*
X375149Y274764D01*
X375139Y274783D01*
X375012Y274901D01*
X374876Y274979D01*
X374749Y275037D01*
X374622Y275086D01*
X374515Y275105D01*
X374427Y275115D01*
X374369Y275125D01*
X374359D01*
X374349D01*
X374183Y275105D01*
X374008Y275066D01*
X373852Y275008D01*
X373705Y274940D01*
X373579Y274871D01*
X373481Y274813D01*
X373442Y274793D01*
X373413Y274774D01*
X373403Y274754D01*
X373393D01*
X373296Y274676D01*
X373189Y274589D01*
X373081Y274491D01*
X372974Y274374D01*
X372749Y274140D01*
X372525Y273906D01*
X372340Y273691D01*
X372252Y273594D01*
X372184Y273506D01*
X372116Y273438D01*
X372076Y273389D01*
X372047Y273350D01*
X372038Y273340D01*
X371833Y273106D01*
X371647Y272891D01*
X371482Y272716D01*
X371345Y272570D01*
X371228Y272452D01*
X371140Y272374D01*
X371082Y272326D01*
X371072Y272306D01*
X371062D01*
X370906Y272179D01*
X370760Y272082D01*
X370614Y271984D01*
X370487Y271916D01*
X370370Y271857D01*
X370292Y271818D01*
X370233Y271799D01*
X370223Y271789D01*
X370214D01*
X370116Y271760D01*
X370019Y271731D01*
X369931Y271721D01*
X369853Y271711D01*
X369785Y271701D01*
X369726D01*
X369687D01*
X369677D01*
Y275944D01*
X370428D01*
Y272794D01*
D02*
G37*
G36*
X371921Y270238D02*
X371638Y270160D01*
X371384Y270063D01*
X371179Y269946D01*
X371004Y269838D01*
X370877Y269731D01*
X370779Y269643D01*
X370721Y269585D01*
X370711Y269575D01*
X370701Y269565D01*
X370565Y269370D01*
X370467Y269175D01*
X370389Y268970D01*
X370340Y268785D01*
X370311Y268619D01*
X370301Y268541D01*
Y268483D01*
X370292Y268434D01*
Y268366D01*
X370301Y268151D01*
X370340Y267946D01*
X370389Y267761D01*
X370438Y267605D01*
X370496Y267468D01*
X370536Y267361D01*
X370555Y267322D01*
X370574Y267293D01*
X370584Y267283D01*
Y267273D01*
X370711Y267098D01*
X370857Y266951D01*
X371004Y266825D01*
X371160Y266717D01*
X371287Y266639D01*
X371404Y266590D01*
X371443Y266571D01*
X371472Y266551D01*
X371491Y266542D01*
X371501D01*
X371735Y266464D01*
X371979Y266405D01*
X372223Y266366D01*
X372447Y266337D01*
X372545Y266327D01*
X372632Y266317D01*
X372720D01*
X372789Y266308D01*
X372847D01*
X372886D01*
X372915D01*
X372925D01*
X373159Y266317D01*
X373383Y266337D01*
X373588Y266366D01*
X373774Y266405D01*
X373930Y266444D01*
X373998Y266454D01*
X374047Y266474D01*
X374095Y266483D01*
X374125Y266493D01*
X374144Y266503D01*
X374154D01*
X374369Y266590D01*
X374564Y266698D01*
X374720Y266815D01*
X374856Y266922D01*
X374964Y267029D01*
X375042Y267117D01*
X375090Y267176D01*
X375110Y267185D01*
Y267195D01*
X375227Y267390D01*
X375315Y267595D01*
X375383Y267800D01*
X375422Y267995D01*
X375451Y268171D01*
X375461Y268239D01*
Y268307D01*
X375471Y268356D01*
Y268424D01*
X375461Y268658D01*
X375422Y268863D01*
X375373Y269048D01*
X375315Y269195D01*
X375247Y269321D01*
X375198Y269409D01*
X375159Y269468D01*
X375149Y269487D01*
X375012Y269643D01*
X374856Y269770D01*
X374681Y269887D01*
X374515Y269975D01*
X374369Y270043D01*
X374300Y270072D01*
X374242Y270102D01*
X374193Y270121D01*
X374154Y270131D01*
X374135Y270141D01*
X374125D01*
X374320Y270980D01*
X374632Y270863D01*
X374778Y270794D01*
X374905Y270726D01*
X375032Y270648D01*
X375149Y270570D01*
X375247Y270502D01*
X375344Y270424D01*
X375422Y270355D01*
X375490Y270287D01*
X375559Y270219D01*
X375607Y270170D01*
X375646Y270121D01*
X375676Y270092D01*
X375685Y270072D01*
X375695Y270063D01*
X375783Y269936D01*
X375861Y269809D01*
X375929Y269673D01*
X375988Y269536D01*
X376076Y269263D01*
X376134Y269009D01*
X376154Y268892D01*
X376163Y268785D01*
X376173Y268687D01*
X376183Y268610D01*
X376193Y268541D01*
Y268444D01*
X376173Y268132D01*
X376134Y267839D01*
X376066Y267576D01*
X376036Y267459D01*
X375998Y267351D01*
X375959Y267254D01*
X375929Y267156D01*
X375890Y267078D01*
X375861Y267020D01*
X375841Y266961D01*
X375822Y266922D01*
X375802Y266903D01*
Y266893D01*
X375646Y266649D01*
X375461Y266425D01*
X375276Y266239D01*
X375090Y266093D01*
X374925Y265966D01*
X374856Y265917D01*
X374798Y265879D01*
X374739Y265849D01*
X374700Y265830D01*
X374681Y265810D01*
X374671D01*
X374388Y265683D01*
X374086Y265586D01*
X373793Y265527D01*
X373520Y265479D01*
X373393Y265459D01*
X373286Y265449D01*
X373179Y265440D01*
X373091D01*
X373023Y265430D01*
X372974D01*
X372935D01*
X372925D01*
X372584Y265440D01*
X372272Y265479D01*
X371979Y265537D01*
X371842Y265566D01*
X371725Y265596D01*
X371608Y265625D01*
X371511Y265654D01*
X371423Y265683D01*
X371345Y265713D01*
X371287Y265732D01*
X371247Y265752D01*
X371218Y265761D01*
X371208D01*
X370926Y265898D01*
X370682Y266064D01*
X370467Y266220D01*
X370301Y266386D01*
X370165Y266522D01*
X370067Y266639D01*
X370038Y266688D01*
X370009Y266717D01*
X369999Y266737D01*
X369989Y266747D01*
X369911Y266873D01*
X369853Y267010D01*
X369745Y267283D01*
X369677Y267566D01*
X369619Y267839D01*
X369609Y267956D01*
X369589Y268073D01*
X369580Y268171D01*
Y268258D01*
X369570Y268336D01*
Y268434D01*
X369580Y268619D01*
X369589Y268795D01*
X369658Y269117D01*
X369697Y269263D01*
X369745Y269409D01*
X369794Y269536D01*
X369843Y269653D01*
X369892Y269760D01*
X369940Y269848D01*
X369989Y269926D01*
X370028Y269995D01*
X370067Y270053D01*
X370097Y270092D01*
X370106Y270112D01*
X370116Y270121D01*
X370223Y270248D01*
X370340Y270365D01*
X370594Y270560D01*
X370857Y270736D01*
X371121Y270863D01*
X371238Y270921D01*
X371345Y270960D01*
X371452Y270999D01*
X371530Y271038D01*
X371608Y271058D01*
X371657Y271077D01*
X371696Y271087D01*
X371706D01*
X371921Y270238D01*
D02*
G37*
G36*
X347169Y266690D02*
X347345Y266681D01*
X347667Y266612D01*
X347813Y266573D01*
X347959Y266525D01*
X348086Y266476D01*
X348203Y266427D01*
X348310Y266378D01*
X348398Y266329D01*
X348476Y266281D01*
X348545Y266242D01*
X348603Y266203D01*
X348642Y266173D01*
X348662Y266164D01*
X348671Y266154D01*
X348798Y266047D01*
X348915Y265930D01*
X349110Y265676D01*
X349286Y265413D01*
X349413Y265149D01*
X349471Y265032D01*
X349510Y264925D01*
X349549Y264818D01*
X349588Y264740D01*
X349608Y264662D01*
X349627Y264613D01*
X349637Y264574D01*
Y264564D01*
X348788Y264349D01*
X348710Y264632D01*
X348613Y264886D01*
X348496Y265091D01*
X348388Y265266D01*
X348281Y265393D01*
X348193Y265491D01*
X348135Y265549D01*
X348125Y265559D01*
X348115Y265569D01*
X347920Y265705D01*
X347725Y265803D01*
X347520Y265881D01*
X347335Y265930D01*
X347169Y265959D01*
X347091Y265969D01*
X347033D01*
X346984Y265978D01*
X346916D01*
X346701Y265969D01*
X346496Y265930D01*
X346311Y265881D01*
X346155Y265832D01*
X346018Y265774D01*
X345911Y265735D01*
X345872Y265715D01*
X345843Y265695D01*
X345833Y265686D01*
X345823D01*
X345648Y265559D01*
X345501Y265413D01*
X345375Y265266D01*
X345267Y265110D01*
X345189Y264983D01*
X345140Y264866D01*
X345121Y264827D01*
X345102Y264798D01*
X345092Y264779D01*
Y264769D01*
X345014Y264535D01*
X344955Y264291D01*
X344916Y264047D01*
X344887Y263823D01*
X344877Y263725D01*
X344867Y263637D01*
Y263550D01*
X344858Y263481D01*
Y263423D01*
Y263384D01*
Y263355D01*
Y263345D01*
X344867Y263111D01*
X344887Y262886D01*
X344916Y262682D01*
X344955Y262496D01*
X344994Y262340D01*
X345004Y262272D01*
X345023Y262223D01*
X345033Y262174D01*
X345043Y262145D01*
X345053Y262126D01*
Y262116D01*
X345140Y261901D01*
X345248Y261706D01*
X345365Y261550D01*
X345472Y261414D01*
X345579Y261306D01*
X345667Y261228D01*
X345726Y261180D01*
X345736Y261160D01*
X345745D01*
X345940Y261043D01*
X346145Y260955D01*
X346350Y260887D01*
X346545Y260848D01*
X346721Y260819D01*
X346789Y260809D01*
X346857D01*
X346906Y260799D01*
X346974D01*
X347208Y260809D01*
X347413Y260848D01*
X347598Y260897D01*
X347745Y260955D01*
X347872Y261024D01*
X347959Y261072D01*
X348018Y261111D01*
X348037Y261121D01*
X348193Y261258D01*
X348320Y261414D01*
X348437Y261589D01*
X348525Y261755D01*
X348593Y261901D01*
X348623Y261970D01*
X348652Y262028D01*
X348671Y262077D01*
X348681Y262116D01*
X348691Y262135D01*
Y262145D01*
X349530Y261950D01*
X349413Y261638D01*
X349344Y261492D01*
X349276Y261365D01*
X349198Y261238D01*
X349120Y261121D01*
X349052Y261024D01*
X348974Y260926D01*
X348905Y260848D01*
X348837Y260780D01*
X348769Y260711D01*
X348720Y260663D01*
X348671Y260624D01*
X348642Y260594D01*
X348623Y260585D01*
X348613Y260575D01*
X348486Y260487D01*
X348359Y260409D01*
X348223Y260341D01*
X348086Y260282D01*
X347813Y260194D01*
X347559Y260136D01*
X347442Y260116D01*
X347335Y260107D01*
X347238Y260097D01*
X347160Y260087D01*
X347091Y260077D01*
X346994D01*
X346682Y260097D01*
X346389Y260136D01*
X346126Y260204D01*
X346009Y260233D01*
X345901Y260273D01*
X345804Y260312D01*
X345706Y260341D01*
X345628Y260380D01*
X345570Y260409D01*
X345511Y260429D01*
X345472Y260448D01*
X345453Y260467D01*
X345443D01*
X345199Y260624D01*
X344975Y260809D01*
X344789Y260994D01*
X344643Y261180D01*
X344516Y261345D01*
X344468Y261414D01*
X344428Y261472D01*
X344399Y261531D01*
X344380Y261570D01*
X344360Y261589D01*
Y261599D01*
X344233Y261882D01*
X344136Y262184D01*
X344077Y262477D01*
X344029Y262750D01*
X344009Y262877D01*
X343999Y262984D01*
X343990Y263091D01*
Y263179D01*
X343980Y263247D01*
Y263296D01*
Y263335D01*
Y263345D01*
X343990Y263686D01*
X344029Y263998D01*
X344087Y264291D01*
X344116Y264428D01*
X344146Y264545D01*
X344175Y264662D01*
X344204Y264759D01*
X344233Y264847D01*
X344263Y264925D01*
X344282Y264983D01*
X344302Y265023D01*
X344311Y265052D01*
Y265061D01*
X344448Y265344D01*
X344614Y265588D01*
X344770Y265803D01*
X344936Y265969D01*
X345072Y266105D01*
X345189Y266203D01*
X345238Y266232D01*
X345267Y266261D01*
X345287Y266271D01*
X345297Y266281D01*
X345423Y266359D01*
X345560Y266417D01*
X345833Y266525D01*
X346116Y266593D01*
X346389Y266651D01*
X346506Y266661D01*
X346623Y266681D01*
X346721Y266690D01*
X346808D01*
X346886Y266700D01*
X346984D01*
X347169Y266690D01*
D02*
G37*
G36*
X357498Y266681D02*
X357742Y266642D01*
X357947Y266583D01*
X358132Y266515D01*
X358279Y266446D01*
X358337Y266417D01*
X358386Y266388D01*
X358435Y266359D01*
X358464Y266349D01*
X358474Y266329D01*
X358483D01*
X358669Y266173D01*
X358825Y265998D01*
X358961Y265812D01*
X359078Y265627D01*
X359166Y265471D01*
X359195Y265403D01*
X359225Y265335D01*
X359244Y265286D01*
X359264Y265247D01*
X359273Y265227D01*
Y265217D01*
X359322Y265071D01*
X359361Y264925D01*
X359430Y264603D01*
X359478Y264271D01*
X359517Y263959D01*
X359527Y263813D01*
X359537Y263686D01*
Y263559D01*
X359547Y263462D01*
Y263374D01*
Y263316D01*
Y263267D01*
Y263257D01*
Y263043D01*
X359537Y262838D01*
X359517Y262652D01*
X359508Y262477D01*
X359488Y262321D01*
X359459Y262174D01*
X359439Y262038D01*
X359410Y261921D01*
X359381Y261814D01*
X359361Y261716D01*
X359342Y261638D01*
X359313Y261579D01*
X359303Y261531D01*
X359283Y261492D01*
X359273Y261472D01*
Y261462D01*
X359166Y261238D01*
X359039Y261043D01*
X358903Y260887D01*
X358776Y260741D01*
X358659Y260633D01*
X358571Y260555D01*
X358532Y260536D01*
X358503Y260516D01*
X358493Y260497D01*
X358483D01*
X358288Y260380D01*
X358083Y260302D01*
X357898Y260243D01*
X357723Y260194D01*
X357567Y260175D01*
X357498Y260165D01*
X357450D01*
X357401Y260155D01*
X357342D01*
X357186Y260165D01*
X357030Y260185D01*
X356884Y260214D01*
X356747Y260243D01*
X356503Y260341D01*
X356396Y260399D01*
X356299Y260448D01*
X356201Y260506D01*
X356123Y260565D01*
X356055Y260614D01*
X356006Y260653D01*
X355957Y260692D01*
X355928Y260721D01*
X355909Y260741D01*
X355899Y260750D01*
X355801Y260867D01*
X355713Y260984D01*
X355635Y261111D01*
X355577Y261248D01*
X355518Y261375D01*
X355470Y261511D01*
X355401Y261755D01*
X355382Y261872D01*
X355362Y261979D01*
X355353Y262077D01*
X355343Y262155D01*
X355333Y262223D01*
Y262282D01*
Y262311D01*
Y262321D01*
X355343Y262496D01*
X355353Y262662D01*
X355382Y262808D01*
X355421Y262955D01*
X355460Y263091D01*
X355509Y263218D01*
X355557Y263335D01*
X355606Y263433D01*
X355655Y263530D01*
X355704Y263608D01*
X355752Y263676D01*
X355791Y263735D01*
X355830Y263784D01*
X355860Y263813D01*
X355869Y263832D01*
X355879Y263842D01*
X355987Y263940D01*
X356094Y264028D01*
X356211Y264106D01*
X356318Y264174D01*
X356435Y264232D01*
X356543Y264281D01*
X356757Y264349D01*
X356942Y264389D01*
X357020Y264398D01*
X357089Y264408D01*
X357147Y264418D01*
X357225D01*
X357401Y264408D01*
X357567Y264379D01*
X357713Y264349D01*
X357840Y264301D01*
X357947Y264262D01*
X358035Y264232D01*
X358083Y264203D01*
X358103Y264193D01*
X358249Y264096D01*
X358376Y263998D01*
X358493Y263891D01*
X358581Y263794D01*
X358659Y263715D01*
X358708Y263637D01*
X358747Y263598D01*
X358756Y263579D01*
Y263647D01*
Y263696D01*
Y263725D01*
Y263735D01*
Y263920D01*
X358737Y264096D01*
X358717Y264252D01*
X358698Y264398D01*
X358679Y264525D01*
X358659Y264623D01*
X358649Y264652D01*
Y264681D01*
X358639Y264691D01*
Y264701D01*
X358591Y264866D01*
X358542Y265013D01*
X358493Y265140D01*
X358454Y265247D01*
X358405Y265335D01*
X358376Y265403D01*
X358357Y265442D01*
X358347Y265452D01*
X358279Y265549D01*
X358201Y265637D01*
X358132Y265715D01*
X358054Y265774D01*
X357996Y265822D01*
X357947Y265861D01*
X357908Y265881D01*
X357898Y265891D01*
X357791Y265949D01*
X357684Y265988D01*
X357576Y266017D01*
X357479Y266037D01*
X357391Y266047D01*
X357323Y266056D01*
X357264D01*
X357108Y266047D01*
X356972Y266017D01*
X356855Y265978D01*
X356757Y265939D01*
X356669Y265900D01*
X356611Y265861D01*
X356572Y265832D01*
X356562Y265822D01*
X356464Y265725D01*
X356386Y265598D01*
X356328Y265471D01*
X356279Y265344D01*
X356240Y265237D01*
X356221Y265140D01*
X356211Y265100D01*
X356201Y265071D01*
Y265061D01*
Y265052D01*
X355450Y265110D01*
X355499Y265383D01*
X355577Y265617D01*
X355665Y265822D01*
X355762Y265988D01*
X355860Y266115D01*
X355938Y266212D01*
X355996Y266271D01*
X356006Y266281D01*
X356016Y266290D01*
X356211Y266427D01*
X356406Y266525D01*
X356611Y266602D01*
X356806Y266651D01*
X356981Y266681D01*
X357059Y266690D01*
X357118D01*
X357177Y266700D01*
X357245D01*
X357498Y266681D01*
D02*
G37*
G36*
X353324Y260155D02*
X352807D01*
X352719Y260312D01*
X352612Y260467D01*
X352495Y260614D01*
X352378Y260750D01*
X352270Y260858D01*
X352183Y260945D01*
X352124Y261004D01*
X352114Y261014D01*
X352105Y261024D01*
X351919Y261180D01*
X351724Y261326D01*
X351529Y261453D01*
X351354Y261560D01*
X351198Y261648D01*
X351129Y261677D01*
X351071Y261706D01*
X351032Y261735D01*
X350993Y261755D01*
X350973Y261765D01*
X350963D01*
Y262535D01*
X351100Y262477D01*
X351246Y262409D01*
X351383Y262350D01*
X351510Y262282D01*
X351617Y262223D01*
X351705Y262174D01*
X351763Y262135D01*
X351773Y262126D01*
X351783D01*
X351949Y262028D01*
X352095Y261921D01*
X352222Y261833D01*
X352329Y261745D01*
X352417Y261677D01*
X352485Y261628D01*
X352524Y261589D01*
X352534Y261579D01*
Y266593D01*
X353324D01*
Y260155D01*
D02*
G37*
%LPC*%
G36*
X156634Y128030D02*
X156585D01*
X156390Y128010D01*
X156215Y127971D01*
X156059Y127903D01*
X155932Y127835D01*
X155824Y127766D01*
X155746Y127698D01*
X155707Y127659D01*
X155688Y127640D01*
X155571Y127484D01*
X155483Y127318D01*
X155425Y127142D01*
X155376Y126976D01*
X155356Y126830D01*
X155346Y126762D01*
Y126703D01*
X155337Y126664D01*
Y126625D01*
Y126606D01*
Y126596D01*
X155356Y126352D01*
X155395Y126138D01*
X155454Y125942D01*
X155512Y125786D01*
X155581Y125669D01*
X155639Y125582D01*
X155678Y125523D01*
X155698Y125504D01*
X155834Y125367D01*
X155981Y125269D01*
X156127Y125201D01*
X156254Y125152D01*
X156380Y125123D01*
X156468Y125113D01*
X156507Y125104D01*
X156556D01*
X156683Y125113D01*
X156800Y125133D01*
X156917Y125162D01*
X157014Y125201D01*
X157092Y125230D01*
X157151Y125260D01*
X157200Y125279D01*
X157210Y125289D01*
X157317Y125367D01*
X157414Y125464D01*
X157492Y125552D01*
X157561Y125650D01*
X157619Y125728D01*
X157658Y125796D01*
X157678Y125835D01*
X157687Y125855D01*
X157746Y126001D01*
X157785Y126138D01*
X157814Y126264D01*
X157834Y126391D01*
X157843Y126489D01*
X157853Y126567D01*
Y126615D01*
Y126635D01*
X157834Y126859D01*
X157795Y127054D01*
X157736Y127230D01*
X157668Y127376D01*
X157600Y127484D01*
X157541Y127571D01*
X157502Y127620D01*
X157483Y127640D01*
X157336Y127766D01*
X157190Y127864D01*
X157034Y127932D01*
X156897Y127981D01*
X156771Y128010D01*
X156673Y128020D01*
X156634Y128030D01*
D02*
G37*
G36*
X119858Y93852D02*
X119809D01*
X119623Y93833D01*
X119458Y93794D01*
X119311Y93726D01*
X119185Y93657D01*
X119077Y93579D01*
X119009Y93511D01*
X118960Y93472D01*
X118941Y93452D01*
X118824Y93287D01*
X118736Y93111D01*
X118668Y92935D01*
X118629Y92760D01*
X118599Y92604D01*
X118590Y92545D01*
Y92487D01*
X118580Y92438D01*
Y92399D01*
Y92380D01*
Y92370D01*
X118599Y92136D01*
X118638Y91921D01*
X118697Y91746D01*
X118755Y91589D01*
X118824Y91473D01*
X118882Y91385D01*
X118921Y91336D01*
X118941Y91316D01*
X119077Y91190D01*
X119223Y91092D01*
X119380Y91033D01*
X119516Y90985D01*
X119643Y90955D01*
X119740Y90946D01*
X119780Y90936D01*
X119828D01*
X120023Y90955D01*
X120199Y90995D01*
X120355Y91053D01*
X120492Y91131D01*
X120599Y91199D01*
X120677Y91258D01*
X120726Y91297D01*
X120745Y91316D01*
X120862Y91473D01*
X120950Y91629D01*
X121018Y91794D01*
X121057Y91960D01*
X121087Y92097D01*
X121096Y92214D01*
X121106Y92253D01*
Y92282D01*
Y92302D01*
Y92311D01*
X121087Y92555D01*
X121047Y92770D01*
X120989Y92965D01*
X120911Y93121D01*
X120843Y93248D01*
X120784Y93345D01*
X120745Y93404D01*
X120726Y93423D01*
X120648Y93501D01*
X120569Y93569D01*
X120414Y93667D01*
X120267Y93745D01*
X120121Y93804D01*
X119994Y93833D01*
X119896Y93843D01*
X119858Y93852D01*
D02*
G37*
G36*
X150508Y94545D02*
X150460D01*
X150362Y94535D01*
X150265Y94525D01*
X150089Y94467D01*
X149933Y94379D01*
X149796Y94282D01*
X149689Y94184D01*
X149611Y94096D01*
X149562Y94038D01*
X149543Y94028D01*
Y94018D01*
X149475Y93911D01*
X149416Y93784D01*
X149367Y93638D01*
X149328Y93472D01*
X149260Y93131D01*
X149221Y92780D01*
X149201Y92604D01*
X149192Y92448D01*
X149182Y92302D01*
Y92175D01*
X149172Y92068D01*
Y91990D01*
Y91941D01*
Y91921D01*
Y91638D01*
X149192Y91375D01*
X149201Y91141D01*
X149231Y90926D01*
X149260Y90731D01*
X149289Y90556D01*
X149319Y90409D01*
X149358Y90273D01*
X149397Y90166D01*
X149426Y90068D01*
X149455Y89980D01*
X149484Y89922D01*
X149504Y89873D01*
X149523Y89844D01*
X149543Y89824D01*
Y89815D01*
X149611Y89727D01*
X149689Y89649D01*
X149767Y89571D01*
X149845Y89512D01*
X149992Y89424D01*
X150138Y89366D01*
X150265Y89327D01*
X150362Y89307D01*
X150401Y89298D01*
X150450D01*
X150548Y89307D01*
X150645Y89317D01*
X150821Y89376D01*
X150977Y89463D01*
X151113Y89561D01*
X151221Y89649D01*
X151299Y89736D01*
X151347Y89795D01*
X151367Y89805D01*
Y89815D01*
X151425Y89922D01*
X151484Y90058D01*
X151533Y90205D01*
X151572Y90361D01*
X151640Y90712D01*
X151679Y91063D01*
X151699Y91229D01*
X151708Y91395D01*
X151718Y91541D01*
Y91668D01*
X151728Y91775D01*
Y91853D01*
Y91902D01*
Y91921D01*
Y92204D01*
X151708Y92467D01*
X151689Y92702D01*
X151669Y92916D01*
X151630Y93121D01*
X151601Y93296D01*
X151562Y93453D01*
X151523Y93589D01*
X151494Y93706D01*
X151455Y93813D01*
X151416Y93891D01*
X151386Y93960D01*
X151367Y94009D01*
X151347Y94048D01*
X151328Y94067D01*
Y94077D01*
X151269Y94155D01*
X151201Y94233D01*
X151055Y94350D01*
X150908Y94428D01*
X150772Y94487D01*
X150645Y94525D01*
X150548Y94535D01*
X150508Y94545D01*
D02*
G37*
G36*
X139599Y138610D02*
X137590D01*
X139599Y135742D01*
Y138610D01*
D02*
G37*
G36*
X118578Y125939D02*
X118500D01*
X118334Y125929D01*
X118197Y125890D01*
X118071Y125841D01*
X117963Y125792D01*
X117875Y125734D01*
X117807Y125685D01*
X117768Y125646D01*
X117759Y125636D01*
X117661Y125519D01*
X117583Y125402D01*
X117534Y125275D01*
X117495Y125168D01*
X117476Y125070D01*
X117456Y124983D01*
Y124934D01*
Y124924D01*
Y124914D01*
X117466Y124768D01*
X117505Y124632D01*
X117544Y124505D01*
X117602Y124407D01*
X117651Y124319D01*
X117700Y124261D01*
X117739Y124222D01*
X117749Y124212D01*
X117866Y124115D01*
X117993Y124046D01*
X118119Y123997D01*
X118236Y123968D01*
X118344Y123949D01*
X118422Y123929D01*
X118500D01*
X118666Y123939D01*
X118812Y123978D01*
X118948Y124017D01*
X119056Y124075D01*
X119143Y124124D01*
X119212Y124173D01*
X119251Y124202D01*
X119261Y124212D01*
X119358Y124329D01*
X119426Y124456D01*
X119475Y124573D01*
X119504Y124690D01*
X119524Y124797D01*
X119543Y124875D01*
Y124934D01*
Y124953D01*
X119534Y125100D01*
X119495Y125226D01*
X119446Y125353D01*
X119397Y125451D01*
X119339Y125529D01*
X119299Y125597D01*
X119261Y125636D01*
X119251Y125646D01*
X119134Y125743D01*
X119007Y125812D01*
X118880Y125870D01*
X118763Y125899D01*
X118656Y125919D01*
X118578Y125939D01*
D02*
G37*
G36*
X118568Y123286D02*
X118519D01*
X118314Y123266D01*
X118129Y123227D01*
X117963Y123168D01*
X117827Y123100D01*
X117719Y123022D01*
X117641Y122964D01*
X117593Y122925D01*
X117573Y122905D01*
X117446Y122759D01*
X117349Y122603D01*
X117281Y122447D01*
X117241Y122300D01*
X117212Y122164D01*
X117203Y122066D01*
X117193Y122027D01*
Y121998D01*
Y121979D01*
Y121969D01*
X117212Y121764D01*
X117251Y121588D01*
X117310Y121423D01*
X117378Y121296D01*
X117446Y121188D01*
X117505Y121110D01*
X117544Y121062D01*
X117563Y121042D01*
X117710Y120925D01*
X117856Y120837D01*
X118012Y120769D01*
X118158Y120730D01*
X118295Y120701D01*
X118392Y120691D01*
X118432Y120681D01*
X118490D01*
X118626Y120691D01*
X118753Y120711D01*
X118861Y120730D01*
X118968Y120769D01*
X119056Y120798D01*
X119114Y120818D01*
X119153Y120837D01*
X119173Y120847D01*
X119280Y120915D01*
X119378Y120993D01*
X119456Y121081D01*
X119524Y121159D01*
X119573Y121228D01*
X119612Y121286D01*
X119631Y121325D01*
X119641Y121335D01*
X119690Y121452D01*
X119729Y121569D01*
X119758Y121686D01*
X119777Y121783D01*
X119787Y121871D01*
X119797Y121930D01*
Y121979D01*
Y121988D01*
X119777Y122183D01*
X119738Y122369D01*
X119680Y122525D01*
X119612Y122661D01*
X119553Y122769D01*
X119495Y122847D01*
X119456Y122895D01*
X119436Y122915D01*
X119290Y123042D01*
X119143Y123129D01*
X118987Y123198D01*
X118841Y123237D01*
X118714Y123266D01*
X118607Y123276D01*
X118568Y123286D01*
D02*
G37*
G36*
X366514Y43796D02*
X364495D01*
X364241Y43786D01*
X364027Y43747D01*
X363851Y43708D01*
X363705Y43650D01*
X363598Y43601D01*
X363510Y43552D01*
X363471Y43513D01*
X363451Y43503D01*
X363344Y43386D01*
X363256Y43260D01*
X363198Y43133D01*
X363159Y43016D01*
X363139Y42908D01*
X363120Y42830D01*
Y42772D01*
Y42762D01*
Y42752D01*
X363130Y42635D01*
X363149Y42528D01*
X363178Y42431D01*
X363208Y42352D01*
X363237Y42274D01*
X363266Y42226D01*
X363286Y42187D01*
X363295Y42177D01*
X363364Y42089D01*
X363442Y42011D01*
X363529Y41943D01*
X363607Y41884D01*
X363676Y41845D01*
X363734Y41816D01*
X363773Y41806D01*
X363793Y41796D01*
X363919Y41757D01*
X364066Y41728D01*
X364222Y41709D01*
X364368Y41699D01*
X364495Y41689D01*
X364602Y41679D01*
X366514D01*
Y43796D01*
D02*
G37*
G36*
X328414D02*
X326395D01*
X326141Y43786D01*
X325927Y43747D01*
X325751Y43708D01*
X325605Y43650D01*
X325498Y43601D01*
X325410Y43552D01*
X325371Y43513D01*
X325351Y43503D01*
X325244Y43386D01*
X325156Y43260D01*
X325098Y43133D01*
X325059Y43016D01*
X325039Y42908D01*
X325020Y42830D01*
Y42772D01*
Y42762D01*
Y42752D01*
X325029Y42635D01*
X325049Y42528D01*
X325078Y42431D01*
X325107Y42352D01*
X325137Y42274D01*
X325166Y42226D01*
X325186Y42187D01*
X325195Y42177D01*
X325264Y42089D01*
X325342Y42011D01*
X325429Y41943D01*
X325507Y41884D01*
X325576Y41845D01*
X325634Y41816D01*
X325673Y41806D01*
X325693Y41796D01*
X325820Y41757D01*
X325966Y41728D01*
X326122Y41709D01*
X326268Y41699D01*
X326395Y41689D01*
X326502Y41679D01*
X328414D01*
Y43796D01*
D02*
G37*
G36*
X313017Y269000D02*
X312969D01*
X312773Y268980D01*
X312598Y268941D01*
X312442Y268873D01*
X312315Y268805D01*
X312208Y268736D01*
X312130Y268668D01*
X312091Y268629D01*
X312071Y268610D01*
X311954Y268454D01*
X311866Y268288D01*
X311808Y268112D01*
X311759Y267946D01*
X311740Y267800D01*
X311730Y267732D01*
Y267673D01*
X311720Y267634D01*
Y267595D01*
Y267576D01*
Y267566D01*
X311740Y267322D01*
X311779Y267108D01*
X311837Y266912D01*
X311896Y266756D01*
X311964Y266639D01*
X312022Y266551D01*
X312062Y266493D01*
X312081Y266474D01*
X312218Y266337D01*
X312364Y266239D01*
X312510Y266171D01*
X312637Y266122D01*
X312764Y266093D01*
X312852Y266083D01*
X312890Y266074D01*
X312939D01*
X313066Y266083D01*
X313183Y266103D01*
X313300Y266132D01*
X313398Y266171D01*
X313476Y266200D01*
X313534Y266230D01*
X313583Y266249D01*
X313593Y266259D01*
X313700Y266337D01*
X313798Y266434D01*
X313876Y266522D01*
X313944Y266620D01*
X314002Y266698D01*
X314042Y266766D01*
X314061Y266805D01*
X314071Y266825D01*
X314129Y266971D01*
X314168Y267108D01*
X314198Y267234D01*
X314217Y267361D01*
X314227Y267459D01*
X314237Y267537D01*
Y267585D01*
Y267605D01*
X314217Y267829D01*
X314178Y268024D01*
X314119Y268200D01*
X314051Y268346D01*
X313983Y268454D01*
X313924Y268541D01*
X313885Y268590D01*
X313866Y268610D01*
X313720Y268736D01*
X313573Y268834D01*
X313417Y268902D01*
X313281Y268951D01*
X313154Y268980D01*
X313056Y268990D01*
X313017Y269000D01*
D02*
G37*
G36*
X320381Y271233D02*
X318362D01*
X318109Y271224D01*
X317894Y271185D01*
X317719Y271145D01*
X317572Y271087D01*
X317465Y271038D01*
X317377Y270989D01*
X317338Y270950D01*
X317319Y270941D01*
X317211Y270824D01*
X317124Y270697D01*
X317065Y270570D01*
X317026Y270453D01*
X317007Y270346D01*
X316987Y270268D01*
Y270209D01*
Y270199D01*
Y270190D01*
X316997Y270073D01*
X317016Y269965D01*
X317046Y269868D01*
X317075Y269790D01*
X317104Y269712D01*
X317133Y269663D01*
X317153Y269624D01*
X317163Y269614D01*
X317231Y269526D01*
X317309Y269448D01*
X317397Y269380D01*
X317475Y269322D01*
X317543Y269282D01*
X317602Y269253D01*
X317640Y269244D01*
X317660Y269234D01*
X317787Y269195D01*
X317933Y269165D01*
X318089Y269146D01*
X318235Y269136D01*
X318362Y269126D01*
X318470Y269117D01*
X320381D01*
Y271233D01*
D02*
G37*
G36*
X393304Y281418D02*
X393226D01*
X393177D01*
X393157D01*
X392874D01*
X392611Y281399D01*
X392377Y281389D01*
X392163Y281360D01*
X391967Y281330D01*
X391792Y281301D01*
X391646Y281272D01*
X391509Y281233D01*
X391402Y281194D01*
X391304Y281164D01*
X391216Y281135D01*
X391158Y281106D01*
X391109Y281086D01*
X391080Y281067D01*
X391060Y281047D01*
X391051D01*
X390963Y280979D01*
X390885Y280901D01*
X390807Y280823D01*
X390748Y280745D01*
X390660Y280599D01*
X390602Y280452D01*
X390563Y280326D01*
X390543Y280228D01*
X390534Y280189D01*
Y280140D01*
X390543Y280043D01*
X390553Y279945D01*
X390612Y279770D01*
X390699Y279614D01*
X390797Y279477D01*
X390885Y279370D01*
X390973Y279292D01*
X391031Y279243D01*
X391041Y279223D01*
X391051D01*
X391158Y279165D01*
X391294Y279106D01*
X391441Y279058D01*
X391597Y279019D01*
X391948Y278950D01*
X392299Y278911D01*
X392465Y278892D01*
X392631Y278882D01*
X392777Y278872D01*
X392904D01*
X393011Y278863D01*
X393089D01*
X393138D01*
X393157D01*
X393440D01*
X393703Y278882D01*
X393938Y278902D01*
X394152Y278921D01*
X394357Y278960D01*
X394533Y278989D01*
X394689Y279028D01*
X394825Y279067D01*
X394942Y279097D01*
X395050Y279136D01*
X395128Y279175D01*
X395196Y279204D01*
X395245Y279223D01*
X395284Y279243D01*
X395303Y279263D01*
X395313D01*
X395391Y279321D01*
X395469Y279389D01*
X395586Y279536D01*
X395664Y279682D01*
X395723Y279818D01*
X395761Y279945D01*
X395771Y280043D01*
X395781Y280082D01*
Y280131D01*
X395771Y280228D01*
X395761Y280326D01*
X395703Y280501D01*
X395615Y280657D01*
X395518Y280794D01*
X395420Y280901D01*
X395332Y280979D01*
X395274Y281028D01*
X395264Y281047D01*
X395254D01*
X395147Y281116D01*
X395020Y281174D01*
X394874Y281223D01*
X394708Y281262D01*
X394367Y281330D01*
X394016Y281369D01*
X393840Y281389D01*
X393684Y281399D01*
X393538Y281408D01*
X393411D01*
X393304Y281418D01*
D02*
G37*
G36*
X357469Y263725D02*
X357420D01*
X357225Y263706D01*
X357050Y263667D01*
X356894Y263608D01*
X356757Y263530D01*
X356650Y263462D01*
X356572Y263403D01*
X356523Y263364D01*
X356503Y263345D01*
X356386Y263189D01*
X356299Y263033D01*
X356230Y262867D01*
X356191Y262701D01*
X356162Y262565D01*
X356152Y262447D01*
X356143Y262409D01*
Y262379D01*
Y262360D01*
Y262350D01*
X356162Y262106D01*
X356201Y261892D01*
X356260Y261696D01*
X356338Y261540D01*
X356406Y261414D01*
X356464Y261316D01*
X356503Y261258D01*
X356523Y261238D01*
X356601Y261160D01*
X356679Y261092D01*
X356835Y260994D01*
X356981Y260916D01*
X357128Y260858D01*
X357254Y260828D01*
X357352Y260819D01*
X357391Y260809D01*
X357440D01*
X357625Y260828D01*
X357791Y260867D01*
X357937Y260936D01*
X358064Y261004D01*
X358171Y261082D01*
X358240Y261150D01*
X358288Y261189D01*
X358308Y261209D01*
X358425Y261375D01*
X358513Y261550D01*
X358581Y261726D01*
X358620Y261901D01*
X358649Y262057D01*
X358659Y262116D01*
Y262174D01*
X358669Y262223D01*
Y262262D01*
Y262282D01*
Y262291D01*
X358649Y262526D01*
X358610Y262740D01*
X358552Y262916D01*
X358493Y263072D01*
X358425Y263189D01*
X358366Y263277D01*
X358327Y263325D01*
X358308Y263345D01*
X358171Y263472D01*
X358025Y263569D01*
X357869Y263628D01*
X357732Y263676D01*
X357606Y263706D01*
X357508Y263715D01*
X357469Y263725D01*
D02*
G37*
%LPD*%
D11*
X160302Y137963D02*
X175027D01*
Y145463D01*
X160302D02*
X175027D01*
X160302Y137963D02*
Y145463D01*
X139320Y147510D02*
X155320D01*
X139320Y139510D02*
Y147510D01*
Y139510D02*
X155320D01*
Y147510D01*
X155830Y110680D02*
X171830D01*
X155830Y102680D02*
Y110680D01*
Y102680D02*
X171830D01*
Y110680D01*
X157069Y128960D02*
X173131D01*
X157069Y119960D02*
Y128960D01*
Y119960D02*
X173131D01*
Y128960D01*
X120932Y93594D02*
X135657D01*
X120932Y86094D02*
Y93594D01*
Y86094D02*
X135657D01*
Y93594D01*
X156528Y94286D02*
X171253D01*
X156528Y86786D02*
Y94286D01*
Y86786D02*
X171253D01*
Y94286D01*
X117730Y136970D02*
X133730D01*
Y144970D01*
X117730D02*
X133730D01*
X117730Y136970D02*
Y144970D01*
X135084Y102096D02*
Y108724D01*
X121456Y102096D02*
X135084D01*
X121456D02*
Y108724D01*
X135084D01*
X119613Y125670D02*
X134338D01*
X119613Y118170D02*
Y125670D01*
Y118170D02*
X134338D01*
Y125670D01*
X358982Y42529D02*
X375743D01*
X358982Y33671D02*
Y42529D01*
Y33671D02*
X375743D01*
Y42529D01*
X337643Y33671D02*
Y42529D01*
X320882Y33671D02*
X337643D01*
X320882D02*
Y42529D01*
X337643D01*
X332290Y259930D02*
Y270930D01*
X310169Y259930D02*
X332290D01*
X310169D02*
Y270930D01*
X332290D01*
X385890Y258700D02*
X393890D01*
X385890D02*
Y274700D01*
X393890D01*
Y258700D02*
Y274700D01*
X365570Y257430D02*
X373570D01*
X365570D02*
Y273430D01*
X373570D01*
Y257430D02*
Y273430D01*
X335980Y262700D02*
Y270700D01*
X351980D01*
Y262700D02*
Y270700D01*
X335980Y262700D02*
X351980D01*
M02*
